<?xml version="1.0" encoding="utf-8"?>
<!-- Generator: Adobe Illustrator 23.0.0, SVG Export Plug-In . SVG Version: 6.00 Build 0)  -->
<svg version="1.1" id="Capa_1" xmlns="http://www.w3.org/2000/svg" xmlns:xlink="http://www.w3.org/1999/xlink" x="0px" y="0px"
	 viewBox="0 0 32 47.8" style="enable-background:new 0 0 32 47.8;" xml:space="preserve">
<style type="text/css">
	.st0{fill:#0060B6;}
	.st1{fill:#2FDD00;}
</style>
<title>markerInicio_1</title>
<g>
	<g id="Capa_1-2">
		<path class="st0" d="M16,0c8.8,0,16,7.2,16,16c0,8.5-14.6,29.7-15.2,30.6L16,47.8l-0.8-1.2C14.6,45.7,0,24.5,0,16
			C0,7.2,7.2,0,16,0z M30,16c0-7.7-6.3-14-14-14S2,8.3,2,16c0,6.8,10.9,23.6,14,28.2C19.1,39.6,30,22.8,30,16z"/>
		<path class="st0" d="M16,2c7.7,0,14,6.3,14,14c0,6.8-10.9,23.6-14,28.2C12.9,39.6,2,22.8,2,16C2,8.3,8.3,2,16,2z"/>
		<path class="st1" d="M16,23c-3.9,0-7-3.1-7-7s3.1-7,7-7s7,3.1,7,7S19.9,23,16,23z M16,11c-2.8,0-5,2.2-5,5s2.2,5,5,5s5-2.2,5-5
			S18.8,11,16,11z"/>
		<circle class="st1" cx="16" cy="16" r="5"/>
	</g>
</g>
</svg>
