<svg id="Capa_1" data-name="Capa 1" xmlns="http://www.w3.org/2000/svg" viewBox="0 0 268 268"><defs><style>.cls-1{fill:#005391;}.cls-2{fill:#0060b6;}.cls-3{fill:#fff;}</style></defs><title>cicloparqueaderos</title><circle class="cls-1" cx="134" cy="134" r="134"/><circle class="cls-2" cx="134" cy="134" r="112.27"/><path class="cls-3" d="M78.91,170.64v13.21c0,.15,0,.3,0,.45H90.86c0-.15,0-.3,0-.45V170.64Zm14.82-73a12.88,12.88,0,0,0-12,1.58c-.29.2-.57.41-.83.63a26.21,26.21,0,0,0-2,10.09V151h12V110a14.1,14.1,0,0,1,5.56-11.32Zm94,14.36L114.15,85.28a26.21,26.21,0,0,0-14.84-.91l72.9,26.51a27.56,27.56,0,0,1,15.86,15,14.33,14.33,0,0,1,5,10.83v15.56h-2.73v17.14H193v14.43c0,.15,0,.3,0,.45H205c0-.15,0-.3,0-.45V136.71A26.34,26.34,0,0,0,187.7,112Z"/><path class="cls-3" d="M171.79,112,98.24,85.28A26.27,26.27,0,0,0,63,110v73.89c0,.15,0,.3,0,.45H74.94c0-.15,0-.3,0-.45V169.41H177.12v14.43c0,.15,0,.3,0,.45h11.93c0-.15,0-.3,0-.45V136.71A26.34,26.34,0,0,0,171.79,112ZM75,152.27V110A14.3,14.3,0,0,1,94.15,96.52l73.55,26.75a14.34,14.34,0,0,1,9.42,13.44v15.56Z"/></svg>