<?xml version="1.0" encoding="utf-8"?>
<!-- Generator: Adobe Illustrator 23.0.0, SVG Export Plug-In . SVG Version: 6.00 Build 0)  -->
<svg version="1.1" id="Capa_1" xmlns="http://www.w3.org/2000/svg" xmlns:xlink="http://www.w3.org/1999/xlink" x="0px" y="0px"
	 viewBox="0 0 120.3 120.3" style="enable-background:new 0 0 120.3 120.3;" xml:space="preserve">
<style type="text/css">
	.st0{fill:#0060B6;}
	.st1{fill:#FEFEFE;}
	.st2{fill:#3F6FAA;}
</style>
<title>metro</title>
<path class="st0" d="M120.3,60.4c0,33.1-26.9,60-60.1,59.9c0,0,0,0,0,0h-0.1C25,120.2-0.6,90.9,0,58.7C0.6,26.7,27.6-0.1,60.3,0
	c33.2,0,60,26.9,60,60.1c0,0,0,0,0,0L120.3,60.4z"/>
<path class="st0" d="M60,110.5c-27,0.6-51-23-50.3-51.5c0.6-25.9,22.5-50,52-49.3c27.9,0.9,49.8,24.1,49,52
	C110,88.1,87.7,111,60,110.5z"/>
<path class="st1" d="M60.3,91.8c-7.8,0-15.7-0.1-23.5,0.1c-2.2,0-2.6-0.7-2.9-2.6c-1.6-11.1-1.6-22.3,0-33.4c1.2-9,2-18.1,2.8-27.1
	c0.2-2.2,0.8-3.1,3.3-3.1c13.5,0.1,27,0.1,40.5,0c2,0,2.5,0.7,2.7,2.5c1.5,14.1,3.1,28.3,4.8,42.4c0.4,4-0.4,8-0.5,12
	c0,2.3-0.4,4.6-0.4,6.9c0,1.8-0.6,2.4-2.5,2.4C76.4,91.8,68.3,91.8,60.3,91.8z"/>
<path class="st2" d="M60.5,71.2c-6.2,0-12.5,0-18.7,0c-1.5,0-1.9-0.4-1.8-1.9c1-11.2,2-22.4,2.8-33.7c0.1-1.3,0.5-1.6,1.7-1.6
	c10.6,0,21.1,0,31.7,0c1.3,0,1.8,0.3,1.9,1.7c1,11.3,2,22.6,3.2,33.9c0.2,1.8-0.8,1.5-1.8,1.5L60.5,71.2z"/>
<path class="st2" d="M47,82.2h-5c-2.5,0-3.6-1.8-2.6-4.1c0.3-0.7,0.8-0.6,1.4-0.6h12.8c2.3,0,1.1,1.8,1.3,2.8s0.2,2-1.5,1.9
	C51.4,82.1,49.2,82.2,47,82.2z"/>
<path class="st2" d="M72.7,82.2c-2.1,0-4.2-0.1-6.2,0c-1.9,0.1-1.7-1-1.6-2.1s-0.8-2.7,1.5-2.7c4.2,0.1,8.4,0.1,12.7,0
	c2.1,0,1.4,1.5,1.4,2.5s0.6,2.4-1.4,2.3C77,82.1,74.9,82.2,72.7,82.2z"/>
</svg>
