<svg xmlns="http://www.w3.org/2000/svg" viewBox="0 0 696.72 471.09"><title>Recurso 1</title><g id="Capa_2" data-name="Capa 2"><g id="Layer_1" data-name="Layer 1"><path d="M581.74,220.93l4.86-7.42c-3.78-.33-7.59-.5-11.45-.5a128.94,128.94,0,0,0-45.78,8.35c-.34-1.08-.64-2-.89-2.86a1.92,1.92,0,0,0,.28-2.05c-.66-2.2-4.46-13.74-4.72-14.52a.92.92,0,0,0,.43-1.36,14.75,14.75,0,0,0-1.08-2.21c-.32-.37-.88-.07-1.28.09-1,.4-2,.72-3.46,1.21,2-.71,4-1.52,4-1.52s-4.29-16.49-6.3-22.46-6.15-20.11-6.18-20.23,0,0,0,0a3,3,0,0,1-.08-1.54,3,3,0,0,0-.09-1.77,1.74,1.74,0,0,0-1.16-1.09c-.52-.2-1.11-.38-1.35-.9a.46.46,0,0,0-.47-.27L503,136.33s-.54-1.12.44-1.49l.84-.3c.71-.24,1,0,1.21.71s1,4,2.72,3.44c1.55-.48,2.05,1.81,2.05,1.81s3.19,8.36,4.38,11.92A31.21,31.21,0,0,0,525.46,167c6.61,4.75,20.36,5.09,29.87,4.75,9.25-.33,34.8-1.82,37.69-2h.26s4.13-.2,4.13-4S594,162.12,593,162.2s-37.68,1.33-50.24,1c-5.25-.13-13-.17-18-10.81-6.42-13.7-17.91-71.64-17.91-71.64s-6.1-36-13.08-44.27l0,0c-.11,0-.92-.34-1-2s0-1.39,0-1.39-.37-.83,2,.11c2.21.95,9.74,4.67,9.74,4.67a3.13,3.13,0,0,0,4.31-1.55c1.87-3.43,1.32-5.59,1.32-5.59a3.59,3.59,0,0,0-2.33-2.43c-2-.69-9.17-2.63-9.74-2.91a2.1,2.1,0,0,1-.78-.58c2.16.08,4.63.11,6.43,0A.56.56,0,0,0,504,25a5.47,5.47,0,0,0,3-1.24c1-.71,2.48-7.94,2.43-10.21s-.92-1.84-.92-1.84-4.05,0-5.83.13c-.33,0-.6.08-.83.12a17.28,17.28,0,0,1-1.83.1c-.51,0-2.52.16-5,.39-.28-2-1.4-4.4-5.11-4.38-2.74,0-4.26-.12-5.51-.11-.15,0-.27,0-.41,0-4.22-3.28-8.08-6.21-8.82-6.6-.47-.24-4.21-3.4-5.25.75a5.27,5.27,0,0,0-.14.72v0a1.7,1.7,0,0,0,0,.32c0,1.18.89,1.4,2.54,1.87,1,.28,4.36,2.37,8.09,5.07a8.88,8.88,0,0,0-1,4.28,1.36,1.36,0,0,0-.54.07c-.52.19-1-.52-1.65-.57-.45,0-2.3-.07-3.31-.08l-.17-.15A52.46,52.46,0,0,0,467.64,10a8,8,0,0,1-2.46-2.75,6.43,6.43,0,0,0-6-3.9c-4.51.13-10.8,4.08-12,12.63a7.92,7.92,0,0,0,.67,4.39l-.07.06A7.13,7.13,0,0,0,452.49,24c3.18.77,9.19,1.44,11.22,2.14.07,1.14.46,4.33,2.48,6.28,2.5,2.41,3.07,3,3.07,3a7.77,7.77,0,0,0,3.25,1.08v.1a4.22,4.22,0,0,1,3,1.69,5.25,5.25,0,0,0,3.75,2.29c1.19.12,2.89-.83,3.68-.59A17.65,17.65,0,0,1,486,41.2l0,0S489,42.4,492.81,57s8.76,40,11.16,51.33c2.29,10.82,1.93,9.46,1.89,9.3,0,.15.51,2.21-2.41,2.91s-20.15,6.21-20.15,6.21-1.88.73-1.25,3.24,2.92,9,2.92,9,.6,2.3,2.61,1.46c.71-.3,1.24-.47,1.24-.47s1.69-.65,2.15.95l4,13.05a.47.47,0,0,0-.28.55,2.17,2.17,0,0,1-.54,1.53,1.78,1.78,0,0,0-.26,1.57,3.08,3.08,0,0,0,1,1.46,3,3,0,0,1,.87,1.28s0,0,0,0l1,3.79s2,4.24-3.47,10.86c-4.51,5.48-29.59,38.18-29.59,38.18l-67.51,87.91c-8,.67-18.27,1.5-22.78,1.8l-2.81.21c1.88-3.41,3.5-6.33,4.63-8.35l9.49.1a2.77,2.77,0,0,0,2.7-2.13l.94-6.23a2.19,2.19,0,0,0-2.15-2.64L347,282.55a2.27,2.27,0,0,0-2.24,1.71l-.61,7.87a1.83,1.83,0,0,0,1.83,2.26l19.36.21c-.73,1.54-2.35,4.9-4.63,9.26-12.05,1-30.41,2.53-46.91,3.92-2.47-7.16-19.39-56.2-22.65-66.32-2.8-8.71-11-31.49-14.23-40.4a.54.54,0,0,0,.18-.77s-.72-1.85-1.36-3.73.38-2.33.38-2.33,1.16-.61,1.84-.95a1,1,0,0,0,.64-1.16,11,11,0,0,0-.68-1.63c-.22-.45-.5-1-1.91-.59-.53.14-1.91.56-3.71,1.11l-6-18s-.49-1.84-3.41-4.1c-1.41-1.09-2.24-1.89-3-2.39,3.17-2.57,8.63-10.16,10.06-12.16,3.45-.72,7-1.64,9.87-2.38,4.83-1.24,19.24-4.23,21.51-5.24,1.42-.63,3-1.53,1.77-5-.84-2.39-3.35-10.68-27.16-9.08a332.57,332.57,0,0,1-52.95-.23c-15.51-1.12-25.22,3.6-27.11,10.54a22.65,22.65,0,0,0-1,6.83,5.86,5.86,0,0,0,4.38,6.15s6.21,2.09,13.39,3.92l-3.15-.1s-1.47-.14-1.4,1.77c0,.44.18,2,1.7,1.89,2.43-.14,17.17-.6,20-.69l.26.2-19.56,1a1.53,1.53,0,0,0-1.38,1.59c0,.42.34,1.38,1.79,1.23,2.6-.28,19.71-1.59,19.71-1.59a1.07,1.07,0,0,0,1.11-1.13c1.18.54,2.26.41,4.65.62,2.13.19,3.94.71,7.16-.06.23.57.45,1.17.67,1.77a1.9,1.9,0,0,0,.22.44c-8.47,1.13-26.67,3.1-29.66,3.21-2.41.09-3.24,1.91-3,2.94a2.11,2.11,0,0,0,2.05,1.58c1.44.06,3.38-.33,11.44-1.5,7.32-1.07,17.26-2.6,19-2.88.76,1.26,2.39,4.06,5.14,4.17a46.35,46.35,0,0,0,5.28,0c2.07-.2,1.13,1.43,2.26,3.31l6.51,16.07-7.45,2.37c-.37.26-.64.26-.49.94s.53,1.13,1.06,1a.67.67,0,0,1,.84.46c.28.92.56,1.91.9,3.07-.7.66-1.72,1.59-1.85,1.7a6.83,6.83,0,0,1-3.22,1,27.55,27.55,0,0,0-5.72-1.3,39.82,39.82,0,0,0-7.73-.28h0l-.16,0c-1.08.08-1.69.19-1.69.19v0c-.43.08-.93.18-1.83.38-2.06.46-3.51,1.63-3.63,2.3-.38,2.29,3.54,4.1,3.54,4.1s1.95,1.13,2.82,1.47,6.11,2.62,11.1,2.57,6.63-1.72,7.73-2.88a2.53,2.53,0,0,0,.39-2.55l2.94-2a3,3,0,0,0,1.42-.19l2.56-.91c.38,1,1.22,3.32,2.4,6.51a25.11,25.11,0,0,1-2.15,5.24s-4.36,5.63-12.53,15.25c-3.67,4.33-8.58,10.33-13.46,16.34a133.88,133.88,0,0,0-89.22-34c-44.28,0-83.6,21.58-108.37,54.95l-16.32,1.31s-1.94,0-1.94,2.4c0,2,.15,22,.21,29.11a138.86,138.86,0,0,0-6.56,22.6c-1.2,6-8.34,13.71-13.11,15.05,0,0-4.48,1.74-4,3,1.23,3.47,11,1.14,14.54.49,7.39-1.35,11-6,11.39-8.79a129.77,129.77,0,0,1,9.53-34.54l1.54.75a121.6,121.6,0,1,0,223.91,94.88c15.32,2.38,31.64,4.91,43.68,6.74-6,11-13,23.69-16,29.08l-17.15,0a2.75,2.75,0,0,0-2.67,2.17l-.86,6.23a2.17,2.17,0,0,0,2.18,2.61l39.21.75a2.26,2.26,0,0,0,2.22-1.74l.5-7.88a1.83,1.83,0,0,0-1.86-2.23l-11.61,0a291.82,291.82,0,0,1,15.1-27.7c2.82.42,5.11.76,6.68,1,16,2.23,21.85,3.17,28.42,3.93,3.55.41,5.37.57,6-2.22.69-3.13-2.84-3.95-2.84-3.95l70.85-96h-.16l.07-.1s.55,0,.84,0c3.65,0,5.63-.77,5.58-3.91a3.14,3.14,0,0,0-2.39-3.28c5.15-6.39,31.88-39.65,54.32-69.38,21-27.77,22.66-29.57,22.66-29.57s1.59-1.87,3-.95a4.21,4.21,0,0,1,1.73,3.17s5.77-1.51,8.13-2.25l-1.18.42a38.42,38.42,0,0,1-6.12,1.68c-1.16.19-.91,1-.91,1s.33,1.29.6,2.07a.84.84,0,0,0,.77.55l4.58,15.23s.06,1.61,2,1.17c.33-.07.88-.22,1.55-.42.31,1.29.61,2.57.92,3.85a129.7,129.7,0,0,0-64.64,70.73c-19.24,48.94-7,87-6.79,89.74a2.53,2.53,0,0,1-2.49,2.9s-4,.32-2.41,1.77,4.58,1,7.24,0,2.25-3.62,2.17-5.71c-.07-1.79-1.32-14.43-1.67-18a165,165,0,0,1,4.53-41.64,123.31,123.31,0,0,0-1.14,16.63A121.58,121.58,0,1,0,581.74,220.93ZM237.39,261a128.66,128.66,0,0,1,30.7,50.71l-3.92.36a121.47,121.47,0,0,0-29.22-48C235.74,263.07,236.55,262,237.39,261Zm-51.2,176.62-15.91-50,37.51,37.12A95.86,95.86,0,0,1,186.19,437.61Zm-.46.21a95.32,95.32,0,0,1-22.6,6.39l-3.24-66.84,9.62,9.52Zm-25.88-61.2-.42-8.55a4.22,4.22,0,0,1,1.77-.39l2.73,1.69,5.25,16.48ZM52.69,349.52a96.88,96.88,0,0,1,.71-11.74l55,11.69L53.68,363.36A97.18,97.18,0,0,1,52.69,349.52Zm.77-12.24a95.41,95.41,0,0,1,6.33-24l61.13,33-11.4,2.9Zm107-3.87.17.08-.86.36Zm-.56-.24-.27.18v-.28C159.7,333.09,159.79,333.14,159.88,333.17Zm-1-.25.22,0v.71l-1.5,1a17.54,17.54,0,0,0-2.23-1.18,1.27,1.27,0,0,0,.34.05h.21l.09,0,.09,0a1.63,1.63,0,0,0,.57-.21h0A4.29,4.29,0,0,1,158.89,332.92Zm19.5-7.33c-1.93,1-3.15,1.61-3.15,1.61l-7.43,3.21a1.74,1.74,0,0,0-.93-.27l-.11,0,.26-1,15.68-10c-1.18,1.46-2,2.39-2.16,2.62A13.27,13.27,0,0,0,178.39,325.59Zm-12.18,4.71a1.91,1.91,0,0,0-.32.16,4.25,4.25,0,0,1-1.38.35l1.89-1.21Zm-2.63.5a3.9,3.9,0,0,1-1.24-.35,1.59,1.59,0,0,0-.65-.24l-.13,0a1.08,1.08,0,0,0-.19,0h0l-.2,0-.13,0a1.68,1.68,0,0,0-.67.24,4.42,4.42,0,0,1-.68.21l.08-4.27,10.67-11.77-3.81,14.26Zm-4.43-.06a4.13,4.13,0,0,1-1.11,0,4.27,4.27,0,0,1-1.26-.38,1.67,1.67,0,0,0-.44-.23l2.87-3.16Zm-16.08.39h0a4.29,4.29,0,0,1-2,1.18,4.16,4.16,0,0,1-1.31.15,1.76,1.76,0,0,0-.79,0l-.16,0h-.07l-.08.05-.15.06-.16-6.64,4.78,5Zm-5,1.64-4.77-2.95L129,316.27l8.83,9.21Zm-.15.51a2,2,0,0,0-.2.42,4.24,4.24,0,0,1-1.55,1.7,4.13,4.13,0,0,1-1,.45l-1.66-5.29Zm-8.63,13.42a1.7,1.7,0,0,0-.33.59,1.72,1.72,0,0,0,.33,1.63h0l.11.27-1,.55-6.09-3.29,4.38-1.11Zm.29,3a4.26,4.26,0,0,1,.16.79l-.8-.43Zm11,17.12a1.64,1.64,0,0,0,.24.21,1.61,1.61,0,0,0,.78.26l-1.07.64Zm14.92-1.24c.46-.19.91-.41,1.34-.64l.54.33A4.33,4.33,0,0,1,155.42,365.56Zm80.86-50.92,1.22-.61c.06.16.12.32.19.48Zm-1.39.13c-16.38,1.52-32.19,3-36,3.41a29.31,29.31,0,0,0-4.83,1c-2.46-.4-1.15-2.5-1.15-2.5s2.93-3.56,7-8.56L225.11,292a95.28,95.28,0,0,1,12.19,21.56Zm-33.95-7.89c5.56-6.79,12.84-15.74,18-22.24q3.09,3.35,5.84,7ZM212,279.74c1,1.07-.23,3-.75,3.74-9.65,12.08-21.85,27.36-27.55,34.44l-16.49,10.55,3.92-14.67,36.18-39.89q1.16.9,2.28,1.83l-.92,1A33.57,33.57,0,0,1,212,279.74Zm-40.59,33L185.22,261a96,96,0,0,1,21.7,12.58Zm-.74.82-10.94,12.06L161,254.53a95.13,95.13,0,0,1,23.79,6.3Zm-11.45,12.63L155.74,330h-.08a2,2,0,0,0-.34.06,2,2,0,0,0-.62.25,4.31,4.31,0,0,1-2.27.35,3.93,3.93,0,0,1-1.27-.35,1.75,1.75,0,0,0-1-.3,1.72,1.72,0,0,0-.68.14,1.58,1.58,0,0,0-.46.25,4.31,4.31,0,0,1-3.55.12,1.74,1.74,0,0,0-2,.11l-5.14-5.38-1.69-70.82a96.62,96.62,0,0,1,23.79,0Zm-23.06-71.67,1.67,70.22-9.15-9.55L111.78,261A94.78,94.78,0,0,1,136.17,254.51Zm-24.86,6.69,16.6,53.16L89.38,274.13A95.68,95.68,0,0,1,111.31,261.2ZM89,274.44l39.27,41,4.36,14L72,291.85A96.58,96.58,0,0,1,89,274.44Zm43.86,55.71,1.82,5.83a1.76,1.76,0,0,0-.69.33,1.7,1.7,0,0,0-.63,1.54h0a4.28,4.28,0,0,1-.88,2.13,4.1,4.1,0,0,1-.95.91,1.36,1.36,0,0,0-.32.21C115,333,81.73,316.49,62.69,306.87a96,96,0,0,1,9-14.62ZM126,345l-4.36,1.11L60,312.79c.23-.57.48-1.14.73-1.71Zm-4.43,1.65,6.28,3.39-4,2.2-13.24-2.82Zm6.81,3.68,1.33.72c0,.05,0,.09,0,.14a4.33,4.33,0,0,1-.29,1.28,1.71,1.71,0,0,0-.24.9l-4.57-1Zm7.12,13.07.06.09.09.12a.61.61,0,0,0,.07.1l.06.05a1.63,1.63,0,0,0,.31.27,1.68,1.68,0,0,0,1,.27,4.37,4.37,0,0,1,2.1.95,4.18,4.18,0,0,1,.82.91l-.08,2.07-7.05,4.23Zm4.41,5.43-.17,4.18L129.53,384.1l3.15-10.93Zm.52-.31,2.41-1.45a4.37,4.37,0,0,1,1.86.22l.22.1-4.65,5.05Zm11.34-.46a1.66,1.66,0,0,0,.62.23l.24,0,.12,0a1.32,1.32,0,0,0,.39-.06,1.47,1.47,0,0,0,.61-.24,4.49,4.49,0,0,1,2.29-.3,4,4,0,0,1,1.26.38,1.7,1.7,0,0,0,1,.31,1.5,1.5,0,0,0,.63-.11h0l.38,7.78-8.38-8.29A3.6,3.6,0,0,1,151.77,368.06Zm10.63-.23a3.69,3.69,0,0,1,.56.19,1.61,1.61,0,0,0,.61.23l.12.38Zm1.71.45.13,0,4.89,2.26a5.13,5.13,0,0,0,1.27,2.28L164.35,369Zm-54.59-18.57,13.68,2.9L60.42,387.27a94.87,94.87,0,0,1-6.67-23.41ZM124,352.77l5.32,1.13.06.18a0,0,0,0,1,0,0h0a1.2,1.2,0,0,0,.21.34,1.79,1.79,0,0,0,.46.45,4.32,4.32,0,0,1,1.22,2,4.38,4.38,0,0,1,.17,1.3,1.81,1.81,0,0,0,.11,1,1.74,1.74,0,0,0,1.31,1h0a4.28,4.28,0,0,1,1.81,1.42,4,4,0,0,1,.55,1l-2.95,10.2L73,408.47a95.58,95.58,0,0,1-12.35-20.73Zm8.1,20.78-3.29,11.39L90.88,426.07a96.83,96.83,0,0,1-17.6-17.2ZM128.45,386l-15.19,52.62a95.39,95.39,0,0,1-22-12.26Zm.77-.83,10.49-11.4-2.85,70.83a95.24,95.24,0,0,1-23.12-5.8Zm11-12,5.16-5.61a5.21,5.21,0,0,1,.46.3,1.7,1.7,0,0,0,.88.51h0a1.79,1.79,0,0,0,.69,0l.23-.07a2,2,0,0,0,.55-.25,4.23,4.23,0,0,1,1.91-.4l9.23,9.12,3.27,67.44a96.84,96.84,0,0,1-25.27.4Zm67.94,51.23L170,386.61l-5.36-16.83,7,4.36a40.72,40.72,0,0,0,6.7,5.27,29.45,29.45,0,0,0,6.43,2.9l40.18,25A96.32,96.32,0,0,1,208.18,424.45Zm17-17.56L186.72,383c12.1,3.72,29.9,5.9,29.9,5.9l17.92,2.81A95.64,95.64,0,0,1,225.22,406.89Zm34.57-246.72a18.83,18.83,0,0,1-4.65,3.94,1.47,1.47,0,0,0,.08-.3,26.69,26.69,0,0,0,.33-4.23c3.55-1.53,5.26-2,6.85-2.79l.82-.42C262.31,157.37,261.17,158.62,259.79,160.17Zm7.57,63a3.34,3.34,0,0,1,3.78-1.51c4,11.05,9.35,25.77,13.91,38.86,7.16,20.58,14.32,41.52,16.63,48.28l-22.2,1.88a138.31,138.31,0,0,0-35.6-57.89C254.7,239.15,266.15,224.78,267.36,223.17ZM40.76,292.75c-.38-.18-.89-.42-1.45-.66C60.25,251.57,101.79,224,149.61,224a122.59,122.59,0,0,1,83.27,32.66l-2.48,3.07A121.59,121.59,0,0,0,40.92,292.83ZM671,342.32a95.57,95.57,0,0,1-7.2,36.48l-60.06-32.39,13.13-3.23,52.88,11.67.11-.49-51.89-11.45,52.25-12.83A96.92,96.92,0,0,1,671,342.32Zm-58.1,88.09-15.91-50,37.51,37.11A95.53,95.53,0,0,1,612.85,430.41Zm-.47.2a94.66,94.66,0,0,1-22.59,6.4l-3.25-66.84,9.63,9.52Zm-25.87-61.19L586,359.33l4.57,2.84,5.24,16.48Zm47.07-103-35.45,39.08,13.75-51.66A96,96,0,0,1,633.58,266.4Zm-36.19,39.89L587,317.74l2.79-70.11a95.33,95.33,0,0,1,21.61,6Zm-34.56-59,1.55,65.45c-7.6-16.22-15-33.81-18.15-41.08-1.6-3.73-4-10.62-6.61-18.34A95.25,95.25,0,0,1,562.83,247.3Zm25.1,94.54a12.78,12.78,0,0,0-.7-3.73l1.48.8Zm-24.49-9.91c.5.79,1,1.54,1.45,2.25v.47l0,.05-1.09.28-.85-2.72Zm1,3.41c-.12.18-.24.37-.35.57l-.14-.45ZM561,333.48l1.45-.93.8,2.55-1.48.38C561.56,334.82,561.31,334.15,561,333.48Zm2.4,2.11.3.93a11.82,11.82,0,0,0-.68,1.6l-.2.11L562,336Zm16.83-5,5.88-3.76-.34,8.41A12.94,12.94,0,0,0,580.27,330.58Zm-.58-.22a12.5,12.5,0,0,0-2.8-.71l9.56-10.55-.28,7.11Zm-4.54-.85a13.56,13.56,0,0,0-2.4.23q-1.53-2.91-3.14-6.14l5.67,5.92Zm-40.91-43.57-18.2-19a97.19,97.19,0,0,1,11.06-7.5Q530.76,273.49,534.24,285.94Zm15.11,49.41c.35,1,.69,2,1,3l-2.08.53-7-3.77C544,335.2,546.86,335.28,549.35,335.35Zm1.2,3.51c.18.52.35,1,.53,1.55L549,339.26Zm.78,2.26.18.52-13.88.5,10.6-2.69ZM568.14,353a12.42,12.42,0,0,0,2.29,1.19l2.83,2.8-3.2,1.92C569.47,357.05,568.82,355.08,568.14,353Zm3.39,1.57a12.73,12.73,0,0,0,3.62.53c.38,0,.77,0,1.14-.06l-.26.28-2.32,1.4Zm12.89-3.46.69-.17.36,7.42-6.3-3.92A12.72,12.72,0,0,0,584.42,351.14Zm.61-.67.05-.07v.06Zm2.78-6.33h0l1.33-5,4.33,2.34-5.72,2.85Zm1.49-5.49.39-1.45,8.6,1.9-4.24,2.11Zm-.46-.25-1.87-1c-.13-.3-.27-.59-.42-.88l2.64.58Zm-2.55-2.47.37-9.44,6.46-4.13-3.8,14.24Zm.4-10.06.29-7.35,10.13-11.17-3.8,14.29Zm-.21-7.55-10.2,11.25H576l-7.14-7.47c-1.31-2.64-2.63-5.4-4-8.21l-1.58-66.64a98.07,98.07,0,0,1,11.82-.72,97.08,97.08,0,0,1,14.15,1Zm-70.84-51.08L534.53,287c.78,2.77,1.55,5.47,2.31,8.12l-17.19,2.57-21-13A96.24,96.24,0,0,1,515.64,267.24Zm3.24,30.54-3.92.59a6.9,6.9,0,0,0-5,2.5c-1.67,2.32-1.32,3.89.29,7.55,1.09,2.47,3.67,8.24,5.83,13.08l-29.45-15.91a95.9,95.9,0,0,1,11.7-20.54Zm-32.43,8.28,30,16.2,3.13,7s1.52,3.35,3.39,4.34,3.5,1.44,9.36,1.4c1.77,0,4.69,0,7.9.11l7.37,4L536.17,342l-56-11.91A95,95,0,0,1,486.45,306.06Zm-7.11,36.26a96.75,96.75,0,0,1,.72-11.74l54.85,11.65-55.54,2C479.36,343.58,479.34,343,479.34,342.32Zm80.91,22.52-.7.42.36-1.24C560,364.29,560.13,364.57,560.25,364.84Zm.19.47q1,2.52,2,4.78l-6.28,6.81L559.34,366Zm9.78-5.87,3.41-2.05.28.27-3.18,3.45C570.57,360.56,570.39,360,570.22,359.44Zm3.85-2.32.75-.45-.57.62Zm2.29-1.37,1.53-.92.63-.17,7,4.35.48,9.88-11.37-11.25Zm9.63,3-.38-7.87,1.27-.32,3.47,10.9Zm-.41-8.39,0-.57a12,12,0,0,0,.73-1.12l.45,1.41Zm1-2.32a12.76,12.76,0,0,0,1.07-3.06l6.36-3.17,8.25,4.45-15.07,3.7Zm8-6.51,4.48-2.23,16.63,3.67L603,346.05Zm5.2-2.59,64.37-32.08a95.09,95.09,0,0,1,5.94,22.75l-53.29,13.09Zm-.78-.17-9.19-2L593.75,322l58-37.14A95.81,95.81,0,0,1,664,306.36Zm-5.07-17.51,3.91-14.69L634,266.71a96.68,96.68,0,0,1,17.48,17.7Zm-114,28.13s13.5-.65,33.29-1.54l-32.87,8.34q-.48-3.36-.74-6.78Zm35.78-1.66c9.75-.44,20.89-.93,32.61-1.43l-61.24,33.8a95.28,95.28,0,0,1-6.66-23.41Zm33.74-1.48,3.51-.15.13,0q3.48,9.69,6.52,17.16l-.69,2.38-59.28,35.63a95.41,95.41,0,0,1-12.35-20.74Zm9.27,20.13-3.29,11.38-37.88,41.14a96.51,96.51,0,0,1-17.6-17.2Zm-3.6,12.47-15.19,52.62a96.14,96.14,0,0,1-22-12.26Zm.76-.83,6.82-7.4c1.1,2.53,2.15,4.79,3.14,6.82l-2.32,60a95.28,95.28,0,0,1-23.11-5.8Zm10.43.37c10.55,21.23,13.73,13.32,4.6-16.69l3.37-3.65L586,369.64l3.28,67.44a97,97,0,0,1-14.14,1,95.05,95.05,0,0,1-11.13-.65Zm68.54,38.88-38.23-37.83-5.36-16.83,60.32,37.51A96,96,0,0,1,634.84,417.24Zm17-17.55L591,361.84l-3.64-11.43L603,346.59l60.6,32.68A95.67,95.67,0,0,1,651.87,399.69Z"/><path d="M212.09,169.83c2.68-.33,20.41-2,20.41-2a1.11,1.11,0,0,0,1.12-1.34c-.11-.93-.9-1-1.48-1-1.79.13-20.43,1.82-20.43,1.82s-1.65.09-1.51,1.53C210.24,169.28,210.58,170,212.09,169.83Z"/><path d="M505.86,117.58h0Z"/><path d="M524.52,140.21C530,160.72,540,160.35,545.4,160.45c12.24.21,47.77-1.66,47.77-1.66,10.68-.08,10.28-9.85,10.28-9.85l4.34-83.39s4.24,0,4.41-4.25S607.57,57,607.57,57s-42.52-.73-55.59-.46c-7.28.15-11.29,2.38-11.29,2.38s-24.48,14-28,15.92A4,4,0,0,0,510.56,80S521,127.06,524.52,140.21Z"/></g></g></svg>