<?xml version="1.0" encoding="utf-8"?>
<!-- Generator: Adobe Illustrator 23.0.0, SVG Export Plug-In . SVG Version: 6.00 Build 0)  -->
<svg version="1.1" id="Capa_1" xmlns="http://www.w3.org/2000/svg" xmlns:xlink="http://www.w3.org/1999/xlink" x="0px" y="0px"
	 viewBox="0 0 73.8 44.5" style="enable-background:new 0 0 73.8 44.5;" xml:space="preserve">
<style type="text/css">
	.st0{fill:#FEFEFE;}
	.st1{fill:#0060B6;}
</style>
<title>Recurso 12</title>
<g id="Capa_1-2">
	<g id="XMLID_1_">
		<g>
			<path class="st0" d="M70.9,6.7c0,2.8,0,5.6,0,8.5c-0.1,1.6-1.4,2.9-3,2.9c-3.5,0-6.9,0-10.4,0c-1.1,0-1.3-0.3-1.3-1.3
				c0-1.9,0-3.8,0-5.8c0-1.9,0.1-3.9,0-5.8c0-1.1,0.2-1.4,1.3-1.4c3.4,0.1,6.8,0,10.2,0c1.6-0.1,2.9,1.1,3.1,2.6
				C70.9,6.5,70.9,6.6,70.9,6.7z"/>
			<path class="st0" d="M63.6,33.7c0.4,0.3,0.2,0.6,0.1,1.1c-0.2-0.4-0.6-0.6-0.4-1C63.4,33.7,63.5,33.7,63.6,33.7z"/>
			<path class="st1" d="M58.9,29.6c-0.1-0.2,0.1-0.3,0.3-0.3s0.4,0,0.5,0.2c0,0.2-0.1,0.3-0.3,0.3C59.1,29.9,59,29.8,58.9,29.6z"/>
			<path class="st0" d="M59.1,36.7c0,1.4-1.4,3-2.6,3c-0.6,0-2.7-2-2.7-2.7c0.2-1.4,1.2-2.6,2.6-2.8C57.9,34.3,59,35.4,59.1,36.7z"
				/>
			<rect x="55" y="29" class="st0" width="3.4" height="0.2"/>
			<path class="st0" d="M54.1,29.3c0.1,0,0.2,0,0.3,0.1c-0.2,0.5-0.6,0.5-1.1,0.5C53.4,29.5,53.7,29.2,54.1,29.3z"/>
			<path class="st0" d="M53.3,29.9C53.3,29.9,53.3,29.9,53.3,29.9L53.3,29.9L53.3,29.9C53.3,29.9,53.3,29.9,53.3,29.9z"/>
			<path class="st0" d="M53.3,29.9C53.3,29.9,53.3,29.9,53.3,29.9L53.3,29.9C53.3,29.9,53.3,29.9,53.3,29.9z"/>
			<path class="st0" d="M53,4.9c0,4.1,0,8.2,0,12.3c0,0.9-0.3,1-1.1,1c-2.1,0-4.3,0-6.4,0c-2.1,0-4.3,0-6.4,0c-0.8,0-1-0.2-1-1
				c0-4.1,0-8.3,0-12.4c0-0.8,0.3-1,1-0.9c4.3,0,8.6,0,12.9,0C52.8,3.8,53,4,53,4.9z"/>
			<path class="st0" d="M53.3,29.9c-0.1,0.3-0.3,0.6-0.7,0.5c-0.1,0-0.2-0.2-0.1-0.3C52.7,29.7,53,29.9,53.3,29.9z"/>
			<path class="st0" d="M50.3,32.6c0,0.1,0.1,0.3,0.1,0.4c0,0.2,0,0.4-0.4,0.4c-0.1-0.1-0.2-0.2-0.2-0.3
				C49.8,32.8,50,32.7,50.3,32.6z"/>
			<path class="st0" d="M34.9,4.8c0,4.1,0,8.3,0,12.4c0,0.8-0.3,1-1,1c-2.2-0.1-4.4-0.1-6.6-0.1c-2.1,0-4.2,0-6.3,0
				c-0.8,0-1.1-0.2-1.1-1.1c0-4.1,0-8.2,0-12.3c0-0.7,0.1-1,0.9-1c4.3,0,8.7,0,13,0C34.6,3.8,34.9,4,34.9,4.8z"/>
			<path class="st0" d="M22.2,31.8c-0.7,0-0.7-0.6-1.2-1C22.3,30.6,22,31.4,22.2,31.8z"/>
			<path class="st0" d="M20.7,30.3l-0.4,0.1c-0.2,0-0.4-0.1-0.4-0.3c0.1-0.1,0.1-0.2,0.3-0.2C20.5,29.9,20.6,30.1,20.7,30.3z"/>
			<path class="st0" d="M19.6,29.5c0,0.3-0.2,0.3-0.3,0.3c-0.2,0-0.4,0-0.5-0.3c0-0.3,0.2-0.3,0.4-0.3
				C19.4,29.3,19.6,29.3,19.6,29.5z"/>
			<path class="st0" d="M16.6,34.3c1.3,0.1,2.4,1.2,2.4,2.5c0,1.3-1.5,3-2.6,3c-0.6,0-2.6-2.4-2.6-3C13.8,35.9,15.6,34.3,16.6,34.3z
				"/>
			<rect x="14.8" y="29" class="st0" width="3.4" height="0.1"/>
			<path class="st0" d="M13.3,29.8c0.2-0.6,0.6-0.7,1.2-0.3C14.1,30,13.6,29.8,13.3,29.8z"/>
			<path class="st0" d="M13.2,29.8C13.2,29.8,13.2,29.9,13.2,29.8L13.2,29.8L13.2,29.8L13.2,29.8C13.2,29.8,13.2,29.8,13.2,29.8z"/>
			<polygon class="st0" points="13.2,29.9 13.2,29.9 13.2,29.9 			"/>
			<path class="st1" d="M58.4,29.2V29H55v0.2H58.4z M59.2,29.3c-0.2,0-0.4,0.1-0.3,0.3c0,0.2,0.2,0.2,0.4,0.2c0.2,0,0.3-0.1,0.3-0.3
				C59.6,29.3,59.4,29.3,59.2,29.3z M63.7,34.8c0.1-0.4,0.3-0.8-0.1-1.1c-0.1,0-0.2,0-0.2,0.1C63.1,34.2,63.6,34.4,63.7,34.8z
				 M19.3,29.8c0.2,0,0.4-0.1,0.3-0.3c0-0.3-0.2-0.3-0.4-0.3c-0.2,0-0.4,0.1-0.4,0.3C18.9,29.8,19.1,29.8,19.3,29.8z M20.4,30.4
				l0.4-0.1c-0.1-0.2-0.2-0.4-0.5-0.4c-0.1,0-0.2,0.1-0.3,0.2C19.9,30.4,20.2,30.4,20.4,30.4z M22.2,31.8c-0.3-0.4,0-1.1-1.2-1
				C21.6,31.1,21.5,31.8,22.2,31.8z M49.8,33.1c0,0.1,0.1,0.2,0.2,0.3c0.3,0,0.4-0.2,0.4-0.4c0-0.1-0.1-0.3-0.1-0.4
				C50,32.7,49.8,32.8,49.8,33.1z M53.3,29.9c-0.3,0-0.6-0.2-0.8,0.2c0,0.1,0.1,0.3,0.1,0.3C53,30.4,53.2,30.2,53.3,29.9
				C53.3,29.9,53.3,29.9,53.3,29.9C53.3,29.9,53.3,29.9,53.3,29.9c0.5,0,0.9,0,1.1-0.5c-0.1-0.1-0.2-0.1-0.3-0.1
				C53.7,29.2,53.4,29.5,53.3,29.9C53.3,29.9,53.3,29.9,53.3,29.9L53.3,29.9C53.3,29.9,53.3,29.9,53.3,29.9z M70.9,15.2
				c0-2.8,0-5.6,0-8.5c0-0.1,0-0.2,0-0.3c-0.1-1.6-1.5-2.7-3.1-2.6c-3.4,0-6.8,0.1-10.2,0c-1.1,0-1.3,0.3-1.3,1.4
				c0.1,1.9,0,3.9,0,5.8c0,2,0,3.9,0,5.8c0,1,0.2,1.3,1.3,1.3c3.5,0,6.9,0,10.4,0C69.5,18.1,70.8,16.8,70.9,15.2z M73.8,4.7
				c-0.1,9.2,0,18.4,0,27.6c0,0.8-0.1,1.6-0.3,2.4c-0.4,1.3-1.4,2.2-2.7,2.4c-1.9,0-3.9,0-5.8,0c-1.6,0-0.4-1.2-1-2
				c0.1,5.8-2.1,9.8-8.1,9.2c-6.3-0.6-6.9-5.5-6.3-10.7C49.2,34.4,49,35.2,49,36c-0.1,1.2-0.7,1.1-1.5,1.1c-7.2,0-14.3,0-21.5,0
				c-1,0-2,0.2-1.7-1.4c0.1-0.3-0.2-0.4-0.6-0.5c0.3,2.8,0.2,5.5-2.2,7.4c-1.6,1.4-3.7,2-5.7,1.9c-3.7-0.4-6.2-3.6-6.5-8.8
				c-0.3,1.8-1.6,1.4-2.7,1.4c-0.9,0-1.8,0-2.6,0c-2,0.1-3.7-1.4-3.9-3.4c0-0.1,0-0.3,0-0.4c-0.1-5-0.2-10,0-14.9
				c0-2.2,0.4-4.4,1.1-6.4c0.7-1.9,1.2-3.9,1.5-5.9C3,4.6,3.3,2.9,4.4,1.9C5.6,0.7,7.3,0,9,0c20.1,0,40.1,0,60.2,0
				C71.9,0,73.8,1.5,73.8,4.7z M13.2,29.9C13.2,29.9,13.2,29.8,13.2,29.9C13.2,29.8,13.2,29.8,13.2,29.9L13.2,29.9L13.2,29.9
				c-0.3,0-0.7-0.2-0.8,0.2c-0.1,0.2,0.1,0.3,0.3,0.3C13.2,30.5,13.2,30.2,13.2,29.9L13.2,29.9L13.2,29.9z M13.3,29.8
				c0.4,0,0.8,0.2,1.2-0.3C13.8,29.1,13.5,29.3,13.3,29.8z M14.8,29.2h3.4V29h-3.4V29.2z M56.6,39.7c1.2,0,2.6-1.6,2.6-3
				c-0.2-1.4-1.3-2.4-2.6-2.5c-1.4,0.2-2.5,1.4-2.6,2.8C53.9,37.7,55.9,39.7,56.6,39.7z M53,17.1c0-4.1,0-8.2,0-12.3
				c0-0.9-0.2-1.1-1.1-1.1c-4.3,0-8.6,0-12.9,0c-0.7-0.1-1,0.1-1,0.9c0,4.1,0,8.3,0,12.4c0,0.8,0.2,1,1,1c2.1,0,4.3,0,6.4,0
				c2.2,0,4.3,0,6.4,0C52.7,18.1,53,18,53,17.1z M34.9,17.2c0-4.1,0-8.3,0-12.4c0-0.8-0.2-1-1-1c-4.3,0-8.7,0-13,0
				c-0.8,0-0.9,0.3-0.9,1c0,4.1,0,8.2,0,12.3c0,0.8,0.2,1.1,1.1,1.1c2.1,0,4.2,0,6.3,0c2.2,0,4.4,0,6.6,0.1
				C34.6,18.2,34.9,18.1,34.9,17.2z M19.1,36.8c-0.1-1.3-1.1-2.4-2.4-2.5c-1,0-2.8,1.6-2.8,2.5c0,0.6,2.1,3,2.6,3
				C17.5,39.8,19.1,38.1,19.1,36.8z M16.7,17.3c0-4.1,0-8.3,0-12.4c0-0.8-0.3-1-1-1c-2.2,0-4.5,0-6.7,0c-1.1,0-3,1.4-3.1,2.6
				c0,1.8-0.8,3.3-1,5.1c-0.1,0.9-0.3,1.8-0.6,2.6c-0.5,1.2-1.2,2.9,0.6,4.1c0.4-0.5,0.1-1.1,0.6-1.5c0.6-0.7,0.9-1.6,1-2.5
				c0.2-1.3,1-1.5,2-1.4s1.3,0.7,1.3,1.7c-0.2,1.3-0.5,2.6-1,3.9c2.4,0,4.7,0,7.1,0C16.5,18.3,16.7,18,16.7,17.3z"/>
			<path class="st0" d="M12.4,30.1c0.2-0.4,0.5-0.2,0.8-0.2c0,0.4,0,0.6-0.5,0.6C12.5,30.4,12.3,30.3,12.4,30.1z"/>
			<path class="st0" d="M8.4,12.7c-1-0.1-1.8,0.1-2,1.4c-0.1,0.9-0.4,1.8-1,2.5c-0.5,0.4-0.2,1-0.6,1.5c-1.7-1.2-1.1-2.9-0.6-4.1
				c0.3-0.8,0.5-1.7,0.6-2.6c0.3-1.7,1-3.3,1-5.1C6,5.3,7.9,3.8,9,3.8c2.2,0,4.5,0,6.7,0c0.7,0,1,0.2,1,1c0,4.1,0,8.3,0,12.4
				c0,0.8-0.3,1-1,1c-2.3,0-4.7,0-7.1,0c0.5-1.3,0.8-2.6,1-3.9C9.7,13.4,9.4,12.8,8.4,12.7z"/>
		</g>
		<g>
		</g>
	</g>
</g>
</svg>
