<svg xmlns="http://www.w3.org/2000/svg" viewBox="0 0 73.81 44.55"><defs><style>.cls-1{fill:#5b5b5b;}.cls-2{fill:#fefefe;}</style></defs><title>Recurso 11</title><g id="Capa_2" data-name="Capa 2"><g id="Capa_1-2" data-name="Capa 1"><path class="cls-1" d="M49.57,33.63A4.56,4.56,0,0,0,49,36.05c-.1,1.2-.67,1.12-1.49,1.12q-10.74,0-21.49,0c-1,0-2,.15-1.71-1.42.06-.26-.17-.43-.59-.51.26,2.76.21,5.55-2.19,7.37a8,8,0,0,1-5.74,1.91c-3.69-.36-6.2-3.58-6.49-8.77-.29,1.84-1.61,1.4-2.71,1.41-.88,0-1.76,0-2.63,0A3.63,3.63,0,0,1,.09,33.35c-.09-5-.15-10,0-14.91A21.59,21.59,0,0,1,1.24,12,36.47,36.47,0,0,0,2.73,6.05C3,4.57,3.34,2.87,4.39,1.89A6.71,6.71,0,0,1,9,0C29.06,0,49.14,0,69.22,0c2.7,0,4.63,1.46,4.59,4.66-.12,9.21,0,18.42,0,27.63a8.26,8.26,0,0,1-.27,2.42,3.38,3.38,0,0,1-2.74,2.41c-1.94.05-3.89,0-5.84,0-1.56,0-.41-1.19-1-2,.14,5.81-2.14,9.79-8.11,9.2C49.51,43.73,48.94,38.85,49.57,33.63Z"/><path class="cls-2" d="M27.28,18.15c-2.1,0-4.19,0-6.29,0-.83,0-1.07-.23-1.06-1.06,0-4.09,0-8.19,0-12.28,0-.72.12-1,.94-1q6.51.06,13,0c.76,0,1,.22,1,1,0,4.14,0,8.28,0,12.43,0,.82-.3,1-1,1C31.67,18.13,29.47,18.15,27.28,18.15Z"/><path class="cls-2" d="M45.48,18.15c-2.14,0-4.29,0-6.43,0-.77,0-1-.23-1-1,0-4.14,0-8.29,0-12.43,0-.82.31-1,1-.94,4.29,0,8.58,0,12.87,0C52.8,3.79,53,4,53,4.86Q53,11,53,17.15c0,.88-.33,1-1.1,1C49.77,18.12,47.63,18.15,45.48,18.15Z"/><path class="cls-2" d="M56.22,11c0-1.95.06-3.9,0-5.84,0-1.06.2-1.42,1.34-1.39,3.41.08,6.82,0,10.23,0a2.85,2.85,0,0,1,3.07,2.94c0,2.83,0,5.65,0,8.48a3,3,0,0,1-3,2.91c-3.46,0-6.92,0-10.38,0-1.06,0-1.3-.31-1.26-1.31C56.27,14.92,56.22,13,56.22,11Z"/><path class="cls-2" d="M4.85,18.15c-1.74-1.2-1.1-2.86-.57-4.1a9.65,9.65,0,0,0,.65-2.59c.25-1.71,1-3.3,1-5.06C6,5.26,7.87,3.82,9,3.82c2.24,0,4.49,0,6.73,0,.74,0,1,.18,1,1q-.06,6.21,0,12.43c0,.79-.25,1-1,1-2.34-.05-4.68,0-7.08,0a23,23,0,0,0,1-3.88c.06-.92-.29-1.55-1.25-1.66s-1.78.13-2,1.38a5,5,0,0,1-1,2.54C4.92,17.06,5.24,17.63,4.85,18.15Z"/><path class="cls-2" d="M59.14,36.74c0,1.41-1.36,3-2.58,3-.63,0-2.67-2-2.68-2.71a3.22,3.22,0,0,1,2.65-2.81A2.87,2.87,0,0,1,59.14,36.74Z"/><path class="cls-2" d="M19.07,36.79c0,1.32-1.52,3-2.63,3-.56,0-2.61-2.38-2.63-3,0-.91,1.78-2.51,2.81-2.5A2.65,2.65,0,0,1,19.07,36.79Z"/><path class="cls-2" d="M14.84,29.05h3.43v.12H14.84Z"/><path class="cls-2" d="M55,29.05h3.44v.15H55Z"/><path class="cls-2" d="M21.07,30.8c1.18-.19.91.6,1.17.95C21.53,31.79,21.56,31.13,21.07,30.8Z"/><path class="cls-2" d="M13.23,29.87c.25-.6.6-.74,1.24-.36-.41.52-.87.27-1.26.33Z"/><path class="cls-2" d="M19.27,29.84c-.21,0-.42,0-.45-.25s.18-.3.37-.31.39,0,.42.25S19.43,29.81,19.27,29.84Z"/><path class="cls-2" d="M53.32,29.88a.68.68,0,0,1,1.07-.49c-.22.53-.67.47-1.09.46Z"/><path class="cls-2" d="M59.69,29.52c0,.22-.13.31-.34.32s-.4,0-.45-.22.12-.33.33-.34S59.61,29.27,59.69,29.52Z"/><path class="cls-2" d="M13.21,29.84c0,.38,0,.64-.51.58-.21,0-.39-.12-.31-.33.17-.41.55-.18.84-.23Z"/><path class="cls-2" d="M63.73,34.78c-.17-.38-.59-.57-.38-1a.28.28,0,0,1,.24-.07C64,34,63.79,34.35,63.73,34.78Z"/><path class="cls-2" d="M20.38,30.44c-.22,0-.44-.06-.39-.32a.4.4,0,0,1,.26-.23c.27,0,.38.22.49.43Z"/><path class="cls-2" d="M53.3,29.85c-.13.3-.29.59-.68.53-.07,0-.18-.24-.15-.31.2-.39.56-.16.85-.19Z"/><path class="cls-2" d="M50,33.34c-.06-.08-.18-.18-.18-.28,0-.27.22-.38.43-.49a1.82,1.82,0,0,1,.11.4C50.36,33.16,50.31,33.33,50,33.34Z"/></g></g></svg>