<?xml version="1.0" encoding="utf-8"?>
<!-- Generator: Adobe Illustrator 23.0.0, SVG Export Plug-In . SVG Version: 6.00 Build 0)  -->
<svg version="1.1" id="Capa_1" xmlns="http://www.w3.org/2000/svg" xmlns:xlink="http://www.w3.org/1999/xlink" x="0px" y="0px"
	 viewBox="0 0 82.4 69.9" style="enable-background:new 0 0 82.4 69.9;" xml:space="preserve">
<style type="text/css">
	.st0{fill:#FBFCFD;stroke:#000000;stroke-width:0.75;stroke-miterlimit:10;}
	.st1{fill:#F7FAFC;stroke:#000000;stroke-width:0.75;stroke-miterlimit:10;}
	.st2{fill:#545556;}
	.st3{fill:#E7F1F7;stroke:#000000;stroke-width:0.75;stroke-miterlimit:10;}
</style>
<title>Recurso 3</title>
<g>
	<g id="Capa_1-2">
		<path class="st0" d="M49.8,42.7c-1.8-0.2-3,1.3-4.5,2c-6.2,3.1-13.8,1.2-17.7-4.5c-3.8-5.6-3.1-13.1,1.6-17.9
			c4.9-4.6,12.4-5.2,17.9-1.4c5.4,4,7.3,11.3,4.5,17.4c-0.7,1.5-2.1,2.7-1.9,4.5L49.8,42.7z"/>
		<path class="st1" d="M49.6,42.8c2.5-1.7,4.5-1.7,6.4,1c1.3,1.9,3.2,3.3,4.9,5s1.8,3.7,0.3,5.3s-3.7,1.3-5.3-0.2
			c-2.3-2.1-4.4-4.5-6.8-6.6s1.2-3,0.7-4.6L49.6,42.8z"/>
		<path class="st2" d="M35.7,22.9c6.9-1.4,11.7,1.2,13.1,7.1c1.5,5.4-1.7,10.9-7.1,12.4s-10.9-1.7-12.4-7.1c0-0.2-0.1-0.3-0.1-0.5
			c-0.9-3.4-0.4-6.5,2.5-9c0.6,0,1.2,0.3,1.7,0.7c1.5,1.2,1.8,0.1,2-1.1C35.2,24.5,35.3,23.6,35.7,22.9z"/>
		<path class="st3" d="M32.6,26.7c1.2-0.8,2.5-1.4,3.8-2c1.7-0.6,3-0.2,2.3,2.1c-2,0.2-3.8,1.5-4.7,3.2c-0.6,1-0.5,3.2-2.3,2.3
			s-0.2-2.5,0.1-3.8C31.9,27.9,32.2,27.3,32.6,26.7z"/>
	</g>
</g>
</svg>
