<?xml version="1.0" encoding="utf-8"?>
<!-- Generator: Adobe Illustrator 23.0.0, SVG Export Plug-In . SVG Version: 6.00 Build 0)  -->
<svg version="1.1" id="Layer_1" xmlns="http://www.w3.org/2000/svg" xmlns:xlink="http://www.w3.org/1999/xlink" x="0px" y="0px"
	 viewBox="0 0 53 80" style="enable-background:new 0 0 53 80;" xml:space="preserve">
<style type="text/css">
	.st0{fill:#0060B6;}
	.st1{fill:#3F6FAA;}
</style>
<title>caminar</title>
<g id="XMLID_1_">
	<g>
		<path class="st0" d="M51.3,37c1.5,0.7,2.1,2.5,1.3,4c0,0,0,0,0,0.1c-1,1.4-2.9,1.9-4.5,1.1l-14.2-7.5l-4.5-5.9v19.4
			C29.7,48.4,43,75.1,43,75.1c0.7,1.5,0,3.3-1.5,4c0,0-0.1,0-0.1,0l-1.5,0.6c-1.6,0.7-3.5,0.1-4.4-1.4l-9.4-18.4l-4.3-7.2l-5.3-9.4
			V27l-3.6,4.5v13c0,1.6,0,2.8-1.8,2.8c-2.6,0-3.6-1.1-3.6-2.7V29.1l5-6.1l5.7-4c0.6-0.7,1.6-1,2.5-0.9h7.8c1,0.1,2,0.6,2.6,1.5
			l7.5,10.7L51.3,37z"/>
		<path class="st0" d="M31.6,7.2c0,4-3.3,7.3-7.3,7.3c-4,0-7.3-3.2-7.3-7.2c0-4,3.3-7.3,7.3-7.3C28.3,0,31.6,3.2,31.6,7.2z"/>
		<polygon class="st1" points="21.9,52.7 16.5,43.6 16.5,43.3 		"/>
		<polygon class="st1" points="14.7,52.1 20.1,60.8 19.9,61.2 		"/>
		<path class="st0" d="M14.7,52.1l5.2,9.1l-2.3,6L7.1,78.9c-0.6,0.6-1.4,1.1-2.2,1.1c-0.9,0.1-1.7-0.2-2.4-0.7l-1.3-1
			c-1.3-0.9-1.6-2.7-0.6-4c0.1-0.1,0.1-0.2,0.2-0.3l9.6-10.7L14.7,52.1z"/>
		<polygon class="st0" points="16.5,43.6 21.9,52.7 22.8,54.3 19.9,61.2 20.1,60.8 14.7,52.1 16.5,43.2 16.5,43.3 		"/>
	</g>
	<g>
	</g>
</g>
</svg>
