<svg xmlns="http://www.w3.org/2000/svg" viewBox="0 0 44.23 70.25"><defs><style>.cls-1{fill:#5b5b5b;}.cls-2{fill:#fefefe;}</style></defs><title>Recurso 6</title><g id="Capa_2" data-name="Capa 2"><g id="Capa_1-2" data-name="Capa 1"><path class="cls-1" d="M15.4,2.24c5.89,0,11.44,0,17,0,1.49,0,1.93.55,1.93,2,0,12.23,0,24.45,0,36.68,0,.46.28,1.12-.4,1.34a1.47,1.47,0,0,1-1.63-.39c-1.31-1.34-2.68-2.62-4-4s-2.41-1.22-3.8,0c-2.9,2.61-3.08,6.5,0,9.23,1.83,1.65,3.5,3.49,5.23,5.26.08.08,0,.28,0,.47-.55.53-1.25.25-1.87.25-7.65,0-15.3,0-22.95,0-1.3,0-2.12-.16-2.12-1.79.05-11.78,0-23.55,0-35.43C7,17.58,11,17.26,14,14.09S17.84,6.72,15.4,2.24Z"/><path class="cls-1" d="M37,32.89c2,2.09,4,4.19,6.06,6.28a4.62,4.62,0,0,1,1.1,3.47c0,8.62,0,17.24,0,25.85,0,1.38-.34,1.78-1.74,1.76q-7.53-.14-15.06,0c-1.44,0-1.87-.44-1.7-1.78.09-.74-.06-1.5,0-2.24.23-2-.21-3.27-2.54-3.75-2.11-.44-3.45-4.74-2.38-6.7.22-.41.56-.41.93-.41,2.33,0,4.65,0,7,0,.74,0,1,.22,1.08,1,.23,2.39,1.74,3.75,3.9,4.56.56.21,1.13.63,1.42-.19A1.22,1.22,0,0,0,34.46,59c-2.54-.71-3.07-2.59-2.84-4.81a5,5,0,0,0-1.94-4.65c-1.48-1.27-2.79-2.73-4.16-4.11a4,4,0,0,1-.87-4.5c.83-2.28,1.6-2.42,3.28-.75a24.34,24.34,0,0,1,2.52,2.56c1.38,1.92,3.33,1.32,5.11,1.27,1.14,0,1-1.1,1-1.92,0-3,0-6,0-8.95Z"/><path class="cls-1" d="M14,7.32a7.11,7.11,0,0,1-6.9,7.08C3.25,14.44.32,11.18,0,7.2-.23,4,3.14,0,7.38,0,10.28,0,14.7,3.3,14,7.32Z"/><path class="cls-2" d="M29.34,12.12c0,1.11,0,2.23,0,3.34,0,.81-.18,1.22-1.1,1.21s-1.18-.27-1.17-1.15q.06-3.57,0-7.14c0-.81.19-1.21,1.11-1.21s1.2.27,1.17,1.15C29.3,9.58,29.34,10.85,29.34,12.12Z"/><path class="cls-2" d="M29.34,28.67c0,1.19,0,2.39,0,3.57,0,1-.46,1.08-1.24,1.08s-1-.28-1-1c0-2.31,0-4.62,0-6.92,0-1,.45-1.07,1.23-1.07s1.07.28,1,1C29.31,26.44,29.34,27.56,29.34,28.67Z"/><path class="cls-2" d="M24.37,8.16c.11.85-.05,1.34-1,1.3-.76,0-1.27-.08-1.24-1.05,0-.76.09-1.3,1.06-1.22C23.88,7.24,24.61,7.16,24.37,8.16Z"/><path class="cls-2" d="M23.22,21.61c.83-.12,1.2.17,1.19,1.07s-.19,1.21-1.1,1.19-1.21-.19-1.19-1.1S22.29,21.46,23.22,21.61Z"/><path class="cls-2" d="M24.38,27.77c.15,1-.46,1-1.2,1.05-1,0-1-.48-1.06-1.23,0-1,.48-1,1.24-1.06C24.32,26.5,24.48,27,24.38,27.77Z"/><path class="cls-2" d="M23.5,13.94c-.74,0-1.34.11-1.37-.82s.35-1,1.06-1S24.4,12,24.4,13C24.39,13.72,24.14,14.1,23.5,13.94Z"/><path class="cls-2" d="M24.38,18c.05,1.07-.66.86-1.22.91-.74.06-1.05-.22-1-1,0-.95.68-.78,1.24-.8S24.56,17.24,24.38,18Z"/><path class="cls-2" d="M24.38,32.44c.08.94-.57.84-1.16.87s-1.1-.12-1.09-1,.59-.83,1.19-.85S24.5,31.6,24.38,32.44Z"/><path class="cls-2" d="M6.9,4.26c0,1.11-.49,2.33,1.31,2.53.87.1,1.19,1.08,1.21,1.67a2.39,2.39,0,0,1-1.23,1.92c-1.31.87-2.28.43-3.25-.39-.35-.3-1.09-.7-.65-1.21s1.06-.32,1.31.46c.06.17.29.29.6.58.31-1.35.51-2.42-1-3.07a1.42,1.42,0,0,1-.83-1.9c.34-1.31,1.8-1,2.3-2,.77.66,2,.88,2.33,1.94.21.66-.51.6-.9.51S7.76,4.34,6.9,4.26Z"/></g></g></svg>