<svg id="Capa_1" data-name="Capa 1" xmlns="http://www.w3.org/2000/svg" viewBox="0 0 29.77 26.28"><defs><style>.cls-1{fill:#5a5a5a;}</style></defs><title>enCiclaIcon_disabled</title><path class="cls-1" d="M28.33,23.51l-.8-2.17A6.44,6.44,0,0,1,28.87,21a8.09,8.09,0,0,1,1-.08,5.63,5.63,0,0,1,3.23.93,7,7,0,0,1,1.5,1.39,1.11,1.11,0,0,1-.07,1.62,1.24,1.24,0,0,1-1.71-.1s0,0,0,0a6.27,6.27,0,0,0-1.1-1,4,4,0,0,0-1.32-.51A3.42,3.42,0,0,0,28.33,23.51Z" transform="translate(-5.12 -6.86)"/><path class="cls-1" d="M27.15,24.17l.05.08a3.91,3.91,0,0,0-.6.69,3.46,3.46,0,0,0-.44,1A4.07,4.07,0,0,0,26,27.15a4.36,4.36,0,0,0,0,.52,3.78,3.78,0,0,0,3.3,3,2.33,2.33,0,0,0,.46,0,4.23,4.23,0,0,0,1.57-.32,3.34,3.34,0,0,0,1.14-.82,1.22,1.22,0,0,1,1.7.41A1,1,0,0,1,34,31.35a6.28,6.28,0,0,1-2.21,1.41A6,6,0,0,1,29,33.1a6.11,6.11,0,0,1-5.19-4.81c-.07-.31-.1-.63-.14-.95,0-.05,0-.1,0-.15a6.58,6.58,0,0,1,.22-1.78A6.15,6.15,0,0,1,26.33,22l.78,2.09v0S27.14,24.14,27.15,24.17Z" transform="translate(-5.12 -6.86)"/><path class="cls-1" d="M25.56,17.56,28,23.72l1.63,2.65a.63.63,0,1,1-.66.62.63.63,0,0,1,.17-.42L27.5,24v0l-1.35-3.31-3.33,4.94-1.72,2.63L21.52,25l4.08-5.86-.52-1.41a.86.86,0,0,1,0-.64,1,1,0,0,1,.51-.54c-.18-.41-.33-.77-.41-.92s-.3-.24-.35-.22l-.9.29a1.47,1.47,0,0,0,0-.21,1.06,1.06,0,0,0,0-.19.5.5,0,0,0,0-.12l.8-.26a.79.79,0,0,1,1,.47c0,.09.12.26.21.46,0-.13-.25-1.1,1-1.26s2.6-.26,2.6-.26L29.6,19c-.06,0-1.57.16-2.16.2a1.09,1.09,0,0,1-1.06-.52s-.32-.81-.64-1.59a.42.42,0,0,0-.2.22.38.38,0,0,0,0,.26Z" transform="translate(-5.12 -6.86)"/><path class="cls-1" d="M18.59,8.76A2.05,2.05,0,0,1,16.7,11h-.16a2.06,2.06,0,0,1-.15-4.11h.16A2,2,0,0,1,18.59,8.76Z" transform="translate(-5.12 -6.86)"/><path class="cls-1" d="M18.28,25.51l-.49,3.59-.05.34L15,29.05c-1.56-.22-3-.4-3.42-.42A1.61,1.61,0,0,1,10,27a1.59,1.59,0,0,1,1.59-1.59l3.58,0,2.38,0h.74Z" transform="translate(-5.12 -6.86)"/><path class="cls-1" d="M22.83,14.7a1,1,0,0,1,.63.7.59.59,0,0,1,0,.14,1,1,0,0,1-.89,1h-.08a.94.94,0,0,1-.34-.07h0s0,0-.08,0l-5-2.29L16.26,19l4.51,2.23.07,0a1.17,1.17,0,0,1,.62.95.6.6,0,0,1,0,.19v.11L21.11,25l-.59,4.35a1.16,1.16,0,0,1-1.07,1.17h-.1a1.17,1.17,0,0,1-1.16-1.08,1,1,0,0,1,0-.25L19,23.21l-5.3-2.6-.15-.07a1.16,1.16,0,0,1-.57-.92.74.74,0,0,1,0-.21l0-.15,1.22-6.89,0-.19a1.18,1.18,0,0,1,1-.86h.08a1.16,1.16,0,0,1,.42.07l.17.08Z" transform="translate(-5.12 -6.86)"/><path class="cls-1" d="M14.21,24.7a6.27,6.27,0,0,0-1.1-1,4,4,0,0,0-1.32-.51,3.36,3.36,0,0,0-2.07.32,2.82,2.82,0,0,0-.38.21,4,4,0,0,0-1.28,1.19,3.1,3.1,0,0,0-.44,1,4.07,4.07,0,0,0-.15,1.23,3,3,0,0,0,0,.52,3.78,3.78,0,0,0,3.29,3,2.4,2.4,0,0,0,.46,0,4.15,4.15,0,0,0,1.57-.32A3.52,3.52,0,0,0,14,29.59a1.2,1.2,0,0,1,.95-.15,1.32,1.32,0,0,1,.75.56,1,1,0,0,1-.19,1.35,6.52,6.52,0,0,1-2.21,1.41,6,6,0,0,1-8-4.47c-.07-.31-.1-.63-.14-.95,0-.05,0-.1,0-.15a5.88,5.88,0,0,1,.22-1.78,6.12,6.12,0,0,1,5-4.43,8.09,8.09,0,0,1,1-.08,5.63,5.63,0,0,1,3.23.93A7,7,0,0,1,16,23.22,1.12,1.12,0,0,1,16,24.84a1.22,1.22,0,0,1-.79.3,1.33,1.33,0,0,1-.92-.4Z" transform="translate(-5.12 -6.86)"/></svg>