<?xml version="1.0" encoding="utf-8"?>
<!-- Generator: Adobe Illustrator 23.0.0, SVG Export Plug-In . SVG Version: 6.00 Build 0)  -->
<svg version="1.1" id="Capa_1" xmlns="http://www.w3.org/2000/svg" xmlns:xlink="http://www.w3.org/1999/xlink" x="0px" y="0px"
	 viewBox="0 0 29.8 26.3" style="enable-background:new 0 0 29.8 26.3;" xml:space="preserve">
<style type="text/css">
	.st0{fill:#0060B6;}
</style>
<title>enCiclaIcon</title>
<g id="XMLID_1_">
	<g>
		<path class="st0" d="M29.4,16.4c0.4,0.5,0.4,1.2-0.1,1.6c-0.2,0.2-0.5,0.3-0.8,0.3c-0.3,0-0.7-0.1-0.9-0.4c-0.3-0.4-0.7-0.7-1.1-1
			c-0.4-0.3-0.9-0.4-1.3-0.5c-0.7-0.1-1.4,0-2,0.3l-0.8-2.2c0.4-0.2,0.9-0.3,1.3-0.4c0.3-0.1,0.7-0.1,1-0.1c1.2,0,2.3,0.3,3.2,0.9
			C28.5,15.4,29,15.8,29.4,16.4L29.4,16.4C29.4,16.4,29.4,16.4,29.4,16.4z"/>
		<path class="st0" d="M29.1,23.1c0.3,0.4,0.2,1-0.2,1.4c-0.6,0.6-1.4,1.1-2.2,1.4c-0.9,0.3-1.9,0.5-2.8,0.3
			c-2.6-0.3-4.7-2.3-5.2-4.8c-0.1-0.3-0.1-0.6-0.1-1c0,0,0-0.1,0-0.1c0-0.6,0.1-1.2,0.2-1.8c0.4-1.4,1.3-2.6,2.4-3.4l0.8,2.1l0.1,0
			c0,0,0,0.1,0,0.1l0,0.1c-0.2,0.2-0.4,0.4-0.6,0.7c-0.2,0.3-0.4,0.6-0.4,1c-0.1,0.4-0.2,0.8-0.1,1.2c0,0.2,0,0.4,0,0.5
			c0.3,1.6,1.7,2.8,3.3,3c0.1,0,0.3,0,0.5,0c0.5,0,1.1-0.1,1.6-0.3c0.4-0.2,0.8-0.5,1.1-0.8c0,0,0,0,0,0
			C28,22.4,28.8,22.6,29.1,23.1z"/>
		<path class="st0" d="M16.4,18.1l4.1-5.8L20,10.9c-0.1-0.2-0.1-0.4,0-0.6c0.1-0.2,0.3-0.4,0.5-0.5c-0.2-0.4-0.3-0.7-0.4-0.9
			c-0.1-0.2-0.3-0.2-0.4-0.2l-0.9,0.3c0-0.1,0-0.1,0-0.2v0c0-0.1,0-0.2-0.1-0.3l0.8-0.3c0.4-0.1,0.9,0.1,1,0.5
			c0.1,0.1,0.1,0.3,0.2,0.5c0-0.1-0.4-1.1,1-1.3s2.6-0.3,2.6-0.3l0.2,4.6c-0.1,0-1.6,0.2-2.2,0.2c-0.4,0.1-0.8-0.1-1.1-0.5
			c0,0-0.3-0.8-0.6-1.6c-0.1,0.1-0.2,0.1-0.2,0.2c0,0,0,0.1,0,0.1c0,0.1,0,0.1,0,0.1l2.4,6.2l1.6,2.6l0-0.1c0.3,0,0.6,0.3,0.6,0.6
			c0,0.4-0.3,0.6-0.6,0.6c-0.4,0-0.6-0.3-0.6-0.6c0-0.2,0.1-0.3,0.2-0.4L22.4,17L21,13.7l-3.3,4.9L16,21.3L16.4,18.1z"/>
		<path class="st0" d="M13.4,1.9C13.5,3,12.7,4,11.6,4.1h-0.2c-1,0-1.9-0.8-2-1.9C9.3,1.1,10.1,0.1,11.3,0h0.2
			C12.5,0.1,13.3,0.9,13.4,1.9z"/>
		<path class="st0" d="M13.2,18.6l-0.5,3.6l-0.1,0.3c-0.9-0.1-2-0.3-3-0.4c-1.4-0.2-2.7-0.4-3.1-0.4c-0.9,0-1.6-0.7-1.6-1.6
			c0-0.8,0.7-1.5,1.5-1.5l3.6,0l2.4,0l0,0H13.2z"/>
		<path class="st0" d="M17.7,7.9C18,8,18.3,8.3,18.3,8.7c0,0.5-0.4,0.9-0.9,1h-0.1c-0.1,0-0.2,0-0.3-0.1c0,0-0.1,0-0.1,0l-5-2.3
			l-0.8,4.8l4.5,2.2h0.1c0.4,0.2,0.6,0.6,0.6,0.9c0,0.1,0,0.1,0,0.2v0.1L16,18.1l-0.6,4.4c0,0.6-0.5,1.1-1.1,1.2h-0.1
			c-0.6,0-1.1-0.5-1.2-1.1c0-0.1,0-0.2,0-0.3l0.8-5.9l-5.3-2.6l-0.2-0.1c-0.3-0.2-0.5-0.5-0.6-0.9c0-0.1,0-0.1,0-0.2v-0.2l1.3-6.9
			V5.3c0.1-0.5,0.5-0.8,1-0.9h0.1h0c0.1,0,0.3,0,0.4,0.1l0.2,0.1L17.7,7.9z"/>
		<path class="st0" d="M10.6,23.1c0.3,0.5,0.2,1.1-0.3,1.4c-0.6,0.6-1.4,1.1-2.2,1.4c-0.3,0.1-0.6,0.2-1,0.3c-3.3,0.6-6.4-1.5-7-4.7
			c-0.1-0.3-0.1-0.6-0.1-1c0,0,0-0.1,0-0.1c0-0.6,0.1-1.2,0.2-1.8c0.6-2.3,2.6-4.1,5-4.4c0.3-0.1,0.7-0.1,1-0.1
			c1.2,0,2.3,0.3,3.2,0.9c0.6,0.4,1.1,0.9,1.5,1.4c0,0,0.1,0,0.1,0.1c0.4,0.5,0.4,1.2-0.1,1.6c-0.2,0.2-0.5,0.3-0.8,0.3
			c-0.3,0-0.7-0.1-0.9-0.4c-0.3-0.4-0.7-0.7-1.1-1c-0.4-0.3-0.8-0.4-1.3-0.5c-0.7-0.1-1.4,0-2.1,0.3c-0.1,0.1-0.3,0.1-0.4,0.2
			c-0.5,0.3-1,0.7-1.3,1.2c-0.2,0.3-0.3,0.6-0.4,1c-0.1,0.4-0.2,0.8-0.1,1.2c0,0.2,0,0.4,0,0.5c0.3,1.6,1.7,2.8,3.3,3
			c0.2,0,0.3,0,0.5,0c0.5,0,1.1-0.1,1.6-0.3c0.4-0.2,0.8-0.5,1.2-0.8c0,0,0,0,0,0c0.2-0.1,0.4-0.2,0.6-0.2
			C9.9,22.5,10.3,22.8,10.6,23.1z"/>
	</g>
	<g>
	</g>
</g>
</svg>
