<?xml version="1.0" encoding="utf-8"?>
<!-- Generator: Adobe Illustrator 23.0.0, SVG Export Plug-In . SVG Version: 6.00 Build 0)  -->
<svg version="1.1" id="Capa_1" xmlns="http://www.w3.org/2000/svg" xmlns:xlink="http://www.w3.org/1999/xlink" x="0px" y="0px"
	 viewBox="0 0 47.5 36.3" style="enable-background:new 0 0 47.5 36.3;" xml:space="preserve">
<style type="text/css">
	.st0{fill:#0060B6;}
</style>
<title>Recurso 16</title>
<g id="Capa_1-2">
	<g id="XMLID_2_">
		<g>
			<path class="st0" d="M40.3,12.2c2,1.5,2.4,3.2,2.3,5.4c-0.1,5.7-0.1,11.4,0,17.2c0,1.3-0.3,1.5-1.5,1.5c-4-0.1-7.9-0.1-11.9-0.1
				c-3.7,0-7.4,0.2-11-0.1C12.5,35.7,6.8,36,1.1,35.9c-0.8,0-1-0.2-1-1c0-7.5,0-15.1,0-22.6c0-0.5,0.3-1.1,0.7-1.4
				C3.6,8,6.5,5.2,9.3,2.3c0.5-0.5,1.2-0.8,1.9-0.7c4.7,0,9.4,0.1,14.2,0c1.3-0.1,2.7,0.4,3.7,1.2C32.8,5.9,36.4,9.3,40.3,12.2z"/>
		</g>
		<g>
		</g>
	</g>
	<g id="XMLID_1_">
		<g>
			<path class="st0" d="M46.8,11.6c0.6,0.4,0.8,1.1,0.8,1.8c0,3.6,0,7,0,10.6c0,3.6,0,7.2,0,10.9c0,0.7,0.1,1.4-1,1.4
				c-1.1,0-1.2-0.5-1.2-1.4c0-6.7,0-13.4,0-20.1c0-1-0.5-2-1.3-2.6c-4-3.2-8-6.5-12-9.8c-0.7-0.6-1-1-0.3-1.9s1.2-0.2,1.7,0.2
				C37.9,4.3,42.3,8,46.8,11.6z"/>
		</g>
		<g>
		</g>
	</g>
</g>
</svg>
