<?xml version="1.0" encoding="utf-8"?>
<!-- Generator: Adobe Illustrator 23.0.0, SVG Export Plug-In . SVG Version: 6.00 Build 0)  -->
<svg version="1.1" id="Capa_1" xmlns="http://www.w3.org/2000/svg" xmlns:xlink="http://www.w3.org/1999/xlink" x="0px" y="0px"
	 viewBox="0 0 123.1 143.4" style="enable-background:new 0 0 123.1 143.4;" xml:space="preserve">
<style type="text/css">
	.st0{fill:#0060B6;}
	.st1{fill:#FEFEFE;}
</style>
<title>estacionEnAuto</title>
<path class="st0" d="M21.1,77.5c0-20.5-0.1-41,0.1-61.5c0-3.7-0.8-5.1-4.6-4.8c-4.3,0.3-8.7,0-13,0.1C1.1,11.5-0.3,10.9,0,8.1
	c0.2-1.7,0.2-3.3,0-5c-0.2-2.5,0.9-3.3,3.2-3c1.3,0.1,2.7,0,4,0c36.8,0,73.6,0.1,110.4-0.1c4.8,0,5.3,1.8,5.4,5.8
	c0.1,4.3-0.9,6.1-5.5,5.6c-4-0.4-8,0.2-12-0.2c-3.7-0.3-4.9,0.8-4.8,4.7c0.3,13.3,0.1,26.7,0.1,40v81.5c0,1.3,0,2.7,0,4
	c-0.1,1.8-1.5,1.9-2.9,1.9s-2.3-0.4-2.3-2c0-1.3,0-2.7,0-4c0-40.3,0-80.6,0-120.9c0-1.7,1.1-4.2-1.3-4.8c-2.6-0.6-5.3-0.5-7.9,0.1
	c-1.9,0.5-1,2.9-1,4.5c0,26.8,0,53.7,0,80.5c0,14.2-0.1,28.3,0.1,42.5c0,3.2-0.9,4.3-4.2,4.2c-18.7-0.1-37.3-0.1-56,0
	c-3.6,0-4.4-1.1-4.4-4.5C21.2,118.4,21.1,97.9,21.1,77.5z"/>
<path class="st1" d="M32.1,43.7c0-6.8,0.2-13.7-0.1-20.5c-0.1-3.2,0.9-3.9,3.9-3.9c11.3,0.2,22.7,0.1,34,0c2.8,0,3.8,0.8,3.8,3.7
	c-0.1,14-0.1,28,0,42c0,2.9-1.1,3.6-3.8,3.6c-11.5-0.1-23-0.1-34.5,0c-2.6,0-3.4-0.8-3.4-3.4C32.2,58,32.1,50.8,32.1,43.7z"/>
</svg>
