<svg xmlns="http://www.w3.org/2000/svg" viewBox="0 0 47.53 36.28"><defs><style>.cls-1{fill:#5b5b5b;}</style></defs><title>Recurso 15</title><g id="Capa_2" data-name="Capa 2"><g id="Capa_1-2" data-name="Capa 1"><path class="cls-1" d="M40.53,12.4c2,1.51,2.38,3.16,2.34,5.41-.11,5.71-.08,11.43,0,17.15,0,1.26-.34,1.54-1.55,1.51-4-.07-7.92,0-11.87,0-3.69,0-7.39.23-11,0C12.69,36,7,36.22,1.3,36.13c-.75,0-1-.17-1-1q0-11.3,0-22.59A1.83,1.83,0,0,1,1,11.16C3.85,8.28,6.74,5.42,9.59,2.51a2.34,2.34,0,0,1,1.88-.72c4.73,0,9.46.08,14.18,0A5.13,5.13,0,0,1,29.34,3C33.05,6.16,36.63,9.5,40.53,12.4Z" transform="translate(-0.25 -0.25)"/><path class="cls-1" d="M45.51,35.08c0-6.7,0-13.4,0-20.1a3,3,0,0,0-1.3-2.59c-4-3.22-8-6.53-12-9.77-.73-.59-1-1-.31-1.9s1.24-.19,1.7.19C38.14,4.54,42.57,8.22,47,11.84a2.06,2.06,0,0,1,.74,1.85c0,3.52,0,7,0,10.54s0,7.25,0,10.88c0,.74.09,1.36-1,1.36S45.51,36,45.51,35.08Z" transform="translate(-0.25 -0.25)"/></g></g></svg>