<?xml version="1.0" encoding="utf-8"?>
<!-- Generator: Adobe Illustrator 23.0.0, SVG Export Plug-In . SVG Version: 6.00 Build 0)  -->
<svg version="1.1" id="Capa_1" xmlns="http://www.w3.org/2000/svg" xmlns:xlink="http://www.w3.org/1999/xlink" x="0px" y="0px"
	 viewBox="0 0 44.2 70.3" style="enable-background:new 0 0 44.2 70.3;" xml:space="preserve">
<style type="text/css">
	.st0{fill:#FEFEFE;}
	.st1{fill:#0060B6;}
</style>
<title>Recurso 5</title>
<g id="Capa_1-2">
	<g id="XMLID_1_">
		<g>
			<path class="st0" d="M27.1,8.4c0-0.8,0.2-1.2,1.1-1.2s1.2,0.3,1.2,1.1c-0.1,1.3,0,2.5,0,3.8c0,1.1,0,2.2,0,3.3
				c0,0.8-0.2,1.2-1.1,1.2s-1.2-0.3-1.2-1.1C27.1,13.1,27.1,10.8,27.1,8.4z"/>
			<path class="st0" d="M29.3,28.7c0,1.2,0,2.4,0,3.6c0,1-0.5,1.1-1.2,1.1c-0.8,0-1-0.3-1-1c0-2.3,0-4.6,0-6.9c0-1,0.4-1.1,1.2-1.1
				s1.1,0.3,1,1C29.3,26.4,29.3,27.6,29.3,28.7z"/>
			<path class="st1" d="M28.7,55.4c0.7,0,1,0.2,1.1,1c0.2,2.4,1.7,3.8,3.9,4.6c0.6,0.2,1.1,0.6,1.4-0.2c0.3-0.6,0.1-1.3-0.5-1.7
				c0,0-0.1-0.1-0.2-0.1c-2.5-0.7-3.1-2.6-2.8-4.8c0.2-1.8-0.5-3.6-1.9-4.6c-1.5-1.3-2.8-2.7-4.2-4.1c-1.2-1.2-1.6-3-0.9-4.5
				c0.8-2.3,1.6-2.4,3.3-0.8c0.9,0.8,1.7,1.7,2.5,2.6c1.4,1.9,3.3,1.3,5.1,1.3c1.1,0,1-1.1,1-1.9c0-3,0-6,0-9l0.4-0.3
				c2,2.1,4,4.2,6.1,6.3c0.8,1,1.2,2.2,1.1,3.5c0,8.6,0,17.2,0,25.8c0,1.4-0.3,1.8-1.7,1.8c-5-0.1-10-0.1-15.1,0
				c-1.4,0-1.9-0.4-1.7-1.8c0.1-0.7-0.1-1.5,0-2.2c0.2-2-0.2-3.3-2.5-3.8c-2.1-0.4-3.5-4.7-2.4-6.7c0.2-0.4,0.6-0.4,0.9-0.4
				C24,55.4,26.3,55.4,28.7,55.4z"/>
			<path class="st0" d="M24.4,27.8c0.2,1-0.5,1-1.2,1c-1,0-1-0.5-1.1-1.2c0-1,0.5-1,1.2-1.1C24.3,26.5,24.5,27,24.4,27.8z"/>
			<path class="st1" d="M27.1,32.3c0,0.7,0.2,1,1,1c0.8,0,1.2-0.1,1.2-1.1c0-1.2,0-2.4,0-3.6c0-1.1,0-2.2,0-3.3c0.1-0.7-0.2-1-1-1
				s-1.2,0.1-1.2,1.1C27.1,27.7,27.1,30,27.1,32.3z M23.2,18.9c0.6,0,1.3,0.2,1.2-0.9c0.2-0.8-0.4-0.9-1-0.9c-0.6,0-1.2-0.2-1.2,0.8
				C22.1,18.7,22.4,19,23.2,18.9z M24.4,13c0-1-0.5-0.9-1.2-0.9c-0.7,0-1.1,0.1-1.1,1c0,0.9,0.6,0.8,1.4,0.8
				C24.1,14.1,24.4,13.7,24.4,13z M23.3,23.9c0.9,0,1.1-0.3,1.1-1.2s-0.4-1.2-1.2-1.1c-0.9-0.2-1.1,0.3-1.1,1.2
				C22.1,23.7,22.4,23.9,23.3,23.9z M24.4,32.4c0.1-0.8-0.5-1-1.1-1c-0.6,0-1.2,0-1.2,0.9c0,0.9,0.5,1,1.1,1
				C23.8,33.3,24.5,33.4,24.4,32.4z M23.2,28.8c0.7,0,1.4,0,1.2-1c0.1-0.8-0.1-1.3-1-1.2c-0.8,0.1-1.2,0.1-1.2,1.1
				C22.2,28.3,22.2,28.8,23.2,28.8z M23.4,9.5c0.9,0,1.1-0.4,1-1.3c0.2-1-0.5-0.9-1.2-1c-1-0.1-1.1,0.5-1.1,1.2
				C22.1,9.4,22.6,9.5,23.4,9.5z M28.2,7.2c-0.9,0-1.1,0.4-1.1,1.2c0,2.4,0,4.8,0,7.1c0,0.9,0.3,1.1,1.2,1.1s1.1-0.4,1.1-1.2
				c0-1.1,0-2.2,0-3.3c0-1.3,0-2.5,0-3.8C29.4,7.4,29.1,7.2,28.2,7.2z M34.3,40.9c0,0.5,0.3,1.1-0.4,1.3c-0.6,0.2-1.2,0.1-1.6-0.4
				c-1.3-1.3-2.7-2.6-4-4c-1.3-1.4-2.4-1.2-3.8,0c-2.6,2-3,5.7-1,8.3c0.3,0.3,0.6,0.7,0.9,0.9c1.8,1.6,3.5,3.5,5.2,5.3
				c0.1,0.1,0,0.3,0,0.5c-0.5,0.5-1.3,0.3-1.9,0.3c-7.7,0-15.3,0-23,0c-1.3,0-2.1-0.2-2.1-1.8c0-11.8,0-23.6,0-35.4
				C7,17.6,11,17.3,14,14.1s3.9-7.4,1.4-11.9c5.9,0,11.4,0,17,0c1.5,0,1.9,0.5,1.9,2C34.3,16.5,34.3,28.7,34.3,40.9z"/>
			<path class="st0" d="M23.5,13.9c-0.7,0-1.3,0.1-1.4-0.8c0-0.9,0.4-1,1.1-1c0.7,0,1.2-0.1,1.2,0.9C24.4,13.7,24.1,14.1,23.5,13.9z
				"/>
			<path class="st0" d="M24.4,8.2c0.1,0.9-0.1,1.3-1,1.3c-0.8,0-1.3-0.1-1.2-1.1c0-0.8,0.1-1.3,1.1-1.2C23.9,7.2,24.6,7.2,24.4,8.2z
				"/>
			<path class="st0" d="M23.4,17.1c0.6,0,1.2,0.1,1,0.9c0.1,1.1-0.7,0.9-1.2,0.9c-0.7,0.1-1-0.2-1-1C22.2,17,22.8,17.1,23.4,17.1z"
				/>
			<path class="st0" d="M23.2,21.6c0.8-0.1,1.2,0.2,1.2,1.1s-0.2,1.2-1.1,1.2c-0.9,0-1.2-0.2-1.2-1.1C22.1,21.9,22.3,21.5,23.2,21.6
				z"/>
			<path class="st0" d="M23.3,31.5c0.6,0,1.2,0.1,1.1,1c0.1,0.9-0.6,0.8-1.2,0.9c-0.6,0-1.1-0.1-1.1-1
				C22.1,31.4,22.7,31.5,23.3,31.5z"/>
			<path class="st1" d="M8.1,5.3C8.5,5.4,9.2,5.4,9,4.8C8.7,3.7,7.4,3.5,6.7,2.8c-0.5,1-2,0.7-2.3,2c0,0,0,0.1,0,0.1
				C4.1,5.7,4.5,6.5,5.2,6.8c1.5,0.7,1.3,1.7,1,3.1C5.9,9.5,5.7,9.4,5.6,9.2c-0.3-0.8-0.9-1-1.3-0.5C3.8,9.3,4.6,9.7,4.9,10
				c1,0.8,1.9,1.3,3.2,0.4C8.9,10,9.4,9.3,9.4,8.5c0-0.6-0.3-1.6-1.2-1.7C6.4,6.6,6.9,5.4,6.9,4.3C7.8,4.3,7.7,5.2,8.1,5.3z M7.4,0
				c2.9,0,7.3,3.3,6.6,7.3c0,3.8-3.1,7-6.9,7.1c-3.8,0-6.8-3.2-7.1-7.2C-0.2,4,3.1,0,7.4,0z"/>
			<path class="st0" d="M8.2,6.8c0.9,0.1,1.2,1.1,1.2,1.7C9.4,9.3,8.9,10,8.2,10.4c-1.3,0.9-2.3,0.4-3.2-0.4
				C4.6,9.7,3.8,9.3,4.3,8.8c0.4-0.5,1.1-0.3,1.3,0.5c0.1,0.2,0.3,0.3,0.6,0.6c0.3-1.3,0.5-2.4-1-3.1C4.5,6.5,4.1,5.7,4.3,4.9
				c0,0,0-0.1,0-0.1c0.3-1.3,1.8-1,2.3-2c0.8,0.7,2,0.9,2.3,1.9c0.2,0.7-0.5,0.6-0.9,0.5c-0.4-0.1-0.3-1-1.2-1
				C6.9,5.4,6.4,6.6,8.2,6.8z"/>
		</g>
		<g>
		</g>
	</g>
</g>
</svg>
