<?xml version="1.0" encoding="utf-8"?>
<!-- Generator: Adobe Illustrator 23.0.0, SVG Export Plug-In . SVG Version: 6.00 Build 0)  -->
<svg version="1.1" id="Capa_1" xmlns="http://www.w3.org/2000/svg" xmlns:xlink="http://www.w3.org/1999/xlink" x="0px" y="0px"
	 viewBox="0 0 261.8 173.3" style="enable-background:new 0 0 261.8 173.3;" xml:space="preserve">
<style type="text/css">
	.st0{fill:#0060B6;}
</style>
<title>flechaDobleBottom</title>
<g>
	<g id="Capa_1-2">
		<path class="st0" d="M131,93.6c7.4-5.3,13.3-9.2,18.7-13.5c30.5-24.3,60.8-48.9,91.4-73.1c4.9-3.9,10.4-11.7,17.5-3.1
			c5.3,6.5,3.8,13.6-2.3,18.6c-38.8,31.5-77.8,62.9-116.9,94c-7.9,6.3-14.7,2-21.4-3.4c-35.6-29.1-71.5-58-107.2-87
			C3.8,20.4-5,13.7,3.6,4.1c9.4-10.3,16.3,1.2,22.5,6C56,33.6,85.3,57.8,114.9,81.7C120.1,85.8,125.6,89.6,131,93.6z"/>
		<path class="st0" d="M1,62.8c1.3-1.4,3.2-5.4,6.3-6.8c6.6-2.9,11.1,2.4,15.6,6c28.9,23.2,58.9,45.3,86.2,70.3
			c17.3,15.9,29.1,13,45.1-0.9c28-24.3,57.5-46.9,86.6-69.9c4.9-3.9,11.1-11.7,17.4-2.5c4.5,6.4,2.4,13.6-3.9,18.7
			c-38.3,30.9-76.6,61.6-114.9,92.3c-8,6.4-14.8,2-21.5-3.4c-35.8-29.1-71.7-58.1-107.4-87.3C6.1,75.8,0.6,72.3,1,62.8z"/>
	</g>
</g>
</svg>
