<svg xmlns="http://www.w3.org/2000/svg" viewBox="0 0 60.04 46.67"><defs><style>.cls-1{fill:#5b5b5b;}.cls-2{fill:#fefefe;}</style></defs><title>Recurso 13</title><g id="Capa_2" data-name="Capa 2"><g id="Capa_1-2" data-name="Capa 1"><path class="cls-1" d="M10.32,46.67a4,4,0,0,1-1.09-3.16c0-4.52,0-9,0-13.54A2.23,2.23,0,0,1,10.12,28q9.4-7.71,18.75-15.48a1.71,1.71,0,0,1,2.54,0Q40.71,20.29,50.07,28a2.5,2.5,0,0,1,1,2.15c0,4.47,0,8.94,0,13.41a4,4,0,0,1-1.11,3.16H35.4a2.37,2.37,0,0,1-.64-2.07c0-3.1,0-6.19,0-9.28,0-2-.33-2.28-2.25-2.3-1.67,0-3.34,0-5,0s-2,.42-2,2c0,3.17,0,6.35,0,9.53a2.37,2.37,0,0,1-.64,2.07Z"/><path class="cls-2" d="M24.86,46.67a4.88,4.88,0,0,0,.26-1.7c0-3.42,0-6.85,0-10.28,0-1.64.36-2,1.95-2q3.07,0,6.14,0c1.57,0,1.93.37,1.93,1.9,0,3.38,0,6.77,0,10.15a5.59,5.59,0,0,0,.28,2Z"/><path class="cls-1" d="M42.65,8.61q0-3.36,0-6.71C42.66.41,43,0,44.48,0h4.77C50.68,0,51,.37,51,1.8c0,4.31,0,8.61,0,12.92a2,2,0,0,0,.86,1.78c2.48,2,4.91,4,7.36,6.06a1.81,1.81,0,0,1,.28,2.79c-.62.79-1.26,1.56-1.91,2.33-.91,1.08-1.38,1.13-2.5.2L38.47,14.16l-7-5.75c-1.25-1-1.5-1-2.79,0L5.43,27.68C4,28.87,3.65,28.84,2.48,27.44l-1.68-2C-.32,24-.29,23.65,1.06,22.54L21.84,5.38C23.48,4,25.11,2.65,26.77,1.31a5,5,0,0,1,6.75,0C36.3,3.6,39.06,5.9,41.84,8.18,42.05,8.35,42.2,8.65,42.65,8.61Z"/></g></g></svg>