<?xml version="1.0" encoding="utf-8"?>
<!-- Generator: Adobe Illustrator 23.0.0, SVG Export Plug-In . SVG Version: 6.00 Build 0)  -->
<svg version="1.1" id="Capa_1" xmlns="http://www.w3.org/2000/svg" xmlns:xlink="http://www.w3.org/1999/xlink" x="0px" y="0px"
	 viewBox="0 0 60 46.7" style="enable-background:new 0 0 60 46.7;" xml:space="preserve">
<style type="text/css">
	.st0{fill:#0060B6;}
	.st1{fill:#FEFEFE;}
</style>
<title>Recurso 14</title>
<g>
	<g id="Capa_1-2">
		<path class="st0" d="M10.3,46.7c-0.8-0.8-1.2-2-1.1-3.2c0-4.5,0-9,0-13.5c-0.1-0.8,0.3-1.5,0.9-2c6.3-5.1,12.5-10.3,18.8-15.5
			c0.6-0.7,1.7-0.8,2.4-0.1c0,0,0.1,0.1,0.1,0.1c6.2,5.2,12.4,10.3,18.7,15.5c0.7,0.5,1,1.3,1,2.1c0,4.5,0,8.9,0,13.4
			c0.1,1.2-0.3,2.3-1.1,3.2H35.4c-0.5-0.5-0.8-1.3-0.6-2.1c0-3.1,0-6.2,0-9.3c0-2-0.3-2.3-2.3-2.3c-1.7,0-3.3,0-5,0s-2,0.4-2,2
			c0,3.2,0,6.3,0,9.5c0.1,0.8-0.1,1.5-0.6,2.1H10.3z"/>
		<path class="st1" d="M24.9,46.7c0.2-0.5,0.3-1.1,0.3-1.7c0-3.4,0-6.8,0-10.3c0-1.6,0.4-2,2-2c2,0,4.1,0,6.1,0
			c1.6,0,1.9,0.4,1.9,1.9c0,3.4,0,6.8,0,10.1c0,0.7,0.1,1.4,0.3,2L24.9,46.7z"/>
		<path class="st0" d="M42.7,8.6c0-2.2,0-4.5,0-6.7C42.7,0.4,43,0,44.5,0h4.8C50.7,0,51,0.4,51,1.8c0,4.3,0,8.6,0,12.9
			c0,0.7,0.3,1.4,0.9,1.8c2.5,2,4.9,4,7.4,6.1c0.8,0.6,1.1,1.7,0.5,2.5c-0.1,0.1-0.1,0.2-0.2,0.3c-0.6,0.8-1.3,1.6-1.9,2.3
			c-0.9,1.1-1.4,1.1-2.5,0.2L38.5,14.2l-7-5.8c-1.3-1-1.5-1-2.8,0L5.4,27.7c-1.4,1.2-1.8,1.2-2.9-0.2l-1.7-2
			c-1.1-1.4-1.1-1.8,0.3-2.9L21.8,5.4c1.6-1.4,3.3-2.7,4.9-4.1c1.9-1.7,4.8-1.7,6.8,0c2.8,2.3,5.5,4.6,8.3,6.9
			C42,8.4,42.2,8.6,42.7,8.6z"/>
	</g>
</g>
</svg>
