<?xml version="1.0" encoding="utf-8"?>
<!-- Generator: Adobe Illustrator 23.0.0, SVG Export Plug-In . SVG Version: 6.00 Build 0)  -->
<svg version="1.1" id="Capa_1" xmlns="http://www.w3.org/2000/svg" xmlns:xlink="http://www.w3.org/1999/xlink" x="0px" y="0px"
	 viewBox="0 0 56.1 63.2" style="enable-background:new 0 0 56.1 63.2;" xml:space="preserve">
<style type="text/css">
	.st0{fill:#0060B6;}
	.st1{fill:#107CBD;}
	.st2{fill:#F3FAFC;}
	.st3{fill:#0676BA;}
	.st4{fill:#2892C7;}
	.st5{fill:#FEFEFE;}
	.st6{fill:#FBFCFD;}
	.st7{fill:#FAFCFD;}
	.st8{fill:#F6F9FC;}
	.st9{fill:#006DB6;}
	.st10{fill:#006DB5;}
	.st11{fill:#006CB5;}
	.st12{fill:#86CCE4;}
	.st13{fill:#006EB6;}
	.st14{fill:#007ABB;}
</style>
<title>Recurso 10</title>
<g>
	<g id="Capa_1-2">
		<path class="st0" d="M6.1,5.8c1-3.4,4.1-5.8,7.6-5.8c9.4,0,18.7,0,28.1,0.1C46.4,0.1,50,4,50,9c0,7.5,0,15,0,22.5
			c0,0.5-0.3,1.2,0.4,1.3c0.8,0.2,1.7,0.2,2.5-0.1c0.3-0.1,0.2-0.6,0.2-1c0-2,0-3.9,0-5.9c0,0,0-0.1-0.1-0.1
			c-1.6-0.4-1.6-0.4-1.6-2.3c0-4.1,0-8.1,0-12.1c0-0.4,0-0.8,0.2-1.2l0,0c1-0.1,2-0.1,3-0.1c1-0.1,1.3,0.4,1.3,1.3
			c0,3.8,0,7.6,0,11.4c0,0.6,0,1.2,0,1.8c0.1,1-0.3,1.4-1.3,1.3c-0.2,0-0.4,0-0.5,0.2c0,2.3,0,4.6,0,6.9c0,0.8-0.2,1.1-1.1,1.1
			c-2.9,0-2.9,0.1-2.9,3c0,4.6,0,9.2,0,13.7c0.1,3-1.3,5.8-3.8,7.5c-0.4,0.3-0.7,0.8-0.6,1.3c0,0.9,0,1.8,0,2.6s-0.3,1.2-1.2,1.2
			c-1.8-0.1-3.7-0.1-5.5,0c-0.9,0-1.1-0.3-1.1-1.1c0-2.4,0-2.4-2.5-2.4c-5.6,0-11.2,0-16.8,0c-1,0-1.3,0.2-1.3,1.2
			c0.1,2.3,0,2.3-2.3,2.3c-1.4,0-2.7-0.1-4,0c-1,0.1-1.3-0.3-1.1-1.2c0-0.2,0-0.3,0-0.5c0.2-1.7,0.1-3.3-1.7-4.3
			c-0.7-0.5-1.3-1.3-1.5-2.1c-0.4-0.9-0.7-1.9-0.8-2.9c0-5.7,0-11.5,0-17.2c0.1-0.4,0-0.9-0.2-1.3c-0.3-0.4-0.8-0.5-1.3-0.4
			c-0.6,0.2-1.3,0.1-1.9-0.1c-0.3-0.2-0.3-0.6-0.1-0.9c0,0,0.1-0.1,0.1-0.1C2.6,32,2.7,32,2.9,31.9c0.6-0.1,1.2-0.1,1.9-0.1h0.4h0.3
			c0.1-0.1,0.2-0.1,0.2-0.3c0-7.4,0-14.8,0-22.2c0-0.6,0-1.2,0-1.8C5.6,7,5.8,6.3,6.1,5.8z"/>
		<path class="st1" d="M2.5,33c1.1,0.1,2.3-0.3,3.4,0.3C6,33.6,6,33.8,6,34.1v17.7c0,0.2,0,0.4-0.1,0.6c0.4,0.8,0.6,1.7,0.7,2.6
			c-0.8-1.3-1.2-2.9-1.1-4.4c0-5.3,0-10.6,0-15.8c0-1-0.2-1.5-1.3-1.3c-0.4,0-0.8,0-1.2,0c-0.8,0-1.1-0.3-1.1-1.2c0-2.1,0-4.2,0-6.3
			c0-0.8-0.1-1.3-1-1.2C0.1,25,0,24.5,0,23.8c0-4.7,0-9.3,0-14C0,9,0.2,8.7,1,8.8c1.2,0,2.4,0.1,3.5,0.2c0.6,0.4,0.6,1,0.6,1.6
			c0,4.3,0,8.5,0,12.8c0,1.7-0.5,2-2.2,1.8c-0.2-0.1-0.3-0.2-0.3-0.4c1.1-0.7,1.3-1.7,1.2-2.8c-0.1-3.6,0-7.1,0-10.7
			c0-0.5,0.2-1.2-0.5-1.5C2.7,9.6,1.9,9.6,1.2,9.9c-0.4,0.2-0.4,0.6-0.4,1c0,4.1,0,8.2,0,12.3c-0.1,0.5,0.2,1.1,0.8,1.2c0,0,0,0,0,0
			c0.4,0.1,0.7,0.3,0.8,0.6c0.3,2.4,0.3,4.8,0,7.3C2.4,32.5,2.3,32.8,2.5,33z"/>
		<path class="st2" d="M2.8,25c2-0.2,2-0.2,2-2.3c0-4.1,0-8.2,0-12.3c0.1-0.5,0-1-0.2-1.4c0.9,0,0.1-1.3,1-1.3
			C5.7,7.8,5.8,8,5.8,8.2c0,7.4,0,14.8,0,22.1c0.1,0.7,0,1.4-0.4,2H5.1c-0.3-0.5-0.5-1-0.4-1.6c0-1.4,0-2.8,0-4.1
			c0-0.4,0.1-0.9-0.5-0.9s-0.7,0.4-0.8,0.9c-0.1,1.3,0,2.7,0,4c0.1,0.6-0.1,1.2-0.4,1.7H2.9H2.8c-0.4-0.4-0.3-0.9-0.3-1.4
			c0-1.5,0-3,0-4.6C2.5,25.9,2.3,25.4,2.8,25z"/>
		<path class="st3" d="M54,25.8c1.9-0.2,1.5-1.7,1.5-2.9c0-3.9,0-7.7,0-11.6c0-0.9-0.3-1.3-1.3-1.3s-1.8,0-2.7,0
			c1.2-0.5,2.5-0.2,3.8-0.2c0.5,0,0.6,0.4,0.6,0.9c0,4.7,0,9.4,0,14.1c0,0.7-0.2,1-0.9,0.9C54.8,25.8,54.4,25.8,54,25.8z"/>
		<path class="st4" d="M5.6,7.9c0-0.1,0-0.2,0-0.2c0.2-0.6,0-1.4,0.6-1.8L5.9,7.4C6,7.9,6,8.3,6,8.7C6,16.1,6,23.6,6,31
			c0.1,0.4,0,0.9-0.1,1.3H5.6c-0.1-0.3-0.2-0.6-0.1-0.9V8.7C5.4,8.4,5.5,8.1,5.6,7.9z"/>
		<path class="st3" d="M51.6,10c0,4.2,0,8.4,0,12.6c0,1.3-0.5,2.9,1.5,3.2c-0.4,0-0.8-0.1-1.2-0.1s-0.7-0.2-0.7-0.7
			c0-4.9,0-9.8,0-14.6C51.4,10.3,51.5,10.1,51.6,10z"/>
		<path class="st5" d="M27.8,9.5c5.8,0,11.5,0,17.3,0c1,0,1.3,0.3,1.3,1.3c0,7-0.1,14,0,21.1c0.1,1.9-0.9,3.8-2.6,4.8
			c-2.6,1.7-5.5,2.9-8.6,3.3c-4.4,0.8-8.9,0.9-13.4,0.3c-3.9-0.4-7.7-1.3-10.8-4.1c-1.2-1-1.9-2.6-1.9-4.2c0.1-7,0.1-14,0-21.1
			c0-1.2,0.4-1.4,1.5-1.4C16.4,9.5,22.1,9.5,27.8,9.5z"/>
		<path class="st6" d="M27.9,6.7c-2.8,0-5.5,0-8.2,0c-1.1,0-1.3-0.3-1.3-1.3c0-3.3,0-3.3,3.4-3.3c4.9,0,9.8,0,14.6,0
			c1,0,1.3,0.3,1.3,1.3c0,3.4,0,3.4-3.4,3.4L27.9,6.7z"/>
		<path class="st7" d="M14.9,50c-1.4,0-2.8,0-4.2,0c-0.8,0-1.1-0.2-1.2-1.1c-0.1-3.8-0.1-3.8,3.8-3.8c2,0,4,0,6,0c0.7,0,1,0.2,1,1
			c-0.1,1.3,0.5,2.9-0.3,3.8S17.7,50,16.5,50C15.9,50.1,15.4,50,14.9,50z"/>
		<path class="st7" d="M40.8,50c-1.4,0-2.8,0-4.2,0c-0.8,0-1-0.3-1-1c0.1-1.3-0.4-2.9,0.2-3.7s2.4-0.2,3.6-0.3c2,0,3.9,0,5.9,0
			c0.7,0,1,0.2,1,1c0.2,4,0.2,4-3.8,4L40.8,50z"/>
		<path class="st8" d="M3,32.3c0-2,0.1-3.9,0-5.9c-0.1-1.2,0.6-1.1,1.4-1.2c1.1-0.1,0.7,0.7,0.7,1.1c0,2,0,4,0,6
			C4.4,32.4,3.7,32.4,3,32.3z"/>
		<ellipse class="st9" cx="27.7" cy="0.7" rx="20.9" ry="0.1"/>
		<path class="st10" d="M49.3,32.7V7.5h0.1v25.3L49.3,32.7z"/>
		<path class="st11" d="M5.9,32.3c0-8.3,0-16.6,0-24.9C6,7.6,6.1,7.9,6.1,8.1v23.7c0,0.1,0,0.3,0,0.4C6.1,32.3,5.9,32.3,5.9,32.3z"
			/>
		<path class="st11" d="M8.5,33.8V9.5h0.1v24.3L8.5,33.8z"/>
		<path class="st11" d="M46.7,33.8V9.6h0.1v24.2L46.7,33.8z"/>
		<path class="st12" d="M5.6,7.9c0,7.2,0,14.4,0,21.6c0,0.9,0,1.8,0,2.7H5.3c0-7.8,0-15.6,0-23.4C5.3,8.5,5.3,8.2,5.6,7.9z"/>
		<path class="st13" d="M37.2,58.9H17.7v-0.1h19.5L37.2,58.9z"/>
		<path class="st11" d="M18.5,7.2h18.9v0.1h-19L18.5,7.2z"/>
		<path class="st11" d="M5.9,52.4c0-6.4,0-12.7,0-19.1c0.3,0.3,0.3,0.6,0.3,1v17.2C6.1,51.8,6.2,52.2,5.9,52.4z"/>
		<path class="st10" d="M49.5,33.9v18.2h-0.1V33.9L49.5,33.9z"/>
		<path class="st14" d="M2.8,25v7.3c-0.3,0.2-0.3,0.5-0.3,0.8c-0.4-0.3-0.3-0.8-0.3-1.2c0-2.3,0-4.6,0-6.9C2.3,24.8,2.5,24.8,2.8,25
			C2.7,24.9,2.7,25,2.8,25L2.8,25z"/>
		<path class="st11" d="M9.9,50.7h10v0.1H9.8L9.9,50.7z"/>
		<path class="st11" d="M46.1,50.8H36v-0.1h10.1L46.1,50.8z"/>
		<path class="st11" d="M9.2,45.4v4.6H9.1v-4.6L9.2,45.4z"/>
		<path class="st11" d="M46.8,50.1v-4.6h0.1L46.8,50.1L46.8,50.1z"/>
		<path class="st10" d="M17.7,6.6V2.2h0.1v4.4H17.7z"/>
		<path class="st10" d="M38.3,2.2v4.4h-0.1V2.2H38.3z"/>
		<path class="st10" d="M45,58.7v3.7h-0.2v-3.7H45z"/>
		<path class="st0" d="M2.7,24.9H2.2c-1.8-0.7-1.8-0.7-1.8-2.9c0-3.8,0-7.7,0-11.5c0-1.1,0.3-1.3,1.3-1.3c2.6,0,2.6,0,2.6,2.6
			c0,3.5-0.1,7.1,0,10.6C4.3,23.8,4.3,24.8,2.7,24.9z"/>
	</g>
</g>
</svg>
