<svg xmlns="http://www.w3.org/2000/svg" viewBox="0 0 56.1 63.18"><defs><style>.cls-1{fill:#5b5b5b;}.cls-2{fill:#fff;}</style></defs><title>Recurso 9</title><g id="Capa_2" data-name="Capa 2"><g id="Capa_1-2" data-name="Capa 1"><path class="cls-1" d="M56.35,25.12c0,.67-.18,1-.87.91a8,8,0,0,0-1.09,0,2.2,2.2,0,0,0,.68-.2c.82.05,1.12-.39,1-1.27,0-.6,0-1.22,0-1.82,0-3.79,0-7.57,0-11.35,0-.91-.22-1.4-1.25-1.29a27,27,0,0,0-3,.11c1.25-.53,2.54-.19,3.82-.2.53,0,.64.44.64.94Q56.32,18.06,56.35,25.12Z" transform="translate(-0.25 -0.25)"/><path class="cls-1" d="M56.12,24.6c.07.88-.23,1.32-1,1.27,1-.5.77-1.69.77-2.74,0-3.87,0-7.73,0-11.6,0-1-.25-1.35-1.25-1.27s-1.82,0-2.73,0a27,27,0,0,1,3-.11c1-.11,1.26.38,1.25,1.29,0,3.78,0,7.56,0,11.35C56.11,23.38,56.07,24,56.12,24.6Z" transform="translate(-0.25 -0.25)"/><path class="cls-1" d="M54.85,25.85c-.21,0-.44,0-.55.23,0,2.15,0,4.31,0,6.46h-.81c0-.18,0-.39,0-.56,0-2,0-3.92,0-5.88,0,0,0-.11-.07-.11-.4-.11-.7-.19-.93-.28h0c-.82-.64-.53-1.81-.53-2.83q0-6.32,0-12.64c.91,0,1.83.09,2.73,0s1.26.31,1.25,1.27c0,3.87,0,7.73,0,11.6,0,1.05.28,2.24-.77,2.74Z" transform="translate(-0.25 -0.25)"/><path class="cls-1" d="M51.89,10.25q0,6.33,0,12.64c0,1-.29,2.19.53,2.83-.67-.28-.67-.64-.67-2q0-6.06,0-12.14A3.08,3.08,0,0,1,51.89,10.25Z" transform="translate(-0.25 -0.25)"/><path class="cls-1" d="M52.47,25.72a2.32,2.32,0,0,0,1,.39c-.39,0-.78-.08-1.18-.08s-.68-.24-.68-.73q0-7.32,0-14.65c0-.14.16-.26.26-.4a3.08,3.08,0,0,0-.09,1.28q0,6.08,0,12.14c0,1.41,0,1.77.67,2Z" transform="translate(-0.25 -0.25)"/><path class="cls-1" d="M49.66,52.34V34.14l.13,0V52.34Z" transform="translate(-0.25 -0.25)"/><path class="cls-1" d="M49.73,7.74V33L49.6,33V7.74Z" transform="translate(-0.25 -0.25)"/><path class="cls-1" d="M47.12,50.31H47V45.69h.1Z" transform="translate(-0.25 -0.25)"/><path class="cls-1" d="M47.11,9.84V34.07L47,34V9.84Z" transform="translate(-0.25 -0.25)"/><path class="cls-2" d="M46.68,32.11A5.46,5.46,0,0,1,44.1,36.9a20.14,20.14,0,0,1-8.59,3.28,46.56,46.56,0,0,1-13.38.32c-3.9-.44-7.74-1.33-10.82-4.08a5.19,5.19,0,0,1-1.89-4.21c.08-7,.06-14,0-21.07,0-1.2.37-1.44,1.48-1.43,5.71.06,11.43,0,17.14,0s11.52,0,17.28,0c1,0,1.34.26,1.33,1.32C46.6,18.06,46.53,25.09,46.68,32.11Z" transform="translate(-0.25 -0.25)"/><path class="cls-2" d="M46.65,46.33c.16,4,.18,4-3.77,4H41.06c-1.4,0-2.79,0-4.18,0-.76,0-1-.25-1-1,.07-1.25-.39-2.87.23-3.66s2.36-.24,3.61-.27c2,0,3.92,0,5.88,0C46.35,45.36,46.62,45.58,46.65,46.33Z" transform="translate(-0.25 -0.25)"/><path class="cls-1" d="M36.22,50.91H46.37a.62.62,0,0,0,0,.13H36.22Z" transform="translate(-0.25 -0.25)"/><path class="cls-1" d="M45.3,59v3.64h-.16V59Z" transform="translate(-0.25 -0.25)"/><ellipse class="cls-1" cx="38.2" cy="4.39" rx="0.08" ry="3.1"/><path class="cls-2" d="M36.6,2.23c1,0,1.27.26,1.26,1.26,0,3.42,0,3.42-3.42,3.42H28.16c-2.75,0-5.49,0-8.24,0-1.07,0-1.33-.35-1.32-1.36,0-3.33,0-3.33,3.35-3.33C26.83,2.25,31.72,2.27,36.6,2.23Z" transform="translate(-0.25 -0.25)"/><path class="cls-1" d="M37.49,59.06l-.06.13H18v-.13Z" transform="translate(-0.25 -0.25)"/><path class="cls-1" d="M37.7,7.56h-19a1.12,1.12,0,0,1,.05-.13H37.7Z" transform="translate(-0.25 -0.25)"/><path class="cls-1" d="M42.75,1.05H13.24V.94H42.75Z" transform="translate(-0.25 -0.25)"/><path class="cls-1" d="M20.19,50.9V51H10.05l.11-.13Z" transform="translate(-0.25 -0.25)"/><path class="cls-1" d="M18.06,2.49V6.86H18V2.49Z" transform="translate(-0.25 -0.25)"/><path class="cls-2" d="M15.14,50.3c-1.39,0-2.78,0-4.17,0-.81,0-1.15-.2-1.17-1.1-.07-3.84-.09-3.84,3.75-3.84,2,0,4,0,6,0,.71,0,1,.19,1,1-.14,1.28.53,2.91-.29,3.76s-2.32.16-3.53.21C16.19,50.32,15.67,50.3,15.14,50.3Z" transform="translate(-0.25 -0.25)"/><path class="cls-1" d="M9.44,45.69v4.62H9.31V45.67Z" transform="translate(-0.25 -0.25)"/><path class="cls-1" d="M8.92,9.76V34H8.79V9.76Z" transform="translate(-0.25 -0.25)"/><path class="cls-1" d="M6.37,51.8c0,.3,0,.62-.22.86A1.57,1.57,0,0,0,6.23,52V34.33a1.22,1.22,0,0,0-.12-.75c.33.25.26.62.26,1Z" transform="translate(-0.25 -0.25)"/><path class="cls-1" d="M6.37,8.41V32.13a1.57,1.57,0,0,1,0,.37s-.14,0-.21,0h0a2.39,2.39,0,0,0,.12-1.27q0-11.13,0-22.27a3.73,3.73,0,0,0-.08-1.29A.86.86,0,0,1,6.37,8.41Z" transform="translate(-0.25 -0.25)"/><path class="cls-1" d="M6.11,33.58a1.22,1.22,0,0,1,.12.75V52a1.57,1.57,0,0,1-.08.64q0-9,0-17.93Z" transform="translate(-0.25 -0.25)"/><path class="cls-1" d="M6.09,52.41c0-5.73,0-11.46,0-17.19,0-.16,0-.33,0-.49q0,9,0,17.93a8.52,8.52,0,0,1,.74,2.63A9.87,9.87,0,0,1,6.09,52.41Z" transform="translate(-0.25 -0.25)"/><path class="cls-1" d="M6.11,32.52q0-12.42,0-24.83A3.73,3.73,0,0,1,6.23,9q0,11.13,0,22.27A2.39,2.39,0,0,1,6.11,32.52Z" transform="translate(-0.25 -0.25)"/><path class="cls-1" d="M6.15,7.69q0,12.42,0,24.83H5.86v-.42a.38.38,0,0,0,.14-.2Q6,20.78,6,9.68c0-.61,0-1.22,0-1.83a2.56,2.56,0,0,1,.32-1.77C6.3,6.62,6.23,7.15,6.15,7.69Z" transform="translate(-0.25 -0.25)"/><path class="cls-1" d="M6,30.53c0-7.38,0-14.76,0-22.15a.61.61,0,0,0-.18-.46c.2-.61,0-1.36.58-1.84a2.56,2.56,0,0,0-.32,1.77c0,.61,0,1.22,0,1.83Q6,20.8,6,31.91a.38.38,0,0,1-.14.2V32A5,5,0,0,0,6,30.53Z" transform="translate(-0.25 -0.25)"/><path class="cls-2" d="M6,8.38c0,7.39,0,14.77,0,22.15A5,5,0,0,1,5.86,32c0-.75,0-1.49,0-2.23q0-10.83,0-21.65a.36.36,0,0,0,0-.23A.61.61,0,0,1,6,8.38Z" transform="translate(-0.25 -0.25)"/><path class="cls-1" d="M5.86,32.11v.42a.57.57,0,0,1-.12-.23,1.4,1.4,0,0,0,.09-.17Z" transform="translate(-0.25 -0.25)"/><path class="cls-1" d="M5.86,32.05v.06l0,0Z" transform="translate(-0.25 -0.25)"/><path class="cls-2" d="M5.85,29.8c0,.74,0,1.48,0,2.23v0l0,.08-.06,0h0a4.51,4.51,0,0,1,0-.52V8.93a2.06,2.06,0,0,1,.08-.78Q5.82,19,5.85,29.8Z" transform="translate(-0.25 -0.25)"/><path class="cls-2" d="M5.83,32.13a1.4,1.4,0,0,1-.09.17.69.69,0,0,1,0-.13h0Z" transform="translate(-0.25 -0.25)"/><path class="cls-1" d="M5.74,32.3a.57.57,0,0,0,.12.23H5.58A1.06,1.06,0,0,0,5.74,32.3Z" transform="translate(-0.25 -0.25)"/><path class="cls-2" d="M5.58,32.18q0-11.52,0-23c0-.35-.07-.71.23-1a2.06,2.06,0,0,0-.08.78V31.65a4.51,4.51,0,0,0,0,.52A.33.33,0,0,1,5.58,32.18Z" transform="translate(-0.25 -0.25)"/><path class="cls-2" d="M5.58,32.53v-.35a.33.33,0,0,0,.14,0,.69.69,0,0,0,0,.13A1.06,1.06,0,0,1,5.58,32.53Z" transform="translate(-0.25 -0.25)"/><path class="cls-2" d="M5.58,32.18v.35H5.32v-.34h.26Z" transform="translate(-0.25 -0.25)"/><path class="cls-2" d="M5.32,32.53a1.16,1.16,0,0,1-.22-.34h.22Z" transform="translate(-0.25 -0.25)"/><path class="cls-2" d="M5.57,9.14q0,11.5,0,23H5.32c0-1.88,0-3.77,0-5.66,0-.4.47-1.21-.66-1.11h-.1c.66-.16.87-.68.88-1.81,0-4.26,0-8.52,0-12.78,0-.61,0-1.24-.6-1.62.89,0,.12-1.26,1-1.3a.36.36,0,0,1,0,.23C5.5,8.43,5.57,8.79,5.57,9.14Z" transform="translate(-0.25 -0.25)"/><path class="cls-2" d="M3.43,32.22a3.27,3.27,0,0,0,.19-1.43c0-1.34,0-2.68,0-4,0-.48.21-.87.76-.86s.51.51.51.88c0,1.38,0,2.77,0,4.15a3.06,3.06,0,0,0,.17,1.25H5A12.33,12.33,0,0,0,3.43,32.22Z" transform="translate(-0.25 -0.25)"/><path class="cls-2" d="M4,25.48l.5-.05A2.41,2.41,0,0,1,4,25.48Z" transform="translate(-0.25 -0.25)"/><path class="cls-2" d="M3.24,25.43a.59.59,0,0,1-.24-.2c2-.18,2-.18,2-2.33q0-6.13,0-12.29a2.1,2.1,0,0,0-.2-1.39c.63.38.6,1,.6,1.62,0,4.26,0,8.52,0,12.78,0,1.13-.22,1.65-.88,1.81h0l-.5.05H4A5.45,5.45,0,0,1,3.24,25.43Z" transform="translate(-0.25 -0.25)"/><path class="cls-2" d="M3.23,32.24c0-1.87.07-3.73,0-5.6-.05-.88.29-1.08.8-1.16H4a2.41,2.41,0,0,0,.5-.05h.11c1.13-.1.65.71.66,1.11,0,1.89,0,3.78,0,5.66H5.1a3.06,3.06,0,0,1-.17-1.25c0-1.38,0-2.77,0-4.15,0-.37.07-.85-.51-.88s-.73.38-.76.86c-.07,1.34,0,2.68,0,4a3.27,3.27,0,0,1-.19,1.43Z" transform="translate(-0.25 -0.25)"/><path class="cls-2" d="M3.43,32.22a1.08,1.08,0,0,1-.2.29v-.27Z" transform="translate(-0.25 -0.25)"/><path class="cls-2" d="M3.23,32.52h0a1.08,1.08,0,0,0,.2-.29,12.33,12.33,0,0,1,1.61,0H5.1a1.16,1.16,0,0,0,.22.34h0A4.75,4.75,0,0,1,3.23,32.52Z" transform="translate(-0.25 -0.25)"/><path class="cls-2" d="M3,32.52v-.2H3a.6.6,0,0,1,.19-.06h.06v.27h0l-.13,0Z" transform="translate(-0.25 -0.25)"/><path class="cls-2" d="M3.2,26.64c.1,1.87,0,3.73,0,5.6H3.17a.6.6,0,0,0-.19.06C3,30,3,27.59,3,25.23a.59.59,0,0,0,.24.2,5.45,5.45,0,0,0,.76.05C3.49,25.56,3.15,25.76,3.2,26.64Z" transform="translate(-0.25 -0.25)"/><path class="cls-2" d="M3,32.52a.72.72,0,0,1-.11-.15.16.16,0,0,1,.11,0Z" transform="translate(-0.25 -0.25)"/><path class="cls-1" d="M2.71,25.8c0-.2,0-.41-.06-.61h.28l.07.05A.88.88,0,0,0,2.71,25.8Z" transform="translate(-0.25 -0.25)"/><path class="cls-2" d="M3,25.23C3,27.59,3,30,3,32.31H3a.16.16,0,0,0-.11,0,1.05,1.05,0,0,1-.16-.53,32.72,32.72,0,0,0,0-6v0A.88.88,0,0,1,3,25.23Z" transform="translate(-0.25 -0.25)"/><path class="cls-1" d="M2.65,25.19v0a.25.25,0,0,0,0-.07.31.31,0,0,1,.32.08Z" transform="translate(-0.25 -0.25)"/><path class="cls-1" d="M3,32.52c-.31.18-.27.48-.27.77h0a.86.86,0,0,1-.08-.68.9.9,0,0,1,.15-.19l.1-.05A.72.72,0,0,0,3,32.52Z" transform="translate(-0.25 -0.25)"/><path class="cls-2" d="M2.71,25.82a32.72,32.72,0,0,1,0,6c0-.23,0-.46,0-.69,0-1.52,0-3,0-4.57C2.72,26.33,2.68,26.07,2.71,25.82Z" transform="translate(-0.25 -0.25)"/><path class="cls-1" d="M49.73,33V7.74H49.6V33Zm.06,19.32V34.18l-.13,0v18.2Zm-13.86-3c0,.74.19,1,1,1,1.39-.05,2.78,0,4.18,0h1.82c3.95,0,3.93,0,3.77-4,0-.75-.3-1-1-1-2,0-3.92,0-5.88,0-1.25,0-2.94-.58-3.61.27S36,48.07,35.93,49.32ZM18,59.19H37.43l.06-.13H18ZM8.92,34V9.76H8.79V34Zm.5-1.83a5.19,5.19,0,0,0,1.89,4.21c3.08,2.75,6.92,3.64,10.82,4.08a46.56,46.56,0,0,0,13.38-.32A20.14,20.14,0,0,0,44.1,36.9a5.46,5.46,0,0,0,2.58-4.79c-.15-7-.08-14,0-21.07,0-1.06-.32-1.33-1.33-1.32-5.76,0-11.52,0-17.28,0s-11.43,0-17.14,0c-1.11,0-1.49.23-1.48,1.43C9.48,18.16,9.5,25.19,9.42,32.21ZM18.06,6.86V2.49H18V6.86ZM38.39,2.45V6.83h.12V2.45ZM9.31,50.31h.13V45.69l-.13,0ZM47,45.69v4.63h.1V45.68ZM45.3,59h-.16v3.65h.16ZM10.05,51H20.19V50.9h-10Zm37.06-17V9.84H47V34Zm-.74,16.84H36.22V51H46.36A.62.62,0,0,1,46.37,50.91ZM14,.29c9.37,0,18.74-.07,28.11,0,4.54,0,8.22,3.91,8.22,8.92,0,5.36,0,10.72,0,16.08q0,3.19,0,6.41c0,.46-.32,1.19.4,1.33A4.46,4.46,0,0,0,53.28,33c.17-.07.21-.22.21-.41h.81c0,.16,0,.31,0,.47,0,.85-.23,1.13-1.1,1.13-2.9,0-2.9.06-2.9,3,0,4.58,0,9.16,0,13.74a8.7,8.7,0,0,1-3.79,7.47,1.34,1.34,0,0,0-.63,1.3c0,.87-.05,1.75,0,2.61s-.32,1.19-1.21,1.16q-2.74-.09-5.49,0c-.86,0-1.13-.25-1.14-1.11,0-2.42-.05-2.42-2.49-2.42-5.58,0-11.17,0-16.75,0-1,0-1.28.22-1.25,1.23.07,2.3,0,2.3-2.3,2.3-1.35,0-2.71-.06-4,0-1,.06-1.26-.31-1.13-1.19,0-.17,0-.35,0-.52.16-1.74.06-3.32-1.7-4.34a4.48,4.48,0,0,1-1.51-2.09,8.52,8.52,0,0,0-.74-2.63c.27-.24.22-.56.22-.86V34.54c0-.34.07-.71-.26-1-1.1-.53-2.27-.15-3.4-.28h0c0-.29,0-.59.27-.77l.12,0,.13,0a4.75,4.75,0,0,0,2.09,0h.79c.07,0,.2,0,.21,0a1.57,1.57,0,0,0,0-.37V8.41a.86.86,0,0,0-.22-.72c.08-.54.15-1.07.22-1.61A8.08,8.08,0,0,1,14,.29Zm23.89,3.2c0-1-.3-1.26-1.26-1.26-4.88,0-9.77,0-14.65,0-3.36,0-3.33,0-3.35,3.33,0,1,.25,1.38,1.32,1.36,2.75-.07,5.49,0,8.24,0h6.28C37.87,6.91,37.83,6.91,37.86,3.49ZM15.14,50.3c.53,0,1.05,0,1.57,0,1.21,0,2.81.53,3.53-.21s.15-2.48.29-3.76c.07-.77-.26-1-1-1-2,0-4,0-6,0-3.84,0-3.82,0-3.75,3.84,0,.9.36,1.12,1.17,1.1C12.36,50.27,13.75,50.3,15.14,50.3ZM13.24,1.05H42.75V.94H13.24Zm5.47,6.51h19V7.43H18.76A1.12,1.12,0,0,0,18.71,7.56Z" transform="translate(-0.25 -0.25)"/><polygon class="cls-1" points="2.45 33.04 2.46 33.04 2.46 33.05 2.45 33.04"/><path class="cls-1" d="M4.66,33.5a3.23,3.23,0,0,1-1.92-.09.89.89,0,0,1-.17-.24l.13.12h0c1.13.13,2.3-.25,3.4.28v1.15A1.53,1.53,0,0,0,5.94,34,1.3,1.3,0,0,0,4.66,33.5Z" transform="translate(-0.25 -0.25)"/><path class="cls-1" d="M4.16,22.21c0,1.2-.11,2.22-1.24,2.87a1,1,0,0,0,0,.1h0a.31.31,0,0,0-.32-.08,1.17,1.17,0,0,0-.79-.52A1,1,0,0,1,1,23.41q0-6.15,0-12.3c0-.39,0-.86.39-1A3.15,3.15,0,0,1,3.6,10c.72.22.52.93.52,1.47C4.14,15.05,4.09,18.63,4.16,22.21Z" transform="translate(-0.25 -0.25)"/><path class="cls-1" d="M2.77,32.42a.9.9,0,0,0-.15.19l0-.18.06-.59a1.05,1.05,0,0,0,.16.53Z" transform="translate(-0.25 -0.25)"/><path class="cls-1" d="M2.55,33.12a.53.53,0,0,1,.07-.51.86.86,0,0,0,.08.68l-.13-.12S2.55,33.14,2.55,33.12Z" transform="translate(-0.25 -0.25)"/><path class="cls-1" d="M2.55,33.12c-.21-.31-.1-.69-.1-1,0-2.3,0-4.6,0-6.89h.2c0,.2.05.41.06.61v0c0,.25,0,.51,0,.76,0,1.52,0,3.05,0,4.57,0,.23,0,.46,0,.69l-.06.59,0,.18A.53.53,0,0,0,2.55,33.12Z" transform="translate(-0.25 -0.25)"/><path class="cls-1" d="M2.65,25.17v0h-.2a.28.28,0,0,1,.16-.1A.25.25,0,0,1,2.65,25.17Z" transform="translate(-0.25 -0.25)"/><path class="cls-1" d="M1,11.11q0,6.15,0,12.3a1,1,0,0,0,.8,1.17,1.17,1.17,0,0,1,.79.52.28.28,0,0,0-.16.1C.62,24.52.62,24.52.62,22.29c0-3.84,0-7.67,0-11.51,0-1.06.33-1.32,1.34-1.31,2.61,0,2.61,0,2.61,2.64,0,3.53-.06,7.06,0,10.59,0,1.3,0,2.35-1.61,2.48a1,1,0,0,1,0-.1c1.13-.65,1.26-1.67,1.24-2.87-.07-3.58,0-7.16,0-10.73,0-.54.2-1.25-.52-1.47a3.15,3.15,0,0,0-2.18.06C1,10.25,1,10.72,1,11.11Z" transform="translate(-0.25 -0.25)"/><path class="cls-1" d="M5.77,35.05c0-1-.22-1.52-1.33-1.33a9.11,9.11,0,0,1-1.17,0c-.84.06-1.14-.3-1.12-1.16.05-2.09,0-4.18,0-6.27,0-.77-.06-1.3-1-1.15-.77.11-.9-.3-.9-1,0-4.67,0-9.33,0-14C.25,9.35.51,9,1.31,9.11a29.34,29.34,0,0,1,3.51.11A2.1,2.1,0,0,1,5,10.61Q5,16.76,5,22.9c0,2.15,0,2.15-2,2.33l0-.05C4.56,25.05,4.6,24,4.57,22.7c-.09-3.53,0-7.06,0-10.59,0-2.64,0-2.6-2.61-2.64-1,0-1.36.25-1.34,1.31.07,3.84,0,7.67,0,11.51,0,2.23,0,2.23,1.83,2.91,0,2.29,0,4.59,0,6.89,0,.34-.11.72.1,1,0,0,0,0,0,.05a.89.89,0,0,0,.17.24,3.23,3.23,0,0,0,1.92.09A1.3,1.3,0,0,1,5.94,34a1.53,1.53,0,0,1,.17.78c0,.16,0,.33,0,.49,0,5.73,0,11.46,0,17.19a9.87,9.87,0,0,0,.8,2.88,7.42,7.42,0,0,1-1.13-4.42Q5.73,43,5.77,35.05Z" transform="translate(-0.25 -0.25)"/></g></g></svg>