<svg id="Capa_1" data-name="Capa 1" xmlns="http://www.w3.org/2000/svg" viewBox="0 0 185.21 247.27"><defs><style>.cls-1{fill:#5b5b5b;}.cls-2{fill:#fff;}</style></defs><title>linea_disabled</title><g id="Capa_1-2" data-name="Capa 1-2"><path class="cls-1" d="M185.11,63c.15,17.66,0,35.32,0,53,0,21.32-.12,42.64,0,64,.08,10.76-3.1,20.21-10,28.37a7.55,7.55,0,0,0-1.91,5.44c.1,6.66.07,13.32,0,20-.06,8.28-5,13.1-13.29,13.11-3.5,0-7,.08-10.5,0a11.45,11.45,0,0,1-10.65-9.33,39.5,39.5,0,0,1-.65-5.42c-.28-11.26-.26-11.26-11.43-11.26-24.65,0-49.31.08-74-.09-4,0-5.76.83-5.4,5.19,1.15,14.14-1.15,22-20.76,21.21-9.37-.36-15.18-7.29-15-15.18,0-2.16-.07-4.33,0-6.5C12,217,11.92,209,5.74,201.69.73,195.76.25,187.5.23,179.87.07,137.72-.22,95.57.28,53.43.6,26.76,12.43,11.28,42.31,4.7,54.56,2,66.91,1.93,79.22.65c14.54-1.52,28.87,0,43.17.81,16.59.93,33.1,4,47,14.63,7.74,5.93,11.65,14,14.25,23.19C185.88,47.18,185,55.09,185.11,63Z" transform="translate(0 0)"/><path class="cls-2" d="M93,111.86c-21,0-42-.16-62.93.12-4.85.06-5.75-1.5-5.69-6,.26-17.64.3-35.3,0-52.94-.08-4.47,2-4.33,5.08-4.33q45,.07,89.91,0c12.32,0,24.64.09,37-.06,3.3,0,4.65.63,4.61,4.37-.21,18.14-.16,36.29,0,54.44,0,3.35-.67,4.51-4.43,4.47C135.27,111.74,114.12,111.86,93,111.86Z" transform="translate(0 0)"/><path class="cls-2" d="M162.15,168.47c-.06,9.42-8.69,18.72-17.21,18.55s-17.1-9.72-16.45-19.07c.85-12.16,8-18.58,17.31-18.67C154.33,149.2,161.88,158.29,162.15,168.47Z" transform="translate(0 0)"/><path class="cls-2" d="M24.33,165.94c-.28-11.36,8.84-18.63,16.83-18.44,8.61.22,16.3,8.87,16.38,19.19.07,9.56-8.5,18.73-17.14,18.51C31.45,185,24.3,176.4,24.33,165.94Z" transform="translate(0 0)"/></g></svg>