<?xml version="1.0" encoding="utf-8"?>
<!-- Generator: Adobe Illustrator 23.0.0, SVG Export Plug-In . SVG Version: 6.00 Build 0)  -->
<svg version="1.1" id="Capa_1" xmlns="http://www.w3.org/2000/svg" xmlns:xlink="http://www.w3.org/1999/xlink" x="0px" y="0px"
	 viewBox="0 0 185.2 247.2" style="enable-background:new 0 0 185.2 247.2;" xml:space="preserve">
<style type="text/css">
	.st0{fill:#0060B6;}
	.st1{fill:#FFFFFF;}
</style>
<title>Recurso 1</title>
<g>
	<g id="Capa_1-2">
		<path class="st0" d="M185.1,116c0,21.3-0.1,42.6,0,64c0.1,10.8-3.1,20.2-10,28.4c-1.3,1.5-2,3.4-1.9,5.4c0.1,6.7,0.1,13.3,0,20
			c-0.1,8.3-5,13.1-13.3,13.1c-3.5,0-7,0.1-10.5,0c-5.3-0.3-9.7-4.1-10.6-9.3c-0.3-1.8-0.6-3.6-0.6-5.4
			c-0.3-11.3-0.3-11.3-11.4-11.3c-24.7,0-49.3,0.1-74-0.1c-4,0-5.8,0.8-5.4,5.2c1.2,14.1-1.2,22-20.8,21.2
			c-9.4-0.4-15.2-7.3-15-15.2c0-2.2-0.1-4.3,0-6.5c0.4-8.5,0.4-16.5-5.8-23.9c-5-5.9-5.5-14.2-5.5-21.8c-0.2-42.1-0.4-84.3,0-126.4
			c0.3-26.7,12.2-42.2,42-48.7c12.3-2.7,24.6-2.8,36.9-4c14.5-1.5,28.9,0,43.2,0.8c16.6,0.9,33.1,4,47,14.6
			c7.7,5.9,11.6,14,14.3,23.2c2.2,7.9,1.4,15.8,1.5,23.7C185.3,80.7,185.1,98.3,185.1,116z"/>
		<path class="st1" d="M93,111.9c-21,0-42-0.2-62.9,0.1c-4.9,0.1-5.8-1.5-5.7-6c0.3-17.6,0.3-35.3,0-52.9c-0.1-4.5,2-4.3,5.1-4.3
			c30,0.1,60,0.1,89.9,0c12.3,0,24.6,0.1,37-0.1c3.3,0,4.6,0.6,4.6,4.4c-0.2,18.1-0.2,36.3,0,54.4c0,3.3-0.7,4.5-4.4,4.5
			C135.3,111.7,114.1,111.9,93,111.9z"/>
		<path class="st1" d="M162.1,168.5c-0.1,9.4-8.7,18.7-17.2,18.6s-17.1-9.7-16.4-19.1c0.9-12.2,8-18.6,17.3-18.7
			C154.3,149.2,161.9,158.3,162.1,168.5z"/>
		<path class="st1" d="M24.3,165.9c-0.3-11.4,8.8-18.6,16.8-18.4c8.6,0.2,16.3,8.9,16.4,19.2c0.1,9.6-8.5,18.7-17.1,18.5
			C31.5,185,24.3,176.4,24.3,165.9z"/>
	</g>
</g>
</svg>
