<svg xmlns="http://www.w3.org/2000/svg" viewBox="0 0 45.52 63.24"><defs><style>.cls-1{fill:#5b5b5b;}.cls-2{fill:#fefefe;}</style></defs><title>Recurso 8</title><g id="Capa_2" data-name="Capa 2"><g id="Capa_1-2" data-name="Capa 1"><path class="cls-1" d="M35.31,9.24c1.15,2.89,2.32,5.76,3.44,8.65,1.23,3.2,2.39,6.43,3.61,9.63,1,2.63,2.08,5.22,3.06,7.86.39,1.06-.45,2-.74,2.91C43,43.62,41.26,48.91,39.53,54.21l-2.7,8.22a1.06,1.06,0,0,1-1.19.81q-13.3,0-26.6,0a1.11,1.11,0,0,1-1.23-.92C5.39,54.73,3.1,47.1.45,39.59a8.24,8.24,0,0,1,.19-5.84C2.77,27.57,4.84,21.38,7,15.21A35.21,35.21,0,0,1,9,9.75c.26-1.3,1.08-1.56,2.33-1.54,3.66,0,7.33,0,11,0,3.83,0,7.67.06,11.5.05A1.43,1.43,0,0,1,35.31,9.24Z"/><path class="cls-1" d="M35.31,9.24a2.11,2.11,0,0,0-2-.76q-10.68,0-21.38,0c-1.21,0-2.43-.17-3,1.27C9,8.59,9.38,8,10.73,8c3.25.1,6.5,0,9.75.05.89,0,1.14-.28,1.11-1.15-.06-2,0-4,0-6,0-.33-.32-.9.42-.94a5.29,5.29,0,0,1,.36,2.81c0,1.25,0,2.5,0,3.75,0,.29-.07.79.38.77s.34-.5.35-.81c.05-1,0-2.08,0-3.12,0-.87.4-1.53,1.32-1.49,1.19.05,1.77-.43,1.83-1.6,0-.12.13-.22.21-.31,1,.48.33,1.36.41,2,0,.47-.56.35-.91.36-2,.09-2,.09-2,2.07,0,.83.05,1.67,0,2.5s.21,1.15,1.1,1.13c3-.05,5.92,0,8.88,0C34.85,8.05,35.35,8.31,35.31,9.24Z"/><path class="cls-1" d="M26.53,0a4.7,4.7,0,0,0,0,.75c.15,1.09-.19,1.67-1.41,1.47s-1.74.3-1.63,1.58c.1,1.12,0,2.25,0,3.37,0,.58-.2.84-.8.82S22,7.71,22,7.21C22,4.81,22,2.4,22,0Z"/><path class="cls-2" d="M22.2,44.64c-3.56,0-7.11,0-10.67,0a1.29,1.29,0,0,1-1.45-1c-.63-2-1.24-4-1.87-6a1.51,1.51,0,0,1,.09-1q2.61-8.21,5.16-16.44A1.51,1.51,0,0,1,15.21,19q7.71.11,15.43,0a1.39,1.39,0,0,1,1.63,1.19c1.27,4.37,2.58,8.72,3.87,13.08a9.67,9.67,0,0,0,.41,1.29c.84,1.82.12,3.47-.51,5.13-.48,1.28-1,2.56-1.42,3.85A1.46,1.46,0,0,1,33,44.67C29.4,44.6,25.8,44.64,22.2,44.64Z"/></g></g></svg>