<?xml version="1.0" encoding="utf-8"?>
<!-- Generator: Adobe Illustrator 23.0.0, SVG Export Plug-In . SVG Version: 6.00 Build 0)  -->
<svg version="1.1" id="Capa_1" xmlns="http://www.w3.org/2000/svg" xmlns:xlink="http://www.w3.org/1999/xlink" x="0px" y="0px"
	 viewBox="0 0 185.2 246.8" style="enable-background:new 0 0 185.2 246.8;" xml:space="preserve">
<style type="text/css">
	.st0{fill:#0060B6;}
	.st1{fill:#FEFEFE;}
	.st2{fill:#FDFEFE;}
</style>
<title>metroplus</title>
<path class="st0" d="M185.1,115.7c0,21.2-0.2,42.3,0.1,63.5c0.1,11.1-3,20.9-10.3,29.3c-1.3,1.5-1.9,3.5-1.7,5.5
	c0.1,6.7,0.1,13.3,0,20c-0.1,7.9-5.1,13-13,12.7c-4.9-0.2-9.7,1.1-14.6-1c-6.2-2.7-7.2-7.8-7.4-13.4c-0.5-11.6-0.4-11.6-12.1-11.6
	c-24.5,0-49,0.1-73.5-0.1c-4.3,0-5.3,1.4-5.3,5.4c0.1,4.4,1,9-1.2,13.3c-2.4,4.9-6,8-11.7,7.4c-5-0.5-10,1.1-15-1.3
	c-5.6-2.7-7.2-7.3-7.8-12.7c-0.2-2.3-0.2-4.7,0-7c0.2-8.6,0.4-16.8-6-24.2c-5-5.7-5.4-13.9-5.5-21.3C0,137.8-0.1,95.5,0.2,53.2
	c0.1-14.8,3.8-28.7,16.7-38c7.6-5.5,16.2-8.3,25.3-10.6C60,0.1,78.1,0,96.1,0.1c16.6,0.1,33.5,0.2,49.8,4.9
	c14.7,4.2,28.5,10.2,34.9,25.7c2.7,6.5,4.6,13.3,4.5,20.6C185,72.7,185.1,94.2,185.1,115.7z"/>
<path class="st1" d="M92.8,53c21.2,0,42.3,0.1,63.5-0.1c3.8,0,5.1,0.8,5,5c-0.3,17.8-0.2,35.7,0,53.5c0,3.7-1,4.8-4.8,4.8
	c-42.3-0.1-84.7-0.1-127,0c-3.8,0-4.8-1.2-4.8-4.8c0.2-18,0.2-36,0-54c0-3.8,1.2-4.4,4.5-4.4C50.5,53.1,71.6,53,92.8,53z"/>
<path class="st1" d="M161.2,175.2c-1.3,11-7.6,18.1-17.2,18.4c-8.5,0.3-17.1-9.6-16.4-19c0.9-12.2,8-18.6,17.3-18.7
	C153.4,155.9,160.9,165,161.2,175.2z"/>
<path class="st2" d="M24.8,174.6c-0.8-11.2,8.6-18.7,16.5-18.7c8.4,0.1,16.1,8.3,16.6,18.5c0.4,9.9-7.9,19.3-16.9,19.2
	C31.8,193.5,23.9,184,24.8,174.6z"/>
</svg>
