<?xml version="1.0" encoding="utf-8"?>
<!-- Generator: Adobe Illustrator 23.0.0, SVG Export Plug-In . SVG Version: 6.00 Build 0)  -->
<svg version="1.1" id="Capa_1" xmlns="http://www.w3.org/2000/svg" xmlns:xlink="http://www.w3.org/1999/xlink" x="0px" y="0px"
	 viewBox="0 0 44.3 58.4" style="enable-background:new 0 0 44.3 58.4;" xml:space="preserve">
<style type="text/css">
	.st0{fill:#0060B6;}
	.st1{fill:#FEFEFE;}
	.st2{fill:#FCFDFD;}
</style>
<title>Recurso 3</title>
<g>
	<g id="Capa_1-2">
		<path class="st0" d="M22.4,58.4c-6.5,0-13,0-19.5,0c-1,0-1.5-0.3-1.5-1.3c-0.3-3.2-0.6-6.4-0.9-9.6c-0.2-1.7-0.2-3.4-0.5-5.1
			C0,41.2,0,40,0.2,38.9c0.4-4.7,0.9-9.5,1.4-14.2c0.3-3.2,0.5-6.4,0.8-9.6c0.3-3.6,0.7-7.2,1.1-10.9c0.1-0.9,0.1-1.9,0.2-2.8
			S4.2,0,5.2,0c4.4,0,8.9,0,13.3,0c6.8,0,13.6,0,20.4,0c1.1,0,1.4,0.4,1.5,1.4c0.4,4.4,0.8,8.8,1.2,13.2c0.4,4.2,1,8.4,1.4,12.7
			c0.3,3.3,0.5,6.7,1,10c0.4,3.1,0.4,6.3,0.1,9.5c-0.2,3.4-0.5,6.8-0.6,10.3c0,1.2-0.5,1.5-1.6,1.4C35.4,58.3,28.9,58.4,22.4,58.4z"
			/>
		<path class="st1" d="M22.3,39.3c-5,0-10,0-15,0c-1,0-1.4-0.2-1.3-1.3c0.4-4.7,0.8-9.5,1.1-14.2C7.5,18.4,7.9,13,8.2,7.7
			c0.1-1,0.7-0.8,1.2-0.8h16.8c2.9,0,5.8,0,8.6,0c0.8,0,1.2,0.1,1.2,1.1c0.3,4.3,0.7,8.6,1.1,13c0.3,3.6,0.5,7.2,0.8,10.8
			c0.2,2.3,0.3,4.5,0.6,6.8c0.2,1.1-0.4,0.9-1,0.9L22.3,39.3z"/>
		<path class="st2" d="M11.7,49c-1.7,0-3.4,0-5.2,0c-0.7,0-1-0.2-1-0.9C5.4,45,5.4,45,8.5,45c2.7,0,5.5,0,8.2,0
			c0.9,0,1.2,0.3,1.2,1.2c0,2.9,0,2.9-2.9,2.9L11.7,49z"/>
		<path class="st2" d="M31.8,49c-1.7,0-3.4,0-5.1,0c-0.7,0-0.9-0.2-0.9-0.9c-0.1-3.2-0.2-3.2,3-3.2c2.7,0,5.4,0,8.1,0
			c0.9,0,1.2,0.3,1.2,1.2c0,2.9,0,2.9-2.9,2.9H31.8z"/>
	</g>
</g>
</svg>
