<svg xmlns="http://www.w3.org/2000/svg" viewBox="0 0 44.27 58.38"><defs><style>.cls-1{fill:#5b5b5b;}.cls-2{fill:#fefefe;}.cls-3{fill:#fcfdfd;}</style></defs><title>Recurso 4</title><g id="Capa_2" data-name="Capa 2"><g id="Capa_1-2" data-name="Capa 1"><path class="cls-1" d="M44.19,37.43a44.21,44.21,0,0,1,.14,9.48c-.23,3.42-.49,6.85-.63,10.27,0,1.16-.47,1.45-1.55,1.45-6.5,0-13,0-19.48,0s-13,0-19.47,0c-1,0-1.45-.29-1.54-1.34-.25-3.2-.59-6.4-.88-9.6C.62,46,.6,44.26.32,42.58a13.58,13.58,0,0,1,.14-3.44C.86,34.4,1.4,29.68,1.85,25c.31-3.2.52-6.41.82-9.61C3,11.71,3.4,8.09,3.74,4.47c.09-.94.11-1.89.17-2.83S4.45.24,5.49.25c4.42,0,8.85,0,13.28,0,6.79,0,13.58,0,20.37,0,1.09,0,1.43.41,1.52,1.38.38,4.39.76,8.78,1.2,13.17.42,4.22,1,8.43,1.38,12.64C43.58,30.77,43.7,34.13,44.19,37.43Z" transform="translate(-0.25 -0.25)"/><path class="cls-2" d="M22.55,39.6c-5,0-10,0-15,0-1,0-1.44-.19-1.35-1.33.42-4.73.76-9.47,1.12-14.21.4-5.38.83-10.76,1.17-16.14.07-1,.66-.81,1.22-.81H26.51c2.88,0,5.76,0,8.65,0,.81,0,1.16.12,1.22,1.09.29,4.32.72,8.63,1.06,13,.29,3.59.54,7.18.81,10.77.18,2.26.28,4.54.62,6.79.17,1.1-.4.88-1,.88Z" transform="translate(-0.25 -0.25)"/><path class="cls-3" d="M11.91,49.29c-1.72,0-3.43,0-5.15,0-.7,0-1-.2-1-.94-.09-3.13-.12-3.13,2.94-3.13,2.74,0,5.49,0,8.23,0,.92,0,1.16.3,1.16,1.18,0,2.9,0,2.9-2.86,2.9Z" transform="translate(-0.25 -0.25)"/><path class="cls-3" d="M32.09,49.29c-1.72,0-3.44,0-5.15,0-.66,0-.88-.2-.91-.88-.14-3.19-.16-3.19,3-3.19,2.71,0,5.42,0,8.12,0,.92,0,1.17.29,1.17,1.18,0,2.89,0,2.89-2.87,2.89Z" transform="translate(-0.25 -0.25)"/></g></g></svg>