<?xml version="1.0" encoding="utf-8"?>
<!-- Generator: Adobe Illustrator 23.0.0, SVG Export Plug-In . SVG Version: 6.00 Build 0)  -->
<svg version="1.1" id="Capa_1" xmlns="http://www.w3.org/2000/svg" xmlns:xlink="http://www.w3.org/1999/xlink" x="0px" y="0px"
	 viewBox="0 0 45.5 63.2" style="enable-background:new 0 0 45.5 63.2;" xml:space="preserve">
<style type="text/css">
	.st0{fill:#0060B6;}
	.st1{fill:#FEFEFE;}
</style>
<title>Recurso 7</title>
<g>
	<g id="Capa_1-2">
		<path class="st0" d="M35.3,9.2c1.2,2.9,2.3,5.8,3.4,8.6c1.2,3.2,2.4,6.4,3.6,9.6c1,2.6,2.1,5.2,3.1,7.9c0.4,1.1-0.5,2-0.7,2.9
			c-1.7,5.3-3.4,10.6-5.2,15.9l-2.7,8.2c-0.1,0.5-0.6,0.9-1.2,0.8c-8.9,0-17.7,0-26.6,0c-0.6,0.1-1.1-0.3-1.2-0.9
			c-2.4-7.6-4.7-15.2-7.4-22.7c-0.7-1.9-0.6-4,0.2-5.8C2.8,27.6,4.8,21.4,7,15.2c0.5-1.9,1.2-3.7,2-5.5c0.3-1.3,1.1-1.6,2.3-1.5
			c3.7,0,7.3,0,11,0c3.8,0,7.7,0.1,11.5,0.1C34.5,8.2,35.1,8.6,35.3,9.2z"/>
		<path class="st0" d="M35.3,9.2c-0.5-0.6-1.2-0.9-2-0.8c-7.1,0-14.2,0-21.4,0c-1.2,0-2.4-0.2-3,1.3C9,8.6,9.4,8,10.7,8
			c3.3,0.1,6.5,0,9.8,0.1c0.9,0,1.1-0.3,1.1-1.2c-0.1-2,0-4,0-6C21.6,0.6,21.3,0,22,0c0.4,0.9,0.5,1.9,0.4,2.8c0,1.3,0,2.5,0,3.8
			c0,0.3-0.1,0.8,0.4,0.8s0.3-0.5,0.4-0.8c0-1,0-2.1,0-3.1c0-0.9,0.4-1.5,1.3-1.5c1.2,0,1.8-0.4,1.8-1.6c0-0.1,0.1-0.2,0.2-0.3
			c1,0.5,0.3,1.4,0.4,2c0,0.5-0.6,0.3-0.9,0.4c-2,0.1-2,0.1-2,2.1c0,0.8,0,1.7,0,2.5S24.2,8,25.1,8c3-0.1,5.9,0,8.9,0
			C34.8,8.1,35.3,8.3,35.3,9.2z"/>
		<path class="st0" d="M26.5,0c0,0.2,0,0.5,0,0.8c0.1,1.1-0.2,1.7-1.4,1.5s-1.7,0.3-1.6,1.6c0.1,1.1,0,2.3,0,3.4
			c0,0.6-0.2,0.8-0.8,0.8S22,7.7,22,7.2c0-2.4,0-4.8,0-7.2H26.5z"/>
		<path class="st1" d="M22.2,44.6c-3.6,0-7.1,0-10.7,0c-0.7,0.1-1.3-0.3-1.4-1c-0.6-2-1.2-4-1.9-6c-0.1-0.3-0.1-0.7,0.1-1
			c1.7-5.5,3.5-11,5.2-16.4c0.2-0.8,0.9-1.3,1.7-1.2c5.1,0.1,10.3,0.1,15.4,0c0.8-0.1,1.5,0.4,1.6,1.1c0,0,0,0,0,0.1
			c1.3,4.4,2.6,8.7,3.9,13.1c0.1,0.4,0.2,0.9,0.4,1.3c0.8,1.8,0.1,3.5-0.5,5.1c-0.5,1.3-1,2.6-1.4,3.8c-0.2,0.7-0.9,1.2-1.6,1.1
			C29.4,44.6,25.8,44.6,22.2,44.6z"/>
	</g>
</g>
</svg>
