<svg id="Capa_1" data-name="Capa 1" xmlns="http://www.w3.org/2000/svg" viewBox="0 0 64 64"><defs><style>.cls-1{font-size:6.8px;fill:#fff;font-family:HelveticaLTStd-Bold, Helvetica LT Std;font-weight:700;}</style></defs><title>nuevos iconos</title><path d="M49.56,14.38A5.34,5.34,0,1,0,44.22,9,5.34,5.34,0,0,0,49.56,14.38Z"/><path d="M14.32,28a4.27,4.27,0,1,0,4.27-4.28A4.27,4.27,0,0,0,14.32,28Z"/><path d="M53.84,48.55A3.21,3.21,0,1,0,57,51.76,3.21,3.21,0,0,0,53.84,48.55Z"/><path d="M2.74,51.76h8.54v6.41H2.74Z"/><path d="M41,36.81h2.14v4.27H41Z"/><path d="M11.08,50.69V60.3h2.14V49.62H11.08Z"/><path d="M53.89,29.07a1.07,1.07,0,0,1-.38-1.46.91.91,0,0,1,.11-.16,5.34,5.34,0,1,0-9.22-4.78,1.07,1.07,0,0,1-2,.2,7.47,7.47,0,1,0-11.77,8.76,1.07,1.07,0,0,1,.06,1.51,1.09,1.09,0,0,1-.26.21A6.41,6.41,0,0,0,28,42.07a6.66,6.66,0,0,0,.64.93,1.07,1.07,0,0,1-.15,1.5,1,1,0,0,1-.31.18,6.44,6.44,0,0,0-2.51,1.7,1.06,1.06,0,0,1-1.12.29,5.35,5.35,0,0,0-7,5.09,1.06,1.06,0,0,1-1.06,1.07H13.25V57.1H30.34a6.4,6.4,0,0,0,6.3-5.26A1.07,1.07,0,0,1,37.88,51a1,1,0,0,1,.29.1,6.26,6.26,0,0,0,2.85.68,6.44,6.44,0,0,0,6.38-5.88,1,1,0,0,1,.39-.73,1.05,1.05,0,0,1,.8-.24,7.89,7.89,0,0,0,1,.06,8.54,8.54,0,0,0,4.33-15.9Z"/><circle cx="26.25" cy="44.26" r="5.32"/><circle cx="30.36" cy="53.87" r="5.32"/><circle cx="37.84" cy="50.91" r="5.32"/><circle cx="44.22" cy="46.39" r="5.32"/><circle cx="43.16" cy="20.52" r="5.32"/><circle cx="55.95" cy="27.99" r="5.32"/><ellipse cx="28.18" cy="35.38" rx="5.32" ry="6.07"/><text class="cls-1" transform="translate(30.36 38.35)">PM 2.5</text></svg>