<svg xmlns="http://www.w3.org/2000/svg" viewBox="0 0 247.79 440"><title>Recurso 3</title><g id="Capa_2" data-name="Capa 2"><g id="Layer_1" data-name="Layer 1"><path d="M245.55,0H2.23A2.24,2.24,0,0,0,0,2.24V9.91a2.23,2.23,0,0,0,2.23,2.24h13.1V25.51H7.44L42.33,438.08,181.53,440l0-.3,25.12.29h.63L237.88,25.51h-4.63V12.15h12.3a2.24,2.24,0,0,0,2.24-2.24V2.24A2.25,2.25,0,0,0,245.55,0ZM44,25.51H24.26V12.15H44ZM145.67,245.62a1,1,0,0,1-1,1H103.13a1,1,0,0,1-1-1V219.89a1,1,0,0,1,1-1h41.53a1,1,0,0,1,1,1Zm31.07-47.11a3.9,3.9,0,0,1-3.9,3.9H75a3.89,3.89,0,0,1-3.9-3.9V120.42a3.9,3.9,0,0,1,3.9-3.9h97.89a3.91,3.91,0,0,1,3.9,3.9Zm13.51,10a1.8,1.8,0,0,1-3.6,0V111.8a6.35,6.35,0,0,0-6.34-6.35H67.47a6.36,6.36,0,0,0-6.34,6.35v96.72a1.8,1.8,0,0,1-3.59,0V111.8a9.94,9.94,0,0,1,9.93-9.94H180.31a10,10,0,0,1,9.94,9.94Zm6.18-183H52.89V12.15H196.43Zm27.89,0H205.37V12.15h18.95Z"/></g></g></svg>