<svg xmlns="http://www.w3.org/2000/svg" viewBox="0 0 63.76 55.56"><defs><style>.cls-1{fill:#565656;}.cls-2{fill:#575757;}.cls-3{fill:#5a5a5a;}.cls-4{fill:#fff;}.cls-5{fill:#fcfcfc;}</style></defs><title>Recurso 17</title><g id="Capa_2" data-name="Capa 2"><g id="Capa_1-2" data-name="Capa 1"><path class="cls-1" d="M19.05,55.56C13,45.33,7,36.09,1.94,26.39-2.21,18.48.61,8.83,7.49,3.73a19.66,19.66,0,0,1,24,.7c6.72,5.7,9,15.15,4.7,22.83C31,36.56,25.16,45.52,19.05,55.56Z"/><path class="cls-2" d="M58.27,28.68c0,6.36,0,12.71,0,19.07,0,4.57-.84,4.94-5,2.58-1.23-2-.37-4.14-.63-6.2,0-3.59,0-7.18,0-9.33-.33,2.12.1,5.72,0,9.3-.18,2.11.41,4.27-.39,6.34-3.38,2.9-5,1.51-5.06-2.33-.09-5.32.17-10.64.21-16,0-1.56.6-3.61-2.48-2.79-1.57.42-2.28-1.06-2.68-2.51-1.05-3.91,1.44-11.32,4.93-13.36a10.5,10.5,0,0,1,12.1.42c3.28,2.36,5.54,10.16,4.12,13.69-.79,2-2.18,2.53-4,1.08C58.21,26.46,59.37,26.45,58.27,28.68Z"/><path class="cls-3" d="M57.13,5.62c-.17,2.61-1.36,4.32-4,4.52S48.72,9,48.52,6.37s1.07-4.66,4.12-4.71C55.32,1.61,56.67,3.16,57.13,5.62Z"/><path class="cls-4" d="M53,44.28c.09,2,.19,4,.28,6l-1,.11q0-3.09,0-6.16C52.47,43.72,52.71,43.75,53,44.28Z"/><path class="cls-5" d="M26.19,18.48a7.48,7.48,0,0,1-6.85,7.07c-3.67.14-6.65-2.92-6.7-6.89s2.65-6.93,6.56-7A7.12,7.12,0,0,1,26.19,18.48Z"/><path class="cls-4" d="M53,44.28l-.36,0-.36,0V33.72H53Z"/><path class="cls-4" d="M44.61,26.21a2.85,2.85,0,0,0,1-2.41,6.79,6.79,0,0,1,0-2.4s.9-.37.78,1.29,0,.63,0,.63v4"/><path class="cls-4" d="M57.17,21.49V25l.31.47.3-1.19V22c0-.65-.39-.5-.39-.5"/></g></g></svg>