<?xml version="1.0" encoding="utf-8"?>
<!-- Generator: Adobe Illustrator 23.0.0, SVG Export Plug-In . SVG Version: 6.00 Build 0)  -->
<svg version="1.1" id="Capa_1" xmlns="http://www.w3.org/2000/svg" xmlns:xlink="http://www.w3.org/1999/xlink" x="0px" y="0px"
	 viewBox="0 0 63.8 55.6" style="enable-background:new 0 0 63.8 55.6;" xml:space="preserve">
<style type="text/css">
	.st0{fill:#0070AF;}
	.st1{fill:#0060B6;}
	.st2{fill:#FFFFFF;}
	.st3{fill:#FCFCFC;}
</style>
<title>Recurso 18</title>
<g>
	<g id="Capa_1-2">
		<path class="st0" d="M19,55.6C13,45.3,7,36.1,1.9,26.4C-2.2,18.5,0.6,8.8,7.5,3.7c7.2-5.2,17.1-5,24,0.7c6.7,5.7,9,15.1,4.7,22.8
			C31,36.6,25.2,45.5,19,55.6z"/>
		<path class="st0" d="M58.3,28.7c0,6.4,0,12.7,0,19.1c0,4.6-0.8,4.9-5,2.6c-1.2-2-0.4-4.1-0.6-6.2c0-3.6,0-7.2,0-9.3
			c-0.3,2.1,0.1,5.7,0,9.3c-0.2,2.1,0.4,4.3-0.4,6.3c-3.4,2.9-5,1.5-5.1-2.3c-0.1-5.3,0.2-10.6,0.2-16c0-1.6,0.6-3.6-2.5-2.8
			c-1.6,0.4-2.3-1.1-2.7-2.5c-1-3.9,1.4-11.3,4.9-13.4c3.7-2.4,8.6-2.3,12.1,0.4c3.3,2.4,5.5,10.2,4.1,13.7c-0.8,2-2.2,2.5-4,1.1
			C58.2,26.5,59.4,26.5,58.3,28.7z"/>
		<path class="st1" d="M57.1,5.6c-0.2,2.6-1.4,4.3-4,4.5S48.7,9,48.5,6.4s1.1-4.7,4.1-4.7C55.3,1.6,56.7,3.2,57.1,5.6z"/>
		<path class="st2" d="M53,44.3c0.1,2,0.2,4,0.3,6l-1,0.1c0-2.1,0-4.1,0-6.2C52.5,43.7,52.7,43.8,53,44.3z"/>
		<path class="st3" d="M26.2,18.5c-0.2,3.7-3.1,6.8-6.9,7.1c-3.7,0.1-6.6-2.9-6.7-6.9s2.7-6.9,6.6-7C23,11.7,26,14.7,26.2,18.5z"/>
		<path class="st2" d="M53,44.3h-0.4h-0.4V33.7H53V44.3z"/>
		<path class="st2" d="M45.6,29.2c0.7-0.6,1.1-1.5,1-2.4c-0.1-0.8-0.1-1.6,0-2.4c0,0,0.9-0.4,0.8,1.3s0,0.6,0,0.6v4"/>
		<path class="st2" d="M58.2,24.5V28l0.3,0.5l0.3-1.2V25c0-0.6-0.4-0.5-0.4-0.5"/>
	</g>
</g>
</svg>
