<?xml version="1.0" encoding="utf-8"?>
<!-- Generator: Adobe Illustrator 23.0.0, SVG Export Plug-In . SVG Version: 6.00 Build 0)  -->
<svg version="1.1" id="Capa_1" xmlns="http://www.w3.org/2000/svg" xmlns:xlink="http://www.w3.org/1999/xlink" x="0px" y="0px"
	 viewBox="0 0 162.6 254.4" style="enable-background:new 0 0 162.6 254.4;" xml:space="preserve">
<style type="text/css">
	.st0{fill:#0060B6;}
	.st1{fill:#FEFEFE;}
	.st2{fill:#FDFDFE;}
</style>
<title>Recurso 1</title>
<g>
	<g id="Capa_1-2">
		<path class="st0" d="M82.6,254.3c-24,0-48-0.1-72,0.1c-3.8,0-5.3-1.2-5.6-4.7c-0.5-5.6-1.3-11.2-1.6-16.9
			c-0.6-14.8-4-29.4-3.4-44.2c0.6-13.6,2.1-27.1,3.3-40.7c1.2-13.9,2.5-27.8,3.8-41.7c1.3-13.9,2.8-27.8,4.1-41.6
			c0.8-8.1,1.4-16.2,1.8-24.4c0.2-4.5,1.3-6.7,6.6-6.5c17.8,0.4,35.7,0,53.5,0.2c3.8,0,4.8-1.1,4.7-4.8c-0.3-8.2,0-16.3-0.2-24.5
			c-0.1-3.4,0.8-4.9,4.5-4.7c4,0.3,8,0.3,12,0c4.3-0.3,4.4,2.2,4.3,5.4c-0.1,2.8,0.6,5.6-4.1,5.4c-7.8-0.4-7-1.1-6.8,6.8
			c0.1,5.3-2.3,12,1,15.3c3.1,3.1,9.8,0.9,15,0.9c13.1-0.1,26.3-0.3,39.4-0.7c3.5-0.1,5,0.5,5.5,4.7c2,19.3,3.7,38.7,5.6,58.1
			c2.5,24.9,4.4,50,7.4,74.8c2.3,18.7,0.7,37-0.4,55.5c-0.5,8.5-1.1,16.9-1.3,25.4c-0.1,3.9-2.8,2.6-4.6,2.6
			C131,254.3,106.8,254.3,82.6,254.3z"/>
		<path class="st1" d="M82.3,185.2c-18.3,0-36.7-0.1-55,0.1c-3.5,0-5-0.5-4.6-4.6c2-25.3,3.8-50.7,5.6-76c1-12.9,2-25.8,2.7-38.8
			c0.2-3.4,1.4-4.1,4.5-4.1c31,0.1,62,0.1,93,0c3.9,0,5,1.6,5.2,4.8c1,14.3,1.9,28.5,3,42.7c1.7,21.2,3.3,42.4,5.3,63.6
			c1.2,12.4,1.5,12.4-10.8,12.4L82.3,185.2z"/>
		<path class="st2" d="M118.4,221.4c-6.5,0-12.9-0.1-19.4,0c-2.5,0-3.4-0.7-3.4-3.4c-0.2-11.5-0.3-11.5,11.3-11.5
			c10.1,0,20.3,0.1,30.4-0.1c3,0,3.9,0.9,3.9,3.9c0.1,11,0.2,11-10.8,11L118.4,221.4z"/>
		<path class="st2" d="M43,221.4c-6,0-12-0.1-18,0.1c-3.1,0.1-4.4-0.7-4.4-4.1c0-10.8-0.2-10.8,10.6-10.8c10.3,0,20.6,0.1,31-0.1
			c3,0,4,0.8,4,3.9c0.1,11,0.2,11-10.8,11L43,221.4z"/>
		<polyline class="st0" points="88.9,10.7 88.9,34.8 84.2,34.8 84.2,10.7 		"/>
	</g>
</g>
</svg>
