<svg id="Capa_1" data-name="Capa 1" xmlns="http://www.w3.org/2000/svg" viewBox="0 0 30.2 28.17"><defs><style>.cls-1{fill:#fff;stroke:#000;stroke-miterlimit:10;stroke-width:0.2px;}</style></defs><title>my location-01</title><path class="cls-1" d="M16.27,22.59h.83V28a1.24,1.24,0,0,0,1.24,1.24h3.31A1.24,1.24,0,0,0,22.9,28V22.59h.83A1.24,1.24,0,0,0,25,21.34V16a2.48,2.48,0,0,0-2.49-2.49h-.57a4.64,4.64,0,0,1-3.83,0h-.57A2.48,2.48,0,0,0,15,16v5.39a1.24,1.24,0,0,0,1.24,1.24Z" transform="translate(-4.9 -5.91)"/><path class="cls-1" d="M20,12.64a3.27,3.27,0,0,0,3.31-3.31A3.33,3.33,0,0,0,17.64,7a3.2,3.2,0,0,0-1,2.36A3.27,3.27,0,0,0,20,12.64Z" transform="translate(-4.9 -5.91)"/><path class="cls-1" d="M34.68,27.24H33.23A3.74,3.74,0,0,0,31,24.66a17.58,17.58,0,0,0-4.09-1.4,3.65,3.65,0,0,1-1.5,1.4,17.41,17.41,0,0,1,3.68,1c1.38.49,2.18,1,2.41,1.59H30.07a.32.32,0,0,0-.32.32v.85a.32.32,0,0,0,.32.32h.72a6.94,6.94,0,0,1-1.57.74,24.66,24.66,0,0,1-4.92,1.09,35.34,35.34,0,0,1-4.3.31,32.85,32.85,0,0,1-4.61-.36,24.58,24.58,0,0,1-4.82-1.09,6.5,6.5,0,0,1-1.37-.69h.73a.32.32,0,0,0,.32-.32v-.85a.32.32,0,0,0-.32-.32H8.47c.22-.57,1-1.1,2.42-1.59a22.87,22.87,0,0,1,3.68-1,3.65,3.65,0,0,1-1.5-1.4A17.58,17.58,0,0,0,9,24.66a3.74,3.74,0,0,0-2.2,2.58H5.32a.32.32,0,0,0-.32.32v.85a.32.32,0,0,0,.32.32H7a4.82,4.82,0,0,0,2.23,1.88,20,20,0,0,0,5.49,1.5,35.16,35.16,0,0,0,4.11.39v1.18a.3.3,0,0,0,.3.3h1.65a.3.3,0,0,0,.3-.3V32.51a35.16,35.16,0,0,0,4.11-.39,20,20,0,0,0,5.49-1.5A4.82,4.82,0,0,0,33,28.74h1.72a.32.32,0,0,0,.32-.32v-.85A.32.32,0,0,0,34.68,27.24Z" transform="translate(-4.9 -5.91)"/></svg>