<?xml version="1.0" encoding="utf-8"?>
<!-- Generator: Adobe Illustrator 21.0.1, SVG Export Plug-In . SVG Version: 6.00 Build 0)  -->
<svg version="1.1" id="Capa_1" xmlns="http://www.w3.org/2000/svg" xmlns:xlink="http://www.w3.org/1999/xlink" x="0px" y="0px"
	 viewBox="0 0 600 600" style="enable-background:new 0 0 600 600;" xml:space="preserve">
<style type="text/css">
	.st0{clip-path:url(#SVGID_2_);fill:#006FAC;}
	.st1{fill-rule:evenodd;clip-rule:evenodd;fill:#FFFFFF;}
</style>
<g>
	<g>
		<g>
			<g>
				<g>
					<defs>
						<rect id="SVGID_1_" x="-61.4" y="-39.5" width="727.3" height="715.5"/>
					</defs>
					<clipPath id="SVGID_2_">
						<use xlink:href="#SVGID_1_"  style="overflow:visible;"/>
					</clipPath>
					<path class="st0" d="M578.9,302.6c0,153.1-124.1,277.2-277.2,277.2S24.5,455.7,24.5,302.6S148.6,25.4,301.7,25.4
						S578.9,149.5,578.9,302.6"/>
				</g>
			</g>
			<g>
				<g>
					<defs>
						<rect id="SVGID_3_" x="-61.4" y="-39.5" width="727.3" height="715.5"/>
					</defs>
					<clipPath id="SVGID_4_">
						<use xlink:href="#SVGID_3_"  style="overflow:visible;"/>
					</clipPath>
				</g>
			</g>
		</g>
	</g>
</g>
<g>
	<g>
		<path class="st1" d="M290,238.3c-2.2,0.4-4.4,0.8-6.5,1.4c-30.4,8.4-49.5,38.3-44.4,69.5c2.7,16.3,11.5,30.5,25,40.1
			c13.4,9.6,29.8,13.4,46,10.7c2.2-0.4,4.4-0.8,6.5-1.4l0,0c30.4-8.4,49.5-38.3,44.4-69.5c-2.7-16.3-11.5-30.5-25-40.1
			C322.6,239.4,306.2,235.6,290,238.3L290,238.3z M353.8,290.3c4.6,27.6-12.3,54-39.2,61.4c-1.9,0.5-3.8,0.9-5.7,1.3
			c-14.4,2.4-28.8-1-40.6-9.5c-11.8-8.5-19.7-21.1-22-35.4c-4.6-27.6,12.3-54,39.2-61.4c1.9-0.5,3.8-0.9,5.7-1.2
			c14.4-2.4,28.8,1,40.6,9.5C343.6,263.4,351.4,275.9,353.8,290.3z"/>
		<path class="st1" d="M440.6,221.9c-0.2-0.3-0.5-0.7-0.7-1.1l-0.3-0.4c-3.9-5.6-9.7-14-17-24.5c-0.2-0.3-0.4-0.6-0.6-0.9
			c-0.2-0.2-0.3-0.4-0.5-0.7c-4.1-5.9-8.5-5.7-10.7-5.1c-0.9,0.3-1.9,0.7-2.7,1.3c-3.9,2.7-10.1,7-18.2,12.6
			c-12.5-11.7-26.9-20.7-43-26.9c3.8-20.4,3.8-20.9,3.8-21.3c0-0.7,0-1.3-0.1-1.9c-0.7-4-3.9-6.5-9.6-7.3c-0.7-0.1-6.1-1.1-16.1-3
			l-2.1-0.4c-7.4-1.4-13.2-2.5-13.9-2.7c-6.6-1.6-10.8,0.4-12.3,5c-0.1,0.4-0.3,1-4.5,23c-9.4,0.5-18.7,2.1-27.8,4.6
			c-0.2,0.1-0.5,0.2-0.7,0.3c-5.1,1.4-10,3.2-14.9,5.2c-13-18.6-13.6-19.2-13.8-19.5c-2.2-2.3-5-3.1-8.1-2.3l-0.1,0
			c-1.6,0.5-3.3,1.4-5.1,2.8c-0.5,0.4-6.2,4.4-13.4,9.4c-9.9,6.9-13.1,9.1-13.5,9.3c-7.5,4.7-6.4,9.7-5.1,12.3
			c0.2,0.4,0.4,0.8,13.5,19.7c-10.9,11.7-19.5,25.2-25.6,40.1c-22.5-3.7-23-3.8-23.5-3.8c-0.9,0-1.7,0.1-2.5,0.3
			c-3.6,1-5.8,4.2-6.4,9.6c-0.1,0.6-1,6.1-2.7,16.1c-1.9,11.2-2.7,15.7-2.8,16.2c-1.9,8.6,2.5,11.4,5.2,12.2c0.4,0.1,0.9,0.3,23,4.1
			c0.6,16,3.9,31.5,10,46.1c-18.8,13.1-19.2,13.4-19.5,13.7c-1.5,1.4-3.4,4-2.3,8l0,0.1c0.4,1.5,1.3,3.2,2.8,5.2
			c0.2,0.3,2.9,4.1,9.4,13.5c6.3,9.1,9.1,13.1,9.3,13.5c3.8,6.1,7.9,6.5,10.7,5.8c0.5-0.2,1.1-0.4,1.7-0.7
			c0.3-0.2,0.9-0.5,19.7-13.5c10.4,9.7,22.2,17.6,35.2,23.5l-4.5,24.1c-0.8,4.2,1.2,9.2,9,10.7l0.5,0.1c0.4,0.1,0.9,0.2,1.3,0.3
			c12.7,2.4,22.7,4.3,29.5,5.5c0.5,0.1,1.2,0.2,1.8,0.3c2.3,0.4,4.4,0.4,6.2-0.1c3.2-0.9,5.4-3.3,6-6.6c0.8-3.9,1.9-9.9,3.3-17.6
			l0.9-4.7c17.8,0.1,35.5-3.3,52-10.3l12.7,18.2c2.2,3.2,5.6,4.4,9.4,3.3c1.5-0.4,3-1.2,4.5-2.2l1.5-1c3.7-2.5,8.6-6,14.5-10.1
			l10.1-7.1c0.3-0.2,0.7-0.5,1-0.7l0.5-0.3c5.4-3.8,5.6-7.9,5.3-9.9c-0.2-1.3-0.7-2.5-1.5-3.6c-2.7-3.8-7-10.1-12.6-18.1
			c11.4-12.2,20.3-26.4,26.5-42.3c9.8,1.7,17.5,2.9,22.1,3.7c1.3,0.2,2.6,0.2,3.8-0.2c2-0.6,5.6-2.5,6.7-9l0.3-1.9
			c1.1-6.7,2.8-16.8,5-29.4c0.1-0.6,0.2-1.4,0.3-1.9c0.4-2.2,0.3-4.2-0.1-5.9c-0.9-3.4-3.4-5.7-6.8-6.3l-3-0.5
			c-4.7-0.8-11.4-1.9-19.5-3.3c-0.5-9.7-2-19.2-4.6-28.5c-1.5-5.3-3.3-10.5-5.4-15.6c7.1-5,12.8-8.9,16.7-11.6l1.5-1
			c2.9-2,4.2-5.2,3.5-8.6C442.7,225.6,441.9,223.8,440.6,221.9L440.6,221.9z M435.9,228.7c0.1,0.7,0,0.9-0.5,1.3l-1.5,1
			c-4.3,3-10.9,7.6-19.1,13.3c-1.4,1-1.9,2.9-1.2,4.4c2.5,5.6,4.6,11.4,6.2,17.3c2.7,9.6,4.1,19.6,4.4,29.7c0.1,1.7,1.3,3.2,3,3.5
			c9.4,1.6,17.1,2.9,22.4,3.8l2.9,0.5c0.7,0.1,0.9,0.4,1.1,1c0.1,0.5,0.2,1.4,0,2.9c-0.1,0.5-0.2,1.2-0.3,1.8
			c-2.1,12.7-3.9,22.8-5,29.5l-0.3,1.9c-0.4,2.1-1,3.1-1.5,3.2c-0.2,0-0.4,0-0.7,0c-5.1-0.9-13.8-2.3-25.1-4.2
			c-1.7-0.3-3.4,0.7-4,2.3c-6.2,17-15.6,32-28,44.7c-1.2,1.2-1.4,3.2-0.4,4.6l0.6,0.8c6.1,8.8,10.9,15.7,13.7,19.8
			c0.2,0.2,0.3,0.5,0.3,0.7c0.1,0.5-0.6,1.6-2.3,2.8l-0.5,0.3c-0.4,0.3-0.8,0.5-1.1,0.8l-10.1,7c-5.9,4.1-10.8,7.5-14.5,10.1
			l-1.5,1.1c-1.1,0.7-1.8,1-2.3,1.2c-0.9,0.3-1.2,0-1.6-0.5l-14.4-20.6c-0.9-1.3-2.5-1.8-3.9-1.4c-0.2,0.1-0.3,0.1-0.5,0.2
			c-17.1,7.7-35.9,11.4-54.7,10.8c-1.8-0.1-3.3,1.2-3.7,2.9l-1.5,7.7c-1.5,7.7-2.6,13.7-3.3,17.6c-0.1,0.7-0.4,0.9-0.9,1
			c-0.4,0.1-1.3,0.3-2.9,0c-0.5-0.1-1.3-0.2-1.8-0.3c-6.7-1.3-16.8-3.2-29.4-5.5c-0.4-0.1-0.9-0.2-1.4-0.3l-0.5-0.1
			c-3.5-0.7-3.3-1.8-3.2-2.3l5-26.9c0.3-1.7-0.6-3.3-2.1-4c-14.2-6.1-26.9-14.6-37.8-25.3c-1.2-1.2-3.2-1.4-4.6-0.4
			c-14.3,9.9-20.4,14-21.4,14.7c-0.1,0-0.1,0.1-0.2,0.1c-0.4,0.1-1.4-0.8-2.6-2.7c-0.4-0.7-5.1-7.4-9.5-13.7
			c-3.3-4.8-9.1-13-9.6-13.7c-1.9-2.5-1.7-3.2-1.4-3.5c1.1-0.8,8.2-5.8,21.2-14.9c1.4-1,2-2.9,1.2-4.4c-6.9-15.4-10.5-31.9-10.7-49
			c0-1.7-1.3-3.2-3-3.5c-19.5-3.3-24.4-4.2-24.9-4.4c-0.3-0.1-1.1-0.3-0.3-3.8c0.2-0.8,1.7-9.4,2.9-16.5c2.3-13.7,2.7-16.1,2.7-16.5
			c0.3-2.7,1-3.4,1.2-3.5c0,0,0.1,0,0.3,0c2,0.3,19,3.1,25.5,4.2c1.7,0.3,3.4-0.7,4-2.3c6.1-16.1,15.3-30.4,27.1-42.6
			c1.2-1.2,1.4-3.1,0.4-4.6c-3.8-5.4-13.6-19.7-14.7-21.3c-0.1-0.3-0.2-1.1,2.5-2.8c0.8-0.5,9.9-6.8,13.8-9.5
			c9.9-7,13.2-9.2,13.7-9.6c1.4-1.1,2.2-1.4,2.7-1.6c0.4-0.1,0.6-0.1,0.8,0.1c0.8,1,5.7,7.9,14.9,21.2c1,1.4,2.9,1.9,4.4,1.2
			c5.6-2.5,11.4-4.6,17.3-6.2c0.2-0.1,0.5-0.2,0.7-0.3c9.2-2.5,18.7-3.9,28.3-4.3c1.7-0.1,3.1-1.3,3.4-2.9
			c3.3-17.3,4.7-24.3,4.8-24.9c0.1-0.4,0.2-0.5,0.4-0.5c0.4-0.1,1.3-0.2,3.3,0.2c0.6,0.2,3.2,0.7,14.3,2.8l2.2,0.4
			c15.6,2.9,16.2,3,16.5,3c2.3,0.3,3.4,0.9,3.5,1.4c0,0.1,0,0.2,0,0.3c-0.3,1.9-3.3,18.1-4.3,23.4c-0.3,1.7,0.7,3.5,2.3,4.1
			c17.2,6.1,32.5,15.7,45.4,28.3c1.2,1.2,3.2,1.4,4.6,0.4c9.2-6.4,16.4-11.3,20.6-14.3c0.2-0.1,0.4-0.2,0.5-0.3
			c0.6-0.2,1.8,0.7,2.8,2.2c0.2,0.3,0.4,0.6,0.6,0.9c0.2,0.2,0.3,0.5,0.5,0.8c7.4,10.6,13.2,19,17.1,24.5l0.2,0.4
			c0.3,0.4,0.6,0.9,0.8,1.2C435.5,227.3,435.8,228.2,435.9,228.7z"/>
		<path class="st1" d="M257.4,375.1c-2.3-1.3-4.4-2.5-6.3-3.8c-0.2-0.1-0.3-0.2-0.5-0.4l-0.4-0.3c-1.8-1.3-3.6-2.6-5.4-4
			c-0.1-0.1-0.2-0.1-0.2-0.2c-0.1-0.1-0.2-0.1-0.2-0.2c-6.1-5.1-11.5-10.9-15.9-17.2c-4.4-6.3-8-13.3-10.6-21c0,0,0-0.1,0-0.1
			c0-0.1-0.1-0.2-0.1-0.2c-9.8-28.3-4-60.2,15.1-83.3c1.3-1.5,1.1-3.8-0.5-5.1c-1.5-1.3-3.8-1.1-5.1,0.5
			c-20.7,25-26.9,59.6-16.4,90.3c0,0,0,0.1,0,0.1c0.1,0.3,0.2,0.5,0.3,0.7c2.9,8.1,6.7,15.6,11.4,22.3c4.7,6.7,10.3,12.8,16.8,18.3
			c0.1,0.2,0.3,0.3,0.5,0.4c0.1,0.1,0.2,0.1,0.3,0.2c0,0,0.1,0.1,0.1,0.1c1.9,1.6,3.9,3,5.9,4.4l0.3,0.2c0.3,0.2,0.5,0.4,0.7,0.5
			c2,1.4,4.2,2.7,6.7,4.1c0.1,0.1,0.2,0.1,0.3,0.2c0.9,0.5,1.9,0.7,2.8,0.4c0.2-0.1,0.5-0.2,0.7-0.3c1.1-0.6,1.8-1.7,1.9-2.9v0
			c0.1-1.5-0.7-2.8-2-3.5C257.5,375.2,257.5,375.2,257.4,375.1z"/>
	</g>
</g>
</svg>
