<?xml version="1.0" encoding="utf-8"?>
<!-- Generator: Adobe Illustrator 21.0.1, SVG Export Plug-In . SVG Version: 6.00 Build 0)  -->
<svg version="1.1" xmlns="http://www.w3.org/2000/svg" xmlns:xlink="http://www.w3.org/1999/xlink" x="0px" y="0px"
	 viewBox="0 0 600 600" style="enable-background:new 0 0 600 600;" xml:space="preserve">
<style type="text/css">
	.st0{clip-path:url(#SVGID_5_);fill:#006FAC;}
	.st1{clip-path:url(#SVGID_7_);}
	.st2{clip-path:url(#SVGID_9_);}
	.st3{clip-path:url(#SVGID_11_);}
	.st4{clip-path:url(#SVGID_14_);}
	.st5{clip-path:url(#SVGID_16_);fill:#9FC418;}
	.st6{clip-path:url(#SVGID_16_);}
	.st7{clip-path:url(#SVGID_19_);}
	.st8{clip-path:url(#SVGID_35_);}
	.st9{clip-path:url(#SVGID_36_);}
	.st10{clip-path:url(#SVGID_37_);}
	.st11{clip-path:url(#SVGID_38_);}
	.st12{clip-path:url(#SVGID_39_);}
	.st13{clip-path:url(#SVGID_40_);}
	.st14{clip-path:url(#SVGID_41_);}
	.st15{clip-path:url(#SVGID_42_);}
	.st16{clip-path:url(#SVGID_43_);}
	.st17{clip-path:url(#SVGID_44_);}
	.st18{clip-path:url(#SVGID_45_);}
	.st19{clip-path:url(#SVGID_46_);}
	.st20{clip-path:url(#SVGID_47_);}
	.st21{clip-path:url(#SVGID_48_);fill:#EA7926;}
	.st22{clip-path:url(#SVGID_48_);}
	.st23{clip-path:url(#SVGID_48_);fill:none;stroke:#FFFFFF;stroke-width:2;stroke-miterlimit:10;}
	.st24{clip-path:url(#SVGID_50_);}
	.st25{clip-path:url(#SVGID_52_);}
	.st26{clip-path:url(#SVGID_74_);}
	.st27{clip-path:url(#SVGID_75_);}
	.st28{clip-path:url(#SVGID_76_);}
	.st29{clip-path:url(#SVGID_77_);}
	.st30{clip-path:url(#SVGID_78_);}
	.st31{clip-path:url(#SVGID_79_);}
	.st32{clip-path:url(#SVGID_80_);}
	.st33{clip-path:url(#SVGID_81_);}
	.st34{clip-path:url(#SVGID_82_);}
	.st35{clip-path:url(#SVGID_83_);}
	.st36{clip-path:url(#SVGID_84_);}
	.st37{clip-path:url(#SVGID_85_);}
	.st38{clip-path:url(#SVGID_86_);}
	.st39{clip-path:url(#SVGID_87_);}
	.st40{clip-path:url(#SVGID_88_);}
	.st41{clip-path:url(#SVGID_89_);}
	.st42{clip-path:url(#SVGID_90_);}
	.st43{clip-path:url(#SVGID_91_);}
	.st44{clip-path:url(#SVGID_92_);}
	.st45{clip-path:url(#SVGID_93_);}
	.st46{clip-path:url(#SVGID_94_);fill:#006FAC;}
	.st47{clip-path:url(#SVGID_94_);}
	.st48{clip-path:url(#SVGID_94_);fill:#FFFFFF;}
	.st49{clip-path:url(#SVGID_94_);fill:none;stroke:#FFFFFF;stroke-width:0.216;stroke-miterlimit:22.926;}
	.st50{clip-path:url(#SVGID_94_);fill:none;stroke:#FFFFFF;stroke-width:3;stroke-miterlimit:22.926;}
	.st51{clip-path:url(#SVGID_94_);fill:none;stroke:#FFFFFF;stroke-width:2;stroke-miterlimit:22.926;}
	.st52{fill:#FFFFFF;}
	.st53{font-family:'Roboto-Regular';}
	.st54{font-size:59.5794px;}
	.st55{fill:none;stroke:#FFFFFF;stroke-width:3;stroke-miterlimit:10;}
	.st56{fill:none;}
	.st57{fill:#FFFFFB;}
	.st58{font-size:54px;}
	.st59{font-size:66.3601px;}
</style>
<g id="Capa_1">
	<g>
		<g>
			<g>
				<defs>
					<rect id="SVGID_4_" x="-61.4" y="-39.5" width="727.3" height="715.5"/>
				</defs>
				<clipPath id="SVGID_5_">
					<use xlink:href="#SVGID_4_"  style="overflow:visible;"/>
				</clipPath>
				<path class="st0" d="M578.9,302.6c0,153.1-124.1,277.2-277.2,277.2S24.5,455.7,24.5,302.6S148.6,25.4,301.7,25.4
					S578.9,149.5,578.9,302.6"/>
			</g>
			<g>
				<defs>
					<rect id="SVGID_6_" x="-61.4" y="-39.5" width="727.3" height="715.5"/>
				</defs>
				<clipPath id="SVGID_7_">
					<use xlink:href="#SVGID_6_"  style="overflow:visible;"/>
				</clipPath>
				<g class="st1">
					<g>
						<g>
							<defs>
								<rect id="SVGID_8_" x="-1319.3" y="-949.1" width="295.7" height="290.9"/>
							</defs>
							<clipPath id="SVGID_9_">
								<use xlink:href="#SVGID_8_"  style="overflow:visible;"/>
							</clipPath>
							<g class="st2">
								<g>
									<g>
										<defs>
											<rect id="SVGID_10_" x="-1319.3" y="-949.1" width="295.7" height="290.9"/>
										</defs>
										<clipPath id="SVGID_11_">
											<use xlink:href="#SVGID_10_"  style="overflow:visible;"/>
										</clipPath>
										<g transform="matrix(1 0 0 1 3.279746e-005 -3.467500e-005)" class="st3">
											
												<image style="overflow:visible;enable-background:new    ;" width="68" height="69" id="SVGID_15_" xlink:href="amva/menu/movilidad2-09.png"  transform="matrix(4.2821 0 0 4.2821 -1317.077 -951.3976)">
											</image>
										</g>
									</g>
								</g>
								<g>
									<defs>
										<rect id="SVGID_12_" x="-1319.3" y="-949.1" width="295.7" height="290.9"/>
									</defs>
									<defs>
										<rect id="SVGID_13_" x="-1319.3" y="-949.1" width="295.7" height="290.9"/>
									</defs>
									<clipPath id="SVGID_14_">
										<use xlink:href="#SVGID_12_"  style="overflow:visible;"/>
									</clipPath>
									<clipPath id="SVGID_16_" class="st4">
										<use xlink:href="#SVGID_13_"  style="overflow:visible;"/>
									</clipPath>
									<path class="st5" d="M-1059-810c0,62.3-50.5,112.7-112.7,112.7c-62.3,0-112.7-50.5-112.7-112.7
										c0-62.3,50.5-112.7,112.7-112.7C-1109.5-922.8-1059-872.3-1059-810"/>
									<g class="st6">
										<g>
											<g>
												<defs>
													<rect id="SVGID_17_" x="-1319.3" y="-700.3" width="295.7" height="290.9"/>
												</defs>
												<clipPath id="SVGID_19_">
													<use xlink:href="#SVGID_17_"  style="overflow:visible;"/>
												</clipPath>
												<g transform="matrix(1 0 0 1 3.279746e-005 8.186325e-007)" class="st7">
													
														<image style="overflow:visible;enable-background:new    ;" width="68" height="69" id="SVGID_18_" xlink:href="amva/menu/movilidad2-09.png"  transform="matrix(4.2821 0 0 4.2821 -1317.077 -702.5754)">
													</image>
												</g>
											</g>
										</g>
										<g>
											<defs>
												<rect id="SVGID_20_" x="-1319.3" y="-949.1" width="295.7" height="290.9"/>
											</defs>
											<defs>
												<rect id="SVGID_21_" x="-1319.3" y="-949.1" width="295.7" height="290.9"/>
											</defs>
											<defs>
												<rect id="SVGID_22_" x="-1319.3" y="-949.1" width="295.7" height="290.9"/>
											</defs>
											<defs>
												
													<rect id="SVGID_24_" x="-1353.1" y="-950.3" transform="matrix(0.9846 -0.1747 0.1747 0.9846 122.0707 -222.9325)" width="295.7" height="290.9"/>
											</defs>
											<defs>
												
													<rect id="SVGID_25_" x="-1354" y="-951.4" transform="matrix(0.9846 -0.1748 0.1748 0.9846 122.3152 -223.2532)" width="295.7" height="290.9"/>
											</defs>
											<defs>
												<rect id="SVGID_26_" x="-1319.3" y="-949.1" width="295.7" height="290.9"/>
											</defs>
											<defs>
												<rect id="SVGID_27_" x="-1319.3" y="-949.1" width="295.7" height="290.9"/>
											</defs>
											<defs>
												
													<rect id="SVGID_28_" x="-1477.5" y="-788.2" transform="matrix(3.390170e-02 -0.9994 0.9994 3.390170e-02 -642.2692 -1949.8326)" width="295.7" height="290.9"/>
											</defs>
											<defs>
												<rect id="SVGID_29_" x="-1319.3" y="-949.1" width="295.7" height="290.9"/>
											</defs>
											<defs>
												<rect id="SVGID_30_" x="-1319.3" y="-949.1" width="295.7" height="290.9"/>
											</defs>
											<defs>
												<rect id="SVGID_31_" x="-1319.3" y="-949.1" width="295.7" height="290.9"/>
											</defs>
											<defs>
												<rect id="SVGID_32_" x="-1319.3" y="-949.1" width="295.7" height="290.9"/>
											</defs>
											<defs>
												<rect id="SVGID_33_" x="-1319.3" y="-949.1" width="295.7" height="290.9"/>
											</defs>
											<defs>
												<rect id="SVGID_34_" x="-1319.3" y="-949.1" width="295.7" height="290.9"/>
											</defs>
											<clipPath id="SVGID_35_">
												<use xlink:href="#SVGID_20_"  style="overflow:visible;"/>
											</clipPath>
											<clipPath id="SVGID_36_" class="st8">
												<use xlink:href="#SVGID_21_"  style="overflow:visible;"/>
											</clipPath>
											<clipPath id="SVGID_37_" class="st9">
												<use xlink:href="#SVGID_22_"  style="overflow:visible;"/>
											</clipPath>
											<clipPath id="SVGID_38_" class="st10">
												<use xlink:href="#SVGID_24_"  style="overflow:visible;"/>
											</clipPath>
											<clipPath id="SVGID_39_" class="st11">
												<use xlink:href="#SVGID_25_"  style="overflow:visible;"/>
											</clipPath>
											<clipPath id="SVGID_40_" class="st12">
												<use xlink:href="#SVGID_26_"  style="overflow:visible;"/>
											</clipPath>
											<clipPath id="SVGID_41_" class="st13">
												<use xlink:href="#SVGID_27_"  style="overflow:visible;"/>
											</clipPath>
											<clipPath id="SVGID_42_" class="st14">
												<use xlink:href="#SVGID_28_"  style="overflow:visible;"/>
											</clipPath>
											<clipPath id="SVGID_43_" class="st15">
												<use xlink:href="#SVGID_29_"  style="overflow:visible;"/>
											</clipPath>
											<clipPath id="SVGID_44_" class="st16">
												<use xlink:href="#SVGID_30_"  style="overflow:visible;"/>
											</clipPath>
											<clipPath id="SVGID_45_" class="st17">
												<use xlink:href="#SVGID_31_"  style="overflow:visible;"/>
											</clipPath>
											<clipPath id="SVGID_46_" class="st18">
												<use xlink:href="#SVGID_32_"  style="overflow:visible;"/>
											</clipPath>
											<clipPath id="SVGID_47_" class="st19">
												<use xlink:href="#SVGID_33_"  style="overflow:visible;"/>
											</clipPath>
											<clipPath id="SVGID_48_" class="st20">
												<use xlink:href="#SVGID_34_"  style="overflow:visible;"/>
											</clipPath>
											<path class="st21" d="M-1059-561.2c0,62.3-50.5,112.7-112.7,112.7c-62.3,0-112.7-50.5-112.7-112.7
												c0-62.3,50.5-112.7,112.7-112.7S-1059-623.5-1059-561.2"/>
											<g class="st22">
												<text transform="matrix(1 0 0 1 -1246.3221 -503.7203)" class="st52 st53" style="font-size:20.0973px;">Huella </text>
												<text transform="matrix(1 0 0 1 -1184.0671 -503.7203)" class="st52 st53" style="font-size:20.0973px;">A</text>
												<text transform="matrix(1 0 0 1 -1171.3992 -503.7203)" class="st52 st53" style="font-size:20.0973px;">mbie</text>
												<text transform="matrix(1 0 0 1 -1126.8281 -503.7203)" class="st52 st53" style="font-size:20.0973px;">n</text>
												<text transform="matrix(1 0 0 1 -1115.4662 -503.7203)" class="st52 st53" style="font-size:20.0973px;">tal</text>
											</g>
											<path class="st23" d="M-1179.2-614.8c0.8,4.7-1,9-4,9.6c-3.1,0.5-6.3-2.9-7.1-7.6c-0.8-4.7,1-9,4.1-9.6
												C-1183.2-622.9-1180-619.5-1179.2-614.8z"/>
											
												<ellipse transform="matrix(0.9846 -0.1747 0.1747 0.9846 88.5901 -218.1995)" class="st23" cx="-1195.1" cy="-612.3" rx="3" ry="4.1"/>
											
												<ellipse transform="matrix(0.9846 -0.1748 0.1748 0.9846 87.6828 -219.479)" class="st23" cx="-1202.1" cy="-607.5" rx="3.1" ry="4.1"/>
											<path class="st23" d="M-1204.9-602.3c0.3,1.8-0.5,3.4-1.8,3.7s-2.7-1-3-2.8s0.5-3.4,1.8-3.7
												C-1206.6-605.3-1205.2-604.1-1204.9-602.3z"/>
											<path class="st23" d="M-1208.1-588.5c0.3-0.6,0.6-1.2,1-1.8c2.8-3.9,6.2-7.6,10.4-9.9c4.4-2.4,10.9-4,14.9-0.1
												c3.3,3.2,4.5,8.2,4.7,12.6c0.1,2.4,0,4.8-0.5,7.1c-0.5,2.5-1.6,4.7-2.5,7c-2.2,5.6-1.5,12.2,1.6,17.4
												c2,3.4,5.6,6,6.8,9.8c1.5,5.1-3.5,10.4-8,11.8c-4.3,1.3-10,0.8-12.9-3.1c-3.3-4.4-5.3-9.8-6.5-15.1
												c-0.3-1.2-0.5-2.4-0.7-3.7c-1-5.6-0.9-11.2-3.8-16.4C-1206.4-577.6-1210.4-583-1208.1-588.5z"/>
											
												<ellipse transform="matrix(3.390170e-02 -0.9994 0.9994 3.390170e-02 -486.7368 -1786.2224)" class="st23" cx="-1167.3" cy="-641.3" rx="8.7" ry="5.7"/>
											<path class="st23" d="M-1159.8-641.4c-0.1,2.3,1.2,4.2,2.9,4.2c1.7,0.1,3.1-1.8,3.2-4c0.1-2.3-1.2-4.2-2.9-4.2
												C-1158.3-645.5-1159.8-643.7-1159.8-641.4z"/>
											<path class="st23" d="M-1152.3-637.6c-0.1,2.3,1.2,4.2,2.9,4.2c1.7,0.1,3.1-1.7,3.2-4s-1.2-4.2-2.9-4.2
												C-1150.7-641.7-1152.2-639.9-1152.3-637.6z"/>
											<path class="st23" d="M-1145.7-632.7c-0.1,1.8,1,3.3,2.3,3.4s2.5-1.4,2.5-3.2c0.1-1.8-1-3.3-2.3-3.4
												S-1145.6-634.6-1145.7-632.7z"/>
											<path class="st23" d="M-1141.1-627.2c-0.1,1.6,0.9,2.9,2,3c1.2,0,2.2-1.2,2.2-2.8c0.1-1.6-0.9-2.9-2.1-3
												C-1140-630.1-1141-628.8-1141.1-627.2z"/>
											<path class="st23" d="M-1140.1-620.5c-0.3-0.5-0.7-1.1-1.2-1.6c-3.3-3.5-7.2-6.6-11.7-8.3c-4.7-1.8-11.3-2.4-14.7,2
												c-2.8,3.7-3.3,8.7-2.9,13.2c0.2,2.4,0.7,4.7,1.5,7c0.8,2.4,2.2,4.4,3.5,6.6c3,5.2,3.2,11.9,0.9,17.4
												c-1.5,3.6-4.7,6.7-5.3,10.7c-0.8,5.2,5,9.8,9.6,10.5c4.5,0.7,10-0.6,12.3-4.8c2.7-4.9,3.8-10.4,4.3-15.9
												c0.1-1.2,0.2-2.5,0.2-3.7c0.2-5.7-0.7-11.2,1.4-16.8C-1140.2-609.5-1137-615.4-1140.1-620.5z"/>
											<g class="st22">
												<g>
													<g>
														<defs>
															<rect id="SVGID_49_" x="-1319.3" y="-432.3" width="295.7" height="290.9"/>
														</defs>
														<clipPath id="SVGID_50_">
															<use xlink:href="#SVGID_49_"  style="overflow:visible;"/>
														</clipPath>
														<g class="st24">
															<g>
																<g>
																	<defs>
																		<rect id="SVGID_51_" x="-1319.3" y="-432.3" width="295.7" height="290.9"/>
																	</defs>
																	<clipPath id="SVGID_52_">
																		<use xlink:href="#SVGID_51_"  style="overflow:visible;"/>
																	</clipPath>
																	<g transform="matrix(1 0 0 1 3.279746e-005 9.231269e-006)" class="st25">
																		
																			<image style="overflow:visible;enable-background:new    ;" width="68" height="69" id="SVGID_23_" xlink:href="amva/menu/movilidad2-09.png"  transform="matrix(4.2821 0 0 4.2821 -1317.077 -434.6066)">
																		</image>
																	</g>
																</g>
															</g>
															<g id="Capa_1_1_">
																<defs>
																	<rect id="SVGID_53_" x="-1319.3" y="-432.3" width="295.7" height="290.9"/>
																</defs>
																<defs>
																	<rect id="SVGID_54_" x="-1319.3" y="-432.3" width="295.7" height="290.9"/>
																</defs>
																<defs>
																	<rect id="SVGID_55_" x="-1319.3" y="-432.3" width="295.7" height="290.9"/>
																</defs>
																<defs>
																	<rect id="SVGID_56_" x="-1319.3" y="-432.3" width="295.7" height="290.9"/>
																</defs>
																<defs>
																	<rect id="SVGID_57_" x="-1319.3" y="-432.3" width="295.7" height="290.9"/>
																</defs>
																<defs>
																	<rect id="SVGID_58_" x="-1319.3" y="-432.3" width="295.7" height="290.9"/>
																</defs>
																<defs>
																	<rect id="SVGID_59_" x="-1319.3" y="-432.3" width="295.7" height="290.9"/>
																</defs>
																<defs>
																	<rect id="SVGID_60_" x="-1319.3" y="-432.3" width="295.7" height="290.9"/>
																</defs>
																<defs>
																	<rect id="SVGID_61_" x="-1319.3" y="-432.3" width="295.7" height="290.9"/>
																</defs>
																<defs>
																	<rect id="SVGID_62_" x="-1319.3" y="-432.3" width="295.7" height="290.9"/>
																</defs>
																<defs>
																	<rect id="SVGID_63_" x="-1319.3" y="-432.3" width="295.7" height="290.9"/>
																</defs>
																<defs>
																	<rect id="SVGID_64_" x="-1319.3" y="-432.3" width="295.7" height="290.9"/>
																</defs>
																<defs>
																	<rect id="SVGID_65_" x="-1319.3" y="-432.3" width="295.7" height="290.9"/>
																</defs>
																<defs>
																	<rect id="SVGID_66_" x="-1319.3" y="-432.3" width="295.7" height="290.9"/>
																</defs>
																<defs>
																	<rect id="SVGID_67_" x="-1319.3" y="-432.3" width="295.7" height="290.9"/>
																</defs>
																<defs>
																	<rect id="SVGID_68_" x="-1319.3" y="-432.3" width="295.7" height="290.9"/>
																</defs>
																<defs>
																	<rect id="SVGID_69_" x="-1319.3" y="-432.3" width="295.7" height="290.9"/>
																</defs>
																<defs>
																	<rect id="SVGID_70_" x="-1319.3" y="-432.3" width="295.7" height="290.9"/>
																</defs>
																<defs>
																	<rect id="SVGID_71_" x="-1319.3" y="-432.3" width="295.7" height="290.9"/>
																</defs>
																<defs>
																	<rect id="SVGID_72_" x="-1319.3" y="-432.3" width="295.7" height="290.9"/>
																</defs>
																<defs>
																	<rect id="SVGID_73_" x="-1319.3" y="-432.3" width="295.7" height="290.9"/>
																</defs>
																<clipPath id="SVGID_74_">
																	<use xlink:href="#SVGID_53_"  style="overflow:visible;"/>
																</clipPath>
																<clipPath id="SVGID_75_" class="st26">
																	<use xlink:href="#SVGID_54_"  style="overflow:visible;"/>
																</clipPath>
																<clipPath id="SVGID_76_" class="st27">
																	<use xlink:href="#SVGID_55_"  style="overflow:visible;"/>
																</clipPath>
																<clipPath id="SVGID_77_" class="st28">
																	<use xlink:href="#SVGID_56_"  style="overflow:visible;"/>
																</clipPath>
																<clipPath id="SVGID_78_" class="st29">
																	<use xlink:href="#SVGID_57_"  style="overflow:visible;"/>
																</clipPath>
																<clipPath id="SVGID_79_" class="st30">
																	<use xlink:href="#SVGID_58_"  style="overflow:visible;"/>
																</clipPath>
																<clipPath id="SVGID_80_" class="st31">
																	<use xlink:href="#SVGID_59_"  style="overflow:visible;"/>
																</clipPath>
																<clipPath id="SVGID_81_" class="st32">
																	<use xlink:href="#SVGID_60_"  style="overflow:visible;"/>
																</clipPath>
																<clipPath id="SVGID_82_" class="st33">
																	<use xlink:href="#SVGID_61_"  style="overflow:visible;"/>
																</clipPath>
																<clipPath id="SVGID_83_" class="st34">
																	<use xlink:href="#SVGID_62_"  style="overflow:visible;"/>
																</clipPath>
																<clipPath id="SVGID_84_" class="st35">
																	<use xlink:href="#SVGID_63_"  style="overflow:visible;"/>
																</clipPath>
																<clipPath id="SVGID_85_" class="st36">
																	<use xlink:href="#SVGID_64_"  style="overflow:visible;"/>
																</clipPath>
																<clipPath id="SVGID_86_" class="st37">
																	<use xlink:href="#SVGID_65_"  style="overflow:visible;"/>
																</clipPath>
																<clipPath id="SVGID_87_" class="st38">
																	<use xlink:href="#SVGID_66_"  style="overflow:visible;"/>
																</clipPath>
																<clipPath id="SVGID_88_" class="st39">
																	<use xlink:href="#SVGID_67_"  style="overflow:visible;"/>
																</clipPath>
																<clipPath id="SVGID_89_" class="st40">
																	<use xlink:href="#SVGID_68_"  style="overflow:visible;"/>
																</clipPath>
																<clipPath id="SVGID_90_" class="st41">
																	<use xlink:href="#SVGID_69_"  style="overflow:visible;"/>
																</clipPath>
																<clipPath id="SVGID_91_" class="st42">
																	<use xlink:href="#SVGID_70_"  style="overflow:visible;"/>
																</clipPath>
																<clipPath id="SVGID_92_" class="st43">
																	<use xlink:href="#SVGID_71_"  style="overflow:visible;"/>
																</clipPath>
																<clipPath id="SVGID_93_" class="st44">
																	<use xlink:href="#SVGID_72_"  style="overflow:visible;"/>
																</clipPath>
																<clipPath id="SVGID_94_" class="st45">
																	<use xlink:href="#SVGID_73_"  style="overflow:visible;"/>
																</clipPath>
																<path class="st46" d="M-1059-293.2c0,62.3-50.5,112.7-112.7,112.7c-62.3,0-112.7-50.5-112.7-112.7
																	c0-62.3,50.5-112.7,112.7-112.7C-1109.5-406-1059-355.5-1059-293.2"/>
																<g class="st47">
																	<text transform="matrix(1 0 0 1 -1215.4725 -227.1412)" class="st52 st53" style="font-size:20.0973px;">M</text>
																	<text transform="matrix(1 0 0 1 -1197.8945 -227.1412)" class="st52 st53" style="font-size:20.0973px;">o</text>
																	<text transform="matrix(1 0 0 1 -1186.5925 -227.1412)" class="st52 st53" style="font-size:20.0973px;">vilidad</text>
																</g>
																<path class="st48" d="M-1207.1-305.7h-5.9c-0.5,0-0.9,0.4-0.9,0.9s0.4,0.9,0.9,0.9h5.9c0.5,0,0.9-0.4,0.9-0.9
																	C-1206.2-305.3-1206.6-305.7-1207.1-305.7"/>
																<path class="st48" d="M-1188.8-302h-32.9v-2.7c0-1.5,1.2-2.7,2.7-2.7h27.4c1.5,0,2.7,1.2,2.7,2.7L-1188.8-302
																	L-1188.8-302z M-1188.8-281.9h-32.9v-18.3h32.9V-281.9z M-1188.8-271.8c0,1.5-1.2,2.7-2.7,2.7h-27
																	c-1.5,0-3.2-1.2-3.2-2.7v-8.2h32.9L-1188.8-271.8L-1188.8-271.8z M-1190.6-265c0,0.8-0.6,1.4-1.4,1.4h-0.9
																	c-0.8,0-1.4-0.6-1.4-1.4v-2.3h2.7c0.3,0,0.6,0,0.9-0.1v2.4H-1190.6z M-1216.2-265c0,0.8-0.6,1.4-1.4,1.4h-0.9
																	c-0.8,0-1.4-0.6-1.4-1.4v-2.5c0.5,0.1,0.9,0.2,1.4,0.2h2.3V-265z M-1191.5-309.3h-27.4c-2.5,0-4.6,2.1-4.6,4.6v32.9
																	c0,1.4,0.8,2.6,1.9,3.4c0,0,0,0.1,0,0.2v3.2c0,1.8,1.4,3.2,3.2,3.2h0.9c1.8,0,3.2-1.4,3.2-3.2v-2.3h18.3v2.3
																	c0,1.8,1.4,3.2,3.2,3.2h0.9c1.8,0,3.2-1.4,3.2-3.2v-3.2c1.1-0.8,1.8-2.2,1.8-3.7v-32.9
																	C-1187-307.3-1189-309.3-1191.5-309.3"/>
																<path class="st49" d="M-1207.1-305.7h-5.9c-0.5,0-0.9,0.4-0.9,0.9s0.4,0.9,0.9,0.9h5.9c0.5,0,0.9-0.4,0.9-0.9
																	C-1206.2-305.3-1206.6-305.7-1207.1-305.7z"/>
																<path class="st48" d="M-1201.6-305.7h-1.4c-0.5,0-0.9,0.4-0.9,0.9s0.4,0.9,0.9,0.9h1.4c0.5,0,0.9-0.4,0.9-0.9
																	C-1200.7-305.3-1201.1-305.7-1201.6-305.7"/>
																<path class="st49" d="M-1201.6-305.7h-1.4c-0.5,0-0.9,0.4-0.9,0.9s0.4,0.9,0.9,0.9h1.4c0.5,0,0.9-0.4,0.9-0.9
																	C-1200.7-305.3-1201.1-305.7-1201.6-305.7z"/>
																<path class="st49" d="M-1193.8-276c0.5,0,0.9,0.4,0.9,0.9s-0.4,0.9-0.9,0.9s-0.9-0.4-0.9-0.9
																	S-1194.3-276-1193.8-276z M-1193.8-272.3c1.5,0,2.7-1.2,2.7-2.7s-1.2-2.7-2.7-2.7s-2.7,1.2-2.7,2.7
																	C-1196.6-273.5-1195.3-272.3-1193.8-272.3z"/>
																<rect x="-1200.3" y="-327.2" class="st50" width="8" height="0.3"/>
																<path class="st48" d="M-1193.8-276c0.5,0,0.9,0.4,0.9,0.9s-0.4,0.9-0.9,0.9s-0.9-0.4-0.9-0.9
																	S-1194.3-276-1193.8-276 M-1193.8-272.3c1.5,0,2.7-1.2,2.7-2.7s-1.2-2.7-2.7-2.7s-2.7,1.2-2.7,2.7
																	C-1196.6-273.5-1195.3-272.3-1193.8-272.3"/>
																<polygon class="st51" points="-1220.5,-333 -1218.2,-358.7 -1193.8,-358.7 -1191.6,-333 																"/>
																<polygon class="st51" points="-1225.6,-331.7 -1222.4,-364.4 -1190.3,-364.4 -1187.1,-334.3 -1187.7,-318.9 
																	-1224.3,-318.9 																"/>
																<polygon class="st51" points="-1134,-364.2 -1157.2,-364.2 -1165.7,-339.9 -1158,-317.7 -1132.4,-317.7 
																	-1124.7,-340.5 																"/>
																<path class="st48" d="M-1133.1-289.9c-1.7,0-3.3,0.4-4.7,1.1l-2.9-4.7v-2h0.8c0.6,0,1.1-0.5,1.1-1.1
																	s-0.5-1.1-1.1-1.1h-5.6c-0.6,0-1.1,0.5-1.1,1.1s0.5,1.1,1.1,1.1h2.6v1.2h-11.8l-1.6-3.4l0.2-0.1
																	c0.6-0.2,0.8-0.9,0.6-1.5c-0.2-0.6-0.9-0.8-1.5-0.6l-1.3,0.5c-0.3,0.1-0.5,0.3-0.6,0.6c-0.1,0.3-0.1,0.6,0,0.9
																	l2.2,4.6l-2.3,4.2c-1.3-0.6-2.7-0.9-4.2-0.9c-6,0-10.9,4.9-10.9,10.9s4.9,10.9,10.9,10.9s10.9-4.9,10.9-10.9
																	c0-3.7-1.9-7-4.7-8.9l1.7-3.1l8.5,12.7c0.2,0.3,0.6,0.5,0.9,0.5h2c0.6,5.5,5.2,9.8,10.8,9.8c6,0,10.9-4.9,10.9-10.9
																	C-1122.2-285-1127.1-289.9-1133.1-289.9 M-1154.5-279c0,4.8-3.9,8.6-8.6,8.6c-4.8,0-8.6-3.9-8.6-8.6
																	s3.9-8.6,8.6-8.6c1.1,0,2.2,0.2,3.1,0.6l-4.1,7.5c-0.3,0.5-0.1,1.2,0.4,1.5c0.2,0.1,0.4,0.1,0.5,0.1
																	c0.4,0,0.8-0.2,1-0.6l4.1-7.5C-1155.9-284.4-1154.5-281.9-1154.5-279 M-1138.5-285.7l3.4,5.6h-6.6
																	C-1141.3-282.4-1140.2-284.4-1138.5-285.7 M-1145.3-280.1l-8-12h10.9l2.7,4.4c-2.3,1.8-3.9,4.5-4.2,7.5
																	L-1145.3-280.1L-1145.3-280.1z M-1133.1-270.4c-4.4,0-8-3.3-8.6-7.5h8.6c0.4,0,0.8-0.2,1-0.6s0.2-0.8,0-1.1
																	l-4.5-7.3c1.1-0.5,2.3-0.8,3.5-0.8c4.8,0,8.6,3.9,8.6,8.6S-1128.3-270.4-1133.1-270.4"/>
																<polygon class="st51" points="-1158.5,-339.7 -1153.6,-355.1 -1137.3,-355.1 -1132.6,-339.9 -1135.1,-333.5 
																	-1156.7,-333.5 																"/>
																<g class="st47">
																	<text transform="matrix(1 0 0 1 137.8468 408.8149)" class="st52 st53 st54">A</text>
																	<text transform="matrix(1 0 0 1 174.3288 408.8149)" class="st52 st53 st54">vistamie</text>
																	<text transform="matrix(1 0 0 1 401.5628 408.8149)" class="st52 st53 st54">n</text>
																	<text transform="matrix(1 0 0 1 435.1868 408.8149)" class="st52 st53 st54">t</text>
																	<text transform="matrix(1 0 0 1 454.9618 408.8149)" class="st52 st53 st54">o</text>
																</g>
																<path class="st48" d="M218.8,320.8c-36.5,0-66.3-29.7-66.3-66.2c0-18.1,7.2-35,20.2-47.6c1.6-1.6,3.3-3.1,5.3-4.6
																	l23.7-20.1c9.6-6.8,20.6-10.8,32.1-11.9l13.2-13.2h0.3c4.7-3.8,10.5-5.9,16.5-5.9c9.9,0,18.8,5.5,23.2,14.1
																	c3.6-1.5,7.5-2.1,11.4-1.8c2.6,0.2,5.2,0.7,7.6,1.7c4.4-8.6,13.3-14.1,23.2-14.1c6,0,11.8,2.1,16.5,5.9h0.2l1.2,1.1
																	l12.1,12.1c11.5,1,22.6,5.1,32.1,11.9l0.3,0.2l23.6,20c1.8,1.4,3.5,2.9,5.1,4.5c13.1,12.6,20.2,29.5,20.2,47.6
																	c0,36.5-29.7,66.2-66.3,66.2c-31.6,0-58.7-22.5-64.9-53c-8.1,3.1-17.4,3.1-25.5,0
																	C277.6,298.3,250.5,320.8,218.8,320.8z M206.1,188.2l-23.4,19.9c-1.8,1.4-3.4,2.7-4.7,4.1
																	c-11.6,11.2-18,26.3-18,42.4c0,32.5,26.4,58.9,58.9,58.9c29.7,0,54.8-22.2,58.4-51.6l0.7-5.5l4.8,2.8
																	c4.1,2.4,8.9,3.6,13.7,3.6c4.9,0,9.5-1.2,13.7-3.6l4.8-2.8l0.7,5.5c3.7,29.4,28.8,51.6,58.4,51.6
																	c32.5,0,58.9-26.4,58.9-58.9c0.1-16.1-6.3-31.1-17.9-42.3c-1.4-1.4-3-2.7-4.7-4.1l-23.5-20
																	c-8.8-6.2-19-9.8-29.6-10.6l0,0l0.1-1l-1.2,1.2l-8.3-8.2h0.1l-6.1-6c-3.5-3.2-8-4.9-12.6-4.9
																	c-8.2,0-15.3,5.2-17.8,13l-1.5,4.6l-4-2.6c-2.4-1.5-5.1-2.4-8.1-2.6c-0.6-0.1-1.1,0-1.5,0c-3.2,0-6.4,0.9-9.1,2.7
																	l-4,2.5l-1.5-4.5c-2.5-7.7-9.7-12.9-17.8-12.9c-4.7,0-9.2,1.7-12.6,4.9l-1.1,1l-13.2,13.3l-1.2-1.2l0.1,1
																	C225.2,178.3,214.9,182,206.1,188.2z M374.2,300.9c-25.6,0-46.3-20.8-46.3-46.4s20.8-46.4,46.3-46.4
																	c25.6,0,46.4,20.8,46.4,46.4S399.8,300.9,374.2,300.9z M374.2,215.6c-21.5,0-39,17.5-39,39s17.5,39,39,39
																	s39-17.5,39-39C413.2,233,395.7,215.6,374.2,215.6z M218.8,300.9c-25.6,0-46.4-20.8-46.4-46.4s20.8-46.4,46.4-46.4
																	s46.4,20.8,46.4,46.4c0,12.3-4.8,24-13.5,32.7C242.9,296.1,231.2,300.9,218.8,300.9z M218.8,215.6
																	c-21.5,0-39,17.5-39,39s17.5,39,39,39c10.4,0,20.2-4.1,27.6-11.5c7.4-7.4,11.4-17.1,11.4-27.5
																	C257.8,233,240.3,215.6,218.8,215.6z M296.5,252.4c-9.7,0-17.5-7.9-17.5-17.5c0-9.7,7.9-17.5,17.5-17.5
																	c9.7,0,17.5,7.9,17.5,17.5C314.1,244.5,306.2,252.4,296.5,252.4z M296.5,224.6c-5.6,0-10.2,4.6-10.2,10.2
																	s4.6,10.2,10.2,10.2s10.2-4.6,10.2-10.2S302.1,224.6,296.5,224.6z"/>
																<path class="st48" d="M198.6,264.6c-5.6,0-10.1-4.5-10.1-10.1c0-16.7,13.6-30.3,30.3-30.3c5.5,0,10,4.5,10.1,10
																	c0,5.6-4.5,10.1-10.1,10.1s-10.2,4.6-10.2,10.2C208.6,260,204.1,264.6,198.6,264.6z M218.8,231.6
																	c-12.6,0-22.9,10.3-22.9,22.9c0,1.5,1.2,2.7,2.7,2.7s2.7-1.2,2.7-2.7c0-9.7,7.9-17.6,17.6-17.6
																	c1.5,0,2.7-1.2,2.7-2.7C221.6,232.8,220.3,231.6,218.8,231.6z"/>
																<g class="st47">
																	<text transform="matrix(1 0 0 1 -1212.205 -753.4401)" class="st52 st53" style="font-size:24.2252px;">E</text>
																	<text transform="matrix(1 0 0 1 -1198.839 -753.4401)" class="st52 st53" style="font-size:24.2252px;">n</text>
																	<text transform="matrix(1 0 0 1 -1185.142 -753.4401)" class="st52 st53" style="font-size:24.2252px;">t</text>
																	<text transform="matrix(1 0 0 1 -1177.101 -753.4401)" class="st52 st53" style="font-size:24.2252px;">o</text>
																	<text transform="matrix(1 0 0 1 -1163.333 -753.4401)" class="st52 st53" style="font-size:24.2252px;">r</text>
																	<text transform="matrix(1 0 0 1 -1154.7789 -753.4401)" class="st52 st53" style="font-size:24.2252px;">no</text>
																</g>
																<path class="st48" d="M354,264.6c-5.6,0-10.1-4.5-10.1-10.1c0-16.7,13.6-30.3,30.3-30.3c5.5,0,10,4.5,10.1,10
																	c0,5.6-4.5,10.1-10.1,10.1s-10.2,4.6-10.2,10.2C364,260,359.5,264.6,354,264.6z M374.2,231.6
																	c-12.6,0-22.9,10.3-22.9,22.9c0,1.5,1.2,2.7,2.7,2.7s2.7-1.2,2.7-2.7c0-9.7,7.9-17.6,17.6-17.6
																	c1.5,0,2.7-1.2,2.7-2.7C376.9,232.8,375.7,231.6,374.2,231.6z"/>
																<g class="st47">
																	<path class="st55" d="M-1113.6-804.7c-0.5-7.2-6.3-13-13.4-13.7c-2.3-0.2-4.6,0.1-6.8,1c-0.8,0.3-1.6,0.3-2.3-0.1
																		c-0.7-0.4-1.3-1-1.5-1.8c-1.7-6.4-7.6-10.9-14.3-10.9c-6.7,0-12.5,4.5-14.3,10.9c-0.2,0.8-0.8,1.5-1.5,1.8
																		c-0.7,0.4-1.6,0.4-2.3,0.1c-1.7-0.7-3.6-1-5.4-1c-0.4,0-0.9,0-1.3,0.1c-7.2,0.6-12.9,6.5-13.4,13.7
																		c-0.3,4.2,1.1,8.1,3.9,11.1s6.7,4.7,10.8,4.7h47.1c4.1,0,8-1.7,10.8-4.7C-1114.7-796.6-1113.3-800.6-1113.6-804.7z
																		"/>
																	<path class="st55" d="M-1151.9-836c8.2,0,15.6,4.9,18.8,12.3c0.3-0.1,0.6-0.1,0.9-0.2c1.3-0.6,2.5-1.5,3.6-2.6
																		c2.3-2.4,3.4-5.6,3.1-8.9c-0.4-5.7-5-10.4-10.7-10.9c-1.9-0.2-3.7,0.1-5.4,0.8c-0.8,0.3-1.6,0.3-2.3-0.1
																		c-0.7-0.4-1.3-1-1.5-1.8c-1.4-5.1-6.1-8.7-11.4-8.7c-4.3,0-8.2,2.4-10.3,6c3.7,4.4,6,10,6.2,16.2
																		C-1158.1-835.3-1155.1-836-1151.9-836z"/>
																	<path class="st55" d="M-1177.3-824.1c2.2-0.2,4.4,0,6.6,0.5c0.9-2.2,2.3-4.1,3.9-5.8c0.2-1.2,0.3-2.4,0.3-3.6
																		c0-11.4-9.3-20.7-20.7-20.7c-11.4,0-20.7,9.3-20.7,20.7c0,9.2,6.1,17,14.4,19.7
																		C-1190.3-819.3-1184.3-823.5-1177.3-824.1z"/>
																	<path class="st55" d="M-1187.3-864.3c2.3,0,4.1-1.8,4.1-4.1v-5.9c0-2.3-1.8-4.1-4.1-4.1s-4.1,1.8-4.1,4.1v5.9
																		C-1191.4-866.2-1189.5-864.3-1187.3-864.3z"/>
																	<path class="st55" d="M-1218.7-833.1c0-2.3-1.8-4.1-4.1-4.1h-5.9c-2.3,0-4.1,1.8-4.1,4.1s1.8,4.1,4.1,4.1h5.9
																		C-1220.6-829-1218.7-830.9-1218.7-833.1z"/>
																	<path class="st55" d="M-1215.2-811l-4.2,4.2c-1.6,1.6-1.6,4.2,0,5.8c0.8,0.8,1.9,1.2,2.9,1.2
																		c1.1,0,2.1-0.4,2.9-1.2l4.2-4.2c1.6-1.6,1.6-4.2,0-5.8C-1210.9-812.6-1213.6-812.6-1215.2-811z"/>
																	<path class="st55" d="M-1213.5-865.2c-1.6-1.6-4.2-1.6-5.8,0c-1.6,1.6-1.6,4.2,0,5.8l4.2,4.2
																		c0.8,0.8,1.9,1.2,2.9,1.2c1.1,0,2.1-0.4,2.9-1.2c1.6-1.6,1.6-4.2,0-5.8L-1213.5-865.2z"/>
																</g>
															</g>
														</g>
													</g>
												</g>
											</g>
										</g>
										<g>
											<path class="st52" d="M254.3,330l-30,32.2l-30-32.2c-16.9-18.1-16.9-47.6,0-65.8c8-8.6,18.7-13.4,30-13.4s22,4.7,30,13.4
												C271.2,282.3,271.2,311.8,254.3,330L254.3,330z M260.7,258.8c-9.7-10.4-22.6-16.1-36.4-16.1c-13.8,0-26.7,5.7-36.4,16.1
												c-9.8,10.5-14.7,24.3-14.8,38.2v0.2c0,13.8,4.9,27.6,14.8,38.1l36.4,39l36.4-39C280.3,314.2,280.3,279.9,260.7,258.8z"/>
											<path class="st52" d="M357.8,159c5.7-6.1,13.2-9.4,21.2-9.4s15.5,3.3,21.2,9.4c12.1,12.9,12.1,33.9,0,46.8L379,228.5
												l-21.2-22.7C345.7,192.9,345.7,171.9,357.8,159L357.8,159z M379,240.7l27.6-29.5c14.9-15.9,14.9-41.7,0-57.6
												c-7.3-7.8-17.1-12.2-27.6-12.2c-10.4,0-20.2,4.3-27.6,12.2c-14.9,15.9-14.9,41.7,0,57.6L379,240.7z"/>
											<path class="st52" d="M395.4,362.2c-2.3-0.5-4.6,0.9-5.1,3.1c-0.5,2.1-1.4,4-2.8,5.6c-1.5,1.8-1.1,4.3,0.7,5.7
												c0.8,0.6,1.7,0.9,2.6,0.9c1.3,0,2.5-0.5,3.4-1.6c2.1-2.6,3.7-5.7,4.4-8.9C399.2,364.9,397.8,362.7,395.4,362.2z"/>
											<path class="st52" d="M307.5,267c-1.9,0-3.6-0.3-5.4-0.9c-2.2-0.8-4.7,0.2-5.5,2.3c-0.8,2.1,0.3,4.4,2.5,5.2
												c2.7,1,5.5,1.5,8.4,1.5h1.5c2.4,0,4.3-1.8,4.3-4s-1.9-4-4.3-4h-1.5V267z"/>
											<path class="st52" d="M297.4,241.4c0.8,0,1.5-0.2,2.3-0.6c1.9-1.1,4-1.8,6.2-2c2.4-0.3,4-2.3,3.8-4.5
												c-0.3-2.2-2.4-3.8-4.7-3.6c-3.5,0.4-6.8,1.4-9.8,3.2c-2,1.2-2.6,3.7-1.4,5.6C294.5,240.7,295.9,241.4,297.4,241.4z"/>
											<path class="st52" d="M248.1,376.3h-8.6c-2.3,0-4.3,1.8-4.3,4.1s1.9,4.1,4.3,4.1h8.6c2.3,0,4.2-1.8,4.2-4.1
												S250.4,376.3,248.1,376.3z"/>
											<path class="st52" d="M324.6,303.4c-0.4,0-0.7,0-1.1,0c-2.4,0.1-4.2,2-4.1,4.2s2,3.9,4.2,3.9c0.1,0,0.1,0,0.2,0h8.4
												c2.3,0,4.3-1.8,4.3-4.1s-1.9-4.1-4.3-4.1h-7.6V303.4z"/>
											<path class="st52" d="M322.4,238.7h8.5c2.4,0,4.3-1.8,4.3-4.1c0-2.2-1.9-4-4.3-4h-8.5c-2.4,0-4.3,1.8-4.3,4
												C318.2,236.9,320.1,238.7,322.4,238.7z"/>
											<path class="st52" d="M374.9,303.4c-2.4,0-4.3,1.8-4.3,4.1s1.9,4.1,4.3,4.1h8.5c2.3,0,4.3-1.8,4.3-4.1s-1.9-4.1-4.3-4.1
												H374.9z"/>
											<path class="st52" d="M390.1,271.1c0-2.2-1.9-4-4.3-4h-8.5c-2.3,0-4.2,1.8-4.2,4s1.9,4,4.2,4h8.5
												C388.2,275.1,390.1,273.3,390.1,271.1z"/>
											<path class="st52" d="M349.2,311.6h8.5c2.4,0,4.3-1.8,4.3-4.1c0-2.2-1.9-4.1-4.3-4.1h-8.5c-2.4,0-4.3,1.8-4.3,4.1
												C345,309.7,346.9,311.6,349.2,311.6z"/>
											<path class="st52" d="M356.6,238.7c2.4,0,4.2-1.8,4.2-4.1c0-2.2-1.9-4-4.2-4H348c-2.3,0-4.3,1.8-4.3,4
												c0,2.3,1.9,4.1,4.3,4.1H356.6z"/>
											<path class="st52" d="M326.1,267c-2.4,0-4.3,1.8-4.3,4s1.9,4,4.3,4h8.5c2.4,0,4.3-1.8,4.3-4s-1.9-4-4.3-4H326.1z"/>
											<path class="st52" d="M364.5,271.1c0-2.2-1.9-4-4.3-4h-8.5c-2.4,0-4.3,1.8-4.3,4s1.9,4,4.3,4h8.5
												C362.6,275.1,364.5,273.3,364.5,271.1z"/>
											<path class="st52" d="M424.6,285.7c-0.4-2.2-2.6-3.7-4.9-3.3c-2.3,0.3-3.9,2.4-3.5,4.6c0.1,0.7,0.2,1.5,0.2,2.2
												c0,1.4-0.2,2.7-0.6,4c-0.7,2.1,0.6,4.4,2.9,5c0.4,0.1,0.8,0.2,1.2,0.2c1.9,0,3.6-1.2,4.1-2.9c0.6-2,0.9-4.1,0.9-6.2
												C424.9,288.1,424.8,286.9,424.6,285.7z"/>
											<path class="st52" d="M350.5,376.3H342c-2.4,0-4.3,1.8-4.3,4.1s1.9,4.1,4.3,4.1h8.5c2.4,0,4.3-1.8,4.3-4.1
												S352.8,376.3,350.5,376.3z"/>
											<path class="st52" d="M324.9,376.3h-8.5c-2.4,0-4.3,1.8-4.3,4.1s1.9,4.1,4.3,4.1h8.5c2.4,0,4.3-1.8,4.3-4.1
												S327.2,376.3,324.9,376.3z"/>
											<path class="st52" d="M371.8,343.9c0-2.2-1.9-4.1-4.3-4.1H359c-2.4,0-4.3,1.8-4.3,4.1c0,2.2,1.9,4.1,4.3,4.1h8.5
												C369.9,348,371.8,346.2,371.8,343.9z"/>
											<path class="st52" d="M346.2,343.9c0-2.2-1.9-4.1-4.3-4.1h-8.5c-2.3,0-4.3,1.8-4.3,4.1c0,2.2,1.9,4.1,4.3,4.1h8.5
												C344.3,348,346.2,346.2,346.2,343.9z"/>
											<path class="st52" d="M375.8,376.3h-8.2c-2.4,0-4.3,1.8-4.3,4.1s1.9,4.1,4.3,4.1h8.4l0.1-4.1v4.1c2.4,0,4.1-1.8,4.1-4.1
												S378.1,376.3,375.8,376.3z"/>
											<path class="st52" d="M390.9,355c0.9,0,1.8-0.3,2.6-0.9c1.9-1.4,2.2-3.9,0.7-5.7c-2.1-2.6-4.9-4.7-8-6.2
												c-2.1-1-4.7-0.2-5.7,1.8s-0.2,4.4,1.9,5.4c2,0.9,3.7,2.3,5.1,4C388.4,354.4,389.6,355,390.9,355z"/>
											<path class="st52" d="M407.2,302.3c-1.8,0.7-3.8,1.1-5.8,1.1h-0.9c-2.4,0-4.3,1.8-4.3,4s1.9,4.1,4.3,4.1h0.9
												c3.2,0,6.2-0.6,9.1-1.7c2.2-0.9,3.2-3.2,2.3-5.3C411.8,302.5,409.3,301.5,407.2,302.3z"/>
											<path class="st52" d="M290.6,262.4c2.2-0.7,3.4-3,2.7-5.1c-0.5-1.4-0.7-2.9-0.7-4.4c0-0.6,0-1.2,0.1-1.8
												c0.3-2.2-1.3-4.3-3.7-4.5c-2.4-0.3-4.5,1.3-4.8,3.5c-0.1,0.9-0.2,1.8-0.2,2.8c0,2.4,0.4,4.7,1.2,7c0.6,1.7,2.2,2.8,4,2.8
												C289.7,262.6,290.1,262.5,290.6,262.4z"/>
											<path class="st52" d="M273.6,376.3h-8.5c-2.4,0-4.3,1.8-4.3,4.1s1.9,4.1,4.3,4.1h8.5c2.4,0,4.3-1.8,4.3-4.1
												S276,376.3,273.6,376.3z"/>
											<path class="st52" d="M316.6,346.4c1.6,0,3.2-0.9,3.9-2.4c1-2,0-4.4-2.1-5.4c-2-0.9-3.8-2.2-5.2-3.8
												c-1.5-1.7-4.2-1.9-6-0.5s-2,4-0.5,5.7c2.2,2.5,5.1,4.6,8.2,5.9C315.4,346.2,316,346.4,316.6,346.4z"/>
											<path class="st52" d="M413.1,270c-3-1.7-6.4-2.7-9.9-2.9c-2.3-0.2-4.4,1.5-4.6,3.7s1.6,4.2,3.9,4.3
												c2.2,0.2,4.4,0.8,6.3,1.9c0.7,0.4,1.4,0.6,2.1,0.6c1.5,0,2.9-0.7,3.7-2C415.9,273.6,415.2,271.1,413.1,270z"/>
											<path class="st52" d="M299.2,376.3h-8.5c-2.4,0-4.3,1.8-4.3,4.1s1.9,4.1,4.3,4.1h8.5c2.4,0,4.3-1.8,4.3-4.1
												S301.6,376.3,299.2,376.3z"/>
											<path class="st52" d="M309.9,323c0.4-2.1,1.3-4,2.6-5.7c1.4-1.8,1-4.3-0.9-5.7c-1.9-1.3-4.6-0.9-6,0.9
												c-2.1,2.7-3.5,5.7-4.1,9c-0.4,2.2,1.1,4.3,3.4,4.7c0.3,0,0.5,0.1,0.8,0.1C307.7,326.3,309.5,325,309.9,323z"/>
											<path class="st52" d="M380,165.8c8.2,0,14.9,6.3,14.9,14.2c0,7.8-6.7,14.2-14.9,14.2c-8.2,0-14.9-6.3-14.9-14.2
												S371.8,165.8,380,165.8L380,165.8z M380,202.2c12.9,0,23.5-10,23.5-22.3S393,157.6,380,157.6c-12.9,0-23.5,10-23.5,22.3
												C356.6,192.2,367.1,202.2,380,202.2z"/>
											<path class="st52" d="M224.3,307.5c-9.4,0-17.1-7.3-17.1-16.2c0-8.9,7.6-16.2,17.1-16.2c9.4,0,17.1,7.3,17.1,16.2
												C241.3,300.2,233.7,307.5,224.3,307.5L224.3,307.5z M224.3,267c-14.1,0-25.6,10.9-25.6,24.3s11.5,24.3,25.6,24.3
												s25.6-10.9,25.6-24.3C249.9,277.9,238.4,267,224.3,267z"/>
										</g>
										<rect x="224.9" y="417.4" class="st56" width="326" height="48"/>
										<text transform="matrix(1 0 0 1 224.86 458.5678)" class="st57 st53 st58">Viajes</text>
									</g>
								</g>
							</g>
						</g>
					</g>
				</g>
			</g>
		</g>
	</g>
</g>
<g id="Capa_2">
	<text transform="matrix(1 0 0 1 173.8184 394.5409)"><tspan x="0" y="0" class="st52 st53 st59">Líneas y</tspan><tspan x="46.1" y="61.6" class="st52 st53 st59">rutas</tspan></text>
	<g>
		<rect x="241.9" y="267.6" class="st52" width="37.7" height="8.3"/>
		<rect x="318.7" y="267.6" class="st52" width="37.7" height="8.3"/>
		<path class="st52" d="M359.6,252.6h-118l9.2-105.1h99.6L359.6,252.6z M249.3,245.5h102.6l-8-91h-86.7L249.3,245.5z"/>
		<path class="st52" d="M373.8,306.5H227.5l-5.3-52.5l12.6-128.1h129L376.4,244L373.8,306.5z M233.9,299.5h133.2l2.3-55.2
			l-11.9-111.4H241.3L229.4,254L233.9,299.5z"/>
		<rect x="183.1" y="196" class="st52" width="49.6" height="7.1"/>
		<path class="st52" d="M165.7,218.4c-10.9,0-19.8-8.9-19.8-19.8c0-10.9,8.9-19.8,19.8-19.8c10.9,0,19.8,8.9,19.8,19.8
			C185.5,209.5,176.6,218.4,165.7,218.4z M165.7,185.8c-7,0-12.8,5.7-12.8,12.8c0,7,5.7,12.8,12.8,12.8c7,0,12.8-5.7,12.8-12.8
			C178.5,191.5,172.8,185.8,165.7,185.8z"/>
		<rect x="368.2" y="194.1" class="st52" width="49.6" height="7.1"/>
		<path class="st52" d="M435.2,218.4c-10.9,0-19.8-8.9-19.8-19.8c0-10.9,8.9-19.8,19.8-19.8c10.9,0,19.8,8.9,19.8,19.8
			C455,209.5,446.1,218.4,435.2,218.4z M435.2,185.8c-7,0-12.8,5.7-12.8,12.8c0,7,5.7,12.8,12.8,12.8c7,0,12.8-5.7,12.8-12.8
			C447.9,191.5,442.2,185.8,435.2,185.8z"/>
	</g>
</g>
</svg>
