<?xml version="1.0" encoding="utf-8"?>
<!-- Generator: Adobe Illustrator 23.0.0, SVG Export Plug-In . SVG Version: 6.00 Build 0)  -->
<svg version="1.1" id="Capa_1" xmlns="http://www.w3.org/2000/svg" xmlns:xlink="http://www.w3.org/1999/xlink" x="0px" y="0px"
	 viewBox="0 0 116.3 116.3" style="enable-background:new 0 0 116.3 116.3;" xml:space="preserve">
<style type="text/css">
	.st0{fill:#0060B6;}
	.st1{fill:#FEFEFE;}
	.st2{fill:#FDFEFE;}
</style>
<title>bus</title>
<path class="st0" d="M58,116.3C25.9,116.2-0.1,90.1,0,58S26.2-0.1,58.4,0s58.1,26.2,58,58.4c-0.1,32-26,57.9-58,58H58z"/>
<path class="st0" d="M58,107C31,106.9,9.2,85,9.2,58c0.1-27,22-48.9,49-48.8c27,0.1,48.8,22,48.8,48.9v0.4
	C106.8,85.4,84.9,107,58,107z"/>
<path class="st1" d="M60.1,36.8h30.5c4,0,5.3,1.4,5.3,5.3v24.7c0,4.1-1.4,5.5-5.4,5.6c-0.6,0-1.1,0-1.7,0c-1.6,0.2-2.3-0.2-2.6-2
	c-1.1-4.4-5.5-7.1-9.8-6c-3.1,0.7-5.5,3.2-6.1,6.4c-0.3,1.5-0.8,1.7-2.1,1.7c-6.9,0-13.9,0-20.9,0c-1.4,0-2-0.2-2.2-1.8
	c-0.7-3.6-3.7-6.2-7.4-6.4c-3.7-0.3-7.2,2-8.4,5.5c-0.3,0.9,0,2.3-0.9,2.6c-1.4,0.3-2.9,0.3-4.3,0.1c-2.3-0.1-4-2-3.9-4.3
	c0,0,0,0,0,0l0,0v-0.1c-0.1-7.9-0.4-15.8,2.3-23.5c0.4-1,0.6-2,0.9-3c1-3.5,2.6-4.7,6.2-4.7L60.1,36.8z"/>
<path class="st2" d="M85.3,72.3c0,3.9-3.1,7.1-7,7.1h-0.1c-3.9,0-7.1-3.2-7.1-7.1c0-3.9,3.2-7.1,7.1-7.1l0,0c3.9-0.1,7.1,3.1,7.2,7
	C85.4,72.2,85.4,72.2,85.3,72.3L85.3,72.3L85.3,72.3z"/>
<path class="st2" d="M44.1,72.3c0,3.9-3.2,7-7,7c-3.9,0-7-3.2-7-7c0-3.9,3.2-7,7-7C41,65.2,44.1,68.3,44.1,72.3L44.1,72.3z"/>
<path class="st0" d="M48.1,54.6c-2.1,0-4.2-0.1-6.2,0c-1.3,0-1.6-0.4-1.6-1.6c0.1-4,0.1-8,0-12c0-1.2,0.3-1.7,1.6-1.7
	c4.3,0.1,8.6,0.1,12.9,0c1.1,0,1.6,0.4,1.5,1.5c0,4.1,0,8.1,0,12.2c0,1.1-0.4,1.5-1.5,1.5C52.6,54.5,50.4,54.6,48.1,54.6z"/>
<path class="st0" d="M66.5,54.6c-2.1-0.2-5.6,1.1-7.1-0.5c-1.3-1.4-0.4-4.8-0.4-7.4c0-1.8,0.1-3.5,0-5.3s0.5-2.1,2.2-2.1
	c3.8,0.1,7.7,0.2,11.5,0c2-0.1,2.4,0.7,2.3,2.4c-0.1,3.4-0.1,6.9,0,10.3c0.1,1.9-0.4,2.8-2.4,2.5C70.7,54.4,68.8,54.6,66.5,54.6z"/>
<path class="st0" d="M84.3,39.4c1.8,0,3.5,0,5.3,0c2.4,0.1,3.5,1.2,3.6,3.5c0.1,2.7,0,5.4,0,8.1c0.2,1.7-1.1,3.3-2.8,3.5
	c0,0,0,0,0,0l0,0c-0.2,0-0.4,0-0.6,0c-3.6,0.1-7.2,0-10.8,0.1c-1.1,0-1.4-0.5-1.3-1.4V40.7c0-1,0.4-1.4,1.4-1.4
	C80.8,39.4,82.6,39.4,84.3,39.4z"/>
<path class="st0" d="M37.6,47v0.2c0,8.1,0,8.1-8.2,7.3c-1-0.1-1.4-0.3-0.9-1.3c0.3-0.7,0.6-1.5,0.9-2.2c0.4-0.6,0.2-1.3-0.3-1.7
	c0,0,0,0,0,0l-0.2-0.1c-0.6-0.4-1.4-0.1-1.8,0.5c0,0,0,0,0,0l0,0C27.1,49.9,27,50,27,50.1c-0.4,0.9-0.8,1.9-1.2,2.9
	c-0.2,0.4-0.2,1.3-1,1.1c-0.5-0.1-0.8-0.7-1.1-1.1c-0.1-0.1-0.1-0.1-0.1-0.2c0.6-4.2,1.1-8.5,3.4-12.3c0.6-1,2-1.1,3.3-1.1
	c1.8,0,3.7,0.1,5.5,0c1.5-0.1,1.9,0.5,1.9,1.9C37.6,43.2,37.6,45.1,37.6,47z"/>
<path class="st0" d="M81.2,72.2c0.1,1.6-1.2,2.9-2.7,3h-0.3c-1.5,0-2.8-1.2-2.9-2.7c0,0,0,0,0,0l0,0v-0.2c-0.1-1.6,1.1-2.9,2.7-3
	c0,0,0,0,0,0h0.1C79.7,69.3,81.1,70.6,81.2,72.2C81.2,72.2,81.2,72.2,81.2,72.2L81.2,72.2L81.2,72.2z"/>
<path class="st0" d="M37.2,69.3c1.7,0.1,2.9,1.5,2.9,3.1s-1.5,2.9-3.1,2.9c-1.6,0-2.8-1.3-2.8-2.8l0,0v-0.2
	C34.1,70.6,35.4,69.3,37.2,69.3L37.2,69.3z"/>
</svg>
