<?xml version="1.0" encoding="utf-8"?>
<!-- Generator: Adobe Illustrator 23.0.0, SVG Export Plug-In . SVG Version: 6.00 Build 0)  -->
<svg version="1.1" id="Capa_1" xmlns="http://www.w3.org/2000/svg" xmlns:xlink="http://www.w3.org/1999/xlink" x="0px" y="0px"
	 viewBox="0 0 114.4 114.3" style="enable-background:new 0 0 114.4 114.3;" xml:space="preserve">
<style type="text/css">
	.st0{fill:#0060B6;}
	.st1{fill:#FEFEFE;}
</style>
<title>busInt</title>
<path class="st0" d="M57.2,114.3C25.7,114.3,0.1,88.8,0,57.3c0,0,0-0.1,0-0.1C0,25.2,25.7-0.2,58.1,0c31.1,0.2,57,26.2,56.3,58.4
	C113.7,90.4,87.1,114.7,57.2,114.3z"/>
<path class="st0" d="M56.8,105.1c-25.6,0.3-48-22.2-47.6-48.8C9.7,31,30.9,8.7,57.9,9.1c26.5,0.3,47.8,22,47.4,48.6
	S83.3,105.4,56.8,105.1L56.8,105.1z"/>
<path class="st1" d="M57,22.9c5.3,0,10.6,0,15.8,0c5.1-0.2,9.4,3.8,9.5,8.9c0,0.2,0,0.4,0,0.6c0,8.1,0,16.1,0,24.2
	c0,1.5,0.3,2.1,2,2.1s1.9-0.8,1.9-2.2s0-2.7,0-4.1c0-0.8,0.3-1.9-1.2-1.8c-0.9,0.1-0.8-0.6-0.8-1.1c0-5,0-9.9,0-14.9
	c0-1.1,0.5-1.3,1.4-1.3c3.7-0.2,3.7-0.3,3.7,3.4c0,4,0,8,0,12c0,1,0.3,2.2-1.4,2c-0.9-0.1-0.7,0.6-0.7,1.2c0,1.1,0,2.2,0,3.4
	c0,1.3,0.3,2.8-0.2,3.8s-2.2,0.4-3.4,0.4c-1.5,0.1-1.1,1.1-1.1,1.9c0,5.4-0.1,10.9,0,16.3c0.2,3.2-1.3,6.2-3.9,8
	c-1.6,1.1-1.2,2.5-1.2,3.8c0,1.5-0.4,2.2-2,2c-1.3-0.1-2.6-0.1-3.8,0c-2,0.2-3.3-0.1-2.9-2.6c0.2-1.1-0.5-1.3-1.5-1.3
	c-7,0-13.9,0-20.9,0c-1.5,0-1.5,0.9-1.4,1.8c0.3,1.8-0.5,2.3-2.1,2.1c-0.6,0-1.3,0-1.9,0c-4.1,0-4.2,0-4.5-4c0-0.7-0.4-1.3-1-1.7
	c-2.7-2-4.2-5.2-4-8.5c0.1-5.4,0-10.7,0.1-16.1c0-1.6-0.3-2.4-2.1-2.1s-2.3-0.4-2.1-2.1c0.1-1.5,0.1-3,0-4.6
	c-0.1-1.1,0.7-2.7-1.6-2.6c-0.7,0-0.5-0.9-0.5-1.4c0-4.8,0-9.6,0-14.4c0-1.1,0.4-1.5,1.5-1.5c3.7-0.1,3.7-0.2,3.7,3.4v12.2
	c0,0.9,0.1,1.9-1.3,1.7c-1-0.1-0.9,0.6-0.9,1.3c0,1.7,0,3.4,0,5c0,1-0.2,2,1.5,2c1.5,0,1.8-0.6,1.8-2c-0.1-7.7,0-15.4,0-23
	c0-6.4,3.8-10.3,10.3-10.3L57,22.9z"/>
<path class="st0" d="M78.4,46.4c0,3.4-0.2,6.9,0.1,10.3c0.2,3-1.2,4.8-3.5,6.3c-2.9,1.8-6.2,2.9-9.6,3.4c-6.9,1.1-13.9,0.9-20.7-0.7
	c-1.8-0.4-3.5-1.1-5.1-2c-2.8-1.6-4.5-3.7-4.3-7.3c0.3-7.1,0.1-14.2,0-21.3c0-1.5,0.3-2.1,2-2.1c13.1,0.1,26.2,0.1,39.3,0
	c1.5,0,1.9,0.5,1.8,1.9C78.4,38.7,78.4,42.6,78.4,46.4z"/>
<path class="st0" d="M57.1,30.1c-3.1,0-6.2,0-9.3,0c-1.3,0-1.8-0.2-1.9-1.7c0-3.6-0.1-3.6,3.5-3.6c5.7,0,11.3,0.1,17-0.1
	c2.2-0.1,2,1.1,1.9,2.5s0.6,2.9-1.9,2.8C63.3,30,60.2,30.1,57.1,30.1z"/>
<path class="st0" d="M41.9,77.5h-2.4c-3.7,0-4.4-0.9-3.6-4.6c0.2-0.9,0.7-0.9,1.3-0.9c3.3,0,6.5,0,9.8,0c1.1,0,1.3,0.4,1.3,1.4
	c0.2,4.2,0.3,4.2-3.8,4.2L41.9,77.5z"/>
<path class="st0" d="M72.3,72c1,0.1,2.1,0.1,3.1,0c2.5-0.4,3.2,0.6,3.1,3.1c-0.1,1.9-0.4,2.7-2.5,2.6c-2.7-0.2-5.4-0.1-8.1,0
	c-1.4,0-2-0.2-2-1.8c0-3.8-0.1-3.8,3.7-3.8L72.3,72z"/>
</svg>
