<?xml version="1.0" encoding="utf-8"?>
<!-- Generator: Adobe Illustrator 23.0.0, SVG Export Plug-In . SVG Version: 6.00 Build 0)  -->
<svg version="1.1" id="Capa_1" xmlns="http://www.w3.org/2000/svg" xmlns:xlink="http://www.w3.org/1999/xlink" x="0px" y="0px"
	 viewBox="0 0 116.5 116.5" style="enable-background:new 0 0 116.5 116.5;" xml:space="preserve">
<style type="text/css">
	.st0{fill:#0060B6;}
	.st1{fill-rule:evenodd;clip-rule:evenodd;fill:#FFFFFF;}
</style>
<title>enCiclaIcon</title>
<path class="st0" d="M58.2,116.5C26,116.5,0,90.4,0,58.2S26.1,0,58.3,0c32.2,0,58.2,26.1,58.2,58.3
	C116.6,90.3,90.3,116.5,58.2,116.5z"/>
<path class="st0" d="M107.1,58.1c0.1,27-21.7,48.9-48.7,49c-27,0.1-48.9-21.7-49-48.7c0-27.8,21.5-49,48.8-49.1
	S106.9,31.1,107.1,58.1z"/>
<path class="st1" d="M48.6,64.1c-1.1-1.3-2.3-2.5-3.7-3.4c-2.4-1.5-5.1-2.3-7.9-2.3c-0.8,0-1.6,0.1-2.5,0.2
	c-5.9,0.9-10.7,5.1-12.3,10.9c-0.4,1.4-0.6,2.9-0.5,4.4v0.4c0,0.8,0.1,1.6,0.4,2.3c1.6,8,9.3,13.2,17.3,11.6c0,0,0,0,0,0
	c0.8-0.2,1.6-0.4,2.4-0.7c2-0.8,3.9-1.9,5.4-3.5c1.1-0.7,1.4-2.2,0.7-3.3c-0.8-1.4-2.7-1.9-4.1-1h-0.1c-0.8,0.9-1.8,1.5-2.8,2
	c-1.2,0.5-2.5,0.8-3.9,0.8c-0.4,0-0.7,0-1.1,0c-4-0.4-7.3-3.4-8.1-7.4c0-0.4,0-0.9,0-1.3c0-1,0.1-2,0.4-3c0.2-0.9,0.6-1.7,1.1-2.5
	c0.8-1.2,1.9-2.2,3.1-2.9c0.3-0.2,0.6-0.4,0.9-0.5c1.6-0.8,3.3-1.1,5.1-0.8c1.1,0.2,2.2,0.6,3.2,1.3c1,0.7,1.9,1.5,2.7,2.5l0,0
	c1.1,1.2,3,1.3,4.2,0.2c1.1-1,1.2-2.7,0.2-3.9L48.6,64.1"/>
<path class="st1" d="M94.1,64.1c-1.1-1.3-2.3-2.5-3.7-3.4c-2.3-1.5-5.1-2.3-7.9-2.3c-0.8,0-1.6,0.1-2.5,0.2
	c-1.1,0.2-2.2,0.5-3.3,0.9l2,5.3c1.5-0.7,3.2-1,4.9-0.7c1.1,0.2,2.2,0.6,3.2,1.3c1,0.7,1.9,1.5,2.7,2.5l0,0c1.1,1.2,3,1.3,4.2,0.2
	c1.1-1,1.3-2.7,0.3-3.8c0,0,0,0,0,0L94,64"/>
<path class="st1" d="M75.8,66.2L75.8,66.2l-1.9-5.1c-2.9,2-5.1,5-6,8.4c-0.4,1.4-0.6,2.9-0.5,4.4v0.4c0,0.8,0.1,1.6,0.4,2.3
	c1.4,6.2,6.5,10.9,12.8,11.7c2.3,0.3,4.7,0,6.9-0.8c2-0.8,3.8-1.9,5.3-3.5c1-0.8,1.3-2.2,0.6-3.3c-0.8-1.4-2.7-1.9-4.1-1h-0.1
	c-0.8,0.9-1.7,1.5-2.8,2c-1.2,0.5-2.5,0.8-3.9,0.8c-0.4,0-0.8,0-1.1,0c-4-0.4-7.3-3.4-8.1-7.4c0-0.4,0-0.9,0-1.3c0-1,0.1-2,0.4-3
	c0.2-0.9,0.6-1.7,1.1-2.5c0.4-0.6,0.9-1.2,1.5-1.7L76,66.4v-0.2"/>
<path class="st1" d="M52.3,69.7l-14.7-0.1c-2.1,0.1-3.7,1.7-3.8,3.8c0.1,2.1,1.8,3.8,3.9,3.9c1.8,0,9.6,1.2,15.1,2l0.1-0.8l1.2-8.8
	L52.3,69.7L52.3,69.7z"/>
<path class="st1" d="M81.9,71.8L78,65.3l-5.9-15.1l0,0c-0.1-0.2-0.1-0.4,0-0.6c0.1-0.2,0.3-0.4,0.5-0.5c0.8,1.9,1.5,3.9,1.6,3.9
	c0.5,0.9,1.6,1.4,2.6,1.3c1.5,0,5.1-0.5,5.3-0.5l-0.4-11.3c0,0-3,0.2-6.4,0.6s-2.5,2.8-2.5,3.1c-0.2-0.5-0.4-0.9-0.5-1.1
	c-0.4-1-1.5-1.5-2.5-1.1l-2,0.6c0.1,0.3,0.1,0.5,0.1,0.8c0,0.2,0,0.3,0,0.5l2.2-0.7c0.4,0,0.7,0.2,0.9,0.5c0.4,0.7,0.7,1.5,1,2.3
	c-0.6,0.3-1,0.7-1.3,1.3c-0.2,0.5-0.2,1.1,0,1.6l1.3,3.5L62,68.4l-1,7.8l4.2-6.5l8.2-12.1l3.3,8.1l0,0l4,6.4c-0.3,0.3-0.4,0.6-0.4,1
	c0,0.9,0.7,1.6,1.5,1.6s1.6-0.7,1.6-1.5c0-0.8-0.6-1.5-1.5-1.6"/>
<path class="st1" d="M50.3,34.1c2.8-0.2,4.8-2.7,4.6-5.5c-0.2-2.6-2.4-4.6-5-4.6h-0.3c-2.8,0.2-4.8,2.7-4.6,5.5
	c0.2,2.6,2.4,4.6,4.9,4.6H50.3"/>
<path class="st1" d="M47.1,34.9h-0.2c-1.2,0.1-2.1,1-2.5,2.1v0.5l-3.2,16.9v0.4c0,0.2,0,0.3,0,0.5c0.1,0.9,0.6,1.8,1.4,2.3l0.4,0.2
	L56,64l-2,14.6c0,0.2,0,0.4,0,0.6c0.1,1.5,1.3,2.6,2.8,2.6H57c1.5-0.1,2.6-1.4,2.6-2.9L62,62.3V62c0-0.2,0-0.3,0-0.5
	c-0.1-1-0.7-1.9-1.5-2.3h-0.2l-11.1-5.5l2-11.7l12.3,5.6h0.2c0.3,0.1,0.5,0.2,0.8,0.2h0.2c1.3-0.1,2.3-1.1,2.2-2.4
	c0-1-0.7-1.8-1.6-2.1l-16.7-8l-0.4-0.2C47.8,35,47.5,34.9,47.1,34.9"/>
</svg>
