<?xml version="1.0" encoding="utf-8"?>
<!-- Generator: Adobe Illustrator 23.0.0, SVG Export Plug-In . SVG Version: 6.00 Build 0)  -->
<svg version="1.1" id="Capa_1" xmlns="http://www.w3.org/2000/svg" xmlns:xlink="http://www.w3.org/1999/xlink" x="0px" y="0px"
	 viewBox="0 0 116.5 116.5" style="enable-background:new 0 0 116.5 116.5;" xml:space="preserve">
<style type="text/css">
	.st0{fill:#0060B6;}
	.st1{fill:#FEFEFE;}
	.st2{fill:#FDFDFE;}
	.st3{fill:#DDE8F3;}
	.st4{fill:#E6EEF6;}
</style>
<title>ExpCivica</title>
<path class="st0" d="M116.5,58.5c-0.1,32.2-26.3,58.2-58.5,58.1C25.9,116.4-0.1,90.3,0,58.1C0.1,26,26.2,0,58.3,0
	C90.5,0,116.6,26.2,116.5,58.5C116.5,58.4,116.5,58.4,116.5,58.5z"/>
<path class="st0" d="M106.9,58.1c1,26.5-22.1,49.5-49.4,49c-27-0.3-48.7-22.4-48.4-49.4S31.4,9.1,58.4,9.3l0,0
	C85.3,9.3,107.4,31.4,106.9,58.1z"/>
<path class="st1" d="M50.2,22.6c0.2-0.5,0.6-0.5,1-0.5c5.6,0,11.2,0,16.8,0c1.4,0,2,0.6,2,2c0,13.1,0,26.2,0,39.3
	c0,0.4,0.2,1-0.4,1.3c-0.5,0.2-1.2,0.1-1.5-0.4c-1.4-1.4-2.7-2.7-4.1-4.1c-1.9-1.8-3.1-1.8-4.9,0c-2.8,2.9-2.9,6.4-0.1,9.4
	c1.6,1.7,3.3,3.3,4.9,4.9c0.4,0.4,1,0.7,0.7,1.4s-0.8,0.3-1.3,0.3c-8.3,0-16.6,0-24.9,0c-1.4,0-2.1-0.5-2-1.9c0-12.1,0-24.3,0-36.4
	c0-0.4,0-0.8,0.5-1c2.4-0.1,4.6,0.8,7.1-0.1c4.9-1.6,7.8-6.7,6.7-11.7C50.4,24.3,49.9,23.5,50.2,22.6z"/>
<path class="st1" d="M72.4,54.5c2.6,2.6,4.6,4.8,6.7,6.9c0.9,1,1.4,2.4,1.3,3.8c0,9.1,0,18.2,0,27.3c0,1.6-0.5,2-2.1,2
	c-5.2-0.1-10.4-0.1-15.6,0c-1.5,0-2-0.4-1.9-1.9c0.1-0.9,0-1.8,0-2.6c0.2-2-0.1-3.3-2.6-3.6C56,86,54.4,81,55.7,79.2
	c0.3-0.5,0.8-0.4,1.3-0.4c1.2,0,2.4,0.1,3.6,0c2.4-0.2,4.4-0.1,5,3c0.4,1.8,2.1,2.7,3.9,3.2c0.5,0.1,1.4,0.5,1.5-0.5
	c0.1-0.7,0.3-1.5-0.7-1.8c-3-0.8-3.4-3.1-3.2-5.6c0.2-1.8-0.5-3.5-1.9-4.6c-1.6-1.4-3.1-3-4.6-4.5c-1.1-1-1.6-2.5-1.1-3.9
	c0.7-2.5,1.8-2.8,3.6-1l3.3,3.2c1.5,1.5,3.3,1,5,0.8c1-0.1,1-1.1,1-2C72.4,61.8,72.4,58.6,72.4,54.5z"/>
<path class="st0" d="M50.2,22.6c2.1,3.9,1.5,8.7-1.4,11.9c-3,3.4-7.8,4.4-11.9,2.4c-5.7-2.4-6.8-7.3-6.1-11.8c0.6-4.2,5-7.8,9.6-8.3
	C44.5,16.7,48.4,18.9,50.2,22.6z"/>
<path class="st0" d="M64.7,50.6c0,1.2,0,2.4,0,3.6c0,0.8,0.1,1.6-1.2,1.6s-1.3-0.5-1.3-1.5c0-2.5,0-4.9,0-7.4c0-1,0.2-1.4,1.3-1.5
	s1.2,0.8,1.2,1.6C64.7,48.2,64.7,49.4,64.7,50.6z"/>
<path class="st0" d="M64.7,32.5c0,1.2,0,2.4,0,3.6c0.1,1-0.2,1.4-1.3,1.4s-1.2-0.5-1.2-1.3c0-2.5,0-5,0-7.4c0-1,0.2-1.4,1.3-1.4
	c1.3,0,1.2,0.7,1.2,1.5C64.7,30.2,64.7,31.3,64.7,32.5z"/>
<path class="st0" d="M58.3,35c-1.1,0.2-1.3-0.4-1.3-1.2s0.3-1.5,1.3-1.4s1.2,0.4,1.2,1.3S59.3,35.3,58.3,35z"/>
<path class="st0" d="M59.5,38.8c0.2,1.2-0.4,1.5-1.4,1.5S57,39.7,57,38.9s0.1-1.4,1.1-1.3S59.7,37.7,59.5,38.8z"/>
<path class="st0" d="M59.5,54.3c0.1,1.1-0.3,1.5-1.3,1.5S57,55.3,57,54.4s0.3-1.5,1.3-1.4C59.2,53.1,59.6,53.4,59.5,54.3z"/>
<path class="st0" d="M58.1,29.8C57.1,30,57,29.4,57,28.5c0-1.1,0.6-1.1,1.4-1.1c1,0,1.1,0.5,1.2,1.3C59.5,29.8,58.9,29.9,58.1,29.8z
	"/>
<path class="st0" d="M58.4,45.3c-0.8,0.1-1.4,0-1.4-1.1c0-0.7-0.1-1.4,1-1.4c0.9,0,1.5,0,1.5,1.2C59.5,44.8,59.4,45.4,58.4,45.3z"/>
<path class="st0" d="M58.3,48c1-0.1,1.2,0.3,1.2,1.2c0,1.1-0.5,1.2-1.4,1.3c-1.1,0-1-0.6-1.1-1.4C56.9,48.1,57.4,47.9,58.3,48z"/>
<path class="st2" d="M48.4,27.6c0,4-3.3,7.3-7.4,7.3c-4.1,0.2-7.5-3-7.7-7.1s3-7.5,7.1-7.7c0.2,0,0.4,0,0.5,0c4.1,0,7.4,3.3,7.4,7.4
	C48.4,27.5,48.4,27.5,48.4,27.6z"/>
<path class="st0" d="M40,29.8c0.4-1.2,0.3-2-1.1-2.6c-0.9-0.4-1.4-1.5-1-2.4c0-0.1,0.1-0.1,0.1-0.2c0.4-1,1.4-1.7,2.5-1.7
	c1.2,0.1,2.1,0.8,2.5,2c0.2,0.9-0.3,1-1.5,0.2c-0.2-0.1-0.4-0.2-0.6-0.3c-0.4,1.1-0.2,1.7,0.9,2.1c1,0.2,1.7,1.1,1.7,2.1
	c0,1.2-0.8,1.7-1.8,2.3c-0.7,0.7-1.8,0.7-2.5,0c-0.6-0.5-1.4-0.8-1.4-1.8c0-0.3,0.2-0.6,0.5-0.7c0,0,0,0,0,0
	C39.3,28.4,39.2,29.7,40,29.8z"/>
<path class="st3" d="M41.1,29.8c-0.5-0.2-0.3-0.7-0.3-1.1s0.1-0.7,0.5-0.5c0.5,0.1,0.8,0.5,0.7,1c0,0,0,0,0,0
	C42,29.6,41.6,29.9,41.1,29.8C41.1,29.8,41.1,29.8,41.1,29.8z"/>
<path class="st4" d="M40.3,25.3c-0.1,0.2-0.2,0.7-0.3,0.7c-0.3,0-0.6-0.2-0.7-0.5c0-0.1,0-0.1,0-0.2c0.1-0.3,0.2-0.5,0.5-0.6
	C40.3,24.5,40.1,24.9,40.3,25.3z"/>
</svg>
