<?xml version="1.0" encoding="utf-8"?>
<!-- Generator: Adobe Illustrator 23.0.0, SVG Export Plug-In . SVG Version: 6.00 Build 0)  -->
<svg version="1.1" id="Capa_1" xmlns="http://www.w3.org/2000/svg" xmlns:xlink="http://www.w3.org/1999/xlink" x="0px" y="0px"
	 viewBox="0 0 115.2 115.2" style="enable-background:new 0 0 115.2 115.2;" xml:space="preserve">
<style type="text/css">
	.st0{fill:#0060B6;}
	.st1{fill:#FEFEFE;}
</style>
<title>metroplus</title>
<path class="st0" d="M115.2,57.6c0.1,31.7-25.6,57.5-57.3,57.6c0,0,0,0,0,0h-0.3C25.9,115.2-0.3,89.1,0,57.5C0.1,25.6,26-0.1,57.8,0
	c0,0,0,0,0,0H59C91.3,0.8,115.7,27.7,115.2,57.6z"/>
<path class="st0" d="M58.1,9.5C83.2,8.6,106.8,31,106,59c-1,26.7-23.5,47.5-50.2,46.4C29.2,104.4,8.4,82,9.4,55.3c0-0.1,0-0.3,0-0.4
	C10.4,31.5,31.4,8.4,58.1,9.5z"/>
<path class="st1" d="M31,53.8V38.4c0-5.8,2.5-9.2,8-11.1c6.5-2.2,13.4-2,20.2-2c5,0,9.9,0.3,14.7,1.9c6,2,8.4,5.3,8.4,11.6v30.5
	c0,2.7-0.5,5.2-2.5,7.3c-1.3,1.3-0.6,2.9-0.6,4.3c-0.1,4.8-3.6,7-8,5c-1.6-0.7-1.8-2.1-1.7-3.6c0.3-2-0.5-2.6-2.5-2.5
	c-7,0.1-13.9,0.1-20.9,0c-1.7,0-2.2,0.4-2.2,2.1c0.1,3.7-0.8,4.4-5.4,4.3c-3.6,0-4.4-0.8-4.4-4.4c0-2.5,0.1-4.8-1.8-6.9
	c-1.3-1.3-1.3-3.3-1.3-5.2C31,64.3,31,59.1,31,53.8z"/>
<path class="st0" d="M56.8,38.2c5.7,0,11.3,0.1,17,0c1.6,0,2,0.4,2,2c-0.1,4-0.1,8,0,12c0,1.4-0.2,2-1.8,2c-11.5-0.1-23-0.1-34.5,0
	c-1.5,0-1.9-0.4-1.9-1.9c0.1-4,0.1-8,0-12c0-1.5,0.4-2.1,2-2C45.3,38.3,51,38.2,56.8,38.2z"/>
<path class="st0" d="M75.7,68.4c-0.1,2.6-2.1,4.7-4.7,4.9c-2.6-0.2-4.6-2.2-4.8-4.8c0.2-2.5,2.1-4.5,4.6-4.7
	C73.5,63.8,75.6,65.8,75.7,68.4z"/>
<path class="st0" d="M42.3,73.3c-2.6,0.1-4.8-2-4.9-4.6c-0.1-2.6,2-4.8,4.6-4.9c2.6-0.1,4.8,2,4.9,4.6C46.9,71,44.9,73.1,42.3,73.3z
	"/>
</svg>
