<?xml version="1.0" encoding="utf-8"?>
<!-- Generator: Adobe Illustrator 23.0.0, SVG Export Plug-In . SVG Version: 6.00 Build 0)  -->
<svg version="1.1" id="Capa_1" xmlns="http://www.w3.org/2000/svg" xmlns:xlink="http://www.w3.org/1999/xlink" x="0px" y="0px"
	 viewBox="0 0 116.5 116.5" style="enable-background:new 0 0 116.5 116.5;" xml:space="preserve">
<style type="text/css">
	.st0{fill:#0060B6;}
	.st1{fill:#FEFEFE;}
	.st2{fill:#FBFCFD;}
	.st3{fill:#CFE3EE;}
</style>
<title>metrocable</title>
<path class="st0" d="M58.3,116.5C26.1,116.5,0,90.4,0,58.2S26.1,0,58.3,0c32.2,0,58.2,26.1,58.2,58.2
	C116.6,90.2,90.3,116.5,58.3,116.5z"/>
<path class="st0" d="M107.1,58.2c0,27-21.8,48.9-48.8,49S9.4,85.4,9.4,58.4c0-28,21.7-49,48.9-49C85.6,9.4,106.9,31.2,107.1,58.2z"
	/>
<path class="st1" d="M74,28.9c4.3,10.4,8.6,20.8,12.9,31.2c0.3,0.8,0.3,1.7-0.1,2.5c-3.5,9.9-6.9,19.7-10.3,29.6
	c-0.2,1-1.2,1.7-2.2,1.5c-10.9-0.1-21.8-0.1-32.6,0c-1,0.1-1.9-0.5-2.1-1.4c-3.3-9.5-6.6-19-9.9-28.5c-0.3-0.8-0.3-1.7,0-2.5
	c4-10.8,7.9-21.6,11.8-32.4c0.4-0.3,0.9-0.4,1.4-0.3h29.7C73.1,28.6,73.6,28.6,74,28.9z"/>
<path class="st2" d="M57.1,28.4c0-2.7,0.1-5.4,0-8.1c0-1.1,0.3-1.6,1.5-1.5s2.2,0,3.3,0s1.8-0.1,1.9,1.4s-0.8,1.6-1.9,1.5h-1.7
	c-0.7,1.5-0.2,3.1-0.3,4.6C59.8,28.9,59.8,28.9,57.1,28.4z"/>
<path class="st3" d="M57.1,28.4c2,0.4,2.7-0.4,2.6-2.4c-0.1-1.4-0.6-3,0.5-4.3c-0.4,6.7-0.4,6.6,6.2,6.8c2.5,0,5.1-0.6,7.6,0.4H41.5
	c0.6-0.9,1.5-0.5,2.2-0.5C48.1,28.4,52.6,28.4,57.1,28.4z"/>
<path class="st0" d="M57.9,71.8c-4.4,0-8.8-0.1-13.2,0c-1.5,0-1.9-0.5-2.5-1.8c-2.2-4.4-2.3-9.5-0.1-13.9c1.7-4.2,3.2-8.4,4.5-12.8
	c0.4-1.3,0.9-1.9,2.5-1.9c6.5,0.1,12.9,0.1,19.4,0c1.1-0.2,2.1,0.5,2.3,1.6c0,0,0,0,0,0.1c1.8,6,3.7,11.9,5.7,17.8
	c0.3,0.9,0.3,1.9-0.1,2.8c-0.4,0.9-0.8,1.8-1.1,2.6c-2.3,5.6-2.3,5.6-8.4,5.6L57.9,71.8z"/>
</svg>
