<?xml version="1.0" encoding="utf-8"?>
<!-- Generator: Adobe Illustrator 23.0.0, SVG Export Plug-In . SVG Version: 6.00 Build 0)  -->
<svg version="1.1" id="Capa_1" xmlns="http://www.w3.org/2000/svg" xmlns:xlink="http://www.w3.org/1999/xlink" x="0px" y="0px"
	 viewBox="0 0 117.3 117.2" style="enable-background:new 0 0 117.3 117.2;" xml:space="preserve">
<style type="text/css">
	.st0{fill:#0060B6;}
	.st1{fill:#FEFEFE;}
</style>
<title>tranvia</title>
<path class="st0" d="M58.5,117.2C26.1,117.1,0,90.8,0.1,58.4S26.5-0.1,58.8,0c32.5,0,58.5,26.5,58.5,59.4
	C117.2,91.1,90.7,117.2,58.5,117.2z"/>
<path class="st0" d="M58.6,9.6c26.6-0.5,49.7,22,49.2,49.6c-0.5,27.4-22.4,48.9-49.3,48.6c-28-0.3-49-22-49-49.5
	C9.5,31.5,31.6,9.3,58.6,9.6z"/>
<path class="st1" d="M59,91.7c-7.9,0-15.8,0-23.7,0c-1.4,0-1.8-0.4-2-1.8C31.5,79,31.5,67.9,33,57c1.2-8.8,2-17.6,2.8-26.4
	c0.2-2.4,0.7-3.4,3.4-3.3c5.4,0.3,10.9,0,16.3,0.1c1.6,0,2.1-0.4,2-2c-0.1-2.1,0-4.2,0-6.2c0-1.2,0.4-1.6,1.5-1.5
	c1.3,0.1,2.6,0.1,3.8,0c1,0,1.4,0.3,1.4,1.4s-0.3,1.8-1.5,1.5c-2.1-0.4-2.3,0.8-2.3,2.5c0.1,4.3,0,4.4,4.4,4.3c4.7,0,9.4,0,14.1-0.1
	c1.3,0,1.8,0.3,1.9,1.7c1.5,13.8,3.2,27.6,4.6,41.4c0.7,6.8-0.7,13.5-0.9,20.3c0,1.5-1.2,1-2,1C74.8,91.7,66.9,91.7,59,91.7z"/>
<path class="st0" d="M59,71.5c-6,0-12,0-18,0c-1.6,0-2.2-0.1-2-2c1-10.6,1.8-21.2,2.6-31.8c0.1-1.6,0.5-2.3,2.4-2.3
	c10,0.1,20,0.1,30,0.1c1,0,2-0.4,2.2,1.3C77,47.7,78,58.5,79,69.3c0.2,1.9-0.3,2.3-2.1,2.2C71,71.5,65,71.5,59,71.5z"/>
<path class="st0" d="M46.1,77.8c2,0,4,0.1,6,0s1.6,1,1.6,2.1s0.5,2.4-1.6,2.4c-4-0.1-8.1-0.1-12.2,0c-2.1,0.1-1.5-1.3-1.6-2.4
	s-0.2-2.2,1.6-2.1C41.9,77.9,44,77.8,46.1,77.8z"/>
<path class="st0" d="M70.6,82.2c-2,0-4-0.1-6,0c-2.1,0.1-1.3-1.5-1.4-2.5s-0.1-2,1.5-1.9c4.1,0.1,8.3,0.1,12.4,0
	c2,0,1.4,1.3,1.4,2.3s0.4,2.3-1.5,2.2C74.9,82.1,72.8,82.2,70.6,82.2z"/>
</svg>
