<svg id="Capa_1" data-name="Capa 1" xmlns="http://www.w3.org/2000/svg" viewBox="0 0 64 64"><defs><style>.cls-1{fill:#e27926;}</style></defs><title>Sin título-4</title><path class="cls-1" d="M42.51,7h-21a3.64,3.64,0,0,0-3.64,3.64V53.35A3.63,3.63,0,0,0,21.49,57h21a3.64,3.64,0,0,0,3.64-3.64V10.66A3.64,3.64,0,0,0,42.51,7ZM26.81,9.23H37.19c.26,0,.48.39.48.88s-.21.88-.48.88H26.81c-.26,0-.47-.39-.47-.88S26.55,9.23,26.81,9.23ZM32,53.39a2.32,2.32,0,1,1,2.32-2.32A2.32,2.32,0,0,1,32,53.39Zm11.42-8H20.58V13.16H43.42Z"/></svg>