<svg id="Capa_1" data-name="Capa 1" xmlns="http://www.w3.org/2000/svg" viewBox="0 0 64 64"><defs><style>.cls-1{fill:#fff;}</style></defs><title>Sin título-4</title><path class="cls-1" d="M41.41,54.83H22.58a3.71,3.71,0,0,1-3.7-3.7V12.88a3.71,3.71,0,0,1,3.7-3.71H41.41a3.71,3.71,0,0,1,3.71,3.71V51.12A3.71,3.71,0,0,1,41.41,54.83ZM22.58,10.07a2.81,2.81,0,0,0-2.81,2.81V51.12a2.81,2.81,0,0,0,2.81,2.81H41.41a2.81,2.81,0,0,0,2.81-2.81V12.88a2.81,2.81,0,0,0-2.81-2.81ZM32,51.61a2.53,2.53,0,1,1,2.52-2.53A2.53,2.53,0,0,1,32,51.61Zm0-4.16a1.63,1.63,0,1,0,1.63,1.63A1.63,1.63,0,0,0,32,47.45Zm10.68-3H21.32V14.68H42.68Zm-20.46-.9H41.78v-28H22.22Zm14.43-30h-9.3c-.51,0-.87-.52-.87-1.23s.37-1.23.87-1.23h9.3c.5,0,.87.53.87,1.23S37.15,13.62,36.65,13.62Zm-9.21-.9h9.12a.76.76,0,0,0,.07-.34.77.77,0,0,0-.07-.34H27.44a.89.89,0,0,0,0,.67Z"/><path class="cls-1" d="M41.41,55H22.58a3.88,3.88,0,0,1-3.88-3.88V12.88A3.89,3.89,0,0,1,22.58,9H41.41a3.89,3.89,0,0,1,3.88,3.88V51.12A3.88,3.88,0,0,1,41.41,55ZM22.58,9.35a3.54,3.54,0,0,0-3.53,3.53V51.12a3.53,3.53,0,0,0,3.53,3.53H41.41a3.54,3.54,0,0,0,3.53-3.53V12.88a3.54,3.54,0,0,0-3.53-3.53ZM41.41,54.1H22.58a3,3,0,0,1-3-3V12.88a3,3,0,0,1,3-3H41.41a3,3,0,0,1,3,3V51.12A3,3,0,0,1,41.41,54.1ZM22.58,10.24A2.64,2.64,0,0,0,20,12.88V51.12a2.64,2.64,0,0,0,2.63,2.63H41.41A2.64,2.64,0,0,0,44,51.12V12.88a2.64,2.64,0,0,0-2.64-2.64ZM32,51.78a2.7,2.7,0,1,1,2.7-2.7A2.71,2.71,0,0,1,32,51.78Zm0-5.05a2.35,2.35,0,1,0,2.35,2.35A2.35,2.35,0,0,0,32,46.73Zm0,4.16a1.81,1.81,0,1,1,1.8-1.81A1.81,1.81,0,0,1,32,50.89Zm0-3.26a1.46,1.46,0,1,0,1.45,1.46A1.46,1.46,0,0,0,32,47.62Zm10.85-3H21.15V14.5H42.85ZM21.5,44.31h21V14.85h-21ZM42,43.76H22V15.4H42Zm-19.57-.35H41.61V15.75H22.39ZM36.65,13.79h-9.3c-.61,0-1-.59-1-1.41s.44-1.41,1-1.41h9.3c.6,0,1,.6,1,1.41S37.25,13.79,36.65,13.79Zm-9.3-2.47c-.4,0-.7.44-.7,1.06s.29,1.06.7,1.06h9.3c.4,0,.7-.46.7-1.06s-.3-1.06-.7-1.06Zm9.31,1.57H27.34l0-.1a1.06,1.06,0,0,1,0-.83l0-.09h9.33l0,.09a1,1,0,0,1,0,.83Zm-9.1-.35h8.87a.73.73,0,0,0,0-.16.72.72,0,0,0,0-.16H27.57a.79.79,0,0,0,0,.16A.8.8,0,0,0,27.57,12.55Z"/></svg>