<svg id="Capa_1" data-name="Capa 1" xmlns="http://www.w3.org/2000/svg" viewBox="0 0 64 64"><defs><style>.cls-1{fill:#fff;}</style></defs><title>Sin título-4</title><path class="cls-1" d="M47.19,26H16.81V13.3A4.31,4.31,0,0,1,21.12,9H42.88a4.31,4.31,0,0,1,4.3,4.3ZM18.34,24.45H45.66V13.3a2.78,2.78,0,0,0-2.78-2.78H21.12a2.78,2.78,0,0,0-2.78,2.78Zm7.82-2.23H22V15.4h4.17Zm-2.64-1.53h1.12V16.93H23.51Z"/><path class="cls-1" d="M42.88,55H21.12a4.31,4.31,0,0,1-4.3-4.3V27.09H47.19V50.7A4.31,4.31,0,0,1,42.88,55ZM18.34,28.62V50.7a2.78,2.78,0,0,0,2.78,2.78H42.88a2.78,2.78,0,0,0,2.78-2.78V28.62Zm7.82,9.05H22V30.85h4.17Zm-2.64-1.53h1.12V32.38H23.51Z"/></svg>