<svg id="Capa_1" data-name="Capa 1" xmlns="http://www.w3.org/2000/svg" viewBox="0 0 64 64"><defs><style>.cls-1{fill:#e27926;}</style></defs><title>Sin título-4</title><path class="cls-1" d="M58.94,14.29H50.39V11.58a.89.89,0,0,0-.89-.89H43.39a.89.89,0,0,0-.89.89v2.71h-21V11.58a.89.89,0,0,0-.89-.89H14.5a.89.89,0,0,0-.89.89v2.71H5.06a.89.89,0,0,0-.89.89v5.69a.89.89,0,0,0,.89.89H58.94a.89.89,0,0,0,.89-.89V15.18A.89.89,0,0,0,58.94,14.29Z"/><path class="cls-1" d="M8,52.15a1.16,1.16,0,0,0,1.16,1.16H54.89A1.16,1.16,0,0,0,56,52.15V24.8H8ZM26.53,40.34l2.71-8.66a.36.36,0,0,1,.34-.25H33.8a.36.36,0,0,1,.34.47L32.49,37h4.64a.36.36,0,0,1,.3.55l-6.2,9.62a.36.36,0,0,1-.3.16l-.13,0a.36.36,0,0,1-.22-.39l1-6.11H26.87a.36.36,0,0,1-.34-.46Z"/></svg>