<svg id="Capa_1" data-name="Capa 1" xmlns="http://www.w3.org/2000/svg" viewBox="0 0 64 64"><defs><style>.cls-1{fill:#e27926;}</style></defs><title>Sin título-4</title><path class="cls-1" d="M43.91,5.23H20.09a7.27,7.27,0,0,0-7.26,7.26v9.43a1,1,0,0,0,1,1H16v9.74a1,1,0,0,0,1,1H47a1,1,0,0,0,1-1V22.94h2.15a1,1,0,0,0,1-1V12.49A7.27,7.27,0,0,0,43.91,5.23ZM46,31.66H18V12.72H46ZM49.13,20.9H48V11.7a1,1,0,0,0-1-1H17a1,1,0,0,0-1,1v9.2H14.87v-8.4a5.22,5.22,0,0,1,5.22-5.22H43.91a5.22,5.22,0,0,1,5.22,5.22v8.4Z"/><path class="cls-1" d="M27.31,40.51a1,1,0,0,0,0-2H24.94a1,1,0,0,0,0,2Z"/><path class="cls-1" d="M33.19,40.51a1,1,0,0,0,0-2H30.81a1,1,0,0,0,0,2Z"/><path class="cls-1" d="M36.69,40.51h2.37a1,1,0,0,0,0-2H36.69a1,1,0,0,0,0,2Z"/><path class="cls-1" d="M43.85,34.11a1,1,0,0,0-1,1v3.34h-.27a1,1,0,1,0,0,2h.27v15.4l-1.07-.67a1,1,0,0,0-1.08,0l-2.1,1.3-2.1-1.3a1,1,0,0,0-1.08,0l-2.1,1.3-2.09-1.3a1,1,0,0,0-1.08,0L28,56.54,26,55.24a1,1,0,0,0-1.08,0l-2.09,1.3-1.61-1v-15h.27a1,1,0,1,0,0-2h-.27V35.13a1,1,0,0,0-2,0v21a1,1,0,0,0,.48.87l2.63,1.63a1,1,0,0,0,1.08,0l2.09-1.3,2.09,1.3a1,1,0,0,0,1.08,0l2.1-1.3,2.09,1.3a1,1,0,0,0,1.08,0l2.1-1.3,2.1,1.3a1,1,0,0,0,1.08,0l2.1-1.3,2.1,1.3a1,1,0,0,0,1.56-.87V35.13A1,1,0,0,0,43.85,34.11Z"/></svg>