<svg id="Capa_1" data-name="Capa 1" xmlns="http://www.w3.org/2000/svg" viewBox="0 0 64 64"><defs><style>.cls-1{fill:#fff;}</style></defs><title>Sin título-4</title><path class="cls-1" d="M33.48,48.38h-3A1.89,1.89,0,0,1,28.7,47l-.21-.8a2.43,2.43,0,0,1-1.73-2.34V42.63A1.69,1.69,0,0,1,28.44,41h7.11a1.68,1.68,0,0,1,1.68,1.69v1.21a2.45,2.45,0,0,1-1.73,2.33l-.22.8A1.89,1.89,0,0,1,33.48,48.38ZM35.55,42H28.44a.64.64,0,0,0-.65.65v1.21a1.41,1.41,0,0,0,1.2,1.4l.33.05.38,1.43a.86.86,0,0,0,.82.63h3a.86.86,0,0,0,.82-.63l.39-1.43.33-.05a1.41,1.41,0,0,0,1.19-1.39V42.64A.66.66,0,0,0,35.55,42Zm-.39-1.55H28.83a2.19,2.19,0,0,1-2.17-1.86,8.94,8.94,0,0,0-2.38-4.81,10.71,10.71,0,0,1,7.66-18.15H32a10.71,10.71,0,0,1,7.7,18.16,8.81,8.81,0,0,0-2.37,4.8A2.19,2.19,0,0,1,35.16,40.43ZM32,16.65h-.08A9.69,9.69,0,0,0,25,33a10,10,0,0,1,2.66,5.37,1.16,1.16,0,0,0,1.15,1h6.33a1.16,1.16,0,0,0,1.16-1A9.83,9.83,0,0,1,39,33.06a9.68,9.68,0,0,0-7-16.41ZM25.79,28a1.67,1.67,0,0,1-1.67-1.67A7.89,7.89,0,0,1,32,18.49a1.67,1.67,0,0,1,0,3.33,4.55,4.55,0,0,0-4.55,4.55A1.67,1.67,0,0,1,25.79,28ZM32,19.52a6.86,6.86,0,0,0-6.85,6.85.63.63,0,1,0,1.27,0A5.58,5.58,0,0,1,32,20.79a.63.63,0,0,0,.63-.63A.64.64,0,0,0,32,19.52Z"/></svg>