<svg id="Capa_1" data-name="Capa 1" xmlns="http://www.w3.org/2000/svg" viewBox="0 0 64 64"><defs><style>.cls-1{fill:#e27926;}</style></defs><title>Sin título-4</title><path id="_Trazado_compuesto_" data-name="&lt;Trazado compuesto&gt;" class="cls-1" d="M39.93,49.87v2a3.22,3.22,0,0,1-2.73,3.19l-.5,1.85a2.3,2.3,0,0,1-2.22,1.7h-5a2.3,2.3,0,0,1-2.22-1.7l-.49-1.85a3.24,3.24,0,0,1-2.75-3.2v-2a2,2,0,0,1,2-2H38A2,2,0,0,1,39.93,49.87Zm9.2-27.38a17,17,0,0,1-4.81,11.89,15.71,15.71,0,0,0-4.21,8.53,2.83,2.83,0,0,1-2.8,2.39H26.68a2.81,2.81,0,0,1-2.79-2.38,15.88,15.88,0,0,0-4.24-8.56A17.13,17.13,0,1,1,49.13,22.49ZM33.93,12.11A1.93,1.93,0,0,0,32,10.18,12.37,12.37,0,0,0,19.64,22.54a1.93,1.93,0,1,0,3.86,0A8.51,8.51,0,0,1,32,14,1.92,1.92,0,0,0,33.93,12.11Z"/></svg>