<svg id="Capa_1" data-name="Capa 1" xmlns="http://www.w3.org/2000/svg" viewBox="0 0 64 64"><defs><style>.cls-1{fill:#e27926;}</style></defs><title>Sin título-4</title><path class="cls-1" d="M55.2,33H53.59V16.29c0-2.89-.71-5.09-2.1-6.55a6.75,6.75,0,0,0-5.09-2,7.15,7.15,0,0,0-7.12,6.81,5.91,5.91,0,0,0-4.63,3.89,2.23,2.23,0,0,0,.22,2,2.2,2.2,0,0,0,1.91.85h7.57a1.89,1.89,0,0,0,1.6-.75,2.4,2.4,0,0,0,.2-2.1,5.9,5.9,0,0,0-4.58-3.9,4.85,4.85,0,0,1,4.82-4.52c3.29,0,4.9,2,4.9,6.2V33H8.8a1.15,1.15,0,0,0,0,2.3h1.38v8.29a7.35,7.35,0,0,0,6,7.19,3.77,3.77,0,1,0,6.79.13h18a3.77,3.77,0,1,0,6.79-.14,7.33,7.33,0,0,0,5.88-7.19V35.27H55.2a1.15,1.15,0,1,0,0-2.3ZM43.92,19.07h-7A3.71,3.71,0,0,1,40.4,16.8,3.76,3.76,0,0,1,43.92,19.07ZM19.52,53.91A1.47,1.47,0,1,1,21,52.44,1.47,1.47,0,0,1,19.52,53.91Zm24.83,0a1.47,1.47,0,1,1,1.47-1.47A1.47,1.47,0,0,1,44.35,53.91ZM51.29,35.5v8.06a5,5,0,0,1-5,5H17.57a5.07,5.07,0,0,1-5.09-5V35.27H51.29Z"/><path class="cls-1" d="M40.21,25.33a1.09,1.09,0,0,0,1.09-1.09v-.46a1.09,1.09,0,1,0-2.18,0v.46A1.09,1.09,0,0,0,40.21,25.33Z"/><path class="cls-1" d="M39.12,27.46a1.09,1.09,0,1,0,2.18,0V27a1.09,1.09,0,1,0-2.18,0Z"/><path class="cls-1" d="M39.12,30.9a1.09,1.09,0,1,0,2.18,0v-.57a1.09,1.09,0,0,0-2.18,0Z"/><path class="cls-1" d="M36.71,25.43a1.09,1.09,0,0,0,1.4-.65l.14-.38a1.09,1.09,0,1,0-2.05-.74l-.14.38A1.09,1.09,0,0,0,36.71,25.43Z"/><path class="cls-1" d="M35.09,26.69l-.14.38a1.09,1.09,0,1,0,2.05.74l.14-.38a1.09,1.09,0,1,0-2.05-.74Z"/><path class="cls-1" d="M34.46,31.63a1.09,1.09,0,0,0,1.4-.65L36,30.6a1.09,1.09,0,0,0-2.05-.74l-.14.38A1.09,1.09,0,0,0,34.46,31.63Z"/><path class="cls-1" d="M44.47,23.66a1.09,1.09,0,1,0-2.05.74l.14.38A1.09,1.09,0,1,0,44.61,24Z"/><path class="cls-1" d="M45.57,26.69a1.09,1.09,0,0,0-2.05.74l.14.38a1.09,1.09,0,1,0,2.05-.74Z"/><path class="cls-1" d="M44.67,30.6l.14.38a1.09,1.09,0,1,0,2.05-.74l-.14-.38a1.09,1.09,0,0,0-2.05.74Z"/></svg>