<svg id="Capa_1" data-name="Capa 1" xmlns="http://www.w3.org/2000/svg" viewBox="0 0 64 64"><defs><style>.cls-1{fill:#fff;}</style></defs><title>Sin título-4</title><path class="cls-1" d="M49.25,50.25H14.75a6.7,6.7,0,0,1-3.56-1l-1-.63L26.34,30.5l5.37,4.7a.35.35,0,0,0,.57,0l5.38-4.7L53.81,48.58l-1,.63A6.7,6.7,0,0,1,49.25,50.25ZM13.35,48a4.62,4.62,0,0,0,1.4.22H49.25a4.62,4.62,0,0,0,1.4-.22L37.49,33.31l-3.88,3.4a2.52,2.52,0,0,1-3.21,0l-3.88-3.4ZM54.45,48l-16.13-18,16-14,.62,1A6.67,6.67,0,0,1,56,20.5v23a6.65,6.65,0,0,1-.86,3.24ZM41.15,30.1,53.91,44.38A4.46,4.46,0,0,0,54,43.5v-23a4.6,4.6,0,0,0-.23-1.43ZM9.55,48l-.68-1.23A6.62,6.62,0,0,1,8,43.5v-23a6.67,6.67,0,0,1,1.05-3.59l.62-1,16,14Zm.68-28.91A4.6,4.6,0,0,0,10,20.5v23a4.4,4.4,0,0,0,.09.88L22.85,30.1ZM32,34.29l-21.72-19,1.25-.69a6.66,6.66,0,0,1,3.22-.85H49.25a6.66,6.66,0,0,1,3.22.85l1.25.69ZM13.93,15.83,32,31.64,50.07,15.83a4.49,4.49,0,0,0-.82-.08H14.75A4.49,4.49,0,0,0,13.93,15.83Z"/></svg>