<svg id="Capa_1" data-name="Capa 1" xmlns="http://www.w3.org/2000/svg" viewBox="0 0 64 64"><defs><style>.cls-1{fill:#e27926;}</style></defs><title>Sin título-4</title><path class="cls-1" d="M54.73,38.82H47.91V32a2.27,2.27,0,0,0-2.27-2.27H38.82V25.18h6.82a2.27,2.27,0,0,0,2.27-2.27V13.82a2.27,2.27,0,0,0-2.27-2.27H9.27A2.27,2.27,0,0,0,7,13.82V50.18a2.27,2.27,0,0,0,2.27,2.27H54.73A2.27,2.27,0,0,0,57,50.18V41.09A2.27,2.27,0,0,0,54.73,38.82Zm-25-22.73H43.36v4.55H29.73V16.09Zm4.55,9.09v4.55H20.64V25.18H34.27ZM11.55,16.09H25.18v4.55H11.55Zm0,9.09h4.55v4.55H11.55Zm4.55,22.73H11.55V43.36h4.55v4.55Zm-4.55-9.09V34.27H25.18v4.55H11.55Zm22.73,9.09H20.64V43.36H34.27v4.55Zm-4.55-9.09V34.27H43.36v4.55H29.73Zm22.73,9.09H38.82V43.36H52.45v4.55Z"/></svg>