<svg id="Capa_1" data-name="Capa 1" xmlns="http://www.w3.org/2000/svg" viewBox="0 0 64 64"><defs><style>.cls-1{fill:#e27926;}</style></defs><title>Sin título-4</title><path class="cls-1" d="M42.72,20.85a124.8,124.8,0,0,0-9.6-13.53,1.45,1.45,0,0,0-2.24,0,125,125,0,0,0-9.6,13.53c-4.61,7.6-6.94,13.89-6.94,18.69a17.67,17.67,0,0,0,35.33,0C49.67,34.74,47.33,28.45,42.72,20.85ZM34.42,50.7a12.86,12.86,0,0,1-3.18.4c-6.6,0-12-5-12-11.12a14.21,14.21,0,0,1,1.16-5.14.76.76,0,0,1,.87-.43.7.7,0,0,1,.57.74,11.19,11.19,0,0,0-.07,1.2c0,6.67,5.38,12.26,12.51,13A.72.72,0,0,1,35,50,.7.7,0,0,1,34.42,50.7Z"/></svg>