<svg id="Capa_1" data-name="Capa 1" xmlns="http://www.w3.org/2000/svg" viewBox="0 0 64 64"><defs><style>.cls-1{fill:#ebebeb;}</style></defs><title>Sin título-4-43</title><path class="cls-1" d="M44.05,19.47A140.27,140.27,0,0,0,33.26,4.27a1.63,1.63,0,0,0-2.52,0A140.44,140.44,0,0,0,19.95,19.47c-5.18,8.55-7.8,15.61-7.8,21a19.86,19.86,0,0,0,39.71,0C51.86,35.08,49.23,28,44.05,19.47ZM34.72,53a14.45,14.45,0,0,1-3.58.45c-7.42,0-13.45-5.61-13.45-12.5A16,16,0,0,1,19,35.19a.85.85,0,0,1,1-.49.78.78,0,0,1,.64.84,12.57,12.57,0,0,0-.08,1.35c0,7.5,6,13.78,14.06,14.61a.81.81,0,0,1,.74.71A.78.78,0,0,1,34.72,53Z"/></svg>