<svg id="Capa_1" data-name="Capa 1" xmlns="http://www.w3.org/2000/svg" viewBox="0 0 64 64"><defs><style>.cls-1{fill:#6f6f6f;}.cls-2{fill:#e27926;}.cls-3{fill:#c56824;}.cls-4{fill:#fff;}</style></defs><title>Sin título-4</title><path class="cls-1" d="M57.52,32A25.82,25.82,0,1,1,31.71,6.18,25.82,25.82,0,0,1,57.52,32"/><path class="cls-2" d="M58.11,32A25.82,25.82,0,1,1,32.29,6.18,25.82,25.82,0,0,1,58.11,32"/><path class="cls-3" d="M32.29,60a28,28,0,1,1,28-28A28.07,28.07,0,0,1,32.29,60Zm0-51.64A23.6,23.6,0,1,0,55.89,32,23.62,23.62,0,0,0,32.29,8.4Z"/><path class="cls-4" d="M28.45,27.33a2.17,2.17,0,0,1-1.56-.77,4.67,4.67,0,0,1-.82-4.64,2.06,2.06,0,0,1,1.49-1.34c1.29-.23,2.57,1.07,2.9,3h0A4.37,4.37,0,0,1,30.24,26a2.06,2.06,0,0,1-1.49,1.34Zm-.61-6.07h-.17a1.39,1.39,0,0,0-1,.92,4,4,0,0,0,.69,3.89,1.21,1.21,0,0,0,2.19-.39,3.67,3.67,0,0,0,.17-2h0C29.52,22.3,28.67,21.26,27.84,21.26Z"/><path class="cls-4" d="M24.61,26.28a1.7,1.7,0,0,1-1.51-1.55,1.65,1.65,0,0,1,1.09-2,1.65,1.65,0,0,1,1.72,1.53h0a1.63,1.63,0,0,1-1.08,2Zm-.22-2.89h-.08c-.38.07-.62.62-.52,1.21s.52,1,.9,1,.62-.62.52-1.21h0C25.11,23.81,24.75,23.39,24.39,23.39Z"/><path class="cls-4" d="M22.16,28a1.7,1.7,0,0,1-1.51-1.55,1.63,1.63,0,0,1,1.09-2,1.65,1.65,0,0,1,1.72,1.53h0a2,2,0,0,1-.28,1.49,1.25,1.25,0,0,1-.8.53Zm-.22-2.89h-.08c-.38.07-.62.62-.52,1.21s.52,1,.9,1A.56.56,0,0,0,22.6,27a1.32,1.32,0,0,0,.17-1h0C22.66,25.49,22.3,25.07,21.94,25.07Z"/><path class="cls-4" d="M20.31,29.66a1.1,1.1,0,0,1-.63-.21A1.67,1.67,0,0,1,19,28.36a1.38,1.38,0,0,1,.92-1.7,1.12,1.12,0,0,1,1,.32,1.74,1.74,0,0,1,.49,1h0a1.37,1.37,0,0,1-.93,1.7Zm-.18-2.31h-.05c-.23,0-.44.42-.36.89a1,1,0,0,0,.36.63.38.38,0,0,0,.28.08c.24,0,.44-.42.36-.89h0a1,1,0,0,0-.29-.57A.47.47,0,0,0,20.12,27.35Z"/><path class="cls-4" d="M19.07,31.66a1.3,1.3,0,0,1-1.17-1.17,1.25,1.25,0,0,1,.85-1.55,1,1,0,0,1,.74.18,1.52,1.52,0,0,1,.59,1,1.25,1.25,0,0,1-.85,1.55Zm-.16-2h0c-.19,0-.35.34-.28.73s.33.62.51.59.35-.34.28-.73h0a.82.82,0,0,0-.3-.53A.31.31,0,0,0,18.91,29.63Z"/><path class="cls-4" d="M28.34,52.42A4,4,0,0,1,25.09,51a14.14,14.14,0,0,1-2.35-5.45c-.1-.42-.19-.86-.26-1.31s-.16-1.05-.22-1.57a10.81,10.81,0,0,0-1.06-4.08l-.41-.71c-.91-1.56-1.94-3.34-1.16-5.16A3.81,3.81,0,0,1,20,32a11.71,11.71,0,0,1,3.77-3.59c1.65-.92,4.11-1.46,5.65,0a7,7,0,0,1,1.76,4.68A11.17,11.17,0,0,1,31,35.72a8.86,8.86,0,0,1-.66,1.94l-.25.59A6.71,6.71,0,0,0,30.64,44a9.27,9.27,0,0,0,1,1.27,6.45,6.45,0,0,1,1.45,2.27c.62,2.06-1.36,4.05-3,4.58A5.7,5.7,0,0,1,28.34,52.42ZM27,28.24a6.08,6.08,0,0,0-2.83.81,11,11,0,0,0-3.54,3.38,3.17,3.17,0,0,0-.31.55h0c-.64,1.49.25,3,1.12,4.52l.41.72A11.51,11.51,0,0,1,23,42.56c.06.5.13,1,.22,1.53s.16.86.26,1.27a13.46,13.46,0,0,0,2.23,5.18,3.8,3.8,0,0,0,4.15.95c1.35-.42,3.07-2.11,2.59-3.7a5.84,5.84,0,0,0-1.31-2,10,10,0,0,1-1-1.37A7.42,7.42,0,0,1,29.46,38l.26-.61a8.21,8.21,0,0,0,.62-1.79,10.47,10.47,0,0,0,.16-2.41A6.31,6.31,0,0,0,28.94,29,2.75,2.75,0,0,0,27,28.24Z"/><path class="cls-4" d="M33.86,18.41H33.8c-1.31,0-2.29-1.58-2.22-3.49a4,4,0,0,1,1.1-2.78A1.89,1.89,0,0,1,34,11.58c1.31,0,2.29,1.58,2.22,3.49S35.14,18.41,33.86,18.41ZM34,12.28a1.22,1.22,0,0,0-.81.36,3.33,3.33,0,0,0-.88,2.29h0c0,1.47.66,2.74,1.55,2.77s1.68-1.19,1.73-2.65-.66-2.74-1.55-2.77Z"/><path class="cls-4" d="M40.69,18.14h0a1.63,1.63,0,0,1-1.36-1.85h0a2,2,0,0,1,.59-1.4,1.23,1.23,0,0,1,.9-.35,1.3,1.3,0,0,1,1,.6,2.09,2.09,0,0,1,.34,1.25,2,2,0,0,1-.59,1.4A1.26,1.26,0,0,1,40.69,18.14ZM40,16.31c0,.6.29,1.11.68,1.13a.59.59,0,0,0,.39-.17,1.32,1.32,0,0,0,.37-.91,1.41,1.41,0,0,0-.22-.83.63.63,0,0,0-.46-.3.58.58,0,0,0-.39.17,1.32,1.32,0,0,0-.37.91Z"/><path class="cls-4" d="M43,19.92h0a1.37,1.37,0,0,1-1.05-1.63h0c.08-.84.68-1.47,1.35-1.39a1.07,1.07,0,0,1,.72.4,1.78,1.78,0,0,1-.23,2.36A1.08,1.08,0,0,1,43,19.92Zm-.39-1.56c0,.48.19.83.42.86a.37.37,0,0,0,.27-.1,1.09,1.09,0,0,0,.14-1.37.38.38,0,0,0-.25-.15c-.28,0-.54.33-.58.76Z"/><path class="cls-4" d="M44.78,21.69h0A1.25,1.25,0,0,1,44,20.09a1.13,1.13,0,1,1,2.15.51A1.26,1.26,0,0,1,44.78,21.69Zm.44-2c-.18,0-.45.18-.54.56h0c-.09.38,0,.7.23.75s.46-.17.55-.56-.05-.7-.24-.75Z"/><path class="cls-4" d="M37.5,42.21a5.61,5.61,0,0,1-.89-.07c-1.75-.28-4-2-3.67-4.1a6.42,6.42,0,0,1,1.11-2.45,9.21,9.21,0,0,0,.78-1.39,6.7,6.7,0,0,0-.3-5.81l-.34-.56A8.83,8.83,0,0,1,33.28,26a11.24,11.24,0,0,1-.53-2.52,7,7,0,0,1,1.09-4.88c1.31-1.7,3.82-1.51,5.58-.83a11.71,11.71,0,0,1,4.24,3,3.85,3.85,0,0,1,.47.62c1,1.69.26,3.59-.42,5.27-.1.26-.21.51-.3.76a10.82,10.82,0,0,0-.47,4.2c0,.51,0,1,0,1.57s0,.89-.08,1.33a14.18,14.18,0,0,1-1.56,5.73A4.22,4.22,0,0,1,37.5,42.21ZM36.88,18A3,3,0,0,0,34.39,19a6.32,6.32,0,0,0-.94,4.38,10.54,10.54,0,0,0,.5,2.37,8.17,8.17,0,0,0,.86,1.67l.35.58a7.42,7.42,0,0,1,.34,6.43,9.9,9.9,0,0,1-.84,1.5,5.81,5.81,0,0,0-1,2.18c-.25,1.65,1.69,3.08,3.08,3.3a3.8,3.8,0,0,0,4-1.53,13.49,13.49,0,0,0,1.47-5.44c0-.43.06-.87.07-1.29s0-1,0-1.54a11.52,11.52,0,0,1,.52-4.46c.1-.25.2-.51.31-.77.65-1.6,1.32-3.25.47-4.64h0a3.15,3.15,0,0,0-.39-.5,11,11,0,0,0-4-2.84A6.55,6.55,0,0,0,36.88,18Z"/><path class="cls-4" d="M37.94,16.21h0a1.53,1.53,0,0,1-1.27-1.73h0c0-.95.64-1.68,1.39-1.64a1.53,1.53,0,0,1,1.27,1.73A1.56,1.56,0,0,1,37.94,16.21Zm-.65-1.71c0,.56.27,1,.64,1.05h0c.36,0,.67-.46.69-1s-.27-1-.64-1.05-.69.45-.71,1Z"/></svg>