<svg id="Capa_1" data-name="Capa 1" xmlns="http://www.w3.org/2000/svg" xmlns:xlink="http://www.w3.org/1999/xlink" viewBox="0 0 64 64"><defs><style>.cls-1{fill:none;}.cls-2{font-size:9.17px;font-family:Roboto-Regular, Roboto;}.cls-2,.cls-4{fill:#fff;}.cls-3{clip-path:url(#clip-path);}</style><clipPath id="clip-path"><path class="cls-1" d="M39.85,12.78A89.62,89.62,0,0,0,33,3.07a1,1,0,0,0-1.61,0,89.73,89.73,0,0,0-6.9,9.72c-3.31,5.46-5,10-5,13.42a12.69,12.69,0,0,0,25.37,0C44.83,22.76,43.16,18.24,39.85,12.78Z"/></clipPath></defs><title>Sin título-4</title><text class="cls-2" transform="translate(18.94 50.31)">Huella<tspan x="-1.6" y="8.52">Hídrica</tspan></text><g class="cls-3"><path class="cls-4" d="M29.09,15.65v3a2.15,2.15,0,0,0,4.3,0V15.94a13.21,13.21,0,0,1,3.4-8.85l3-3.35a.69.69,0,1,0-1-.92l-3,3.35A14.58,14.58,0,0,0,32,15.94v2.72a.78.78,0,1,1-1.56,0v-3a16.12,16.12,0,0,1,4.2-10.87L37.6,1.55a.69.69,0,1,0-1-.92L33.65,3.86A17.49,17.49,0,0,0,29.09,15.65Z"/><path class="cls-4" d="M26.16,18.66a5.08,5.08,0,1,0,10.16,0V15.94A10.28,10.28,0,0,1,39,9.06l2.15-2.38a.69.69,0,1,0-1-.92L37.94,8.14a11.65,11.65,0,0,0-3,7.81v2.72a3.71,3.71,0,1,1-7.41,0v-3a19,19,0,0,1,5-12.84L35,.08a.69.69,0,0,0,0-1,.68.68,0,0,0-.46-.18A.68.68,0,0,0,34-.84L31.48,1.89a20.42,20.42,0,0,0-5.32,13.76Z"/><path class="cls-4" d="M23.23,18.66a8,8,0,0,0,16,0V15.94A7.36,7.36,0,0,1,41.14,11l1.93-2.15a.69.69,0,1,0-1-.92L40.12,10.1a8.73,8.73,0,0,0-2.24,5.85v2.72a6.64,6.64,0,1,1-13.27,0v-3A22,22,0,0,1,30.33.84L31,.09a.69.69,0,0,0,0-1,.68.68,0,0,0-.46-.18A.68.68,0,0,0,30-.84l-.69.76a23.34,23.34,0,0,0-6.08,15.73v3Z"/><path class="cls-4" d="M42.18,18.66a.69.69,0,1,0-1.37,0,9.58,9.58,0,0,1-8.2,9.47.69.69,0,0,0,.2,1.36,11,11,0,0,0,9.38-10.83Z"/><path class="cls-4" d="M40.8,15.94a.69.69,0,1,0,1.37,0,4.43,4.43,0,0,1,1.14-3L45,11.06a.69.69,0,0,0-1-.92l-1.72,1.91A5.8,5.8,0,0,0,40.8,15.94Z"/><path class="cls-4" d="M21.65,9.82a.69.69,0,0,0,.84-.49,24.93,24.93,0,0,1,.94-2.86A.69.69,0,1,0,22.15,6a26.32,26.32,0,0,0-1,3A.69.69,0,0,0,21.65,9.82Z"/><path class="cls-4" d="M23.93,26.79a.69.69,0,1,0,.92-1,9.58,9.58,0,0,1-3.18-7.11v-3a25.14,25.14,0,0,1,.23-3.42.69.69,0,0,0-.59-.77h-.09a.69.69,0,0,0-.68.59,26.52,26.52,0,0,0-.25,3.61v3A11,11,0,0,0,23.93,26.79Z"/><path class="cls-4" d="M27.14,27.3a.69.69,0,0,0-.59,1.24,10.85,10.85,0,0,0,3.12.94.69.69,0,0,0,.2-1.36A9.48,9.48,0,0,1,27.14,27.3Z"/><path class="cls-4" d="M31.24,32.53l.77,0a.69.69,0,1,0-.08-1.37l-.7,0A12.51,12.51,0,0,1,18.74,18.66v-3a.69.69,0,0,0-1.37,0v3A13.88,13.88,0,0,0,31.24,32.53Z"/><path class="cls-4" d="M38.74,28.8a.68.68,0,0,0-.39.12,12.42,12.42,0,0,1-3.73,1.76A.69.69,0,1,0,35,32a13.79,13.79,0,0,0,4.14-2,.69.69,0,0,0-.39-1.25Z"/><path class="cls-4" d="M43.73,15.94v2.72a12.44,12.44,0,0,1-3.41,8.56.69.69,0,1,0,1,.94,13.81,13.81,0,0,0,3.78-9.51V15.94a1.51,1.51,0,0,1,.39-1l.85-.94a.69.69,0,0,0-1-.92l-.85.94A2.88,2.88,0,0,0,43.73,15.94Z"/><path class="cls-4" d="M15.31,24a16.7,16.7,0,0,0,3.56,6,.69.69,0,1,0,1-.93,15.34,15.34,0,0,1-3.27-5.52.69.69,0,0,0-1.3.44Z"/><path class="cls-4" d="M25.81,34.56a.69.69,0,1,0,.44-1.3A15.38,15.38,0,0,1,22,31a.69.69,0,0,0-.82,1.1A16.75,16.75,0,0,0,25.81,34.56Z"/><path class="cls-4" d="M41.9,29.79a15.35,15.35,0,0,1-10.67,4.29A15.57,15.57,0,0,1,29,33.92a.69.69,0,0,0-.2,1.36,17,17,0,0,0,2.41.17A16.82,16.82,0,0,0,48,19.42a.69.69,0,0,0-.65-.72h0a.69.69,0,0,0-.69.66A15.35,15.35,0,0,1,41.9,29.79Z"/><path class="cls-4" d="M31.24,38.38a19.75,19.75,0,0,0,4.55-.53.69.69,0,1,0-.32-1.34,18.39,18.39,0,0,1-4.23.49A18.2,18.2,0,0,1,18,31.36a.69.69,0,1,0-1,1,19.67,19.67,0,0,0,14.22,6.07Z"/><path class="cls-4" d="M46.66,29.83a.69.69,0,0,0-1,.12,18.47,18.47,0,0,1-7.45,5.67.69.69,0,0,0,.53,1.27,19.85,19.85,0,0,0,8-6.09A.69.69,0,0,0,46.66,29.83Z"/><path class="cls-4" d="M40.76,37.77a.68.68,0,0,0-.3.07,21,21,0,0,1-9.22,2.1,21.31,21.31,0,0,1-5-.59.69.69,0,1,0-.32,1.33,22.68,22.68,0,0,0,5.3.63,22.4,22.4,0,0,0,9.82-2.24.69.69,0,0,0-.3-1.3Z"/><path class="cls-4" d="M23.39,38.44a21.26,21.26,0,0,1-2.08-1,.69.69,0,0,0-.64,1.21,22.65,22.65,0,0,0,2.22,1,.69.69,0,1,0,.51-1.28Z"/></g></svg>