<svg id="Capa_1" data-name="Capa 1" xmlns="http://www.w3.org/2000/svg" viewBox="0 0 64 64"><defs><style>.cls-1{fill:#e27926;}</style></defs><title>Sin título-4</title><path class="cls-1" d="M53.65,19.31l-1-.7a3.65,3.65,0,0,0-2.1-.67H13.21a3.65,3.65,0,0,0-1.27.24l-.81.3,1.61-7.25a4,4,0,0,1,3.82-3.36H47.94a3.88,3.88,0,0,1,3.92,3.38ZM13.21,17H50.56a4.56,4.56,0,0,1,1.69.32l-1.31-5.88a3,3,0,0,0-3-2.63H16.55a3.11,3.11,0,0,0-2.9,2.62L12.4,17.08A4.3,4.3,0,0,1,13.21,17Zm20.39-.72H28.51v-2.6H33.6Zm-4.15-.94h3.21v-.72H29.45Zm16.23.42a2.86,2.86,0,1,1,2.86-2.86A2.86,2.86,0,0,1,45.68,15.77Zm0-4.77a1.92,1.92,0,1,0,1.92,1.92A1.92,1.92,0,0,0,45.68,11Zm-7.47,4.77a2.86,2.86,0,1,1,2.86-2.86A2.86,2.86,0,0,1,38.21,15.77Zm0-4.77a1.92,1.92,0,1,0,1.92,1.92A1.92,1.92,0,0,0,38.21,11ZM33.6,13H28.51v-2.6H33.6ZM29.45,12h3.21V11.3H29.45Z"/><path class="cls-1" d="M53.94,19.74l-1.39-1a3.45,3.45,0,0,0-2-.63H13.21a3.42,3.42,0,0,0-1.2.23l-1.14.42,1.69-7.59a4.23,4.23,0,0,1,4-3.51H47.94A4.07,4.07,0,0,1,52,11.21Zm-40.74-2H50.56a3.84,3.84,0,0,1,2.21.7l.59.42-1.68-7.58a3.71,3.71,0,0,0-3.74-3.23H16.55a3.85,3.85,0,0,0-3.63,3.21l-1.53,6.91.48-.18A3.84,3.84,0,0,1,13.21,17.75Zm39.3-.12-.33-.13a4.4,4.4,0,0,0-1.62-.31H13.21a4.19,4.19,0,0,0-.77.07l-.28.06.06-.28,1.25-5.64a3.3,3.3,0,0,1,3.08-2.77H47.94a3.14,3.14,0,0,1,3.19,2.78Zm-39.3-.82H50.56A4.75,4.75,0,0,1,52,17l-1.23-5.55A2.78,2.78,0,0,0,47.94,9H16.55a2.92,2.92,0,0,0-2.71,2.47l-1.19,5.37A4.71,4.71,0,0,1,13.21,16.81Zm20.58-.34H28.32v-3h5.47ZM28.7,16.1h4.71V13.87H28.7Zm17-.14a3,3,0,1,1,3-3A3.05,3.05,0,0,1,45.68,16Zm0-5.72a2.67,2.67,0,1,0,2.67,2.67A2.67,2.67,0,0,0,45.68,10.24ZM38.21,16a3,3,0,1,1,3-3A3.05,3.05,0,0,1,38.21,16Zm0-5.72a2.67,2.67,0,1,0,2.67,2.67A2.67,2.67,0,0,0,38.21,10.24Zm-5.36,5.29H29.26v-1.1h3.59Zm-3.21-.38h2.83v-.34H29.64Zm16-.14a2.1,2.1,0,1,1,2.11-2.1A2.11,2.11,0,0,1,45.68,15Zm0-3.83a1.72,1.72,0,1,0,1.73,1.73A1.73,1.73,0,0,0,45.68,11.18ZM38.21,15a2.1,2.1,0,1,1,2.11-2.1A2.11,2.11,0,0,1,38.21,15Zm0-3.83a1.72,1.72,0,1,0,1.73,1.73A1.73,1.73,0,0,0,38.21,11.18Zm-4.42,2H28.32v-3h5.47Zm-5.09-.38h4.71V10.55H28.7Zm4.15-.56H29.26v-1.1h3.59Zm-3.21-.38h2.83V11.5H29.64Z"/><path class="cls-1" d="M50.56,56.13H13.21a3,3,0,0,1-3-3V21.62a3.11,3.11,0,0,1,.83-2.05,3,3,0,0,1,.49-.41,2.92,2.92,0,0,1,.67-.32l.57-.2.05.6a3.23,3.23,0,0,0,.25,1,4.33,4.33,0,0,0,.75,1.18l.16.17a3.87,3.87,0,0,0,2.64,1.25H48.77a2.69,2.69,0,0,0,2.36-1.45l.1-.19a4.49,4.49,0,0,0,.36-1,4.89,4.89,0,0,0,.1-.5l.12-.86.66.56a2.88,2.88,0,0,1,.7.87l0,0a2,2,0,0,1,.11.21,2.94,2.94,0,0,1,.22,1.11V53.17A3,3,0,0,1,50.56,56.13ZM12,20a2.1,2.1,0,0,0-.28.25l-.15.19a2,2,0,0,0-.42,1.21V53.17a2,2,0,0,0,2,2H50.56a2,2,0,0,0,2-2V21.62a2,2,0,0,0-.15-.76l0-.05a5.27,5.27,0,0,1-.32.78l-.13.25a3.61,3.61,0,0,1-3.18,1.92H16.65a4.75,4.75,0,0,1-3.31-1.53L13.15,22a5.21,5.21,0,0,1-.91-1.44A4.41,4.41,0,0,1,12,20ZM32,53A13.34,13.34,0,1,1,45.36,39.68,13.35,13.35,0,0,1,32,53Zm0-25.73A12.39,12.39,0,1,0,44.42,39.68,12.41,12.41,0,0,0,32,27.28Z"/><path class="cls-1" d="M50.56,56.32H13.21a3.16,3.16,0,0,1-3.15-3.15V21.63a3.11,3.11,0,0,1,.64-1.89,2.82,2.82,0,0,1,.24-.29,3.23,3.23,0,0,1,.52-.44,3.07,3.07,0,0,1,.72-.35l.8-.28.07.85a3.13,3.13,0,0,0,.23.92A4.14,4.14,0,0,0,14,21.27l.15.17a3.69,3.69,0,0,0,2.5,1.19H48.77A2.51,2.51,0,0,0,51,21.27l.09-.18a4.32,4.32,0,0,0,.35-1c0-.17.07-.33.09-.48l.16-1.2.92.79a3.13,3.13,0,0,1,.74.92l0,0a2.28,2.28,0,0,1,.11.23,3.11,3.11,0,0,1,.23,1.18V53.17A3.16,3.16,0,0,1,50.56,56.32ZM12.64,18.9,12.3,19a2.7,2.7,0,0,0-.63.3,2.84,2.84,0,0,0-.46.39A3.15,3.15,0,0,0,11,20a2.75,2.75,0,0,0-.56,1.66V53.17a2.77,2.77,0,0,0,2.77,2.77H50.56a2.77,2.77,0,0,0,2.77-2.77V21.63a2.76,2.76,0,0,0-.21-1,1.83,1.83,0,0,0-.1-.2l0,0a2.82,2.82,0,0,0-.38-.55,2.56,2.56,0,0,0-.27-.26L52,19.19l-.07.51c0,.17-.06.33-.1.52a4.62,4.62,0,0,1-.38,1l-.1.2A2.88,2.88,0,0,1,48.77,23H16.65a4.07,4.07,0,0,1-2.78-1.31l-.17-.18a4.65,4.65,0,0,1-.78-1.23,3.49,3.49,0,0,1-.26-1ZM50.56,55.38H13.21A2.21,2.21,0,0,1,11,53.17V21.63a2.19,2.19,0,0,1,.45-1.32l.17-.21a2.25,2.25,0,0,1,.31-.27l.22-.16.07.26a4,4,0,0,0,.2.57,5,5,0,0,0,.87,1.38l.19.21a4.57,4.57,0,0,0,3.18,1.47H48.77a3.43,3.43,0,0,0,3-1.82l.12-.23a5.14,5.14,0,0,0,.31-.75l.16-.48.22.52a2.25,2.25,0,0,1,.17.83V53.17A2.21,2.21,0,0,1,50.56,55.38ZM11.94,20.31l0,0-.14.17a1.83,1.83,0,0,0-.38,1.1V53.17A1.83,1.83,0,0,0,13.21,55H50.56a1.83,1.83,0,0,0,1.83-1.83V21.63a2,2,0,0,0,0-.21l-.13.26-.13.25a3.79,3.79,0,0,1-3.34,2H16.65a5,5,0,0,1-3.45-1.59l-.2-.22a5.38,5.38,0,0,1-.94-1.49C12,20.54,12,20.43,11.94,20.31ZM32,53.21A13.53,13.53,0,1,1,45.55,39.68,13.54,13.54,0,0,1,32,53.21Zm0-26.67A13.15,13.15,0,1,0,45.17,39.68,13.16,13.16,0,0,0,32,26.53Zm0,25.73A12.59,12.59,0,1,1,44.61,39.68,12.6,12.6,0,0,1,32,52.26Zm0-24.79a12.21,12.21,0,1,0,12.2,12.21A12.22,12.22,0,0,0,32,27.47Z"/><path class="cls-1" d="M48.77,22.1H16.65a3.44,3.44,0,0,1-3.07-2.93l0-.51H51l0,.49A3,3,0,0,1,49.36,22,1.83,1.83,0,0,1,48.77,22.1ZM14.65,19.61a2.55,2.55,0,0,0,2,1.55H48.77a.88.88,0,0,0,.29,0,1.88,1.88,0,0,0,1-1.5Z"/><path class="cls-1" d="M48.77,22.28H16.65a3.66,3.66,0,0,1-3.26-3.1l-.05-.71h37.9l0,.68a3.21,3.21,0,0,1-1.79,3A2,2,0,0,1,48.77,22.28Zm-35-3.43,0,.3a3.23,3.23,0,0,0,2.88,2.75H48.77a1.66,1.66,0,0,0,.53-.08,2.84,2.84,0,0,0,1.53-2.68v-.29Zm35,2.49H16.65a2.74,2.74,0,0,1-2.18-1.66l-.11-.26H50.25l0,.22a2,2,0,0,1-1.09,1.65A1.11,1.11,0,0,1,48.77,21.34ZM15,19.8A2.31,2.31,0,0,0,16.65,21H48.77a.68.68,0,0,0,.22,0,1.54,1.54,0,0,0,.79-1.13Z"/><path class="cls-1" d="M32,50.52A10.85,10.85,0,1,1,42.87,39.68,10.86,10.86,0,0,1,32,50.52Zm0-20.75a9.9,9.9,0,1,0,9.9,9.9A9.92,9.92,0,0,0,32,29.77Zm0,18.11a8.22,8.22,0,0,1-8.21-8.21,7.9,7.9,0,0,1,.1-1.26l0-.19.16-.12A8.12,8.12,0,0,1,29,36.46a4.89,4.89,0,0,1,2.74.78,2.12,2.12,0,0,1,4.15.63,2.1,2.1,0,0,1-.29,1.06h.12A3.25,3.25,0,0,0,39,37.21l.53-1,.34,1.12A8.21,8.21,0,0,1,32,47.89Zm-7.2-9.13a6.59,6.59,0,0,0-.07.92A7.26,7.26,0,1,0,39.2,38.55a4.37,4.37,0,0,1-3.47,1.32,7,7,0,0,1-1.19-.12l-1.23-.24,1.08-.63a1.17,1.17,0,0,0,.59-1,1.18,1.18,0,0,0-2.36,0,.82.82,0,0,0,0,.12l.16,1.15-.9-.66A4.28,4.28,0,0,0,29,37.41,7.2,7.2,0,0,0,24.82,38.76ZM37,37.19a1.73,1.73,0,1,1,1.73-1.73A1.74,1.74,0,0,1,37,37.19Zm0-2.52a.79.79,0,1,0,.79.79A.79.79,0,0,0,37,34.67Zm-4.15,0A1.73,1.73,0,1,1,34.62,33,1.74,1.74,0,0,1,32.89,34.7Zm0-2.53a.79.79,0,1,0,.79.79A.79.79,0,0,0,32.89,32.18Z"/><path class="cls-1" d="M32,50.71a11,11,0,1,1,11-11A11.05,11.05,0,0,1,32,50.71ZM32,29A10.66,10.66,0,1,0,42.68,39.68,10.67,10.67,0,0,0,32,29Zm0,20.75A10.09,10.09,0,1,1,42.12,39.68,10.11,10.11,0,0,1,32,49.77ZM32,30a9.71,9.71,0,1,0,9.71,9.71A9.73,9.73,0,0,0,32,30Zm0,18.11a8.41,8.41,0,0,1-8.4-8.4,8.18,8.18,0,0,1,.11-1.29l0-.27L24,38a8.33,8.33,0,0,1,5-1.69H29a5.08,5.08,0,0,1,2.63.68A2.31,2.31,0,0,1,35.2,36a2,2,0,0,1-.09-.58A1.92,1.92,0,1,1,36,37.05a2.31,2.31,0,0,1,.15.82,2.25,2.25,0,0,1-.18.87,3,3,0,0,0,2.9-1.62l.74-1.47.48,1.57a8.39,8.39,0,0,1-8,10.85Zm-7.9-9.74,0,.12a7.67,7.67,0,0,0-.1,1.23,8,8,0,1,0,15.68-2.34l-.21-.67-.31.63a3.4,3.4,0,0,1-3.29,1.83h-.13a.44.44,0,0,1-.13,0l-.31,0,.16-.27a1.93,1.93,0,1,0-3.52-1.54l-.07.23-.21-.13A4.7,4.7,0,0,0,29,36.65H29a8,8,0,0,0-4.74,1.62ZM37,33.92a1.54,1.54,0,1,0,1.54,1.54A1.55,1.55,0,0,0,37,33.92ZM32,47.13a7.46,7.46,0,0,1-7.45-7.45,6.67,6.67,0,0,1,.07-.95v-.08l.07,0A7.4,7.4,0,0,1,29,37.21h0a4.5,4.5,0,0,1,3,1.1l.54.4-.1-.7a.88.88,0,0,1,0-.14,1.37,1.37,0,0,1,2.74,0A1.35,1.35,0,0,1,34.48,39l-.65.38.74.14a6.93,6.93,0,0,0,1.16.11h.13a4.18,4.18,0,0,0,3.2-1.26l.26-.29.06.39A7.45,7.45,0,0,1,32,47.13Zm-7-8.27a6.17,6.17,0,0,0-.05.81A7.07,7.07,0,1,0,39.06,39a4.62,4.62,0,0,1-3.2,1.11h-.14a7,7,0,0,1-1.22-.12l-1.73-.33L33,39.5l-1.19-.87a4.07,4.07,0,0,0-2.75-1h0A7,7,0,0,0,25,38.87Zm8.79-2a1,1,0,0,0-1,1,.28.28,0,0,0,0,.06L33,39.46l1.27-.74a1,1,0,0,0-.49-1.84ZM37,36.44a1,1,0,1,1,1-1A1,1,0,0,1,37,36.44Zm0-1.58a.6.6,0,1,0,.6.6A.6.6,0,0,0,37,34.86Zm-4.15,0A1.92,1.92,0,1,1,34.81,33,1.93,1.93,0,0,1,32.88,34.89Zm0-3.47A1.54,1.54,0,1,0,34.43,33,1.54,1.54,0,0,0,32.88,31.43Zm0,2.53a1,1,0,1,1,1-1A1,1,0,0,1,32.88,34Zm0-1.58a.6.6,0,1,0,.6.6A.6.6,0,0,0,32.88,32.37Z"/></svg>