<svg id="Capa_1" data-name="Capa 1" xmlns="http://www.w3.org/2000/svg" viewBox="0 0 64 64"><defs><style>.cls-1{fill:#e27926;}</style></defs><title>Sin título-4</title><path class="cls-1" d="M52,37c0-.39.21-.7.62-1.25a6.74,6.74,0,0,0,1.52-4.45,6.36,6.36,0,0,0-5-6.35V20.6H47.68V17.74H43.4v1.52A17.82,17.82,0,1,0,27.72,45.54a18.66,18.66,0,0,0,10-2.92v7.91a3.57,3.57,0,0,0,3.56,3.56h8.55a3.57,3.57,0,0,0,3.56-3.56V42a7.26,7.26,0,0,0-1-3.71A2.82,2.82,0,0,1,52,37ZM47.68,22v2.85H43.4V22Zm-2.85-2.85h1.43V20.6H44.83ZM43.4,20.54v.05h-.11ZM38.68,38.27a7.5,7.5,0,0,0-.89,2.57,17.21,17.21,0,0,1-10.06,3.28A16.39,16.39,0,1,1,42.48,20.6H42v4.34a5.24,5.24,0,0,0-1.63.57,12.83,12.83,0,1,0-12.63,15,13.08,13.08,0,0,0,10.62-5l.17.23c.41.56.62.86.62,1.25A2.82,2.82,0,0,1,38.68,38.27Zm-1.13-4.11a11.41,11.41,0,0,1-9.83,5A11.4,11.4,0,1,1,39,26.46,6.61,6.61,0,0,0,37,31.29,6.89,6.89,0,0,0,37.55,34.16ZM49.82,52.67H41.27a2.14,2.14,0,0,1-2.14-2.14V42a5.86,5.86,0,0,1,.81-3.05A4.06,4.06,0,0,0,40.55,37a3.48,3.48,0,0,0-.89-2.09,5.36,5.36,0,0,1-1.25-3.61,4.85,4.85,0,0,1,4.28-5h5.7a4.85,4.85,0,0,1,4.28,5,5.36,5.36,0,0,1-1.25,3.61A3.48,3.48,0,0,0,50.53,37a4.06,4.06,0,0,0,.61,1.94A5.85,5.85,0,0,1,52,42v8.55h0A2.14,2.14,0,0,1,49.82,52.67Z"/><rect class="cls-1" x="39.84" y="30.57" width="5.7" height="1.43"/><rect class="cls-1" x="40.55" y="49.11" width="9.98" height="1.43"/><rect class="cls-1" x="49.82" y="30.57" width="1.43" height="1.43"/><rect class="cls-1" x="46.97" y="30.57" width="1.43" height="1.43"/><path class="cls-1" d="M16.32,42.69H14.89a5,5,0,0,1-5,5v1.43a5,5,0,0,1,5,5h1.43a5,5,0,0,1,5-5V47.68A5,5,0,0,1,16.32,42.69Zm-.71,8.47a6.46,6.46,0,0,0-2.76-2.76,6.46,6.46,0,0,0,2.76-2.76,6.46,6.46,0,0,0,2.76,2.76A6.45,6.45,0,0,0,15.61,51.16Z"/><path class="cls-1" d="M24.16,24.87H22.73a3.57,3.57,0,0,1-3.56,3.56v1.43a3.57,3.57,0,0,1,3.56,3.56h1.43a3.57,3.57,0,0,1,3.56-3.56V28.44A3.57,3.57,0,0,1,24.16,24.87Zm-.71,6a5,5,0,0,0-1.71-1.71,5,5,0,0,0,1.71-1.71,5,5,0,0,0,1.71,1.71A5,5,0,0,0,23.45,30.86Z"/></svg>