<svg id="Capa_1" data-name="Capa 1" xmlns="http://www.w3.org/2000/svg" viewBox="0 0 64 64"><defs><style>.cls-1{fill:#e27926;}</style></defs><title>Sin título-4</title><path class="cls-1" d="M47.08,32H44.66L45.9,21a.78.78,0,0,0,0-.34l-2-5.68.82-4.37a.78.78,0,0,0-.62-.91h0L39.5,8.72a.78.78,0,0,0-.91.62h0l-.82,4.4-3.93,4.6a.78.78,0,0,0-.16.3L30.11,32H27.58l-1.06-5.17a.78.78,0,0,0-.15-.33l-3.11-4-.43-2.1,3.8-.78a2.33,2.33,0,0,0,.95-4.15,2.33,2.33,0,0,0-.62-3A2.33,2.33,0,0,0,24.47,9l-3.94.78a2.33,2.33,0,0,0-4.25,1.7L19.09,25.2a.78.78,0,0,0,.15.33l3.11,4L22.86,32H20.59a.78.78,0,0,0-.78.77.77.77,0,0,0,0,.09l2.33,21.74a.78.78,0,0,0,.78.69H44.66a.78.78,0,0,0,.78-.69l2.33-21.74A.78.78,0,0,0,47.08,32ZM40,10.41l3.05.57L42.48,14l-3.05-.57Zm-1.2,4.52,3.69.7,1.46,4.22L35.89,18.3ZM35,19.74l9.26,1.75L43.11,32H41.17c.14-3.66-.55-7.26-2.23-7.58-1.88-.35-4.08,3.49-5.26,7.58h-2ZM39.59,32H35.27c1.17-3.88,2.8-5.83,3.35-6C39,26.32,39.74,28.41,39.59,32ZM24.79,10.56a.79.79,0,0,1,.31,1.55l-1.55.31A.78.78,0,0,0,23.71,14h.16l1.55-.31a.79.79,0,0,1,.31,1.55l-1.55.31a.78.78,0,0,0,.16,1.55h.16L26,16.77a.79.79,0,0,1,.31,1.55l-3.8.78L21,11.49Zm-4.2,14.15L17.8,11.2a.79.79,0,0,1,1.55-.31l2.5,12.16a.78.78,0,0,0,.15.33l3.11,4L26,32H24.47l-.65-3a.78.78,0,0,0-.15-.33ZM44,53.74H23.62L21.79,36.66h24Zm2-18.63H21.63l-.16-1.55H46.13Z"/></svg>