<svg id="Capa_1" data-name="Capa 1" xmlns="http://www.w3.org/2000/svg" viewBox="0 0 64 64"><defs><style>.cls-1{fill:#fff;}</style></defs><title>Sin título-4</title><path class="cls-1" d="M53.93,47.78,43.28,37.13a20.5,20.5,0,0,1-6.15,6.15L47.78,53.93a4.35,4.35,0,0,0,6.15-6.15Z"/><path class="cls-1" d="M43.6,26.2A17.4,17.4,0,1,0,26.2,43.6,17.41,17.41,0,0,0,43.6,26.2ZM26.2,39.25A13.05,13.05,0,1,1,39.25,26.2,13.07,13.07,0,0,1,26.2,39.25Z"/><path class="cls-1" d="M16,26.2h2.9a7.26,7.26,0,0,1,7.25-7.25V16A10.17,10.17,0,0,0,16,26.2Z"/></svg>