<svg id="Capa_1" data-name="Capa 1" xmlns="http://www.w3.org/2000/svg" viewBox="0 0 64 64"><defs><style>.cls-1{fill:#fff;}</style></defs><title>Sin título-4</title><path class="cls-1" d="M46.12,42.71H17.85a10.55,10.55,0,0,1,0-21.09H46.13A10.54,10.54,0,0,1,56.67,32.16,10.56,10.56,0,0,1,46.12,42.71ZM17.84,22.92a9.23,9.23,0,0,0,0,18.46H46.12a9.23,9.23,0,0,0,6.53-15.76,9.15,9.15,0,0,0-6.52-2.7H17.84ZM46.12,39.69H31.33V24.62H46.12a7.54,7.54,0,0,1,0,15.07ZM32.64,38.38H46.12a6.22,6.22,0,0,0,0-12.44H32.64Z"/></svg>