<svg id="Capa_1" data-name="Capa 1" xmlns="http://www.w3.org/2000/svg" viewBox="0 0 64 64"><defs><style>.cls-1{fill:#fff;}</style></defs><title>Sin título-4</title><path class="cls-1" d="M32,36.19A4.19,4.19,0,1,1,36.18,32,4.19,4.19,0,0,1,32,36.19Zm0-6.86A2.67,2.67,0,1,0,34.67,32,2.68,2.68,0,0,0,32,29.33Z"/><path class="cls-1" d="M35.58,27.06l-.5-.3a6,6,0,0,0-1.55-.65L33,26V21l.88.15A11.06,11.06,0,0,1,38.39,23l.73.52Zm-1.11-2.24a7.82,7.82,0,0,1,.85.36l1.43-1.43a9.36,9.36,0,0,0-2.28-.95Z"/><path class="cls-1" d="M26,31H21l.15-.88A10.92,10.92,0,0,1,23,25.61l.52-.73,3.54,3.54-.3.5a6.12,6.12,0,0,0-.65,1.55ZM22.8,29.53h2a7.46,7.46,0,0,1,.36-.86l-1.43-1.43A9.33,9.33,0,0,0,22.8,29.53Z"/><path class="cls-1" d="M40.47,39.12l-3.54-3.54.3-.5a5.89,5.89,0,0,0,.65-1.55L38,33h5l-.15.88A10.92,10.92,0,0,1,41,38.39Zm-1.65-3.79,1.43,1.43a9.32,9.32,0,0,0,.95-2.29h-2A7.22,7.22,0,0,1,38.82,35.33Z"/><path class="cls-1" d="M23.53,39.12,23,38.39a10.93,10.93,0,0,1-1.89-4.55L21,33h5l.15.57a6,6,0,0,0,.64,1.55l.3.5Zm-.72-4.65a9.36,9.36,0,0,0,.95,2.29l1.43-1.43a7.58,7.58,0,0,1-.36-.86Z"/><path class="cls-1" d="M31,43l-.88-.15A10.93,10.93,0,0,1,25.61,41l-.73-.52,3.54-3.54.5.3a6.07,6.07,0,0,0,1.55.65L31,38Zm-3.8-2.78a9.36,9.36,0,0,0,2.29.95v-2a7.58,7.58,0,0,1-.86-.36Z"/><path class="cls-1" d="M32,53.33A21.33,21.33,0,1,1,53.33,32,21.36,21.36,0,0,1,32,53.33Zm0-41.15A19.82,19.82,0,1,0,51.82,32,19.84,19.84,0,0,0,32,12.18Zm0,34.3a14.37,14.37,0,0,1-10.13-4.15l-.19-.18a14.45,14.45,0,0,1,0-20.28l.18-.18a14.44,14.44,0,0,1,20.26,0l.16.15a14.45,14.45,0,0,1,0,20.31l-.19.19A14.38,14.38,0,0,1,32,46.47Zm-9.11-5.25a12.95,12.95,0,0,0,18.24,0l.07-.07a12.94,12.94,0,0,0,0-18.25l0,0a12.94,12.94,0,0,0-18.3,0l-.1.09a12.95,12.95,0,0,0,0,18.23Z"/><path class="cls-1" d="M43,31H38l-.15-.57a6.16,6.16,0,0,0-.65-1.55l-.3-.5,3.53-3.53.52.73a11,11,0,0,1,1.88,4.55Zm-3.85-1.51h2a9.34,9.34,0,0,0-.95-2.29l-1.43,1.43A7.62,7.62,0,0,1,39.17,29.53Z"/><path class="cls-1" d="M28.42,27.06l-3.53-3.54.73-.52a11.06,11.06,0,0,1,4.55-1.89L31,21v5l-.57.15a6.1,6.1,0,0,0-1.55.65Zm-1.17-3.31,1.43,1.43a7.54,7.54,0,0,1,.85-.36v-2A9.35,9.35,0,0,0,27.24,23.75Z"/><path class="cls-1" d="M33,43V38l.56-.15a6.16,6.16,0,0,0,1.56-.65l.5-.3,3.53,3.53-.73.52a11.06,11.06,0,0,1-4.55,1.89Zm1.51-3.85v2a9.38,9.38,0,0,0,2.28-.95l-1.43-1.43A7.85,7.85,0,0,1,34.47,39.18Z"/></svg>