<svg id="Capa_1" data-name="Capa 1" xmlns="http://www.w3.org/2000/svg" viewBox="0 0 64 64"><defs><style>.cls-1{fill:#e27926;}</style></defs><title>Sin título-4</title><path class="cls-1" d="M36.61,32A4.61,4.61,0,1,0,32,36.61,4.61,4.61,0,0,0,36.61,32Z"/><path class="cls-1" d="M40,20.75a13.74,13.74,0,0,0-5.69-2.36v4.73a9.09,9.09,0,0,1,2.35,1Z"/><path class="cls-1" d="M24.09,27.35,20.75,24a13.74,13.74,0,0,0-2.36,5.69h4.73A9,9,0,0,1,24.09,27.35Z"/><path class="cls-1" d="M39.91,36.65,43.25,40a13.74,13.74,0,0,0,2.36-5.69H40.89A9,9,0,0,1,39.91,36.65Z"/><path class="cls-1" d="M23.11,34.3H18.38A13.74,13.74,0,0,0,20.75,40l3.35-3.35A9,9,0,0,1,23.11,34.3Z"/><path class="cls-1" d="M24,43.25a13.74,13.74,0,0,0,5.69,2.36V40.89a9,9,0,0,1-2.35-1Z"/><path class="cls-1" d="M32,4.35A27.65,27.65,0,1,0,59.65,32,27.68,27.68,0,0,0,32,4.35ZM45.07,45,45,45l-.05,0a18.39,18.39,0,0,1-26,0l0,0,0-.05a18.39,18.39,0,0,1,0-26l0,0,0,0a18.39,18.39,0,0,1,26,0L45,19l0,0a18.39,18.39,0,0,1,0,26Z"/><path class="cls-1" d="M39.91,27.35a9.22,9.22,0,0,1,1,2.35h4.73A13.71,13.71,0,0,0,43.25,24Z"/><path class="cls-1" d="M29.7,23.11V18.39A13.74,13.74,0,0,0,24,20.75l3.35,3.35A9.22,9.22,0,0,1,29.7,23.11Z"/><path class="cls-1" d="M34.3,40.89v4.73A13.74,13.74,0,0,0,40,43.26l-3.35-3.35A9.22,9.22,0,0,1,34.3,40.89Z"/></svg>