<svg id="Capa_1" data-name="Capa 1" xmlns="http://www.w3.org/2000/svg" viewBox="0 0 64 64"><defs><style>.cls-1{fill:#fff;}</style></defs><title>Sin título-4</title><path class="cls-1" d="M40.32,53.55a14.66,14.66,0,0,1-7.32-2c-.34-.19-.67-.4-1-.63-.32.22-.66.43-1,.63A14.68,14.68,0,0,1,14.23,50.1,1.51,1.51,0,0,1,16,47.67a8.46,8.46,0,0,0,8.69.23,8.23,8.23,0,0,0,1.72-1.33A13.81,13.81,0,0,1,18.21,34q0-.66.06-1.3a8.14,8.14,0,0,0-1.88.79A8.32,8.32,0,0,0,12.23,41v.16a1.52,1.52,0,0,1-3,.26,14.69,14.69,0,0,1,7.08-15.27q.52-.3,1.06-.56c0-.43-.06-.86-.06-1.29A14.71,14.71,0,0,1,27,10.55a1.53,1.53,0,0,1,1.91.82,1.51,1.51,0,0,1-.7,2,8.29,8.29,0,0,0-4.54,7.41,8.19,8.19,0,0,0,.27,2.08,13.72,13.72,0,0,1,16.1.06,8.31,8.31,0,0,0-4.25-9.56A1.51,1.51,0,0,1,37,10.54a14.71,14.71,0,0,1,9.69,13.8c0,.41,0,.84-.06,1.3.36.17.71.35,1,.55a14.76,14.76,0,0,1,7.13,15.29,1.51,1.51,0,0,1-3-.34,8.3,8.3,0,0,0-4.15-7.64,8.48,8.48,0,0,0-2-.82c0,.46.07.89.07,1.32a13.81,13.81,0,0,1-8.16,12.56A8.22,8.22,0,0,0,39.3,47.9,8.47,8.47,0,0,0,48,47.67a1.51,1.51,0,0,1,1.8,2.42A14.72,14.72,0,0,1,40.32,53.55ZM32,49.41l.37.27a12.58,12.58,0,0,0,1.25.81A13.41,13.41,0,0,0,49,49.14a.26.26,0,0,0,0-.35.24.24,0,0,0-.33-.06,9.73,9.73,0,0,1-10,.27A9.54,9.54,0,0,1,36,46.69L35.45,46l.82-.3A12.54,12.54,0,0,0,44.45,34a13.33,13.33,0,0,0-.17-2l-.13-.85.85.14a9.55,9.55,0,0,1,8,9.94.26.26,0,0,0,.23.27.25.25,0,0,0,.27-.21,13.5,13.5,0,0,0-6.52-14h0a12.56,12.56,0,0,0-1.34-.67l-.43-.19.06-.47a13.81,13.81,0,0,0,.1-1.61,13.44,13.44,0,0,0-8.85-12.61.26.26,0,0,0-.32.14.25.25,0,0,0,.12.33,9.57,9.57,0,0,1,4.59,12l-.32.82-.68-.57A12.46,12.46,0,0,0,24,24.34l-.68.56L23,24.07A9.56,9.56,0,0,1,27.63,12.2a.25.25,0,0,0,.12-.33.26.26,0,0,0-.33-.14,13.44,13.44,0,0,0-8.85,12.61,13.79,13.79,0,0,0,.09,1.6l.05.46-.43.19a12.3,12.3,0,0,0-1.35.68,13.43,13.43,0,0,0-6.48,14,.26.26,0,0,0,.52,0,9.6,9.6,0,0,1,4.77-8.81,9.44,9.44,0,0,1,3.15-1.13l.87-.15-.15.87a12.19,12.19,0,0,0-.16,2,12.54,12.54,0,0,0,8.25,11.75l.83.3-.55.69A9.56,9.56,0,0,1,25.35,49a9.75,9.75,0,0,1-10-.26.25.25,0,0,0-.34.06.26.26,0,0,0,0,.35A13.41,13.41,0,0,0,30.39,50.5a14.1,14.1,0,0,0,1.25-.82Zm-2.17-6.31-.68-.21A9.29,9.29,0,0,1,22.62,34a9.58,9.58,0,0,1,.19-1.89l.14-.7.68.23a9.53,9.53,0,0,1,5.21,4.28,9.8,9.8,0,0,1,.7,1.49,9.62,9.62,0,0,1,.44,5Zm-5.92-10a7.84,7.84,0,0,0-.05.89,8,8,0,0,0,5,7.44,8.32,8.32,0,0,0-.48-3.6,8.49,8.49,0,0,0-.61-1.3,8.24,8.24,0,0,0-3.82-3.44Zm10.22,10L34,42.36a9.55,9.55,0,0,1,.44-5,9.39,9.39,0,0,1,.7-1.49,10.17,10.17,0,0,1,1-1.45,9.56,9.56,0,0,1,4.09-2.79l.68-.24.14.71a9.35,9.35,0,0,1-6.25,10.72ZM40,33.13a8.29,8.29,0,0,0-2.84,2.13,8.83,8.83,0,0,0-.89,1.27,7.83,7.83,0,0,0-.6,1.29,8.26,8.26,0,0,0-.48,3.56A8,8,0,0,0,40,34,8.46,8.46,0,0,0,40,33.13Zm-8-2.82a9.66,9.66,0,0,1-1.69-.15A9.54,9.54,0,0,1,25.73,28l-.54-.47.53-.48a9.29,9.29,0,0,1,6.22-2.38h0a9.22,9.22,0,0,1,6.24,2.43l.53.48L38.2,28A9.61,9.61,0,0,1,32,30.31ZM27.15,27.5a8.34,8.34,0,0,0,9.64,0,7.68,7.68,0,0,0-4.84-1.61A8,8,0,0,0,27.15,27.5Z"/></svg>