<svg id="Capa_1" data-name="Capa 1" xmlns="http://www.w3.org/2000/svg" viewBox="0 0 355 64"><defs><style>.cls-1{fill:#ebebeb;}</style></defs><title>Sin título-4-43</title><path class="cls-1" d="M26.86,36.53a21.52,21.52,0,0,0,13.6-4.77,21.79,21.79,0,0,0,27.21,0,21.79,21.79,0,0,0,27.21,0,21.78,21.78,0,0,0,28.6-1.22,1.73,1.73,0,0,0,0-2.56,2,2,0,0,0-2.75,0,17.69,17.69,0,0,1-24.41,0l0,0,0,0a1.93,1.93,0,0,0-.36-.21,2,2,0,0,0-.27-.16,2.07,2.07,0,0,0-.45-.08,1.8,1.8,0,0,0-.28-.05h0a2.1,2.1,0,0,0-.28,0,1.93,1.93,0,0,0-.45.09,2.06,2.06,0,0,0-.26.16,1.76,1.76,0,0,0-.35.21l0,0,0,0a17.7,17.7,0,0,1-24.41,0l0,0,0,0a1.93,1.93,0,0,0-.36-.21,2,2,0,0,0-.27-.16,2.07,2.07,0,0,0-.45-.08,1.8,1.8,0,0,0-.28-.05h0a2.1,2.1,0,0,0-.28,0,1.93,1.93,0,0,0-.45.09,2.06,2.06,0,0,0-.26.16,1.76,1.76,0,0,0-.35.21l0,0,0,0a17.7,17.7,0,0,1-24.41,0l0,0,0,0a1.93,1.93,0,0,0-.36-.21,2,2,0,0,0-.27-.16,2.07,2.07,0,0,0-.45-.08,1.8,1.8,0,0,0-.28-.05h0a2.1,2.1,0,0,0-.28,0,1.93,1.93,0,0,0-.45.09,2.06,2.06,0,0,0-.26.16,1.76,1.76,0,0,0-.35.21l0,0,0,0a17.7,17.7,0,0,1-24.41,0,2,2,0,0,0-2.75,0,1.73,1.73,0,0,0,0,2.56A21.47,21.47,0,0,0,26.86,36.53Z"/><path class="cls-1" d="M136.61,36.53a21.52,21.52,0,0,0,13.6-4.77,21.79,21.79,0,0,0,27.21,0,21.79,21.79,0,0,0,27.21,0,21.78,21.78,0,0,0,28.6-1.22,1.73,1.73,0,0,0,0-2.56,2,2,0,0,0-2.75,0A17.69,17.69,0,0,1,206,28l0,0,0,0a1.93,1.93,0,0,0-.36-.21,2,2,0,0,0-.27-.16,2.07,2.07,0,0,0-.45-.08,1.8,1.8,0,0,0-.28-.05h0a2.1,2.1,0,0,0-.28,0,1.93,1.93,0,0,0-.45.09,2.06,2.06,0,0,0-.26.16,1.76,1.76,0,0,0-.35.21l0,0,0,0a17.7,17.7,0,0,1-24.41,0l0,0,0,0a1.93,1.93,0,0,0-.36-.21,2,2,0,0,0-.27-.16,2.07,2.07,0,0,0-.45-.08,1.8,1.8,0,0,0-.28-.05h0a2.1,2.1,0,0,0-.28,0,1.93,1.93,0,0,0-.45.09,2.06,2.06,0,0,0-.26.16,1.76,1.76,0,0,0-.35.21l0,0,0,0a17.7,17.7,0,0,1-24.41,0l0,0,0,0a1.93,1.93,0,0,0-.36-.21,2,2,0,0,0-.27-.16,2.07,2.07,0,0,0-.45-.08,1.8,1.8,0,0,0-.28-.05h0a2.1,2.1,0,0,0-.28,0,1.93,1.93,0,0,0-.45.09,2.06,2.06,0,0,0-.26.16,1.76,1.76,0,0,0-.35.21l0,0,0,0a17.7,17.7,0,0,1-24.41,0,2,2,0,0,0-2.75,0,1.73,1.73,0,0,0,0,2.56A21.47,21.47,0,0,0,136.61,36.53Z"/><path class="cls-1" d="M246.52,36.53a21.52,21.52,0,0,0,13.6-4.77,21.79,21.79,0,0,0,27.21,0,21.79,21.79,0,0,0,27.21,0,21.78,21.78,0,0,0,28.6-1.22,1.73,1.73,0,0,0,0-2.56,2,2,0,0,0-2.75,0,17.69,17.69,0,0,1-24.41,0l0,0,0,0a1.93,1.93,0,0,0-.36-.21,2,2,0,0,0-.27-.16,2.07,2.07,0,0,0-.45-.08,1.8,1.8,0,0,0-.28-.05h0a2.1,2.1,0,0,0-.28,0,1.93,1.93,0,0,0-.45.09,2.06,2.06,0,0,0-.26.16,1.76,1.76,0,0,0-.35.21l0,0,0,0a17.7,17.7,0,0,1-24.41,0l0,0,0,0a1.93,1.93,0,0,0-.36-.21,2,2,0,0,0-.27-.16,2.07,2.07,0,0,0-.45-.08,1.8,1.8,0,0,0-.28-.05h0a2.1,2.1,0,0,0-.28,0,1.93,1.93,0,0,0-.45.09,2.06,2.06,0,0,0-.26.16A1.76,1.76,0,0,0,286,28l0,0,0,0a17.7,17.7,0,0,1-24.41,0l0,0,0,0a1.93,1.93,0,0,0-.36-.21,2,2,0,0,0-.27-.16,2.07,2.07,0,0,0-.45-.08,1.8,1.8,0,0,0-.28-.05h0a2.1,2.1,0,0,0-.28,0,1.93,1.93,0,0,0-.45.09,2.06,2.06,0,0,0-.26.16,1.76,1.76,0,0,0-.35.21l0,0,0,0a17.7,17.7,0,0,1-24.41,0,2,2,0,0,0-2.75,0,1.73,1.73,0,0,0,0,2.56A21.47,21.47,0,0,0,246.52,36.53Z"/></svg>