<svg id="Capa_1" data-name="Capa 1" xmlns="http://www.w3.org/2000/svg" viewBox="0 0 64 64"><defs><style>.cls-1{fill:#fff;}</style></defs><title>Sin título-4</title><path class="cls-1" d="M27.42,26a2.77,2.77,0,0,1-2-1,6,6,0,0,1-1.05-5.92,2.62,2.62,0,0,1,1.9-1.71c1.65-.3,3.28,1.36,3.7,3.77h0a5.58,5.58,0,0,1-.28,3.1A2.63,2.63,0,0,1,27.8,26,2.16,2.16,0,0,1,27.42,26Zm-.77-7.75-.21,0a1.77,1.77,0,0,0-1.23,1.17,5.07,5.07,0,0,0,.88,5,1.77,1.77,0,0,0,1.56.68A1.77,1.77,0,0,0,28.88,24a4.68,4.68,0,0,0,.22-2.6h0C28.79,19.63,27.7,18.29,26.65,18.29Z"/><path class="cls-1" d="M22.53,24.7a2.17,2.17,0,0,1-1.93-2A2.11,2.11,0,0,1,22,20.13a2.11,2.11,0,0,1,2.19,2h0a2.08,2.08,0,0,1-1.38,2.59ZM22.24,21h-.1c-.49.09-.79.8-.66,1.55s.66,1.32,1.15,1.23.79-.8.66-1.55h0C23.17,21.54,22.7,21,22.24,21Z"/><path class="cls-1" d="M19.4,26.84a2.17,2.17,0,0,1-1.93-2,2.08,2.08,0,0,1,1.39-2.59,2.1,2.1,0,0,1,2.19,2h0a2.56,2.56,0,0,1-.36,1.9,1.6,1.6,0,0,1-1,.68Zm-.28-3.69H19c-.49.09-.79.8-.66,1.55S19,26,19.51,25.94a.71.71,0,0,0,.45-.31,1.68,1.68,0,0,0,.21-1.23h0C20,23.69,19.58,23.16,19.12,23.16Z"/><path class="cls-1" d="M17,29a1.41,1.41,0,0,1-.8-.26,2.13,2.13,0,0,1-.83-1.39,1.76,1.76,0,0,1,1.18-2.17,1.42,1.42,0,0,1,1.23.41,2.22,2.22,0,0,1,.63,1.23h0A1.75,1.75,0,0,1,17.26,29Zm-.23-2.95h-.06c-.3.05-.56.53-.45,1.13a1.26,1.26,0,0,0,.46.81.48.48,0,0,0,.35.1c.3-.05.56-.53.46-1.13h0a1.34,1.34,0,0,0-.37-.73A.6.6,0,0,0,16.8,26.07Z"/><path class="cls-1" d="M15.45,31.57A1.66,1.66,0,0,1,14,30.07a1.59,1.59,0,0,1,1.08-2,1.26,1.26,0,0,1,.94.22,1.93,1.93,0,0,1,.75,1.26,1.59,1.59,0,0,1-1.08,2ZM15.25,29h0c-.24,0-.44.44-.36.93s.42.8.66.75.44-.44.35-.93h0a1,1,0,0,0-.38-.68A.4.4,0,0,0,15.25,29Z"/><path class="cls-1" d="M27.28,58.06a5,5,0,0,1-4.15-1.85,18,18,0,0,1-3-7c-.12-.54-.24-1.1-.34-1.67s-.2-1.35-.28-2a13.8,13.8,0,0,0-1.35-5.21l-.52-.9c-1.16-2-2.48-4.26-1.48-6.58a4.86,4.86,0,0,1,.49-.86,15,15,0,0,1,4.82-4.58c2.1-1.17,5.25-1.87,7.21,0a8.91,8.91,0,0,1,2.25,6,14.26,14.26,0,0,1-.22,3.28,11.31,11.31,0,0,1-.85,2.48c-.11.25-.22.5-.32.76a8.56,8.56,0,0,0,.67,7.39A11.83,11.83,0,0,0,31.45,49a8.23,8.23,0,0,1,1.85,2.9c.79,2.63-1.73,5.17-3.89,5.84A7.28,7.28,0,0,1,27.28,58.06ZM25.52,27.2a7.76,7.76,0,0,0-3.61,1,14.06,14.06,0,0,0-4.52,4.31,4,4,0,0,0-.4.7h0c-.82,1.91.32,3.87,1.43,5.77l.53.92a14.68,14.68,0,0,1,1.46,5.53c.08.64.16,1.3.28,2s.21,1.1.33,1.62a17.18,17.18,0,0,0,2.84,6.61c1.2,1.6,3.53,1.76,5.29,1.21s3.92-2.69,3.3-4.73a7.46,7.46,0,0,0-1.67-2.57,12.7,12.7,0,0,1-1.33-1.75,9.47,9.47,0,0,1-.73-8.18c.11-.26.22-.52.33-.78a10.47,10.47,0,0,0,.79-2.29,13.36,13.36,0,0,0,.2-3.08,8.05,8.05,0,0,0-2-5.37A3.51,3.51,0,0,0,25.52,27.2Z"/><path class="cls-1" d="M34.32,14.66h-.07c-1.67-.06-2.92-2-2.84-4.46a5.15,5.15,0,0,1,1.41-3.55,2.42,2.42,0,0,1,1.73-.7c1.67.06,2.92,2,2.84,4.46S36,14.66,34.32,14.66Zm.15-7.82a1.56,1.56,0,0,0-1,.46,4.25,4.25,0,0,0-1.13,2.93h0c-.06,1.88.84,3.49,2,3.53s2.14-1.51,2.21-3.39-.84-3.49-2-3.53Z"/><path class="cls-1" d="M43,14.31H43a2.08,2.08,0,0,1-1.74-2.36h0A2.56,2.56,0,0,1,42,10.15a1.56,1.56,0,0,1,1.14-.45,1.66,1.66,0,0,1,1.3.77,2.67,2.67,0,0,1,.44,1.59,2.56,2.56,0,0,1-.75,1.79A1.61,1.61,0,0,1,43,14.31ZM42.16,12c0,.76.37,1.42.87,1.44a.75.75,0,0,0,.5-.21A1.69,1.69,0,0,0,44,12,1.8,1.8,0,0,0,43.72,11a.8.8,0,0,0-.59-.38.74.74,0,0,0-.5.21A1.68,1.68,0,0,0,42.16,12Z"/><path class="cls-1" d="M45.94,16.58h0a1.75,1.75,0,0,1-1.34-2.08h0c.11-1.08.87-1.87,1.73-1.77a1.36,1.36,0,0,1,.92.51,2.28,2.28,0,0,1-.3,3A1.37,1.37,0,0,1,45.94,16.58Zm-.49-2c-.06.61.24,1.06.54,1.1a.47.47,0,0,0,.34-.12,1.39,1.39,0,0,0,.17-1.75.48.48,0,0,0-.31-.19c-.36,0-.69.42-.75,1Z"/><path class="cls-1" d="M48.27,18.85h0a1.59,1.59,0,0,1-1-2,1.44,1.44,0,1,1,2.74.66A1.61,1.61,0,0,1,48.27,18.85Zm.56-2.55c-.24,0-.57.23-.69.72h0c-.12.49.06.9.3,1s.58-.22.7-.72-.06-.9-.3-1Z"/><path class="cls-1" d="M39,45a7.16,7.16,0,0,1-1.13-.09c-2.23-.36-5.1-2.52-4.68-5.23a8.19,8.19,0,0,1,1.42-3.13,11.75,11.75,0,0,0,1-1.78,8.55,8.55,0,0,0-.38-7.41l-.43-.72a11.27,11.27,0,0,1-1.18-2.32,14.34,14.34,0,0,1-.68-3.22,8.92,8.92,0,0,1,1.39-6.23C36,12.74,39.17,13,41.42,13.84a15,15,0,0,1,5.42,3.85,4.92,4.92,0,0,1,.6.79c1.32,2.16.34,4.58-.53,6.72-.13.33-.26.65-.38,1a13.81,13.81,0,0,0-.6,5.36c0,.65,0,1.33,0,2s-.05,1.13-.1,1.7a18.09,18.09,0,0,1-2,7.31A5.39,5.39,0,0,1,39,45Zm-.79-30.92A3.84,3.84,0,0,0,35,15.45,8.06,8.06,0,0,0,33.8,21a13.45,13.45,0,0,0,.64,3,10.42,10.42,0,0,0,1.09,2.14c.15.24.3.49.44.74a9.47,9.47,0,0,1,.43,8.2,12.63,12.63,0,0,1-1.07,1.92A7.42,7.42,0,0,0,34,39.84c-.32,2.11,2.15,3.93,3.93,4.21s4.1-.2,5.07-1.95a17.22,17.22,0,0,0,1.88-6.95c0-.55.08-1.11.1-1.65s0-1.32,0-2a14.71,14.71,0,0,1,.66-5.7c.12-.32.26-.65.39-1,.83-2,1.68-4.15.6-5.92h0a4,4,0,0,0-.49-.64,14.05,14.05,0,0,0-5.08-3.63A8.35,8.35,0,0,0,38.18,14.11Z"/><path class="cls-1" d="M39.53,11.86h0a2,2,0,0,1-1.62-2.21h0c0-1.21.82-2.15,1.77-2.1a2,2,0,0,1,1.63,2.21A2,2,0,0,1,39.53,11.86ZM38.7,9.67c0,.71.35,1.33.82,1.34h0c.46,0,.86-.58.89-1.29s-.35-1.33-.82-1.34-.88.57-.9,1.29Z"/></svg>