<svg id="Capa_1" data-name="Capa 1" xmlns="http://www.w3.org/2000/svg" viewBox="0 0 64 64"><defs><style>.cls-1{fill:#e27926;}</style></defs><title>Sin título-4</title><path class="cls-1" d="M32.36,37.45a1.16,1.16,0,0,0,.87.86,1.52,1.52,0,0,0,.71,0,1.49,1.49,0,0,0,.75-.4,1.13,1.13,0,0,0,.35-1A1.28,1.28,0,0,0,33.47,36a1.55,1.55,0,0,0-.5.19,1.2,1.2,0,0,0-.61,1.23Z"/><path class="cls-1" d="M43.6,24.07c-.25-3.46-2.36-5.7-4.24-7.68a13.08,13.08,0,0,1-3.24-4.53,1.59,1.59,0,0,0,.28-.91V7.75a1.49,1.49,0,0,0,0-.25,1,1,0,0,0-.26-2H27.8a1,1,0,0,0-.26,2,1.59,1.59,0,0,0,0,.25V11a1.58,1.58,0,0,0,.34,1,13.27,13.27,0,0,1-3.21,4.46c-1.88,2-4,4.23-4.24,7.68h0V55.8A2.67,2.67,0,0,0,23,58.47H41a2.67,2.67,0,0,0,2.66-2.66V24.07ZM41.49,55.8a.53.53,0,0,1-.53.53H23a.53.53,0,0,1-.53-.53V48.22h19V55.8ZM28.61,31.86a4.18,4.18,0,0,1,3.17-1.17,4.46,4.46,0,0,1,2.64.71,3.34,3.34,0,0,1,.76.67L36.29,31a2.52,2.52,0,0,1,.14-1.41.87.87,0,0,1,.17-.23.9.9,0,0,1,1.53.72.9.9,0,0,1,.72.26.91.91,0,0,1,.23.39.9.9,0,0,1-.23.89.92.92,0,0,1-.23.17,2.52,2.52,0,0,1-1.41.14l-1.38,1.38a5,5,0,0,1,.1,2.75,3.43,3.43,0,0,0,0,1.5,1.34,1.34,0,0,1,.38,1.34.73.73,0,0,1-.26.42l1.19,1.19a2.52,2.52,0,0,1,1.41.14.89.89,0,0,1,.23.17.9.9,0,0,1-.72,1.53A.9.9,0,0,1,36.6,43a.84.84,0,0,1-.17-.23,2.51,2.51,0,0,1-.14-1.41l-1.83-1.83c-.52.17-.45,1.21-.45,1.21-.11.92-.51.92-.51.92-.39,0-.37-.57-.37-.57,0-.57-.11-.63-.11-.63-.25-.17-.25.77-.25.77-.08.59-.52.45-.52.45-.31-.11-.39-1.19-.39-1.19-.26-.28-.26.46-.26.46-.11.85-.39.68-.39.68-.49,0-.42-.72-.42-.72,0-.66-.28-.39-.28-.39,0,1.11-.31,1.13-.31,1.13-.51.09-.55-.49-.55-.49a3.78,3.78,0,0,0-.31-1.43l-1.64,1.64a2.51,2.51,0,0,1-.14,1.41.9.9,0,0,1-1.7-.49.9.9,0,0,1-.72-.26.92.92,0,0,1-.23-.39.9.9,0,0,1,.23-.89.92.92,0,0,1,.23-.16,2.51,2.51,0,0,1,1.41-.14l1.06-1.06a1,1,0,0,1-.33-1.67,1.27,1.27,0,0,0,.31-.92,5.82,5.82,0,0,1-.21-3.18,4.92,4.92,0,0,1,.26-.66l-1.09-1.09a2.5,2.5,0,0,1-1.41-.14.88.88,0,0,1-.23-.16.9.9,0,0,1-.23-.89.89.89,0,0,1,.23-.39.9.9,0,0,1,.72-.26.9.9,0,0,1,1.53-.72.85.85,0,0,1,.17.23A2.52,2.52,0,0,1,27.71,31ZM41.49,25h-19v-.24c0-3,1.79-4.9,3.68-6.9a15.12,15.12,0,0,0,3.69-5.3h4.24a15.1,15.1,0,0,0,3.69,5.3c1.89,2,3.68,3.9,3.68,6.9V25Z"/><path class="cls-1" d="M29.1,38.15a1.54,1.54,0,0,0,.48.18,1.28,1.28,0,0,0,1.58-.88,1.13,1.13,0,0,0-.34-1A1.51,1.51,0,0,0,30,36a1.28,1.28,0,0,0-1.58.88A1.2,1.2,0,0,0,29.1,38.15Z"/><path class="cls-1" d="M31.12,38.75a.54.54,0,0,0,.19.43.3.3,0,0,0,.18.06.34.34,0,0,0,.28-.18.34.34,0,0,0,.28.18.31.31,0,0,0,.18-.06.54.54,0,0,0,.19-.43.68.68,0,0,0,0-.15c-.06-.38-.63-.86-.63-.86s-.57.48-.63.86A.71.71,0,0,0,31.12,38.75Z"/></svg>