<svg id="Capa_1" data-name="Capa 1" xmlns="http://www.w3.org/2000/svg" viewBox="0 0 64 64"><defs><style>.cls-1{fill:#e27926;}</style></defs><title>Sin título-4</title><path class="cls-1" d="M6.84,23.33,10,25.82,7,31.56c-1.5,2.65,1.08,5.23,2.72,6.12s4.12,1,6.46,1l4.21-6.89,3.18,1.72L18.07,23.24ZM7.3,37.38,14.14,50c1.37,1.75,4,2.17,6.65,2.1H28v-12l-13.67-.1A8.48,8.48,0,0,1,7.3,37.38Zm43-23.27-3.72,1.58L43,10.29c-1.59-2.59-5.09-1.59-6.67-.59s-2.86,3.12-4,5.19l4,7-3,1.95L44.94,24ZM37.79,7.71,23.43,7.57c-2.2.35-3.82,2.42-5.06,4.79l-3.5,6.31,10.46,5.8L32,12.55A8.48,8.48,0,0,1,37.79,7.71Zm.62,48.73.42-4,6.46-.5c3-.13,3.86-3.68,3.75-5.55s-1.34-4-2.61-6l-8.07.08-.23-3.61L32.38,47Zm11.67-7.84L57.17,36.1c.76-2.09-.26-4.51-1.74-6.75l-3.82-6.11L41.47,29.57l7.16,11.64A8.48,8.48,0,0,1,50.08,48.59Z"/></svg>