<svg id="Capa_1" data-name="Capa 1" xmlns="http://www.w3.org/2000/svg" viewBox="0 0 64 64"><defs><style>.cls-1{fill:#e27926;}</style></defs><title>Sin título-4</title><path class="cls-1" d="M32,7.3A24.7,24.7,0,1,0,56.7,32,24.73,24.73,0,0,0,32,7.3Zm0,47.76A23.06,23.06,0,1,1,55.05,32,23.08,23.08,0,0,1,32,55.06Z"/><path class="cls-1" d="M32,57.22A25.22,25.22,0,1,1,57.22,32,25.24,25.24,0,0,1,32,57.22Zm0-49.4A24.19,24.19,0,1,0,56.19,32,24.21,24.21,0,0,0,32,7.81Zm0,47.76A23.57,23.57,0,1,1,55.57,32,23.59,23.59,0,0,1,32,55.57ZM32,9.46A22.54,22.54,0,1,0,54.54,32,22.57,22.57,0,0,0,32,9.46Z"/><path class="cls-1" d="M32.82,28.72V20.37a.82.82,0,0,0-1.65,0v8.35a3.29,3.29,0,0,0-2.35,2.35H22.94a.82.82,0,1,0,0,1.65h5.88a3.29,3.29,0,1,0,4-4ZM32,33.55a1.65,1.65,0,1,1,1.65-1.65A1.65,1.65,0,0,1,32,33.55Z"/><path class="cls-1" d="M32,35.71a3.81,3.81,0,0,1-3.55-2.47h-5.5a1.34,1.34,0,0,1,0-2.67h5.51a3.81,3.81,0,0,1,2.21-2.22v-8a1.34,1.34,0,0,1,2.67,0v8A3.8,3.8,0,0,1,32,35.71Zm-9.06-4.12a.31.31,0,0,0,0,.62h6.28l.1.38a2.77,2.77,0,1,0,3.38-3.37l-.38-.1V20.37c0-.33-.62-.34-.62,0v8.75l-.38.1a2.78,2.78,0,0,0-2,2l-.1.38ZM32,34.06a2.16,2.16,0,1,1,2.16-2.16A2.16,2.16,0,0,1,32,34.06Zm0-3.29a1.13,1.13,0,1,0,1.13,1.13A1.13,1.13,0,0,0,32,30.77Z"/><path class="cls-1" d="M32,15.43a.82.82,0,0,0,.82-.82v-.82a.82.82,0,0,0-1.65,0v.82A.82.82,0,0,0,32,15.43Z"/><path class="cls-1" d="M32,15.95a1.34,1.34,0,0,1-1.34-1.34v-.82a1.34,1.34,0,0,1,2.67,0v.82A1.34,1.34,0,0,1,32,15.95Zm0-2.47a.31.31,0,0,0-.31.31v.82c0,.34.62.34.62,0v-.82A.31.31,0,0,0,32,13.48Z"/><path class="cls-1" d="M32,48.37a.82.82,0,0,0-.82.82V50a.82.82,0,0,0,1.65,0v-.82A.82.82,0,0,0,32,48.37Z"/><path class="cls-1" d="M32,51.35A1.34,1.34,0,0,1,30.66,50v-.82a1.34,1.34,0,1,1,2.67,0V50A1.34,1.34,0,0,1,32,51.35Zm0-2.47a.31.31,0,0,0-.31.31V50c0,.34.62.33.62,0v-.82A.31.31,0,0,0,32,48.88Z"/><path class="cls-1" d="M50.11,31.08h-.82a.82.82,0,0,0,0,1.65h.82a.82.82,0,0,0,0-1.65Z"/><path class="cls-1" d="M50.12,33.24h-.83a1.34,1.34,0,0,1,0-2.67h.83a1.34,1.34,0,0,1,0,2.67Zm-.83-1.65a.31.31,0,0,0,0,.62h.83a.31.31,0,0,0,0-.62Z"/><path class="cls-1" d="M14.71,31.08h-.82a.82.82,0,1,0,0,1.65h.82a.82.82,0,0,0,0-1.65Z"/><path class="cls-1" d="M14.71,33.24h-.82a1.34,1.34,0,1,1,0-2.67h.82a1.34,1.34,0,1,1,0,2.67Zm-.82-1.65a.31.31,0,1,0,0,.62h.82a.31.31,0,1,0,0-.62Z"/><path class="cls-1" d="M44.23,18.51l-.58.58a.82.82,0,1,0,1.16,1.16l.58-.58a.82.82,0,1,0-1.16-1.16Z"/><path class="cls-1" d="M44.23,21a1.34,1.34,0,0,1-1.34-1.34,1.31,1.31,0,0,1,.4-.94l.58-.58a1.34,1.34,0,0,1,2.29.95,1.31,1.31,0,0,1-.4.94l-.58.58A1.35,1.35,0,0,1,44.23,21Zm.36-2.14-.58.58a.29.29,0,0,0-.1.22.3.3,0,0,0,.09.22.28.28,0,0,0,.44,0l.58-.58a.29.29,0,0,0,.1-.22.3.3,0,0,0-.09-.22A.31.31,0,0,0,44.59,18.87Z"/><path class="cls-1" d="M19.19,43.54l-.58.58a.82.82,0,1,0,1.16,1.16l.58-.58a.82.82,0,0,0-1.16-1.16Z"/><path class="cls-1" d="M19.19,46a1.34,1.34,0,0,1-.95-2.28l.58-.58a1.34,1.34,0,0,1,1.9,1.89l-.59.59A1.32,1.32,0,0,1,19.19,46Zm.36-2.14-.58.58a.3.3,0,0,0,0,.44.26.26,0,0,0,.43,0l.59-.59a.31.31,0,0,0-.44-.44Z"/><path class="cls-1" d="M44.81,43.54a.82.82,0,1,0-1.16,1.16l.58.58a.82.82,0,0,0,1.16-1.16Z"/><path class="cls-1" d="M44.81,46a1.34,1.34,0,0,1-.95-.39l-.58-.58a1.33,1.33,0,0,1,0-1.89,1.37,1.37,0,0,1,1.89,0l.58.58A1.34,1.34,0,0,1,44.81,46Zm-.58-2.23a.3.3,0,0,0-.22.09.3.3,0,0,0-.1.22.3.3,0,0,0,.09.22l.59.58a.26.26,0,0,0,.43,0,.3.3,0,0,0,.1-.22.3.3,0,0,0-.09-.22l-.59-.59A.3.3,0,0,0,44.23,43.82Z"/><path class="cls-1" d="M19.77,18.51a.82.82,0,0,0-1.16,1.16l.58.58a.82.82,0,0,0,1.16-1.16Z"/><path class="cls-1" d="M19.77,21a1.35,1.35,0,0,1-.95-.39L18.24,20a1.34,1.34,0,0,1,0-1.89,1.36,1.36,0,0,1,1.89,0l.59.58a1.34,1.34,0,0,1,0,1.89A1.33,1.33,0,0,1,19.77,21Zm-.58-2.23a.3.3,0,0,0-.22.09.31.31,0,0,0,0,.44l.58.58a.32.32,0,0,0,.44,0,.31.31,0,0,0,0-.44l-.59-.58A.3.3,0,0,0,19.19,18.78Z"/></svg>