<svg id="Capa_1" data-name="Capa 1" xmlns="http://www.w3.org/2000/svg" viewBox="0 0 64 64"><defs><style>.cls-1{font-size:10.11px;font-family:Roboto-Regular, Roboto;}.cls-1,.cls-2{fill:#fff;}</style></defs><title>Sin título-4</title><text class="cls-1" transform="translate(9.52 58.06)">Residuos</text><path class="cls-2" d="M38.34,46.28l-6-9.45,5.83-10.24.27,4.25L45,30.78l.15.24a17.71,17.71,0,0,1,2,3.78,4.93,4.93,0,0,0-1-2.51L39.86,22l9.38-5.86,3.48,5.57c1.61,2.45,2.11,4.46,1.51,6.12L47,39a4.65,4.65,0,0,1-.84,1.4l-.21.22-.09.13,0-.07a3.25,3.25,0,0,1-2.07.82l-5,.38ZM33.51,36.8l4.13,6.48.25-2.35,5.85-.46a2.27,2.27,0,0,0,1.66-.77,5,5,0,0,0,1-3.36,11.16,11.16,0,0,0-2-4.55l-7,.06L37.35,30Zm7.74-14.43L47,31.73a5.78,5.78,0,0,1,1.15,3.61l5.17-7.92c.43-1.23,0-2.94-1.46-5.12l-2.95-4.72ZM22.73,41.66c-2.69,0-4.51-.64-5.55-2L11.24,27.11a4.33,4.33,0,0,1-.28-.6l-.52-1.11.32.36a3.26,3.26,0,0,1,.41-2.14l2.31-4.43L10,16.47l11.2-.1,5.59,10.37-3.75-2L19.6,30.33h-.28a18.66,18.66,0,0,1-3.86-.25,4.5,4.5,0,0,0,2.25.43l12,.08V41.66h-7ZM13.89,30.36,18,39.17c.82,1,2.5,1.53,5.12,1.48h5.57v-9l-11-.08A5.87,5.87,0,0,1,13.89,30.36Zm-1-12.9,1.86,1.45-2.71,5.2a2.3,2.3,0,0,0-.23,1.82,5,5,0,0,0,2.3,2.65,10.61,10.61,0,0,0,4.9.75l3.64-6,1.61.87-3.69-6.84ZM27.19,18.6l-9.68-5.36L20.7,7.49c1.36-2.6,2.88-4,4.62-4.28l13.13,1a4.76,4.76,0,0,1,1.74,0l.4.11.36,0-.18,0a3.22,3.22,0,0,1,1.53,1.34l2.76,4.18,4.07-1.73L43.78,18,32,17.88l3.59-2.29L32.34,9.86l.13-.25a19.67,19.67,0,0,1,2-3.19,4.45,4.45,0,0,0-1.41,1.69Zm-8.3-5.76,7.91,4.38,5.39-9.57A5.8,5.8,0,0,1,35,4.93l-9.69-.72C24.07,4.43,22.8,5.66,21.59,8Zm16.52,4.07,7.77.09,3.67-6.75-2.18.92L41.44,6.28A2.28,2.28,0,0,0,40,5.19a5.08,5.08,0,0,0-3.43.73,10.93,10.93,0,0,0-3,3.93l3.44,6.08Z"/></svg>