<svg id="Capa_1" data-name="Capa 1" xmlns="http://www.w3.org/2000/svg" viewBox="0 0 64 64"><defs><style>.cls-1{fill:#e27926;}</style></defs><title>Sin título-4</title><path class="cls-1" d="M49,26.16a14.81,14.81,0,0,0-1.56-.78,16.19,16.19,0,0,0,.12-1.86A15.59,15.59,0,0,0,37.28,8.9a1,1,0,0,0-.78,1.79,9.9,9.9,0,0,1,4.75,12.37A14.49,14.49,0,0,0,22.71,23,9.88,9.88,0,0,1,27.48,10.7,1,1,0,0,0,26.7,8.9,15.58,15.58,0,0,0,16.44,23.52a16.14,16.14,0,0,0,.11,1.86,14.19,14.19,0,0,0-1.57.79,15.57,15.57,0,0,0-7.5,16.18,1,1,0,0,0,2-.17,1.06,1.06,0,0,0,0-.14,9.9,9.9,0,0,1,4.94-9,9.78,9.78,0,0,1,3.25-1.17,14.22,14.22,0,0,0-.19,2.33A14.56,14.56,0,0,0,27,47.86a9.9,9.9,0,0,1-13.09,2.08,1,1,0,0,0-1.16,1.57,15.55,15.55,0,0,0,17.79,1.58A16.61,16.61,0,0,0,32,52.13a14.79,14.79,0,0,0,1.45.95A15.55,15.55,0,0,0,51.25,51.5a1,1,0,0,0,.15-1.33,1,1,0,0,0-1.31-.23A9.89,9.89,0,0,1,37,47.83,14.54,14.54,0,0,0,46.48,34.2a15.52,15.52,0,0,0-.19-2.35A10,10,0,0,1,49.65,33a9.88,9.88,0,0,1,4.94,9.1,1,1,0,0,0,.86,1,1,1,0,0,0,1.07-.8A15.63,15.63,0,0,0,49,26.16Zm-10.56.91a9.91,9.91,0,0,1-12.9,0,9.62,9.62,0,0,1,12.9,0Zm-16.1,7.12a10,10,0,0,1,.2-2,9.91,9.91,0,0,1,6.56,11.14A9.63,9.63,0,0,1,22.31,34.19Zm12.61,9.15a9.84,9.84,0,0,1,.45-5.14,9.65,9.65,0,0,1,.72-1.54,10.6,10.6,0,0,1,1.06-1.5,9.84,9.84,0,0,1,4.22-2.88,9.65,9.65,0,0,1-6.46,11.07Z"/></svg>