<svg id="Capa_1" data-name="Capa 1" xmlns="http://www.w3.org/2000/svg" xmlns:xlink="http://www.w3.org/1999/xlink" viewBox="0 0 64 64"><defs><style>.cls-1,.cls-2,.cls-3{fill:#fff;}.cls-2{clip-path:url(#clip-path);}.cls-3{clip-path:url(#clip-path-2);}.cls-4{clip-path:url(#clip-path-3);}.cls-5{clip-path:url(#clip-path-4);}</style><clipPath id="clip-path"><path class="cls-1" d="M32,60c-8.22,0-16.46-1.06-21.22-3.18-.45-.16-.61-.58-1-2.67l0-.1v-.1c-.57-3.42-1.71-15,7-18.27,6-2,8.63-4.44,8.66-4.46l.5-.48.7.7A8.12,8.12,0,0,0,31.92,34h.18a8.2,8.2,0,0,0,5.31-2.57l.68-.71.51.49s2.62,2.47,8.65,4.45c9,3.42,7.38,15.92,7,18.39-.36,2.07-.54,2.62-1.1,2.8C48.4,58.92,40.23,60,32,60ZM11.58,55.59c9.21,3.94,31.77,3.92,40.85,0a14.77,14.77,0,0,0,.37-1.71c.4-2.36,1.94-13.89-6-16.91a28.06,28.06,0,0,1-8.63-4.32,9.38,9.38,0,0,1-6,2.74h-.18a9.35,9.35,0,0,1-6-2.74A28.23,28.23,0,0,1,17.21,37c-7.64,2.86-6.56,13.57-6,16.78l0,.1A14.57,14.57,0,0,0,11.58,55.59Z"/></clipPath><clipPath id="clip-path-2"><path class="cls-1" d="M32,33.59c-4.14,0-8.35-4.48-9.57-10.2,0,0,0,0-.08-.08a5.47,5.47,0,0,1-.83-1.86c-.23-.8-.7-2.77,0-3.61l.14-.15.19-.17c-.2-1.19-.74-4.78-.08-6.74,1.31-4,5.78-6,6.68-6.35a4.74,4.74,0,0,1,2.75-.35l.88.16c1.09.21,8.58,2.52,9.89,6.55.65,2,.12,5.54-.09,6.73l.34.34c.79.72.22,2.95,0,3.61a5.69,5.69,0,0,1-.8,1.8l-.11.17C40.16,29.21,36.13,33.59,32,33.59Zm-8.7-16.07c.2.43-.15.76-.67,1.23a4.57,4.57,0,0,0,.25,2.33,4.27,4.27,0,0,0,.64,1.45,2.18,2.18,0,0,1,.27.48c1.09,5.09,4.77,9.17,8.22,9.17s6.91-4,8-9.09a1.76,1.76,0,0,1,.29-.59A4.17,4.17,0,0,0,41,21.09a4.83,4.83,0,0,0,.26-2.32c-.53-.5-.9-.84-.69-1.26.25-1.34.7-4.69.18-6.26-1-3.08-7.51-5.35-8.82-5.61L31,5.48a3.53,3.53,0,0,0-2,.26h0c-.48.19-4.74,2-5.88,5.49C22.63,12.82,23.08,16.2,23.33,17.52Z"/></clipPath><clipPath id="clip-path-3"><path class="cls-2" d="M32,60.37c-8.86,0-16.85-1.2-21.38-3.21-.66-.23-.84-.91-1.24-3l0-.12v-.2c-.41-2.42-2-15.16,7.21-18.62,5.49-1.81,8.06-4,8.52-4.37l.79-.74,1,1a7.7,7.7,0,0,0,5,2.46h.18a7.85,7.85,0,0,0,5-2.46l.93-1,.81.77s2.59,2.42,8.49,4.36c9.31,3.53,7.66,16.3,7.23,18.83-.35,2-.53,2.85-1.37,3.12C48.79,59.19,40.85,60.37,32,60.37ZM25.9,31.27l-.22.21c-.5.45-3.19,2.7-8.81,4.55-8.65,3.24-7.08,15.42-6.69,17.83l0,.2c.38,1.92.52,2.28.75,2.35,4.46,2,12.33,3.16,21.08,3.16s16.52-1.17,20.9-3.12c.38-.12.53-.59.88-2.5.4-2.42,2-14.65-6.72-17.94-6.15-2-8.76-4.52-8.78-4.54l-.22-.2-.4.41a8.64,8.64,0,0,1-5.6,2.7h-.18a8.47,8.47,0,0,1-5.58-2.68ZM32,58.94c-8,0-16-1-20.61-3l-.16-.07-.06-.17a16.61,16.61,0,0,1-.4-1.79l0-.11c-.52-3.28-1.63-14.25,6.3-17.22a28,28,0,0,0,8.55-4.27l.27-.21.25.23A9,9,0,0,0,31.92,35h.18a9,9,0,0,0,5.77-2.64l.25-.23.27.21a27.75,27.75,0,0,0,8.52,4.25c8.25,3.12,6.69,15,6.3,17.36a16.72,16.72,0,0,1-.38,1.77l-.06.17-.16.07C48,57.94,40,58.94,32,58.94ZM11.91,55.3c9.18,3.81,31.09,3.8,40.19,0,.06-.23.16-.66.31-1.49.38-2.24,1.87-13.58-5.78-16.46a29.35,29.35,0,0,1-8.48-4.18,9.55,9.55,0,0,1-6.05,2.63h-.18a9.56,9.56,0,0,1-6.06-2.62,29.55,29.55,0,0,1-8.52,4.19C10,40.11,11.06,50.56,11.57,53.7l0,.1C11.73,54.62,11.84,55.06,11.91,55.3Z"/></clipPath><clipPath id="clip-path-4"><path class="cls-3" d="M32,34c-4.29,0-8.63-4.54-9.93-10.37L22,23.53a6.16,6.16,0,0,1-.88-2c-.38-1.31-.66-3.07.1-4l.21-.21c-.25-1.53-.67-4.8,0-6.71,1.38-4.19,6-6.23,6.92-6.6a5.26,5.26,0,0,1,2.92-.38l.92.16c1.33.26,8.83,2.6,10.21,6.82.66,2,.17,5.41,0,6.72l.19.19c.84.75.54,2.59.13,4a6,6,0,0,1-.84,1.92l-.08.11C40.5,29.49,36.31,34,32,34Zm-9.42-11.8.23,1.12C24,28.85,28.07,33.19,32,33.19S39.8,29,41,23.36a1.19,1.19,0,0,1,.18-.33,5,5,0,0,0,.73-1.67c.46-1.59.49-2.85.09-3.21l-.5-.5,0-.2c.13-.74.76-4.57.1-6.53-1.24-3.78-8.59-6.09-9.59-6.29l-.86-.15a4.37,4.37,0,0,0-2.53.32C28.14,5,23.5,7,22.21,10.92c-.63,1.88-.09,5.48.09,6.54l0,.23-.17.15L22,18l-.1.11c-.39.46-.37,1.67.07,3.22a6.12,6.12,0,0,0,.48,1.26ZM32,32.58c-3.68,0-7.47-4.17-8.61-9.49a2.57,2.57,0,0,0-.21-.34,4.63,4.63,0,0,1-.7-1.57,4.62,4.62,0,0,1-.21-2.62l.09-.11c.49-.45.64-.62.58-.76l0-.09c0-.19-.84-4.48-.15-6.49C24,7.48,28.26,5.63,28.84,5.4l.05,0A3.92,3.92,0,0,1,31,5.08c.15,0,.46.08.69.13l.21,0c.92.17,8,2.39,9.14,5.86.66,2-.13,6.28-.17,6.46l0,.11c-.07.14.14.36.59.79l.09.11a4.79,4.79,0,0,1-.23,2.62,4.78,4.78,0,0,1-.66,1.52,1.28,1.28,0,0,0-.24.47C39.29,28.45,35.6,32.58,32,32.58ZM23,19a5.81,5.81,0,0,0,.29,2,3.78,3.78,0,0,0,.56,1.3,3.35,3.35,0,0,1,.34.59c1.06,5,4.57,8.92,7.84,8.92s6.55-3.86,7.62-8.77a2,2,0,0,1,.36-.74A4,4,0,0,0,40.56,21a5.61,5.61,0,0,0,.3-2c-.53-.5-1-1-.72-1.61.27-1.49.66-4.6.18-6C39.38,8.49,33,6.27,31.8,6l-.23,0L31,5.88a3.17,3.17,0,0,0-1.69.2h0l-.09,0s-4.51,1.78-5.64,5.24c-.46,1.34-.16,4.32.16,6C24,18,23.5,18.52,23,19Z"/></clipPath></defs><title>Sin título-4</title><path class="cls-1" d="M32,60c-8.22,0-16.46-1.06-21.22-3.18-.45-.16-.61-.58-1-2.67l0-.1v-.1c-.57-3.42-1.71-15,7-18.27,6-2,8.63-4.44,8.66-4.46l.5-.48.7.7A8.12,8.12,0,0,0,31.92,34h.18a8.2,8.2,0,0,0,5.31-2.57l.68-.71.51.49s2.62,2.47,8.65,4.45c9,3.42,7.38,15.92,7,18.39-.36,2.07-.54,2.62-1.1,2.8C48.4,58.92,40.23,60,32,60ZM11.58,55.59c9.21,3.94,31.77,3.92,40.85,0a14.77,14.77,0,0,0,.37-1.71c.4-2.36,1.94-13.89-6-16.91a28.06,28.06,0,0,1-8.63-4.32,9.38,9.38,0,0,1-6,2.74h-.18a9.35,9.35,0,0,1-6-2.74A28.23,28.23,0,0,1,17.21,37c-7.64,2.86-6.56,13.57-6,16.78l0,.1A14.57,14.57,0,0,0,11.58,55.59Z"/><path class="cls-1" d="M32,60.37c-8.86,0-16.85-1.2-21.38-3.21-.66-.23-.84-.91-1.24-3l0-.12v-.2c-.41-2.42-2-15.16,7.21-18.62,5.49-1.81,8.06-4,8.52-4.37l.79-.74,1,1a7.7,7.7,0,0,0,5,2.46h.18a7.85,7.85,0,0,0,5-2.46l.93-1,.81.77s2.59,2.42,8.49,4.36c9.31,3.53,7.66,16.3,7.23,18.83-.35,2-.53,2.85-1.37,3.12C48.79,59.19,40.85,60.37,32,60.37ZM25.9,31.27l-.22.21c-.5.45-3.19,2.7-8.81,4.55-8.65,3.24-7.08,15.42-6.69,17.83l0,.2c.38,1.92.52,2.28.75,2.35,4.46,2,12.33,3.16,21.08,3.16s16.52-1.17,20.9-3.12c.38-.12.53-.59.88-2.5.4-2.42,2-14.65-6.72-17.94-6.15-2-8.76-4.52-8.78-4.54l-.22-.2-.4.41a8.64,8.64,0,0,1-5.6,2.7h-.18a8.47,8.47,0,0,1-5.58-2.68ZM32,58.94c-8,0-16-1-20.61-3l-.16-.07-.06-.17a16.61,16.61,0,0,1-.4-1.79l0-.11c-.52-3.28-1.63-14.25,6.3-17.22a28,28,0,0,0,8.55-4.27l.27-.21.25.23A9,9,0,0,0,31.92,35h.18a9,9,0,0,0,5.77-2.64l.25-.23.27.21a27.75,27.75,0,0,0,8.52,4.25c8.25,3.12,6.69,15,6.3,17.36a16.72,16.72,0,0,1-.38,1.77l-.06.17-.16.07C48,57.94,40,58.94,32,58.94ZM11.91,55.3c9.18,3.81,31.09,3.8,40.19,0,.06-.23.16-.66.31-1.49.38-2.24,1.87-13.58-5.78-16.46a29.35,29.35,0,0,1-8.48-4.18,9.55,9.55,0,0,1-6.05,2.63h-.18a9.56,9.56,0,0,1-6.06-2.62,29.55,29.55,0,0,1-8.52,4.19C10,40.11,11.06,50.56,11.57,53.7l0,.1C11.73,54.62,11.84,55.06,11.91,55.3Z"/><g class="cls-4"><path class="cls-1" d="M57,61H7V31H57ZM8.42,59.6h47.2V32.4H8.42Z"/><path class="cls-1" d="M57.43,61.41H6.61V30.6H57.43Zm-50-.8H56.63V31.39H7.41ZM56,60H8V32H56Zm-47.2-.8h46.4V32.8H8.82Z"/></g><path class="cls-1" d="M32,33.59c-4.14,0-8.35-4.48-9.57-10.2,0,0,0,0-.08-.08a5.47,5.47,0,0,1-.83-1.86c-.23-.8-.7-2.77,0-3.61l.14-.15.19-.17c-.2-1.19-.74-4.78-.08-6.74,1.31-4,5.78-6,6.68-6.35a4.74,4.74,0,0,1,2.75-.35l.88.16c1.09.21,8.58,2.52,9.89,6.55.65,2,.12,5.54-.09,6.73l.34.34c.79.72.22,2.95,0,3.61a5.69,5.69,0,0,1-.8,1.8l-.11.17C40.16,29.21,36.13,33.59,32,33.59Zm-8.7-16.07c.2.43-.15.76-.67,1.23a4.57,4.57,0,0,0,.25,2.33,4.27,4.27,0,0,0,.64,1.45,2.18,2.18,0,0,1,.27.48c1.09,5.09,4.77,9.17,8.22,9.17s6.91-4,8-9.09a1.76,1.76,0,0,1,.29-.59A4.17,4.17,0,0,0,41,21.09a4.83,4.83,0,0,0,.26-2.32c-.53-.5-.9-.84-.69-1.26.25-1.34.7-4.69.18-6.26-1-3.08-7.51-5.35-8.82-5.61L31,5.48a3.53,3.53,0,0,0-2,.26h0c-.48.19-4.74,2-5.88,5.49C22.63,12.82,23.08,16.2,23.33,17.52Z"/><path class="cls-1" d="M32,34c-4.29,0-8.63-4.54-9.93-10.37L22,23.53a6.16,6.16,0,0,1-.88-2c-.38-1.31-.66-3.07.1-4l.21-.21c-.25-1.53-.67-4.8,0-6.71,1.38-4.19,6-6.23,6.92-6.6a5.26,5.26,0,0,1,2.92-.38l.92.16c1.33.26,8.83,2.6,10.21,6.82.66,2,.17,5.41,0,6.72l.19.19c.84.75.54,2.59.13,4a6,6,0,0,1-.84,1.92l-.08.11C40.5,29.49,36.31,34,32,34Zm-9.42-11.8.23,1.12C24,28.85,28.07,33.19,32,33.19S39.8,29,41,23.36a1.19,1.19,0,0,1,.18-.33,5,5,0,0,0,.73-1.67c.46-1.59.49-2.85.09-3.21l-.5-.5,0-.2c.13-.74.76-4.57.1-6.53-1.24-3.78-8.59-6.09-9.59-6.29l-.86-.15a4.37,4.37,0,0,0-2.53.32C28.14,5,23.5,7,22.21,10.92c-.63,1.88-.09,5.48.09,6.54l0,.23-.17.15L22,18l-.1.11c-.39.46-.37,1.67.07,3.22a6.12,6.12,0,0,0,.48,1.26ZM32,32.58c-3.68,0-7.47-4.17-8.61-9.49a2.57,2.57,0,0,0-.21-.34,4.63,4.63,0,0,1-.7-1.57,4.62,4.62,0,0,1-.21-2.62l.09-.11c.49-.45.64-.62.58-.76l0-.09c0-.19-.84-4.48-.15-6.49C24,7.48,28.26,5.63,28.84,5.4l.05,0A3.92,3.92,0,0,1,31,5.08c.15,0,.46.08.69.13l.21,0c.92.17,8,2.39,9.14,5.86.66,2-.13,6.28-.17,6.46l0,.11c-.07.14.14.36.59.79l.09.11a4.79,4.79,0,0,1-.23,2.62,4.78,4.78,0,0,1-.66,1.52,1.28,1.28,0,0,0-.24.47C39.29,28.45,35.6,32.58,32,32.58ZM23,19a5.81,5.81,0,0,0,.29,2,3.78,3.78,0,0,0,.56,1.3,3.35,3.35,0,0,1,.34.59c1.06,5,4.57,8.92,7.84,8.92s6.55-3.86,7.62-8.77a2,2,0,0,1,.36-.74A4,4,0,0,0,40.56,21a5.61,5.61,0,0,0,.3-2c-.53-.5-1-1-.72-1.61.27-1.49.66-4.6.18-6C39.38,8.49,33,6.27,31.8,6l-.23,0L31,5.88a3.17,3.17,0,0,0-1.69.2h0l-.09,0s-4.51,1.78-5.64,5.24c-.46,1.34-.16,4.32.16,6C24,18,23.5,18.52,23,19Z"/><g class="cls-5"><path class="cls-1" d="M42.8,33.59H21.06V4H42.8ZM22.47,32.18H41.39V5.43H22.47Z"/><path class="cls-1" d="M43.19,34H20.66V3.63H43.19Zm-21.73-.8H42.4V4.43H21.46Zm20.33-.61H22.07V5H41.79Zm-18.92-.8H41V5.84H22.87Z"/></g></svg>