<svg id="Capa_1" data-name="Capa 1" xmlns="http://www.w3.org/2000/svg" viewBox="0 0 37.92 37.92"><defs><style>.cls-1{fill:#9dc22e;}.cls-2{fill:none;stroke:#9dc22e;stroke-miterlimit:10;stroke-width:0.69px;}</style></defs><title>Sin título-1</title><ellipse class="cls-1" cx="18.96" cy="32.01" rx="5.65" ry="1.29"/><ellipse class="cls-2" cx="18.96" cy="31.81" rx="9.25" ry="2.66"/><circle class="cls-1" cx="18.92" cy="5.82" r="2.36"/><path class="cls-1" d="M19.74,9.31a4.31,4.31,0,0,0-1.81,0c-3.93.46-5.21,5-4.85,8.48.16,1.5,2.52,1.52,2.36,0a9,9,0,0,1,.6-4.53v4.95c0,.06,0,.11,0,.17s0,0,0,.08c0,3.92,0,7.85-.17,11.77-.07,1.74,2.63,1.74,2.7,0,.13-3.07.16-6.15.17-9.22h.38c0,3.08,0,6.15.16,9.22.07,1.74,2.77,1.74,2.7,0-.16-3.92-.17-7.84-.17-11.77a1.48,1.48,0,0,0,0-.34c0-1.7-.07-3.41,0-5.11a8.57,8.57,0,0,1,.74,4.79c-.16,1.51,2.21,1.5,2.36,0C25.21,14.27,23.87,9.61,19.74,9.31Z"/></svg>