<?xml version="1.0" encoding="utf-8"?>
<!-- Generator: Adobe Illustrator 15.0.0, SVG Export Plug-In . SVG Version: 6.00 Build 0)  -->
<!DOCTYPE svg PUBLIC "-//W3C//DTD SVG 1.1//EN" "http://www.w3.org/Graphics/SVG/1.1/DTD/svg11.dtd" [
	<!ENTITY ns_flows "http://ns.adobe.com/Flows/1.0/">
	<!ENTITY ns_extend "http://ns.adobe.com/Extensibility/1.0/">
	<!ENTITY ns_ai "http://ns.adobe.com/AdobeIllustrator/10.0/">
	<!ENTITY ns_graphs "http://ns.adobe.com/Graphs/1.0/">
	<!ENTITY ns_vars "http://ns.adobe.com/Variables/1.0/">
	<!ENTITY ns_imrep "http://ns.adobe.com/ImageReplacement/1.0/">
	<!ENTITY ns_sfw "http://ns.adobe.com/SaveForWeb/1.0/">
	<!ENTITY ns_custom "http://ns.adobe.com/GenericCustomNamespace/1.0/">
	<!ENTITY ns_adobe_xpath "http://ns.adobe.com/XPath/1.0/">
]>
<svg version="1.1"
	 xmlns:x="&ns_extend;" xmlns:i="&ns_ai;" xmlns:graph="&ns_graphs;" i:viewOrigin="-0.5 888.7891" i:rulerOrigin="0.5 -237.7246" i:pageBounds="-0.5 888.7891 599.5 237.7246"
	 xmlns="http://www.w3.org/2000/svg" xmlns:xlink="http://www.w3.org/1999/xlink" xmlns:a="http://ns.adobe.com/AdobeSVGViewerExtensions/3.0/"
	 x="0px" y="0px" width="600px" height="651.064px" viewBox="0 0 600 651.064" style="enable-background:new 0 0 600 651.064;"
	 xml:space="preserve">
<metadata>
	<variableSets  xmlns="http://ns.adobe.com/Variables/1.0/">
		<variableSet  locked="none" varSetName="binding1">
			<variables></variables>
			<v:sampleDataSets  xmlns:v="http://ns.adobe.com/Variables/1.0/" xmlns="http://ns.adobe.com/GenericCustomNamespace/1.0/">
				</v:sampleDataSets>
		</variableSet>
	</variableSets>
</metadata>
<g id="Layer_1" i:knockout="Off" i:layer="yes" i:dimmedPercent="50" i:rgbTrio="#4F008000FFFF">
	<g>
		<defs>
			<path id="SVGID_1_" d="M-1386.304,999.147c-17.463,0-33.545-2.203-46.409-5.903c-0.002,0.186-0.013,0.37-0.013,0.553
				c0,25.639,20.785,46.424,46.423,46.424s46.424-20.785,46.424-46.424c0-0.186-0.011-0.367-0.013-0.553
				C-1352.756,996.944-1368.84,999.147-1386.304,999.147"/>
		</defs>
		<clipPath id="SVGID_2_">
			<use xlink:href="#SVGID_1_"  style="overflow:visible;"/>
		</clipPath>
		
			<linearGradient id="SVGID_3_" gradientUnits="userSpaceOnUse" x1="-1273.334" y1="1024.2051" x2="-1272.334" y2="1024.2051" gradientTransform="matrix(0 46.976 -46.976 0 46726.75 60809.3945)">
			<stop  offset="0" style="stop-color:#22242B"/>
			<stop  offset="1" style="stop-color:#646A71"/>
			<a:midPointStop  offset="0" style="stop-color:#22242B"/>
			<a:midPointStop  offset="0.5001" style="stop-color:#22242B"/>
			<a:midPointStop  offset="1" style="stop-color:#646A71"/>
		</linearGradient>
		
			<rect x="-1432.726" y="993.244" i:knockout="Off" style="clip-path:url(#SVGID_2_);fill:url(#SVGID_3_);" width="92.847" height="46.977"/>
	</g>
	<path i:knockout="Off" style="fill:#8E8E91;" d="M-1376.689,1011.643h-20.976c-3.875,0-7.029-3.152-7.029-7.027v-20.977
		c0-3.875,3.154-7.027,7.029-7.027h20.976c3.874,0,7.028,3.152,7.028,7.027v20.977
		C-1369.662,1008.49-1372.815,1011.643-1376.689,1011.643 M-1397.666,978.361c-2.911,0-5.277,2.369-5.277,5.277v20.977
		c0,2.908,2.366,5.277,5.277,5.277h20.976c2.909,0,5.276-2.369,5.276-5.277v-20.977c0-2.908-2.367-5.277-5.276-5.277H-1397.666z"/>
	<g>
		<defs>
			<path id="SVGID_4_" d="M-1627.562,1036.526c10.319,16.882,26.528,28.847,45.175,34.491l5.383-5.807
				c-17.801-4.555-34.199-15.361-44.462-31.935L-1627.562,1036.526z"/>
		</defs>
		<clipPath id="SVGID_5_">
			<use xlink:href="#SVGID_4_"  style="overflow:visible;"/>
		</clipPath>
		
			<linearGradient id="SVGID_6_" gradientUnits="userSpaceOnUse" x1="-1292.4214" y1="1022.9912" x2="-1291.4214" y2="1022.9912" gradientTransform="matrix(29.8397 29.8405 -29.8405 29.8397 67473.8203 9077.0186)">
			<stop  offset="0" style="stop-color:#010104"/>
			<stop  offset="0.5515" style="stop-color:#666666"/>
			<stop  offset="1" style="stop-color:#010104"/>
			<a:midPointStop  offset="0" style="stop-color:#010104"/>
			<a:midPointStop  offset="0.5016" style="stop-color:#010104"/>
			<a:midPointStop  offset="0.5515" style="stop-color:#666666"/>
			<a:midPointStop  offset="0.5016" style="stop-color:#666666"/>
			<a:midPointStop  offset="1" style="stop-color:#010104"/>
		</linearGradient>
		<polygon i:knockout="Off" style="clip-path:url(#SVGID_5_);fill:url(#SVGID_6_);" points="-1646.432,1052.146 -1602.283,1096.296 
			-1558.133,1052.147 -1602.282,1007.997 		"/>
	</g>
	<g>
		<path i:knockout="Off" style="fill:#FFFFFF;" d="M-191.376-251.521c0-157.787-127.914-285.701-285.702-285.701
			c-157.789,0-285.701,127.914-285.701,285.701c0,157.79,127.912,285.704,285.701,285.704
			C-319.291,34.183-191.376-93.731-191.376-251.521 M-736.8-251.521c0-143.446,116.283-259.729,259.722-259.729
			c143.458,0,259.739,116.283,259.739,259.729c0,143.448-116.281,259.729-259.739,259.729
			C-620.517,8.208-736.8-108.073-736.8-251.521"/>
		<path i:knockout="Off" style="fill:#FFFFFF;" d="M-466.109-86.616v-164.905h54.414l8.582-54.645h-62.996v-27.397
			c0-14.257,4.672-27.869,25.135-27.869h40.91v-54.545h-58.074c-48.832,0-62.169,32.152-62.169,76.722v33.064h-33.494v54.67h33.494
			v164.905H-466.109z"/>
	</g>
	<g i:knockout="Off">
		<g i:knockout="Off">
			<path style="fill:#FFFFFF;" d="M339.908,414.534c0-27.758-16.081-41.439-33.781-56.341l-14.483-11.258
				c-4.425-3.611-10.453-8.443-10.453-17.293c0-8.842,6.044-14.487,11.266-19.717c16.89-13.275,33.793-27.347,33.793-57.094
				c0-30.601-19.327-46.682-28.563-54.312l0,0h24.936l25.72-14.495h-82.875c-21.702,0-49.049,3.221-72.003,22.125
				c-17.285,14.877-25.72,35.392-25.72,53.905c0,31.365,24.126,63.146,66.757,63.146c4.043,0,8.435-0.407,12.893-0.773
				c-2.009,4.824-4.018,8.826-4.018,15.674c0,12.454,6.426,20.124,12.071,27.348c-18.091,1.212-51.896,3.221-76.819,18.497
				c-23.751,14.092-30.975,34.606-30.975,49.085c0,29.771,28.16,57.525,86.482,57.525
				C303.296,490.557,339.908,452.342,339.908,414.534z M253.414,311.967c-34.603,0-50.302-44.656-50.302-71.589
				c0-10.477,2.001-21.303,8.85-29.771c6.434-8.053,17.7-13.307,28.177-13.307c33.382,0,50.676,45.063,50.676,74.021
				c0,7.256-0.797,20.124-10.054,29.373C274.318,307.143,263.467,311.942,253.414,311.967z M253.82,473.653
				c-43.046,0-70.8-20.498-70.8-49.049c0-28.563,25.753-38.202,34.603-41.423c16.903-5.638,38.621-6.467,42.249-6.467
				c4.01,0,6.019,0,9.224,0.415c30.601,21.722,43.847,32.573,43.847,53.12C312.943,455.173,292.441,473.653,253.82,473.653z"/>
			<polygon style="fill:#FFFFFF;" points="343.536,336.401 387.095,336.401 387.095,379.936 408.861,379.936 408.861,336.401 
				452.388,336.401 452.388,314.651 408.861,314.651 408.861,271.117 387.095,271.117 387.095,314.651 343.536,314.651 			"/>
			<path style="fill:#FFFFFF;" d="M582.997,325.526c0-156.298-126.697-282.996-282.987-282.996
				c-156.293,0-283.007,126.698-283.007,282.996c0,156.294,126.714,283.008,283.007,283.008
				C456.3,608.534,582.997,481.82,582.997,325.526z M42.739,325.526c0-142.096,115.18-257.267,257.271-257.267
				c142.088,0,257.268,115.171,257.268,257.267c0,142.092-115.18,257.271-257.268,257.271
				C157.918,582.798,42.739,467.618,42.739,325.526z"/>
		</g>
	</g>
</g>
</svg>
