<svg id="Capa_1" data-name="Capa 1" xmlns="http://www.w3.org/2000/svg" viewBox="0 0 64 64"><defs><style>.cls-1{fill:#a8c235;}</style></defs><title>ICONOS</title><path class="cls-1" d="M56.76,43a.64.64,0,0,0,.13-.1,4.31,4.31,0,0,1,.33-.84v-.15c.32-.82.61-1.67.85-2.53,0,0,0,0,0,0h0a27.07,27.07,0,0,0,0-14.58h0v0a26.09,26.09,0,0,0-.85-2.54h0a5.12,5.12,0,0,1-.38-1l-.08-.07c-.33-.74-.68-1.47-1.08-2.17l0,0A7.61,7.61,0,0,1,55,17.73L55,17.62l0,0a27.36,27.36,0,0,0-2-2.77,0,0,0,0,1,0,0l-.57-.66-.05,0A27,27,0,0,0,49.9,11.7l0,0-.67-.57h0a25.88,25.88,0,0,0-2.77-2s0,0,0,0l-.31-.19-.06,0-.34-.2.11,0c-.25-.14-.48-.3-.72-.45a1.1,1.1,0,0,0,.09.14c-.71-.4-1.44-.76-2.19-1.09l0,0a4.39,4.39,0,0,1-1-.43h-.06a26.09,26.09,0,0,0-2.54-.85h0a27.11,27.11,0,0,0-14.59,0h0a26.09,26.09,0,0,0-2.54.85h-.09a4,4,0,0,1-.91.34.47.47,0,0,0-.09.12c-.74.33-1.47.68-2.17,1.08h0a3.85,3.85,0,0,1-.71.41l-.16.1-.08,0-.31.19s0,0,0,0a27.23,27.23,0,0,0-2.76,2h0l-.66.57,0,.05a28.25,28.25,0,0,0-2.39,2.38s0,0,0,0c-.2.22-.38.44-.57.67,0,0,0,0,0,0a27,27,0,0,0-2,2.77l0,0c-.07.1-.13.21-.2.32l0,0-.21.35-.34.55.05,0c-.4.71-.76,1.44-1.09,2.19,0,0,0,0-.06.05a4.5,4.5,0,0,1-.4.9v.14a26.09,26.09,0,0,0-.85,2.54v0h0a27.07,27.07,0,0,0,0,14.58h0s0,0,0,0c.24.86.53,1.71.85,2.53v.31a4.22,4.22,0,0,1,.32.68.71.71,0,0,0,.14.1c.33.74.68,1.47,1.08,2.17h0a4.85,4.85,0,0,1,.35.92v-.21a.8.8,0,0,0,0-.15l.21.34,0,0,.2.33.06.06a26.79,26.79,0,0,0,2,2.74,0,0,0,0,1,0,0l.57.67.05,0A25.67,25.67,0,0,0,14.1,52.3l0,0c.22.2.44.38.67.57h0a28.63,28.63,0,0,0,2.77,2l0,0,.31.19.06,0,.19.11c.17.1.36.18.52.29l.18.15,0-.06c.71.4,1.44.76,2.19,1.09l0,.06a3.82,3.82,0,0,1,.81.4h.24a26.09,26.09,0,0,0,2.54.85h0a27.07,27.07,0,0,0,14.58,0h0a26.09,26.09,0,0,0,2.54-.85l.38-.14c.34-.23.19-.09.71-.32l2.87-1.41-.16,0,.33-.2.08,0,.31-.19s0,0,0,0a25.76,25.76,0,0,0,2.76-2h0l.67-.57,0-.05A25.67,25.67,0,0,0,52.3,49.9s0,0,0,0c.2-.22.38-.44.57-.66a0,0,0,0,0,0,0,26.46,26.46,0,0,0,2-2.74.18.18,0,0,0,.05-.07c.07-.1.13-.21.2-.32l0,0,.21-.36a1,1,0,0,0,0,.17v.4c0-.16.11-.31.17-.46a5.12,5.12,0,0,1,.35-.75.82.82,0,0,0-.2.12C56.07,44.43,56.43,43.7,56.76,43Zm.46-11a24.86,24.86,0,0,1-.72,6l-10.37-2.6a14.23,14.23,0,0,0,0-6.7l10.37-2.6A24.86,24.86,0,0,1,57.22,32ZM39.74,8A25.37,25.37,0,0,1,45,10.42l.07,0a25.41,25.41,0,0,1,8.44,8.44l.05.08A25.14,25.14,0,0,1,56,24.25L45.57,26.86a14.58,14.58,0,0,0-8.43-8.44Zm4.92,24A12.66,12.66,0,1,1,32,19.34,12.68,12.68,0,0,1,44.66,32ZM32,6.78a25.37,25.37,0,0,1,6,.72l-2.6,10.37a14.23,14.23,0,0,0-6.7,0L26.05,7.5A25.37,25.37,0,0,1,32,6.78ZM10.42,19l0-.05a25.54,25.54,0,0,1,8.44-8.45l.09-.05A25.37,25.37,0,0,1,24.25,8l2.61,10.41a14.63,14.63,0,0,0-8.44,8.44L8,24.25A25.6,25.6,0,0,1,10.42,19ZM6.78,32a24.86,24.86,0,0,1,.72-5.95l10.37,2.6a14.23,14.23,0,0,0,0,6.7L7.5,38A24.86,24.86,0,0,1,6.78,32ZM24.25,56A25,25,0,0,1,19,53.58l-.07,0a25.44,25.44,0,0,1-8.44-8.45l0-.05A25.06,25.06,0,0,1,8,39.75l10.42-2.61a14.54,14.54,0,0,0,8.43,8.43ZM32,57.22a25.37,25.37,0,0,1-5.95-.72l2.6-10.37a14.23,14.23,0,0,0,6.7,0L38,56.5A25.37,25.37,0,0,1,32,57.22ZM53.58,45l0,.05a25.54,25.54,0,0,1-8.44,8.45l-.09.05A25.37,25.37,0,0,1,39.75,56L37.14,45.57a14.58,14.58,0,0,0,8.44-8.43L56,39.75A25.6,25.6,0,0,1,53.58,45Z"/></svg>