<svg id="Capa_1" data-name="Capa 1" xmlns="http://www.w3.org/2000/svg" viewBox="0 0 64 64"><defs><style>.cls-1{fill:#a8c235;}</style></defs><title>ICONOS</title><path id="rect29104" class="cls-1" d="M16.6,5.37a4.68,4.68,0,0,0-4.81,4.52V56.82H5.05a.91.91,0,1,0,0,1.81H59a1,1,0,0,0,1-.89.94.94,0,0,0-1-.92H52.21V9.89A4.68,4.68,0,0,0,47.4,5.37Zm0,1.81H47.4a2.77,2.77,0,0,1,2.89,2.71V56.82H13.71V9.89A2.77,2.77,0,0,1,16.6,7.18Zm3.85,21.21A3.62,3.62,0,1,0,24.3,32,3.75,3.75,0,0,0,20.45,28.39Zm0,1.8A1.81,1.81,0,1,1,18.52,32,1.85,1.85,0,0,1,20.45,30.19Z"/></svg>