<svg id="Capa_1" data-name="Capa 1" xmlns="http://www.w3.org/2000/svg" viewBox="0 0 64 64"><defs><style>.cls-1{fill:#a8c235;}</style></defs><title>ICONOS</title><path class="cls-1" d="M51.51,12.49a27.59,27.59,0,0,0-39,39,27.59,27.59,0,0,0,39-39ZM32,57.39A25.39,25.39,0,1,1,57.39,32,25.42,25.42,0,0,1,32,57.39Z"/><path class="cls-1" d="M32,23a3.86,3.86,0,0,0-3.85,3.85V46a3.85,3.85,0,1,0,7.7,0V26.89A3.86,3.86,0,0,0,32,23Zm1.65,23a1.65,1.65,0,0,1-3.3,0V26.89a1.65,1.65,0,1,1,3.3,0Z"/><path class="cls-1" d="M34.72,15.26a3.85,3.85,0,1,0,0,5.44A3.83,3.83,0,0,0,35.85,18,3.88,3.88,0,0,0,34.72,15.26Zm-1.55,3.89a1.67,1.67,0,0,1-2.34,0,1.65,1.65,0,0,1,0-2.33,1.67,1.67,0,0,1,2.34,0,1.65,1.65,0,0,1,0,2.33Z"/></svg>