<svg id="Capa_1" data-name="Capa 1" xmlns="http://www.w3.org/2000/svg" viewBox="0 0 200 200"><defs><style>.cls-1{fill:#fff;}</style></defs><title>pyp</title><path class="cls-1" d="M164.28,8.74a115,115,0,0,1,10.56,20.7,113.55,113.55,0,0,1,6.42,23q4.51,27-2.41,51.46t-23.48,41.4A85.68,85.68,0,0,1,114,168.66a58.41,58.41,0,0,1-34-.47,60,60,0,0,1-24.73-14.62,87.26,87.26,0,0,0-14.15,21.75,48,48,0,0,0-3.8,10.17,10.2,10.2,0,0,1-4.56,6.58,9.54,9.54,0,0,1-7.68,1.44,10.25,10.25,0,0,1-6.42-4.59,9.54,9.54,0,0,1-1.44-7.68q3.25-13.47,12.73-28.3a119.93,119.93,0,0,1,34-34.43q26.1-17.92,62.25-23.95a5.1,5.1,0,1,0-1.68-10.06Q71.42,93.36,39,125.9l-.42-.58q-.94-3.72-1.26-5.61a59.07,59.07,0,0,1,3.14-31.54A62.37,62.37,0,0,1,58.85,62.5,59.07,59.07,0,0,1,87.67,49.3l25.15-4.19a52.94,52.94,0,0,0,26-11.92A56.91,56.91,0,0,0,155.37,9.58a5.13,5.13,0,0,1,4.14-3.27Q162.49,5.81,164.28,8.74Z"/></svg>