<?xml version="1.0" encoding="utf-8"?>
<!-- Generator: Adobe Illustrator 15.0.0, SVG Export Plug-In . SVG Version: 6.00 Build 0)  -->
<!DOCTYPE svg PUBLIC "-//W3C//DTD SVG 1.1//EN" "http://www.w3.org/Graphics/SVG/1.1/DTD/svg11.dtd" [
	<!ENTITY ns_flows "http://ns.adobe.com/Flows/1.0/">
	<!ENTITY ns_extend "http://ns.adobe.com/Extensibility/1.0/">
	<!ENTITY ns_ai "http://ns.adobe.com/AdobeIllustrator/10.0/">
	<!ENTITY ns_graphs "http://ns.adobe.com/Graphs/1.0/">
	<!ENTITY ns_vars "http://ns.adobe.com/Variables/1.0/">
	<!ENTITY ns_imrep "http://ns.adobe.com/ImageReplacement/1.0/">
	<!ENTITY ns_sfw "http://ns.adobe.com/SaveForWeb/1.0/">
	<!ENTITY ns_custom "http://ns.adobe.com/GenericCustomNamespace/1.0/">
	<!ENTITY ns_adobe_xpath "http://ns.adobe.com/XPath/1.0/">
]>
<svg version="1.1"
	 xmlns:x="&ns_extend;" xmlns:i="&ns_ai;" xmlns:graph="&ns_graphs;" i:viewOrigin="-0.5 883.2231" i:rulerOrigin="0.5 -343.1689" i:pageBounds="-0.5 883.2231 599.5 343.1689"
	 xmlns="http://www.w3.org/2000/svg" xmlns:xlink="http://www.w3.org/1999/xlink" xmlns:a="http://ns.adobe.com/AdobeSVGViewerExtensions/3.0/"
	 x="0px" y="0px" width="600px" height="540.054px" viewBox="0 17.277 600 540.054"
	 style="enable-background:new 0 17.277 600 540.054;" xml:space="preserve">
<metadata>
	<variableSets  xmlns="&ns_vars;">
		<variableSet  locked="none" varSetName="binding1">
			<variables></variables>
			<v:sampleDataSets  xmlns:v="&ns_vars;" xmlns="&ns_custom;"></v:sampleDataSets>
		</variableSet>
	</variableSets>
</metadata>
<g id="Capa_1" i:layer="yes" i:dimmedPercent="50" i:rgbTrio="#4F008000FFFF">
	<g>
		<path i:knockout="Off" style="fill-rule:evenodd;clip-rule:evenodd;fill:#FFFFFF;" d="M154.257,500.835h-6.81
			c-3.44,0-5.219,1.549-5.219,4.178c0,2.639,1.667,4.123,5.33,4.123c2.229,0,3.892-0.168,5.442-1.654
			c0.854-0.867,1.256-2.238,1.256-4.299V500.835z M154.372,513.661v-2.637c-2.125,2.117-4.126,2.975-7.734,2.975
			c-3.607,0-6.012-0.857-7.778-2.629c-1.491-1.549-2.301-3.779-2.301-6.246c0-4.863,3.386-8.352,10.023-8.352h7.675v-2.059
			c0-3.67-1.834-5.449-6.355-5.449c-3.209,0-4.748,0.75-6.354,2.811l-3.836-3.609c2.743-3.203,5.61-4.182,10.422-4.182
			c7.958,0,11.961,3.387,11.961,9.967v19.41H154.372z"/>
		<path i:knockout="Off" style="fill-rule:evenodd;clip-rule:evenodd;fill:#FFFFFF;" d="M178.593,513.661
			c-5.558,0-7.966-3.725-7.966-8.018V472.89h5.841v32.406c0,2.236,0.806,3.381,3.154,3.381h2.571v4.984H178.593z"/>
		<path i:knockout="Off" style="fill-rule:evenodd;clip-rule:evenodd;fill:#FFFFFF;" d="M198.169,513.661
			c-5.554,0-7.958-3.725-7.958-8.018V472.89h5.837v32.406c0,2.236,0.81,3.381,3.153,3.381h2.58v4.984H198.169z"/>
		<path i:knockout="Off" style="fill-rule:evenodd;clip-rule:evenodd;fill:#FFFFFF;" d="M225.084,492.819
			c-0.912-2.176-2.97-3.67-5.721-3.67c-2.747,0-4.872,1.494-5.785,3.67c-0.57,1.316-0.686,2.17-0.746,3.947h13.062
			C225.834,494.989,225.654,494.136,225.084,492.819 M212.832,500.835c0,4.982,2.636,8.129,7.385,8.129
			c3.272,0,4.987-0.918,7.049-2.979l3.715,3.496c-2.978,2.975-5.776,4.525-10.876,4.525c-7.272,0-13.053-3.842-13.053-14.891
			c0-9.391,4.872-14.826,12.312-14.826c7.782,0,12.308,5.727,12.308,13.973v2.572H212.832z"/>
		<path i:knockout="Off" style="fill-rule:evenodd;clip-rule:evenodd;fill:#FFFFFF;" d="M267.226,489.499
			c-5.267,0-6.067,4.461-6.067,9.617c0,5.15,0.801,9.676,6.067,9.676s6.013-4.525,6.013-9.676
			C273.238,493.96,272.492,489.499,267.226,489.499 M273.35,513.661v-3.094c-2.173,2.637-4.521,3.432-7.675,3.432
			c-2.918,0-5.494-0.971-7.097-2.576c-2.923-2.914-3.266-7.895-3.266-12.307c0-4.402,0.343-9.332,3.266-12.256
			c1.603-1.598,4.127-2.576,7.041-2.576c3.094,0,5.498,0.752,7.619,3.266v-14.66h5.833v40.771H273.35z"/>
		<path i:knockout="Off" style="fill-rule:evenodd;clip-rule:evenodd;fill:#FFFFFF;" d="M306.616,492.819
			c-0.916-2.176-2.978-3.67-5.725-3.67s-4.871,1.494-5.781,3.67c-0.574,1.316-0.689,2.17-0.746,3.947h13.055
			C307.362,494.989,307.186,494.136,306.616,492.819 M294.364,500.835c0,4.982,2.633,8.129,7.386,8.129
			c3.265,0,4.983-0.918,7.045-2.979l3.72,3.496c-2.98,2.975-5.781,4.525-10.881,4.525c-7.27,0-13.054-3.842-13.054-14.891
			c0-9.391,4.868-14.826,12.312-14.826c7.782,0,12.309,5.727,12.309,13.973v2.572H294.364z"/>
		<path i:knockout="Off" style="fill-rule:evenodd;clip-rule:evenodd;fill:#FFFFFF;" d="M351.562,482.112l-6.358,18.092h12.541
			L351.562,482.112z M362.271,513.661l-2.812-8.186h-16.087l-2.808,8.186h-6.586l14.948-40.771h4.979l14.945,40.771H362.271z"/>
		<path i:knockout="Off" style="fill-rule:evenodd;clip-rule:evenodd;fill:#FFFFFF;" d="M387.689,489.499
			c-5.266,0-6.068,4.465-6.068,9.617s0.803,9.674,6.068,9.674c5.268,0,6.021-4.521,6.021-9.674S392.957,489.499,387.689,489.499
			 M396.278,511.423c-1.599,1.609-4.175,2.58-7.093,2.58c-3.154,0-5.507-0.797-7.679-3.434v3.092h-5.729v-40.77h5.844v14.662
			c2.118-2.521,4.519-3.262,7.612-3.262c2.926,0,5.446,0.971,7.045,2.568c2.922,2.926,3.261,7.846,3.261,12.256
			S399.2,508.507,396.278,511.423"/>
		<path i:knockout="Off" style="fill-rule:evenodd;clip-rule:evenodd;fill:#FFFFFF;" d="M426.683,513.661v-2.924
			c-2.001,2.178-4.809,3.262-7.73,3.262c-2.976,0-5.438-0.971-7.152-2.629c-2.236-2.176-2.922-4.92-2.922-8.188v-18.549h5.835
			v17.689c0,4.523,2.581,6.469,5.838,6.469c3.269,0,6.016-2.002,6.016-6.469v-17.689h5.842v29.027H426.683z"/>
		<path i:knockout="Off" style="fill-rule:evenodd;clip-rule:evenodd;fill:#FFFFFF;" d="M459.376,491.438
			c-1.32-1.313-2.349-1.939-4.358-1.939c-3.142,0-5.777,2.521-5.777,6.523v17.639h-5.846v-29.029h5.729v3.145
			c1.488-2.057,4.47-3.486,7.73-3.486c2.808,0,4.926,0.74,6.935,2.742L459.376,491.438z"/>
		<path i:knockout="Off" style="fill-rule:evenodd;clip-rule:evenodd;fill:#FFFFFF;" d="M486.227,491.438
			c-1.315-1.313-2.344-1.939-4.35-1.939c-3.15,0-5.785,2.521-5.785,6.523v17.639h-5.838v-29.029h5.729v3.145
			c1.488-2.057,4.466-3.486,7.727-3.486c2.804,0,4.921,0.74,6.931,2.742L486.227,491.438z"/>
		<path i:knockout="Off" style="fill-rule:evenodd;clip-rule:evenodd;fill:#FFFFFF;" d="M508.043,479.364h-4.406l4.296-9.279h6.465
			L508.043,479.364z M512.053,500.839h-6.815c-3.434,0-5.216,1.545-5.216,4.178c0,2.635,1.666,4.119,5.334,4.119
			c2.226,0,3.893-0.172,5.438-1.654c0.854-0.867,1.259-2.238,1.259-4.307V500.839z M512.165,513.661v-2.633
			c-2.121,2.117-4.122,2.979-7.73,2.979c-3.607,0-6.012-0.861-7.782-2.637c-1.488-1.545-2.292-3.779-2.292-6.24
			c0-4.869,3.377-8.357,10.019-8.357h7.674v-2.066c0-3.662-1.828-5.438-6.354-5.438c-3.208,0-4.753,0.746-6.358,2.807l-3.832-3.609
			c2.742-3.209,5.606-4.176,10.419-4.176c7.962,0,11.964,3.377,11.964,9.961v19.41H512.165z"/>
		<polygon i:knockout="Off" style="fill-rule:evenodd;clip-rule:evenodd;fill:#FFFFFF;" points="130.794,462.567 130.794,439.257 
			123.151,454.419 117.868,454.419 110.178,439.257 110.178,462.567 102.367,462.567 102.367,422.573 110.063,422.573 
			120.52,444.196 130.901,422.573 138.601,422.573 138.601,462.567 		"/>
		<polygon i:knockout="Off" style="fill-rule:evenodd;clip-rule:evenodd;fill:#FFFFFF;" points="145.965,462.567 145.965,422.573 
			172.31,422.573 172.31,429.539 153.771,429.539 153.771,438.918 169.566,438.918 169.566,445.891 153.771,445.891 
			153.771,455.599 172.31,455.599 172.31,462.567 		"/>
		<polygon i:knockout="Off" style="fill-rule:evenodd;clip-rule:evenodd;fill:#FFFFFF;" points="193.157,429.539 193.157,462.564 
			185.354,462.564 185.354,429.539 174.905,429.539 174.905,422.567 203.61,422.567 203.61,429.539 		"/>
		<path i:knockout="Off" style="fill-rule:evenodd;clip-rule:evenodd;fill:#FFFFFF;" d="M223.051,429.539h-7.359v10.555h7.359
			c3.425,0,5.67-2.188,5.67-5.278C228.721,431.724,226.476,429.539,223.051,429.539 M229.115,462.567l-7.811-15.955h-5.613v15.955
			h-7.818v-39.998h15.681c8.145,0,12.973,5.56,12.973,12.246c0,5.621-3.424,9.098-7.3,10.506l8.935,17.246H229.115z"/>
		<path i:knockout="Off" style="fill-rule:evenodd;clip-rule:evenodd;fill:#FFFFFF;" d="M261.086,431.335
			c-1.124-1.292-2.87-2.137-5.008-2.137c-2.133,0-3.919,0.845-5.051,2.137c-1.516,1.682-1.914,3.54-1.914,11.231
			c0,7.702,0.398,9.55,1.914,11.24c1.132,1.284,2.918,2.131,5.051,2.131c2.138,0,3.884-0.847,5.008-2.131
			c1.511-1.69,1.962-3.538,1.962-11.24C263.048,434.875,262.597,433.017,261.086,431.335 M266.871,458.525
			c-2.814,2.807-6.239,4.382-10.793,4.382c-4.545,0-8.033-1.575-10.836-4.382c-4.051-4.047-3.931-9.046-3.931-15.959
			c0-6.906-0.12-11.903,3.931-15.948c2.803-2.813,6.291-4.388,10.836-4.388c4.554,0,7.979,1.575,10.793,4.388
			c4.043,4.045,3.982,9.042,3.982,15.948C270.854,449.479,270.914,454.479,266.871,458.525"/>
		<path i:knockout="Off" style="fill-rule:evenodd;clip-rule:evenodd;fill:#FFFFFF;" d="M291.988,429.537h-7.308v10.956h7.308
			c3.532,0,5.781-2.193,5.781-5.45C297.77,431.783,295.521,429.537,291.988,429.537 M292.379,447.514h-7.698v15.054h-7.811v-40
			h15.509c8.257,0,13.201,5.674,13.201,12.476C305.58,441.837,300.636,447.514,292.379,447.514"/>
		<path i:knockout="Off" style="fill-rule:evenodd;clip-rule:evenodd;fill:#FFFFFF;" d="M328.619,431.335
			c-1.126-1.292-2.865-2.137-4.997-2.137c-2.143,0-3.937,0.845-5.064,2.137c-1.511,1.682-1.914,3.54-1.914,11.231
			c0,7.702,0.403,9.55,1.914,11.24c1.128,1.284,2.922,2.131,5.064,2.131c2.132,0,3.871-0.847,4.997-2.131
			c1.514-1.69,1.962-3.538,1.962-11.24C330.581,434.875,330.133,433.017,328.619,431.335 M334.4,458.525
			c-2.81,2.807-6.234,4.382-10.778,4.382c-4.554,0-8.043-1.575-10.846-4.382c-4.051-4.047-3.935-9.046-3.935-15.959
			c0-6.906-0.116-11.903,3.935-15.948c2.803-2.813,6.292-4.388,10.846-4.388c4.544,0,7.969,1.575,10.778,4.388
			c4.049,4.045,3.996,9.042,3.996,15.948C338.396,449.479,338.449,454.479,334.4,458.525"/>
		<polygon i:knockout="Off" style="fill-rule:evenodd;clip-rule:evenodd;fill:#FFFFFF;" points="344.183,462.567 344.183,422.573 
			351.992,422.573 351.992,455.599 370.14,455.599 370.14,462.567 		"/>
		
			<rect x="374.41" y="422.567" i:knockout="Off" style="fill-rule:evenodd;clip-rule:evenodd;fill:#FFFFFF;" width="7.81" height="39.997"/>
		<polygon i:knockout="Off" style="fill-rule:evenodd;clip-rule:evenodd;fill:#FFFFFF;" points="404.807,429.539 404.807,462.564 
			396.999,462.564 396.999,429.539 386.551,429.539 386.551,422.567 415.256,422.567 415.256,429.539 		"/>
		<path i:knockout="Off" style="fill-rule:evenodd;clip-rule:evenodd;fill:#FFFFFF;" d="M429.632,434.367l-5.046,14.55h9.941
			L429.632,434.367z M438.967,462.567l-2.361-7.076h-14.21l-2.419,7.076h-8.146l14.553-39.998h6.124l14.603,39.998H438.967z"/>
		<polygon i:knockout="Off" style="fill-rule:evenodd;clip-rule:evenodd;fill:#FFFFFF;" points="473.695,462.567 457.848,438.017 
			457.848,462.567 450.039,462.567 450.039,422.573 457.007,422.573 472.85,447.062 472.85,422.573 480.661,422.573 
			480.661,462.567 		"/>
		<path i:knockout="Off" style="fill-rule:evenodd;clip-rule:evenodd;fill:#FFFFFF;" d="M501.326,434.367l-5.052,14.55h9.943
			L501.326,434.367z M510.654,462.567l-2.356-7.076h-14.212l-2.421,7.076h-8.146l14.558-39.998h6.115l14.605,39.998H510.654z"/>
		<path i:knockout="Off" style="fill-rule:evenodd;clip-rule:evenodd;fill:#FFFFFF;" d="M291.886,98.226l-2.222,1.626l0.631,0.147
			l0.888-0.229l0.479,0.326l1.869,0.796l-0.321,0.605l0.19,0.854l2.935,1.993l0.354-0.279l0.467,0.072l-0.171,0.123l0.235,0.147
			l0.51-0.697l-1.072-0.944l0.327-0.206l0.603-0.191l0.977,0.333l0.788,0.49l-0.788-0.885l-0.184-0.119l-0.539-0.306l-0.853-0.414
			l0.132-0.038l0.494-0.08l0.594-0.079l0.957-0.669l1.257-0.141l0.933-0.084v-0.1l0.147-0.909l0.079-0.548l1.719-1.242l-0.459,0.016
			l0.387-1.313l1.297-0.682l1.228-2.573l3.229-2.915l1.024-2.547l1.71-2.584l1.189-1.465l0.266-1.334l1.715-1.214l0.255-1.882
			l0.829-1.222l1.511-2.534l2.592-2.195l1.359-2.384l2.196-1.949l-1.187-4.943l-2.277-1.675l-2.297,0.343l-3.246-1.168l-3.212-0.758
			l-1.1,0.81l-0.767,0.81l0.962,0.067l0.105,0.603l-0.717,0.573l-1.861-0.422l-1.156,0.558l0.283,0.379l-0.396,0.263l0.144,1.336
			l-1.294,1.262l0.509,0.273l-0.366,0.263l-1.539-0.113l-0.646-0.982c-0.578,1.67-1.151,3.362-1.725,5.001
			c-0.941,2.55-2.448,4.839-4.478,6.84l-0.213,1.021l0.471,0.737l0.252,1.209l-1.069,0.631l-0.582,1.428l-0.04,1.417l-1.268,0.323
			l-0.314,0.522l0.961,2.069l-0.821,0.289l-0.482-0.042h-0.423l0.506,1.017l-0.885,0.965l0.238,0.925l0.173,0.85l-0.93-0.036
			l-0.749-0.209l-0.352,0.263l-0.445-0.021l0.645,0.933l-0.143,1.035l1.974,1.27v0.123l-0.455-0.044l-0.291-0.121l-2.097,0.018
			l0.358,0.741l0.354,0.336l1.779,0.613l-0.057,1.009L291.886,98.226z"/>
		<path i:knockout="Off" style="fill-rule:evenodd;clip-rule:evenodd;fill:#FFFFFF;" d="M54.026,425.63l3.799-4.366l2.672-4.549
			l6.208-6.524l4.855-6.505l2.632-5.32l4.725-4.087l2.217-3.076l3.033-3.659l3.381-7.205l7.089-4.561l0.49-3.126l1.751-2.483
			l3.688-4.212l4.206-5.155l1.985-3.766l3.03-1.26l-0.519,1.228l0.263,0.622l1.297,0.658l2.527-4.841l1.69,1.895l2.699,0.079
			l0.952-2.328l-1.427-1.279l-1.145-0.308l-2.276,0.945l0.586-3.144l0.77-0.317l-1.021,0.107l-11.028,4.361h-1.024l-0.514,0.876
			l-2.548-0.431l-1.559-2.622h-1.072h-1.049l-1.089,1.075l1.089,1.102l-2.611,0.445h-3.078l-2.56-4.679l-1.679-5.278l-3.576-2.044
			l0.49-5.119l8.867-8.864l6.81-0.561l15.174-4.246l7.83-0.524l7.253-2.187l3.671-0.963l4.23-2.544h3.685l0.299-1.194l0.881-2.154
			l0.442-1.07l1.981,2.727l0.18,0.193l0.354-0.191l4.617-0.961l-2.428-1.599l2.121-2.783l0.961-2.053l2.196-0.917l0.407-2.213
			l0.613,0.566l1.005-2.119l0.526-1.543l3.207-4.101l4.177-3.214l1.017-1.596v-2.566l1.534-1.006l5.65-3.603l-1.036-0.433
			l3.081-3.156l2.029-3.149l1.108-1.535l0.502-2.627l0.531-0.45l2.468-1.878l2.663-3.076l2.548-3.722l3.081-3.02l1.093-1.117
			l-1.093-0.57l0.646-0.942h0.446l2.774-2.042l-0.661-3.946l0.215-0.144l1.763-1.396l0.282-0.578l1.388-2.625l0.224-0.151
			l1.83-1.398l0.506-2.267l0.061-0.305l1.555-1.08l1.033-1.087l1.231-2.007l1.387-2.197l1.99-3.588l0.653-1.076h1.013l0.547-0.438
			v-1.607l2.024-2.567v-1.679l1.6-0.465v-1.517l6.737-7.312l4.769-8.935l2.104-1.546l1.535-2.114l2.563-4.175l2.186-4.748
			l2.575-2.552l1.025-3.676l4.852-1.164l1.093-3.668l0.263-2.994l1.603-2.054l1.543-3.105l1.112-2.661l1.543-1.539l0.511-2.127
			l1.084,0.576l1.547-3.65l2.552-3.226l2.129-3l3.923-1.776l-0.674-1.1l1.093-0.494l0.455-1.687l2.531-2.496l1.116-3.146
			l1.535-1.103l-1.547-2.562l2.579-1.447l1.579-3.724l1.482-3.677l2.644-3.081l2.09-3.063l1.112-4.772l3.241-3.197l2.644-4.086
			l0.419-2.638l1.104-3.75l3.66-2.054l3.672,1.548h4.171v4.256l2.552,1.966v1.68l1.08,0.449l-1.535,10.463l-2.097,11.484
			l-1.556,1.112l-0.59,2.032v3.06l-2.025,1.103l-0.59,3.146l0.59,1.62h-1.108l-1.028,1.538v3.067l-1.535,2.183v7.322l-2.129,3.518
			l-2.635,3.665l-0.419,3.149l-1.623,3.146v5.261l-2.062,3.594v5.762l-2.177,3.157l-1.547,3.22l-0.446,1.968v3.676l-2.197,4.756
			v6.734l-1.467,2.535l-1.064,3.718l-1.559,4.116l-2.125,4.776l0.442,4.745l-1.535,3.644l-0.45,4.19l-1.523,4.17h-0.578
			l-1.551,6.706l-1.093,7.34l-1.032,0.578l-0.957,0.965l0.435,5.173l-1.519,4.328l-1.101,2.578l0.515,2.633l-2.046,1.024v2.031
			v3.142l-1.614,1.548l-0.442,6.301l-2.181,4.755v4.078l-2.058,2.646l-0.582,2.645v2.557h-0.463l-0.502,0.508l0.965,0.566
			l-1.479,3.094l-0.442,3.724l-2.185,6.252l-0.256,4.142l-3.975,14.823l0.61-0.217l1.243-1.31l2.233-0.603l1.722-0.757l1.799-3.379
			l0.952,0.777l0.945-2.41l1.918-1.313l2.407-1.602l1.711-3.297l3.425-3.58l3.887-2.944l0.427-2.147l1.591-0.143l0.559-0.463
			l0.22-1.088l2.348-0.485l0.511-2.514l1.383,0.829l1.782-3.484l2.285-3.314l0.813-4.033l2.636-2.592l1.324-9.462l3.728-7.657
			l1.582-2.295l2.995-1.561l5.462,1.57l1.295,1.979l2.429,0.998l3.325-3.115l4.314-0.252l0.51-0.343l0.215-1.057l6.012-0.291
			l5.26-0.052l2.755,2.14l1.577,2.93l1.177,1.956l1.38,1.26l-1.372,6.748v4.683l-2.861,4.278l-0.203,3.153l-2.388,4.304
			l-0.898,6.756l-1.61,0.187l-0.65,1.005l-2.097,6.894l2.734,4.96l5.116-1.662l4.416-0.806l4.39-5.371l5.931-3.188l5.087-9.497
			l1.559-9.84l3.273-6.228l2.005-5.902l2.065-4.313l1.523-2.506l2.093-2.65l2.045-3.467l2.229-0.662l0.86-1.386l2.947-1.557
			l3.101-2.073l2.178-0.255l1.627-0.124l4.524,1.069l1.448,1.295l2.344,1.595l0.709,1.737l0.52-0.394l-0.021,2.651l1.778,1.913
			l-0.638,3.146l1.095,2.305l-0.501,5.794l-2.477,3.715l-0.521,2.569l-2.317,3.32l-0.166,0.603l-0.407,0.121l-0.622,0.009
			l-2.025,2.28l-1.759,3.45l-1.115,0.702l-0.79,0.921l-2.01,1.33l-1.671,1.172l-2.447,1.574l-2.188,2.094l-0.573,0.618l-0.584,0.414
			l-0.322,1.575l0.295,1.015l5.951-0.355l5.89-0.368l2.887-0.953l1.432-1.899l2.145,0.444l1.12-0.285l0.204-1.011l2.714-0.569
			l2.803-0.579l3.98-3.789l3.814-3.036l0.518-0.865l0.607-0.562l0.833-0.721l2.907-3.291l1.642-3.325l3.788-2.531l2.345-3.756
			l2.591-2.091l2.141-2.77l1.546-2.355l1.904-1.748l1.937-1.82l1.957-1.631l1.866-3.943l1.771-3.319l2.424-1.21l1.706-0.697
			l2.19-3.113l2.817-3.25l2.675-2.684l2.712-1.239l1.38-0.609l-0.285-1.177l6.604,1.344l4.26-2.267l0.204-1.001l5.104,1.034
			l2.153,2.612l-0.512,2.495l1.17,1.891l0.31,1.618l1.357,0.873l-1.656,8.118l-1.068-0.224l-0.518,0.486l0.405,0.081l0.962,0.738
			l-2.898,3.574l-1.151,5.682l-0.654,6.343l2.184,4.639l-0.597,0.333l6.266,2.296l0.16,0.126l-0.175-0.03l-0.885-0.187l-0.112,0.55
			l0.886,0.184l0.762,0.155l0.115-0.555l10.095-3.516l3.178-0.961l6.55-1.38l3.19-1.224h2.622l3.489-0.929l2.978-1.432l5.495-1.2
			l4.792-1.669l3.217-1.842l3.88-0.46l1.774-0.656l1.52-1.051l1.87,0.005l4.177-2.504l2.229,0.054l0.543-0.17l2.978-1.076
			l1.746-1.085l1.519,0.31l-0.518,0.389l-0.047,0.349l0.334,0.656l2.24-1.411l0.183,1.312l1.05,0.791l0.969-0.745l-0.235-0.963
			l-0.38-0.454l-1.144-0.235l1.037-1.209l0.765,0.154l1.642-0.107l0.902-1.055l0.569,1.351l1.548,0.75l1.571-2.456l0.127-0.109
			l4.193-2.131l1.058-0.048l0.973,0.016l1.731-0.58l1.45-1.859l0.092,0.235l0.49,1.164l1.102,0.602l0.417-0.295l0.204-1.248
			l-0.802-0.163l-0.718-0.147l1.446-1.51l0.895-0.691l0.455-0.345l0.083,1.76l0.1,0.706l0.12,0.711l2.024-0.095l1.795-1.322
			l0.179-0.091l0.617-0.304l1.676-0.036l-0.152,0.899l-0.06,0.367l1.64-0.05l-0.817,0.029l0.856,2.167l0.179,0.622v0.737v0.854
			l-0.015,1.974l-0.072-0.264l-0.167-0.037l-0.068,0.393l0.243,0.299l-0.435,2.667l-0.291-0.012l-0.567,0.032l-1.837,0.927
			l-0.481,0.827l-0.144,0.903l-2.105-0.848l-0.559-0.251l-0.112-1.313l-0.721-0.525l-1.877,1.294l-0.715,0.797l-0.717,0.775
			l-0.379-0.071l-0.402-0.084l0.091-0.548l-0.686-0.869l-0.715-0.147l-0.64,1.17l-0.265,1.614l-0.23-0.044l-2.76-0.929l-1.146,1.072
			l-0.799,0.71l-4.509,1.828l-0.655,0.241l-2.163,1.97l-0.341-0.939l-1.068-0.636l-1.084,1.518l-0.271,1.648l-1.87-0.383
			l-1.343,0.669l-0.208,1.28l-1.883-0.752l-0.452-1.973l0.122-0.773l-0.243-0.955l-1.603,2.314l-0.212,1.27l-0.203,1.264
			l-1.096-0.59l-0.155-0.247l-2.278,0.67l-0.317,1.563l-2.73-0.056l-1.831,1.196l-2.891,0.351l-3.121,0.582l-2.592,2.031
			l-5.941,2.107l-4.177,0.383l-4.136,3.611l-5.6-1.21l-4.948,0.543l-3.167,1.348l-3.03,0.528l-2.275,1.499l-4.387,0.875l-2.566,0.64
			l-9.449,4.497l-11.068-2.249l-0.841-1.281l-0.657,0.528l-0.42-0.084l0.134-0.634l0.496-0.339l-1.905-0.841l-2.592-0.531
			l-0.748,1.657l-0.966,0.979l-0.853,1.286l-1.253,1.725l-1.334,0.977l-1.527,1.228l-1.424,1.284l-0.694,1.411l-1.354,0.235
			l-2.045,2.247l-1.818,1.15l-1.062-0.212l-0.77,0.14l-0.382,0.038l-0.223,1.101l-2.513-0.515l-1.224,0.877l-0.204,1.011
			l-5.391-2.151l-5.505-2.234l-1.647-1.899l-1.771-1.882l-0.881-0.855l-1.702,0.335l-1.818,1.148l-1.398,1.727l-1.785,0.741
			l-2.446,1.765l-0.087,0.406l0.438,0.088l-2.891,1.046l-3.038,2.094l-4.602,1.742l-4.32,2.772l-3.923,0.859l-3.863,0.757
			l-4.696,2.193l-4.613,1.746l-2.831,1.083l-3.241-0.13l-0.582,0.08l-4.381,1.048l-5.092-1.032l-1.751-2.062l-3.001-1.053
			l-3.806,2.965l-3.751,2.948l-1.012,1.818l-2.109,0.697l-6.251,3.58l-5.555,4.194l-1.714,0.741l-0.204,1.001l-2.508-0.513
			l-1.772,0.698l-0.191,0.933l-5.109-1.04l-2.666-2.573l-3.971-1.846l-2.703-2.109l-0.566-4.977l-0.031-4.855l-0.49-1.631
			l0.082-0.875l-0.066-0.739l0.766-0.431l-0.041-0.722l0.08-0.85l0.758-0.028l-0.1-0.831l-0.012-0.504l0.362,0.026l0.591-2.048
			l0.586-0.862l0.171-0.859l0.471-0.132l0.713-0.985l-0.864-1.112l0.657-0.406l0.614-0.492l-0.303-3.852l0.816-4.017l3.016-4.25
			l0.916-4.483l-0.896-0.815l-1.48-0.301l-3.109,2.068l-2.592,2.079l-2.368,3.903l-2.229,3.216l-2.914,3.674l-1.79,3.373
			l-2.771,3.704l-2.2,2.677l-0.205,0.997l-2.658,2.742l-0.733,3.603l-2.436,1.072l-1.926,1.693l-1.076,3.06l-2.564,1.579
			l-0.626,0.841l-1.132,0.442l-2.081,2.623l-1.719,2.879l-2.611,1.121l-1.674,2.765l-3.182,1.493l-2.384,2.611l-3.796,1.279
			l-1.352,0.989l-3.39,1.03l-2.655,0.582l-4.696,2.191l-6.649,2.133l-3.465,0.502l-1.595,0.72l0.243-0.528l-0.415,0.312
			l-1.061-0.724l-3.46,0.107l-1.719-2.647l-0.295-3.199l0.917-5.435l0.111-3.5l1.134-2.674l0.78-2.404l0.45-5.269l0.901-1.73
			l1.694-5.21l0.431-5.107l2.123-4.736v-5.226l2.041-3.644v-0.532l-0.444-0.574v0.574h-1.073v-0.574l1.518-3.66l2.127-3.064v-4.754
			l1.037-3.674l0.937-3.592l0.594-3.599l2.192-4.296v-5.199l1.533-3.056v-4.784l1.453-1.003l0.606-2.037v-5.205l0.945-0.584
			l0.657-1.099l0.419-4.608l2.201-3.68v-5.785l0.973,0.526l0.586-0.526l-0.586-1.516l1-3.733l1.615-3.008l0.965-6.962l1.104-6.721
			l2.108-3.645l0.511-4.617h1.097l1.021-6.283l1.555-3.66v-4.174l2.113-3.674l1.519-4.244l0.522-4.685l-0.957-3.568l-1.67,1.543
			v3.129l-2.561,0.957l-1.542,2.117l-1.097,3.162l-1.084,2.025l-2.058,2.202l-1.547,1.968l-1.615,3.241l-1.526,3.055l-2.113,2.631
			l-1.61,3.17l-1.978,1.539l-1.619,1.515l-2.627,4.174l-2.037,5.351h-1.037l-0.59,0.949v1.076l-2.632,2.079l-1.535,3.07v1.09
			l-1.965,2.189l-2.213,2.571v1.024v0.959l-2.045,0.584l-0.511,2.025l0.511,0.61l-2.038,2.101l-2.137,3.07l-1.088,2.209l-1.46,1.534
			l-1.603,1.476l-0.566,2.623h0.566l-1.679,0.578l-0.889,0.965l-2.492,2.855l-1.231,1.389l-2.592,4.681h-0.06l-2.345,2.343
			l-0.211,0.209l-1.38,3.505l-0.303,0.755l-1.455,1.611l-0.303,0.203l-1.261,1.334l0.455,1.01l-0.455,1.015l-1.522,1.115
			l-0.63,1.537l-3.098,2.629l-2.544,2.037l-0.586,2.634l-1.567,0.958l-0.506,2.634v2.225l3.082,0.399l3.221-1.533l-0.657-0.509
			h4.808l1.261-0.72l2.061-1.231l0.283-0.174l1.308,0.888l1.858,1.237h0.486h2.133l0.934,0.509l0.816,0.452l0.291,0.151
			l-0.291-1.694l-0.14-0.94l0.14-0.429l0.822-2.223v1.614l0.562,1.551l1.108,0.427h0.889l0.662-2.634l2.037-0.458v0.458h-0.506
			l0.506,0.656h1.017l-0.435,6.229l-1.603,1.531l-1.679,0.516l-0.446,1.025v1.104l1.559,0.505l0.566,1.013h-5.06h-1.231
			l-2.651,1.772l-2.037,1.465l-0.308,0.714l-0.211,0.825l-1.097,1.537h-0.283h-1.264v-0.532l-0.494-0.574l-0.303,0.231l-1.261,0.875
			l-1.522,0.431l-1.116,2.187l-0.482-0.521h-1.029v-2.097l-1.1-1.106l-1.556,1.537l-1.574,1.666l-3.161,0.521l-1.535,2.062
			l-0.522-0.543l-0.511-0.492l-1.614-0.502l-1.583,4.101l-2.041,0.806l-1.037-0.235l-3.684,1.057l-2.097,1.419l0.322,0.773
			l-2.918,0.67h-0.008l-8.461,3.312l-0.358,1.676l-0.471,2.071l-0.757,0.315l-0.794,0.324l-0.411-0.975l-2.133-0.628l-1.432,0.598
			l0.085,2.62l1.207,2.912l-0.462,0.193l-5.893,1.675l-0.93,3.056l-0.693,2.069l-6.147,8.141l-0.913,1.15l-1.826,5.661l-1.575-1.12
			l-2.56,0.198l-0.371,3.702l1.24,2.962l-3.731,1.547l-1.702,2.627l0.955,2.305l-4.137,0.959l-2.878-2.669l-0.571-1.38l-1.435-1.26
			l-0.451,5.581l1.898,4.562l-2.572,0.311l-2.296-0.944l-3.58,4.143l-1.667,4.501l-6.65,3.57l0.974,2.358l-3.664,2.38l-1.344,3.226
			l-3.532,3.039l-3.624,3.572l-1.619,5.017l-5.98,8.119l-5.199,4.258L73,435.916l-8.52,3.4l-10.391,7.711l-3.521,0.107
			l-0.012-12.383l0.012-7.481 M427.447,297.479l2.999-5.366l-0.112-6.078l-2.261-4.679l-5.466,4.643l-3.584,4.359l-1.894,3.156
			l-3.051,3.184l-2.849,4.936l-1.206,5.119l0.092,2.44l1.627,1.024l0.829,0.04l0.63,0.988l1.715-0.762l2.057-0.933l0.16-0.107
			l1.811-3.39l3.556-1.349l0.529-2.586l1.484-1.782l0.442-0.854l0.582-0.454L427.447,297.479z M352.844,304.049l1.289-1.683
			l1.34-0.626l2.666-3.241l1.623-2.746l0.738-3.66l-1.658-2.329l-3.194,1.29l-3.364,3.461l-1.879,4.941l-1.19,3.608l0.083,3.237
			l3.32-1.128L352.844,304.049z"/>
		<polygon i:knockout="Off" style="fill-rule:evenodd;clip-rule:evenodd;fill:#FFFFFF;" points="193.05,314.692 193.05,316.221 
			193.803,315.934 194.086,315.771 194.604,314.692 193.803,314.692 		"/>
		<polygon i:knockout="Off" style="fill-rule:evenodd;clip-rule:evenodd;fill:#FFFFFF;" points="194.604,313.227 194.604,313.653 
			195.394,313.653 196.287,313.653 196.287,313.227 195.394,313.227 		"/>
		<polygon i:knockout="Off" style="fill-rule:evenodd;clip-rule:evenodd;fill:#FFFFFF;" points="200.805,310.575 200.805,312.139 
			201.617,312.139 202.443,312.139 202.443,310.575 201.617,310.575 		"/>
		<polygon i:knockout="Off" style="fill-rule:evenodd;clip-rule:evenodd;fill:#FFFFFF;" points="177.405,305.933 177.405,304.292 
			176.883,304.292 176.368,304.292 176.368,305.402 176.883,305.632 		"/>
		<polygon i:knockout="Off" style="fill-rule:evenodd;clip-rule:evenodd;fill:#FFFFFF;" points="120.759,513.661 115.951,513.661 
			102.551,472.89 108.966,472.89 118.359,502.548 127.744,472.89 134.271,472.89 		"/>
	</g>
</g>
</svg>
